<?xml version="1.0" encoding="UTF-8"?>
<!DOCTYPE svg PUBLIC "-//W3C//DTD SVG 1.1//EN" "http://www.w3.org/Graphics/SVG/1.1/DTD/svg11.dtd">
<!-- Creator: CorelDRAW 2019 (64-Bit) -->
<svg xmlns="http://www.w3.org/2000/svg" xml:space="preserve" width="124.384mm" height="121.558mm" version="1.1" style="shape-rendering:geometricPrecision; text-rendering:geometricPrecision; image-rendering:optimizeQuality; fill-rule:evenodd; clip-rule:evenodd"
viewBox="0 0 3764.35 3678.8"
 xmlns:xlink="http://www.w3.org/1999/xlink">
 <defs>
  <style type="text/css">
   <![CDATA[
    .fil2 {fill:#FEFEFE}
    .fil0 {fill:#F59F15}
    .fil3 {fill:#EC6832}
    .fil6 {fill:#ED7849}
    .fil1 {fill:#F8F8F9}
    .fil5 {fill:#989798}
    .fil4 {fill:#1F1E21}
    .fil7 {fill:#0A4A74}
   ]]>
  </style>
 </defs>
 <g id="Layer_x0020_1">
  <metadata id="CorelCorpID_0Corel-Layer"/>
  <path class="fil0" d="M2221.08 2789.22c-6.69,6.89 -32.37,2.84 -41.83,2.84 -15.29,-0 -30.58,0 -45.86,0.01l-267.95 0c-59.54,-0.01 -119.09,0 -178.64,0 -14.48,0 -29,-0.1 -43.47,0.03 -24.4,0.21 -26.56,4.63 -26.23,-19.62 0.45,-32.21 -5.02,-58.2 13.91,-77.67 18.78,-19.3 42.31,-15.08 75.11,-15.05l446.59 0.01c58.67,-0.08 70.72,11.6 70.62,66 -0.02,9.23 2.25,38.82 -2.24,43.45zm-111.83 -178.66l-31.38 0.01c-61.25,0.02 -318.04,2.53 -358.47,-0.93 0.18,-23.38 25.22,-51.54 41.61,-64.78 36.89,-29.8 71.26,-26.91 116.5,-26.9 32.75,0.02 136.35,-4.39 168.04,6.8 34.62,12.23 58.69,39.58 73.19,72.07 5.33,11.95 5.27,13.72 -9.49,13.72zm-253.14 -323.07c6.33,-0.23 36.17,4.84 64.85,4.85 19.19,0.01 54.31,-4.55 67.65,-3.07l0.17 158.6c-25.31,2.45 -78.25,0.28 -108.9,0.71 -18.71,0.26 -24.5,4.65 -24.99,-13.92 -1,-38.31 -3.05,-111.35 1.23,-147.17zm-261.41 -401.07c-7.9,-89.29 -23.38,-140.22 -29.29,-227.02 -1.52,-22.39 -11.29,-51.41 -8.59,-74.39 49.37,-4.56 119.42,-0.59 171.02,-0.57l514.18 0c56.74,0 43.97,-7.31 39.42,39 -5.2,52.98 -15.3,105.97 -19.67,152.09 -2.41,25.35 -6.97,51.19 -9.57,75.01 -6.06,55.45 -13.86,92.72 -31.44,139.91 -27.88,74.89 -76.05,136.8 -139.26,181.96 -4.96,3.54 -7.32,4.35 -11.89,7.51l-27.51 15.87c-48.95,26.09 -126.93,36.99 -180.88,22.54 -39.4,-10.55 -83.77,-31.63 -114.35,-56.45 -31.73,-25.75 -62.03,-54.51 -83.12,-88.15l-23.44 -41.99c-11.72,-19.19 -24.84,-52.73 -30.74,-75.64 -3.26,-12.67 -3.39,-26.46 -6.94,-37.01 -3.09,-9.21 -6.9,-21.2 -7.91,-32.68zm767.27 -364.55c0.03,-51.7 26.18,-51.04 61.09,-51.11l156.72 0.68c2.96,30.55 -4.4,58.27 -10.2,83.53 -11.51,50.14 -11.95,58.24 -34.22,103.38 -5.68,11.51 -9.34,19.53 -15.17,30.6 -45.07,85.5 -119.24,157.61 -187.12,228.15 -6.88,7.15 -13.52,18.94 -23.05,21.91 -0.81,-13.94 17.13,-131.79 19.82,-155.95l16.02 -116.6c2.21,-16.76 -0.57,-38.79 13.47,-37.09 0.07,0.01 5.91,2.17 6.57,2.46 55.89,23.98 146.25,-13.65 146.53,-105.12 0.16,-53.62 -42.82,-54.06 -65.26,-26.63 -6.8,8.33 -2.88,22.9 -4.27,33.79 -6.07,47.51 -80.97,51.01 -80.94,-12zm-831.18 413.63c-12.17,-2.95 -55.69,-52.98 -64.26,-62.93 -39.46,-45.8 -109.95,-111.11 -139.91,-173.91 -17.99,-37.73 -44.38,-92.1 -52.04,-133.8 -2.17,-11.8 -4.73,-15.69 -6.65,-24.37 -2,-9.02 -2.32,-18.14 -3.59,-27.92 -5.84,-44.69 -5.87,-42.2 14.3,-42.01 41.89,0.38 83.82,0.21 125.72,0.2 50.71,-0.02 75.44,-2.45 75.53,51.1 0.03,18.01 1.16,20.77 -9.08,32.5 -24.79,28.38 -64.81,15.85 -72.43,-18.98 -2.66,-12.18 3.4,-47.36 -30.75,-52 -24.62,-3.35 -38.22,17.45 -38.21,40.89 0.02,61.49 42.41,109.33 96.54,112.04 11.06,0.55 23.02,0.36 34.05,-0.52 15.95,-1.27 17.21,-5.47 29.42,-6.06 5.6,17.61 7.69,55.4 10.37,77.48l30.99 228.27zm-340.37 -493.29c0.1,57.89 11.2,121.6 27.91,176.31 16.94,55.48 36.68,92.32 63.27,139.78 8.1,14.44 18.63,26.37 27.61,39.72 10.42,15.5 17.62,24.62 31.05,39.07l195.93 209.57c27.74,29.41 40.11,55.75 40.21,98.02 0.1,41.42 -18.42,83.35 -44.9,100.69 -36.15,23.66 -80.21,-21.06 -41.89,-61.35 12.37,-13 24.06,-20.23 34.76,-35.28 12,-16.89 5.96,-44.5 -11.72,-50.04 -25.34,-7.94 -35.85,2.24 -53.15,19.03 -26.58,25.81 -49.97,49.21 -53.16,89.73 -1.98,25.18 3.68,44.68 12.59,60.33 43,75.58 154.91,79.72 211.21,-42.05 9.56,-20.68 9.2,-37.93 15.08,-57.38 9.55,1.92 37.9,31.71 47.58,40.32 14.8,13.15 35.27,27.49 53.5,36.06 7.55,3.55 10.23,6.26 18.34,10.39 23.58,12 21.29,14.62 21.28,41.64l-0.2 158.79c-16.58,8.52 -33.65,12.63 -49.56,23.38 -6.75,4.55 -15.92,9.14 -21.51,14.58 -26,25.31 -46.86,52.57 -59.58,87.65 -3.34,9.23 -5.77,22.64 -8.66,29.96 -28.96,11.22 -50.89,16.38 -71.09,42.43 -35.15,45.33 -27.64,107.53 -27.63,164.63 0,40.31 28.31,43.6 61.85,43.53l634.9 0.02c18.49,0.1 25.65,0.31 36.19,-9.79 9.89,-9.47 11.98,-16.08 11.97,-33.76l-0.02 -86.9c0.02,-54.29 -29.2,-96.33 -76.83,-113.48 -4.28,-1.54 -5.31,-2.08 -10.09,-4.12 -15.91,-6.8 -11.8,-11.17 -18.86,-29.79 -14.1,-37.16 -33.74,-71.47 -66.73,-95.19 -17.55,-12.61 -39.45,-24.17 -61.83,-27.79l-1.19 -194.61c4.59,-3.83 11.74,-7.57 18.03,-10.83l27.67 -15.81c3.83,-2.63 0.45,-0.38 4.13,-3.19l22.51 -15.37c35.77,-19.24 54.55,-50.52 66.81,-52.28 11.43,28.69 6.34,56.13 40.27,99.71 29.66,38.1 69.1,60.59 121.71,48.28 6.47,-1.51 7.38,-1.57 13.13,-4.17 55.79,-25.13 84.82,-93.56 51.19,-150.7 -8.87,-15.07 -54.89,-65.16 -72.15,-67.52 -20.06,-2.74 -38.7,11.38 -40.41,28.58 -3.82,38.56 48.85,51.39 56.78,82.71 5.74,22.68 -7.82,39.24 -24.78,44.14 -37.58,10.87 -65.94,-38.39 -72.04,-68.14 -20.58,-100.28 39.27,-136.3 85.19,-187.02 19.38,-21.41 48.34,-55.24 67.75,-72.47 39.68,-35.23 99.81,-107.82 129.65,-152.66 14.29,-21.48 28.81,-43.77 38.62,-67.26l20.38 -50.18c10,-26.23 20.46,-52.23 25.45,-80.23 1.84,-10.32 2.66,-23.25 3.87,-31.16 5.15,-33.56 10.4,-65.44 10.35,-98.55 -0.08,-51.05 -43.5,-39.59 -90.54,-39.57l-156.91 0c-108.83,-0.04 -108.3,103.82 -113.46,109.41 -0.51,0.37 -1.37,0.14 -1.68,0.87 -0.31,0.74 -1.3,0.66 -1.74,0.79 -16.41,4.57 -712.32,1.3 -720.77,1.29 -25.96,-0.05 -12.84,-7.25 -23.09,-37.13 -15.56,-45.36 -53,-75.09 -107.27,-75.21l-205.19 0.01c-19.61,0.02 -20.03,-0.31 -29.25,10.5 -8.41,9.86 -10.91,11.18 -10.88,29.05z"/>
  <path class="fil0" d="M1876.37 1815.02c-14.07,-2.47 -23.42,2.77 -36.72,-4.22 -32.9,-17.31 -31.86,-52.46 -3.02,-81.14 36.21,-36.02 61.13,-72.6 98.03,-62.92 22.98,6.03 32.04,23.97 31.91,50.62 -0.12,26.57 -0.04,53.15 -0.04,79.71 0,54.83 -2.88,148.14 1.44,203.89 18.55,1.42 26.63,-0.94 39.93,8.32 23.96,16.69 30.41,80.34 -31.44,80.33l-111.04 -0.02c-33.36,-0.01 -51.32,-20.75 -47.43,-51.24 5.73,-44.8 52.45,-34.34 56.51,-38.51 5.11,-12.38 3.32,-159.96 1.86,-184.82zm-319.55 -230.01c-2.7,22.98 7.07,52 8.59,74.39 5.91,86.8 21.39,137.73 29.29,227.02 1.01,11.48 4.82,23.47 7.91,32.68 3.55,10.54 3.68,24.34 6.94,37.01 5.9,22.91 19.02,56.45 30.74,75.64l23.44 41.99c21.09,33.64 51.39,62.39 83.12,88.15 30.58,24.82 74.95,45.89 114.35,56.45 53.96,14.45 131.94,3.55 180.88,-22.54l27.51 -15.87c4.57,-3.15 6.93,-3.96 11.89,-7.51 63.21,-45.16 111.38,-107.07 139.26,-181.96 17.57,-47.19 25.38,-84.46 31.44,-139.91 2.61,-23.83 7.17,-49.66 9.57,-75.01 4.37,-46.13 14.48,-99.12 19.67,-152.09 4.55,-46.31 17.32,-39 -39.42,-39l-514.18 0c-51.59,-0.02 -121.65,-3.99 -171.02,0.57z"/>
  <path class="fil1" d="M2221.08 2789.22c4.49,-4.63 2.22,-34.22 2.24,-43.45 0.1,-54.41 -11.95,-66.08 -70.62,-66l-446.59 -0.01c-32.8,-0.03 -56.33,-4.25 -75.11,15.05 -18.93,19.46 -13.46,45.46 -13.91,77.67 -0.34,24.25 1.83,19.83 26.23,19.62 14.48,-0.13 29,-0.03 43.47,-0.03 59.55,0 119.09,-0.01 178.64,0l267.95 0c15.29,-0.01 30.58,-0.01 45.86,-0.01 9.45,0 35.14,4.06 41.83,-2.84z"/>
  <path class="fil1" d="M2361.97 1521.87c-0.04,63.01 74.87,59.51 80.94,12 1.39,-10.89 -2.53,-25.47 4.27,-33.79 22.44,-27.44 65.42,-26.99 65.26,26.63 -0.27,91.48 -90.64,129.11 -146.53,105.12 -0.66,-0.28 -6.5,-2.45 -6.57,-2.46 -14.04,-1.7 -11.26,20.33 -13.47,37.09l-16.02 116.6c-2.69,24.16 -20.63,142.02 -19.82,155.95 9.53,-2.97 16.17,-14.76 23.05,-21.91 67.88,-70.54 142.05,-142.65 187.12,-228.15 5.83,-11.07 9.49,-19.09 15.17,-30.6 22.27,-45.13 22.71,-53.23 34.22,-103.38 5.8,-25.27 13.16,-52.99 10.2,-83.53l-156.72 -0.68c-34.91,0.07 -61.06,-0.59 -61.09,51.11z"/>
  <path class="fil1" d="M1530.79 1935.5l-30.99 -228.27c-2.69,-22.08 -4.77,-59.87 -10.37,-77.48 -12.21,0.58 -13.47,4.78 -29.42,6.06 -11.03,0.88 -22.99,1.07 -34.05,0.52 -54.13,-2.71 -96.52,-50.55 -96.54,-112.04 -0.01,-23.44 13.59,-44.24 38.21,-40.89 34.15,4.64 28.08,39.82 30.75,52 7.62,34.82 47.64,47.36 72.43,18.98 10.24,-11.73 9.11,-14.5 9.08,-32.5 -0.09,-53.55 -24.82,-51.12 -75.53,-51.1 -41.9,0.01 -83.83,0.18 -125.72,-0.2 -20.17,-0.19 -20.15,-2.68 -14.3,42.01 1.28,9.78 1.59,18.89 3.59,27.92 1.92,8.68 4.48,12.57 6.65,24.37 7.66,41.69 34.05,96.07 52.04,133.8 29.96,62.81 100.45,128.11 139.91,173.91 8.57,9.95 52.09,59.98 64.26,62.93z"/>
  <path class="fil2" d="M1876.37 1815.02c1.46,24.86 3.25,172.45 -1.86,184.82 -4.06,4.17 -50.78,-6.29 -56.51,38.51 -3.89,30.49 14.06,51.24 47.43,51.24l111.04 0.02c61.85,0.01 55.4,-63.64 31.44,-80.33 -13.3,-9.26 -21.38,-6.9 -39.93,-8.32 -4.33,-55.75 -1.44,-149.06 -1.44,-203.89 0,-26.57 -0.08,-53.14 0.04,-79.71 0.13,-26.65 -8.93,-44.59 -31.91,-50.62 -36.9,-9.68 -61.82,26.9 -98.03,62.92 -28.84,28.69 -29.88,63.84 3.02,81.14 13.3,7 22.65,1.76 36.72,4.22z"/>
  <path class="fil1" d="M2109.25 2610.56c14.76,-0.01 14.82,-1.78 9.49,-13.72 -14.5,-32.5 -38.57,-59.84 -73.19,-72.07 -31.69,-11.19 -135.29,-6.79 -168.04,-6.8 -45.24,-0.02 -79.61,-2.9 -116.5,26.9 -16.39,13.24 -41.43,41.4 -41.61,64.78 40.42,3.46 297.21,0.95 358.47,0.93l31.38 -0.01z"/>
  <path class="fil1" d="M1856.11 2287.49c-4.28,35.82 -2.23,108.86 -1.23,147.17 0.49,18.57 6.28,14.18 24.99,13.92 30.65,-0.42 83.59,1.75 108.9,-0.71l-0.17 -158.6c-13.33,-1.47 -48.45,3.08 -67.65,3.07 -28.68,-0.02 -58.52,-5.09 -64.85,-4.85z"/>
  <path class="fil3" d="M1227.81 1277.74c17.76,11.1 54.97,9.33 72.23,29.07 16.12,18.42 17.34,57.62 27.11,73.23 7.03,-5.99 4.35,-5.87 5.93,-17.81 0.84,-6.4 2.55,-13.8 4.19,-20.2 7.71,-30.02 18.39,-41.97 49.1,-48.23l28.44 -6.82c8.01,-1.93 5.7,-0.19 7.8,-5.49 -7.64,-4.44 -27.53,-9.45 -37.1,-11.58 -61.01,-13.52 -48.78,-76.11 -63.97,-87.43 -2.46,3.62 -8.31,30.83 -9.55,36.52 -6.24,28.68 -15.65,38.84 -46.95,46.68l-32.82 8.63c-4.2,2.19 -2.5,1.41 -4.42,3.43z"/>
  <path class="fil4" d="M2376.89 1295.51c4.22,9.74 36.75,6.46 52.73,21.87 12.32,11.88 11.98,44.41 21.92,53.11 14.5,-20.98 -3.26,-48.73 40.74,-60.69 8.6,-2.34 22.1,-4.09 27.2,-8.68 -6.65,-12.2 -50.79,-3.21 -62.32,-44.7 -1.5,-5.38 -2.43,-8.49 -4.19,-14.51l-7.45 -9.95 -2.61 8.55c-7.22,27.44 -5.2,37.68 -37.83,47.41 -6.07,1.81 -23.82,5.03 -28.18,7.58z"/>
  <path class="fil3" d="M1759.14 1410.78c2.85,12.81 31.96,4.99 46.26,20.62 7.69,8.4 10.69,24.98 13.03,37.71 1.51,8.24 -0.92,7.82 5.75,10.35 10.17,-18.31 -3.09,-45.05 39.25,-57.65 9.51,-2.83 19.15,-3.22 24.22,-9.16 -8.26,-8.04 -29.12,-4.3 -44.85,-18.55 -13.03,-11.81 -11.08,-33.18 -18.61,-46.44 -6.46,2.81 -4.18,8.29 -8.21,22.76 -11.01,39.52 -30.46,27.16 -56.83,40.36z"/>
  <path class="fil5" d="M1705.14 1129.86c14.9,-0.39 27.68,-12.16 41.69,1.27 6.38,6.13 3.13,5.21 12.68,7.66 -0.51,-12.67 -5.98,-21.33 1.21,-32.21 5.29,-8 14.42,-13.47 16.92,-21.1 -12.1,-0.06 -21.81,8.24 -34.06,4.38 -11.32,-3.57 -14.35,-14.48 -25.05,-16.56 1.11,11.08 8.01,20.88 3.09,33.13 -3.07,7.66 -14.28,15.42 -16.48,23.44z"/>
  <path class="fil6" d="M1631.02 1190.45c-0.41,4.58 0.12,7.25 -0.08,11.09 -1.25,23.81 -21.93,4.73 -33.77,30.14 -5.9,12.67 -1.99,35.71 16.65,27.77 3.73,-8.18 1.02,-10.69 1.97,-20.62 12.74,-10.85 29.59,-5.34 35.28,-23.74 4.26,-13.75 -1.07,-40.26 -20.05,-24.64z"/>
  <path class="fil6" d="M2008.91 1446.14c-2.48,-13.17 4.76,-35.56 -18.13,-45.3 -8.66,-3.68 -22.63,-4.23 -23.31,6.15 -0.88,13.38 11.88,6.48 18.14,13.95 6.8,8.1 -5.8,38.59 18.12,45.65 8.75,2.58 24.1,3.42 23.95,-7.23 -0.16,-10.81 -10.96,-8.06 -18.76,-13.23z"/>
  <path class="fil6" d="M1710.67 1305.44c-4.8,9.81 -21.09,14.02 -18.82,35.5 1.46,13.79 15.43,31.04 26.49,15 -0.16,-14.98 -7.68,-5.72 -6.97,-22.44 8.79,-9.65 27.9,-21.77 15.71,-44.13 -2.84,-5.22 -12.97,-17.89 -21.74,-8.31 -7.07,7.73 5.17,13.22 5.33,24.38z"/>
  <path class="fil6" d="M2185.26 1203.02c2.14,24.25 -3.74,36.87 17.41,44.77 8.47,3.17 22.04,4.18 21.52,-7.79 -0.42,-9.58 -10.33,-7.97 -19.11,-13.26 -2.96,-25.41 4.12,-37.25 -19.46,-46.19 -9.1,-3.44 -21.52,-2.99 -20.62,8.83 0.73,9.62 12.34,8.08 20.25,13.64z"/>
  <path class="fil6" d="M1983.49 1103.97c8.01,11.97 -8.13,35.32 17.95,43.99 8.7,2.89 24.64,4.85 22.19,-8.63 -2.07,-11.4 -14.94,-4.88 -18.67,-13.94 -2.71,-6.58 1.51,-18.79 -1.95,-28.27 -2.55,-6.98 -10.34,-12.67 -16.78,-14.9 -7.84,-2.72 -22.36,-4.58 -21.51,8.01 0.94,13.95 12.47,5.13 18.77,13.73z"/>
  <path class="fil3" d="M1526.61 1305.33c2.19,21.19 -5.1,26.81 9.42,39.42 10.27,8.92 30.71,15.12 30.1,-5.92 -6.76,-4.07 -14.06,-4.52 -19.81,-8.07 -2.23,-14.1 2.69,-26.18 -4.65,-36.56 -6.47,-9.15 -17.83,-12.07 -33.13,-8.73 -3.12,18.62 5.47,12.12 18.07,19.86z"/>
  <path class="fil4" d="M2084.22 1366.26c5.69,3.48 21.4,9.3 28.42,8.33 2.4,-4.33 4.86,-16.02 6.94,-21.24 2.75,-6.9 6.95,-14.33 6.4,-22.63 -7.37,-3.94 -17.75,-7.6 -28.05,-7.96 -3.34,10.12 -13.94,33.19 -13.71,43.5z"/>
  <path class="fil4" d="M1587.62 1468.17c6.65,6.09 16.75,9.65 28.64,9.84 3.79,-9.91 13.23,-33.7 12.88,-44.02 -8.81,-2.58 -18.21,-7.99 -26.39,-8.37 -3.39,6.82 -13.97,33.74 -15.13,42.55z"/>
  <path class="fil4" d="M2260.35 1345.24c-0.04,8.5 4.69,19.66 8.04,25.49 2.45,2 8.28,0.8 11.65,-0.07l31.7 -10.46c1.3,-9.33 -4.29,-20.49 -6.68,-28.31 -8.68,-0.73 -39.41,9.42 -44.71,13.34z"/>
  <path class="fil4" d="M1916.08 1284.87c1.37,6.84 16.31,31.94 21.23,38.58 8.52,-0.31 19.95,-8.68 24.94,-14.26 -0.89,-10.48 -15.02,-28.75 -19.91,-38.5 -8.45,0.69 -8.33,1.41 -15.72,5.38l-10.54 8.8z"/>
  <path class="fil5" d="M2272.12 1076.24c7.41,-6.54 11.07,-10.65 3.07,-20.71 -4.74,-5.95 -15.09,-11.07 -18.16,-15.7 -1.86,-14.86 3.96,-8.89 3.83,-22.81 -7.88,-7.61 -11.59,-9.2 -18.66,0.41 -20.11,27.33 6.51,40.24 13.87,47.8 5.83,5.99 4.98,10.42 16.05,11.01z"/>
  <path class="fil4" d="M1364.55 1092.43c5.24,1.69 17.18,7.21 22.96,7.14 8.97,-0.12 7.59,-7.75 11.91,-20.2l5.05 -18.74c-0.61,-8.3 -15.87,-12.1 -24.55,-12.97 -4.46,5.42 -15.44,36.46 -15.36,44.77z"/>
  <path class="fil7" d="M178.44 611.1c0,-10.87 20.17,-8.25 36.68,-7.35 53.37,2.92 108.01,0.01 161.32,0.01 32.92,0 60.25,2.45 90.44,2.45l168.75 -2.54c16.2,0.02 25.36,2.58 43.91,2.54 30.3,-0.08 55.54,-2.45 88,-2.45l0 408.21c0,8.71 1.2,19.56 9.78,19.56l158.89 0c15,0 9.78,-29.39 9.78,-44 -0.02,-117.35 1.82,-246.02 -0.08,-361.85 -0.46,-28 -9.35,-21.91 75.86,-21.91 14.64,0 29.5,-0.28 44.1,-0.1 14.81,0.18 23.75,2.58 41.45,2.55 53.57,-0.08 112.7,-3.27 171.21,-2.55 14.81,0.18 23.75,2.58 41.45,2.55l132 -2.45c30.51,0 55.4,2.46 83.11,2.46 53.11,0 114.69,-3.28 173.65,-2.55 14.51,0.18 21.94,2.59 39,2.56l139.34 -2.47c28.11,0 50.56,2.48 75.78,2.48l136.88 -2.48c28.11,0 50.56,2.48 75.78,2.48 52.79,0 120.47,-4.29 178.52,-2.56 12.91,0.39 18.51,2.58 34.13,2.58 24.67,-0.02 45.9,-2.49 73.35,-2.49l141.77 2.48c25.21,0 47.67,-2.48 75.77,-2.48l88 0c20.7,0 31.1,2.45 51.33,2.45l0 417.99c0,5.63 1.7,7.33 7.34,7.33l161.33 0c8.58,0 9.78,-10.85 9.78,-19.56l0 -408.21c14.5,0.32 29.43,4.23 48.53,2.09l164.21 -2.17c43.07,1.29 15.65,2.78 65.91,0.07l154.02 0c34.66,1.87 4.68,3.81 49,0.14l107.42 -0.13 0 2896.59 -3407.47 0 0 -2889.26zm589.09 -591.54l0 408.21 -92.9 0.01c-25.62,-1.38 -21.66,-2.4 -49,-0.14l-163.66 0.14c-25.62,-1.38 -21.66,-2.4 -49,-0.14 -27.29,2.26 -128.34,1.19 -161.28,0.21 -12.01,-0.36 -12.27,-2.21 -24.32,-2.64l-99.38 3.45 -76.1 41.23 -37.84 47.71c-5.31,9.69 -14.06,36.54 -14.06,47.05l0 2977.26c0,13.21 2.3,18.31 6.79,27.44l12.92 28.63c7.66,14.54 16.43,24.2 28.87,34.68 18.48,15.57 22.19,16.98 41.46,29.43 9.35,6.04 15.48,4.5 25.16,9.06 10.09,4.74 13.83,7.64 29.02,7.64l3475.91 0c18.54,0 24.31,-7.31 40.1,-11.24 15,-3.73 33.19,-15.43 45.2,-25.69 0.38,-0.33 0.9,-0.83 1.28,-1.17 0.38,-0.33 0.88,-0.85 1.26,-1.19l11.51 -10.49c0.36,-0.35 0.86,-0.88 1.21,-1.23 16.45,-16.36 14.01,-18.38 24.93,-33.74 9.33,-13.13 18.75,-35.3 18.75,-52.14l0 -2974.81c0,-16.97 -4.91,-25.18 -9.7,-39.19 -8.59,-25.13 -28.98,-48.69 -50.19,-64.7 -12.57,-9.49 -27.87,-20.73 -43.28,-25.16 -13.59,-3.92 -13.77,-8.61 -24.12,-10.1 -56.74,-8.18 -141.45,7.17 -198.85,-1.59l-201.86 1.43c-25.62,-1.38 -21.66,-2.4 -49.01,-0.14 -35.46,2.94 -114.72,0.13 -153.87,0.13 -16.26,0 -21.16,-2.45 -36.66,-2.45l0 -415.54c0,-5.72 -4.06,-9.78 -9.78,-9.78l-158.89 0c-16.25,0 -9.78,42.14 -9.78,53.78l0 329.99c0,41.5 7.2,46.57 -20.14,42.3 -10.77,-1.68 -20,-0.82 -29.78,0.66 -20.67,3.14 -145.52,2.5 -172.53,1.04 -25.62,-1.38 -21.66,-2.4 -49.01,-0.14l-163.65 0.14c-25.62,-1.38 -21.66,-2.4 -49.01,-0.14l-163.65 0.14c-25.62,-1.38 -21.66,-2.4 -49.01,-0.14l-166.1 0.14c-25.62,-1.38 -21.66,-2.4 -49.01,-0.14l-163.65 0.14c-25.62,-1.38 -21.66,-2.4 -49.01,-0.14l-163.65 0.14c-25.62,-1.38 -21.66,-2.4 -49.01,-0.14l-166.1 0.14c-25.62,-1.38 -21.66,-2.4 -49,-0.14l-163.66 0.14c-25.31,-1.37 -24.7,-2.35 -51.45,-0.14 -32.09,2.65 -65.5,0.13 -97.65,0.13 -13,0 -7.34,-36.37 -7.33,-46.44l0 -334.88c0,-14.86 5.44,-46.44 -9.78,-46.44l-158.89 0c-8.58,0 -9.78,10.85 -9.78,19.56z"/>
 </g>
</svg>
