<?xml version="1.0" encoding="UTF-8"?>
<!DOCTYPE svg PUBLIC "-//W3C//DTD SVG 1.1//EN" "http://www.w3.org/Graphics/SVG/1.1/DTD/svg11.dtd">
<!-- Creator: CorelDRAW 2019 (64-Bit) -->
<svg xmlns="http://www.w3.org/2000/svg" xml:space="preserve" width="124.384mm" height="121.558mm" version="1.1" style="shape-rendering:geometricPrecision; text-rendering:geometricPrecision; image-rendering:optimizeQuality; fill-rule:evenodd; clip-rule:evenodd"
viewBox="0 0 3403.91 3326.55"
 xmlns:xlink="http://www.w3.org/1999/xlink">
 <defs>
  <style type="text/css">
   <![CDATA[
    .fil1 {fill:#FEFEFE}
    .fil0 {fill:#F59F15}
    .fil4 {fill:#F3AC9D}
    .fil3 {fill:#E4E4E5}
    .fil5 {fill:#878E98}
    .fil2 {fill:#4F5A69}
    .fil6 {fill:#0A4A74}
   ]]>
  </style>
 </defs>
 <g id="Layer_x0020_1">
  <metadata id="CorelCorpID_0Corel-Layer"/>
  <g id="_2135031716448">
   <path class="fil0" d="M1491.53 1551.19l13.46 -41.6c2.36,-8.01 4.89,-17.4 8,-25.06 0.07,-0.18 0.16,-0.38 0.23,-0.55l2.25 -5.93c0.8,-2.39 1.09,-9.33 4.33,-10.01 46.04,0 92.07,0 138.1,0 12.93,0 134.73,-1.14 136.83,0.75l3.78 9.94c6.88,18.65 14.62,53.02 22.74,72.48 10.71,1.6 32.66,0.33 44.57,0.33 29.34,0.01 302.2,-1.33 308.9,0.63 1.43,9.49 0.27,29.09 0.27,39.66 0,91.5 0.9,588.26 -0.63,590.09 -1.48,1.77 -13.48,1.07 -16.23,1.07l-758.01 0c-12.96,0 -251.44,1.19 -257.47,-0.63 -1.53,-8.17 -0.39,-30.06 -0.39,-39.66l0 -572.35c0,-2.98 -1.22,-16.24 1.19,-18.18 2.83,-1.78 36.21,-0.41 42.96,-0.75l-0 -30.18c-0.02,-4.28 -0.71,-7.11 0.85,-8.77 2.79,-2.96 40.87,-1.09 47.9,-1.09 19.7,0 142.94,-1.05 144.88,0.74 3.74,5.28 -1.2,30.78 1.32,39.42l110.16 -0.37zm126.48 1111.7l91.3 0c2.82,0 2.57,-0.88 4.81,-1.33 5.45,-1.1 12.79,0.64 18.1,-0.31 5.22,-0.94 2.12,-1.53 10.86,-1.42 5.76,0.07 6.06,-1.09 10.74,-1.53 5.52,-0.52 17.21,-1.08 22.25,-2.3 3.89,-0.95 6.26,-1.01 10.68,-1.59 4.16,-0.55 1.3,-0.79 4.76,-1.37 2.23,-0.37 4.26,0.17 6.54,-0.37 3.15,-0.75 0.03,-0.98 4.86,-1.28 0.99,-0.06 2.04,0.06 3.03,-0.04 3.44,-0.37 2.11,-0.92 4.77,-1.37 1.15,-0.19 1.83,-0.06 2.92,-0.15l20.29 -4.26c4.84,-1.87 10.39,-1.84 15.12,-3.29 2.4,-0.74 -1.12,-0.06 2.35,-0.72l109.05 -33.65c0.96,-0.32 1.43,-0.4 2.36,-0.71l36.85 -15.32c1.28,-0.64 1,-0.53 2.04,-1.03 1.96,-0.93 2.14,-0.94 4.32,-1.82 2.64,-1.07 5.2,-2.68 8.31,-3.97 2.2,-0.91 2.62,-0.95 4.33,-1.81l25.96 -13.17c0.16,-0.08 0.35,-0.18 0.51,-0.26 0.16,-0.08 0.36,-0.17 0.52,-0.25l49.48 -28.01c14.5,-8.18 41.06,-25.66 53.88,-35.89l68.51 -55.02c0.12,-0.1 0.29,-0.25 0.41,-0.36l36.31 -34.28c0.66,-0.73 0.86,-1.01 1.42,-1.65l12.08 -12.47c0.6,-0.69 0.79,-0.91 1.46,-1.61l14.71 -15.98c2.03,-2.3 4.03,-3.97 5.98,-6.29l23.95 -28.99c0.47,-0.55 0.9,-1.07 1.38,-1.69 1.13,-1.46 1.54,-2.04 2.7,-3.44 1.98,-2.42 3.6,-4.34 5.34,-6.93l8.06 -10.36c1.08,-1.33 1.66,-2.35 2.54,-3.6l7.82 -10.6c1.12,-1.54 1.93,-2.59 2.92,-3.99l19.64 -29.46c1.8,-2.68 3.38,-4.89 4.88,-7.4l50.28 -92.43c5.02,-10.53 14.66,-31.96 18.35,-42.26l7.15 -18.17c0.8,-2.08 1.07,-3.22 1.77,-5.14l8.89 -25.63c0.06,-0.18 0.14,-0.38 0.2,-0.56l1.71 -5.96c0.06,-0.19 0.14,-0.38 0.21,-0.56 0.06,-0.19 0.13,-0.39 0.19,-0.57l1.36 -4.01c0.06,-0.19 0.13,-0.39 0.19,-0.58l10.75 -37.59c0.89,-3.23 1.87,-6.24 2.77,-9.5 0.56,-2.01 0.44,-3.13 0.95,-5.19 0.68,-2.71 0.61,-1.47 1.18,-4.96 0.5,-3.08 0.78,-2.68 1.25,-4.89 0.55,-2.59 0.38,-2.93 1.02,-5.12 0.76,-2.6 0.41,-2.14 0.88,-5.25 0.75,-4.98 2.88,-9.53 3.59,-14.82l2.97 -15.44c0.4,-2.07 0.03,-3.64 0.43,-5.7 0.46,-2.35 1,-1.61 1.29,-4.85l5.42 -38.31c0,-1.99 -0.18,-4.03 0.16,-5.98 0.35,-2.03 1.1,-2.82 1.34,-5.57 0.33,-3.89 -0.58,-8.25 0.38,-11.9 2.41,-9.2 0.43,-13.71 1.7,-22.85 2.35,-16.9 1,-72.92 1,-93.36l-2.65 -34.17c-0.69,-4.11 -0.07,-7.69 -0.51,-11.77 -0.42,-3.97 -1.3,-5.54 -1.44,-10.84 -0.12,-4.52 -1.25,-6.45 -1.51,-10.76 -0.24,-3.99 -0.73,-7.77 -1.35,-10.92l-4.24 -27.22c-2.21,-15.52 -6.31,-31.18 -9.66,-46.35 -0.26,-1.16 -0.21,-1.37 -0.52,-2.55l-7.07 -27.46c-0.99,-3.48 -1.74,-5.93 -2.73,-9.54l-6.94 -22.98c-0.06,-0.19 -0.13,-0.39 -0.19,-0.58l-0.62 -1.69c-0.06,-0.19 -0.13,-0.39 -0.19,-0.58l-17.37 -48.61c-2.37,-5.86 -4.66,-11.94 -7.32,-17.99l-15.32 -34.55c-1.44,-3.09 -2.65,-5.12 -4.13,-8.14l-16.86 -33.01c-8.59,-16 -18.31,-31.32 -27.62,-46.8l-9.96 -15.36c-1.74,-2.35 -3.33,-4.7 -4.94,-7.34 -6.18,-10.14 -13.42,-19.72 -20.6,-29.27l-27.29 -34.86c-1.92,-2.49 -3.75,-4.36 -5.92,-7.12 -0.47,-0.59 -0.81,-0.99 -1.39,-1.68l-4.25 -4.95c-0.11,-0.12 -0.26,-0.29 -0.36,-0.41 -0.1,-0.11 -0.25,-0.29 -0.36,-0.4l-44.49 -47.58c-1.02,-1.01 -2.04,-2.07 -3.05,-3.08l-1.96 -1.87c-0.12,-0.1 -0.29,-0.25 -0.41,-0.36l-0.83 -0.71c-1.27,-1.11 -1.92,-1.77 -3.14,-3l-32.86 -30.05c-0.17,-0.15 -0.65,-0.57 -0.82,-0.71l-29.03 -23.91c-9.88,-8.25 -36.76,-28.2 -47.05,-34.27 -2.7,-1.59 -5.08,-3.18 -7.42,-4.85l-14.3 -9.49c-13.27,-7.77 -26.14,-16.65 -39.8,-23.88l-62.15 -31.45c-1.68,-0.79 -2.87,-1.31 -4.23,-1.9l-71.55 -28.19c-12.43,-4.64 -25.27,-8.08 -37.95,-11.92 -3.41,-1.03 -6.17,-1.68 -9.58,-2.7l-32.41 -8.26c-0.25,-0.07 -2.12,-0.69 -2.32,-0.74 -1.94,-0.48 -3.3,-0.42 -5.25,-0.89l-41.82 -8.05c-2.78,-0.41 -2.08,-0.92 -4.82,-1.32l-38.3 -5.43c-2.08,-0.14 -3.8,0.06 -5.91,-0.22 -1.07,-0.15 -4.67,-1.02 -5.74,-1.17 -3.88,-0.54 -7.84,0.13 -11.79,-0.48 -7.85,-1.2 -16.08,-0.84 -22.78,-1.77 -13.27,-1.84 -91.3,-1.81 -104.73,-0.09 -6.81,0.87 -16.43,0.79 -23.46,1.86 -4.16,0.64 -8.37,-0.09 -12.45,0.59l-93 15.18c-2.68,0.42 -2.12,0.78 -4.86,1.28 -10.82,1.97 -20.4,4.54 -31.32,7.81l-74.11 23.33c-0.18,0.07 -0.38,0.14 -0.56,0.21 -18.34,6.75 -39.7,14.98 -56.92,23.64 -2.03,1.02 -2.32,1.16 -4.22,1.92 -6.01,2.39 -11.67,6.07 -17.65,8.44 -8.82,3.49 -20.69,10.63 -29.29,15.21 -1.88,1 -2.13,1.23 -3.87,2.27l-16.24 9.07c-1.95,1.27 -2.55,1.44 -4.41,2.49 -2.81,1.58 -5.1,3.29 -8.09,4.95 -5.74,3.18 -10.42,6.57 -15.67,9.65 -0.2,0.12 -0.77,0.45 -0.97,0.57 -15.67,9.18 -41.77,28 -56.99,39.68l-64.53 54.39c-1.52,1.34 -1.92,1.35 -3.44,2.7l-57.83 60.32c-0.1,0.12 -0.25,0.29 -0.36,0.41l-27.21 32.64c-1.06,1.25 -0.19,0.1 -1.38,1.68 -0.72,0.94 -0.92,1.36 -1.59,2.25l-26.11 35.27c-0.18,0.22 -1,1.25 -1.02,1.28l-17.72 26.77c-0.11,0.2 -0.45,0.77 -0.57,0.97 -0.01,0.01 -0.56,0.96 -0.57,0.97l-10.78 17.61c-11.2,19.08 -22.75,38.26 -32.3,58.23l-34.52 79.79c-0.33,0.86 -0.5,1.44 -0.8,2.26l-2.63 7.35c-3.12,9.55 -7.19,19.22 -9.75,28.61l-16.7 60.02c-0.53,1.99 -0.7,3.34 -1.18,4.96 -2.66,9.09 -7.81,38.08 -9.31,48.23 -0.41,2.78 -0.92,2.08 -1.32,4.82 -0.3,2.08 -0.01,3.51 -0.41,5.73l-6.51 44.9 -2.46 36.67c-1.76,14.93 -0.4,35.19 -1.22,50.1 -0.56,10.28 1.14,63.39 2.82,72.72 0.83,4.62 0.51,7.01 0.76,12.28l8.07 55.61c0.54,2.14 0.26,3.34 0.57,5.56l9.37 45.1c0.32,1.19 0.26,1.39 0.52,2.55l6.55 24.91c2.84,12.09 6.81,23.59 10.15,35.12l20.19 56.53c1.05,2.95 2.34,6.33 3.68,9.37l37.13 77.95c0.85,1.54 1.32,2.56 2.16,3.98l27.36 46.29c0.09,0.15 0.2,0.34 0.28,0.48l1.14 1.93c0.08,0.15 0.2,0.34 0.28,0.48l1.75 2.86c0.94,1.44 1.6,2.24 2.56,3.57l18.31 26.95c3.6,5.24 6.81,9.64 10.62,14.7l3.92 5.28c0.8,0.99 0.32,0.29 1.39,1.68l25.59 31.96c1.21,1.41 1.72,2.35 3,3.91l17.87 20.49c2.1,2.49 4.03,4.26 6.41,6.63l18.59 19.77c2.41,2.39 4.27,4.34 6.52,6.52 1.02,0.99 2.06,2.06 3.07,3.07l24.83 23.5c0.12,0.1 0.3,0.25 0.42,0.35l35.72 30.26c0.12,0.1 0.3,0.24 0.42,0.35l17.08 13.61c1.43,1.05 2.26,1.55 3.55,2.58 1.09,0.86 0.59,0.54 1.67,1.4 0.86,0.68 1.38,1.01 2.22,1.61 2.53,1.81 4.79,3.57 7.46,5.58l12.66 8.82c0.13,0.1 0.32,0.22 0.45,0.32 0.13,0.1 0.31,0.23 0.44,0.33 1.05,0.81 0.83,0.69 1.26,1.05l28.95 19.38c0.15,0.08 0.34,0.2 0.48,0.28l45.37 26.75c1.78,0.97 2.84,1.76 4.34,2.56 7.9,4.24 21.44,12.14 29.24,15.26l94.71 39.56c3.37,1.26 5.47,2.04 9.05,3.23l19.18 6.14c3.3,1.12 6.51,2.25 9.93,3.12l14.99 4.19c1.68,0.5 3.68,0.78 5.58,1.32 3.24,0.92 6.3,1.9 9.5,2.77l10.62 2.42c0.21,0.05 2.07,0.67 2.33,0.74l23.26 5.13c1.76,0.3 3,0.43 5.15,0.99 7.8,2.03 22.34,3.53 27.2,5.03l51.05 7.25c4.03,0.77 7.66,0.09 11.76,0.52 3.95,0.41 6.59,1.46 11.58,1.46 9.39,0.01 15.61,1.51 24.58,1.51z"/>
   <path class="fil1" d="M1897.02 1599.52c0,-3.18 1.68,-2.61 4.86,-2.61 25.75,-0.01 189.8,-0.88 201.11,0.35l-0.05 107.52 -205.69 -0.22c-1.03,-13.23 -0.23,-86.01 -0.23,-105.04zm-10.57 293.85c0,7.85 0.37,20.2 -0.92,27.42 -1.25,7.01 -1.4,15.14 -3.73,25.25 -5.04,21.87 -7.07,32.87 -17.96,54.2l-9.74 18.66c-3.25,5.94 -7.81,12.68 -11.45,17.81 -22.43,31.59 -44.19,48.45 -75.97,68.23 -7.28,4.53 -26.03,12.7 -34.3,15.63 -37.52,13.27 -67.67,16.07 -107.48,12.78 -12.82,-1.06 -40.71,-6.96 -52,-12.15 -1.36,-0.63 -4.08,-1.47 -5.66,-2.04 -12.51,-4.5 -36.49,-16 -47.57,-24.62l-16.75 -12.42c-4.58,-4.12 -10.55,-8.57 -15.39,-13.77 -5.06,-5.44 -9.35,-9.76 -13.67,-14.69l-18.6 -24.29c-2.06,-3.21 -3.92,-5.63 -5.67,-8.84 -30.62,-56.18 -35.96,-91.48 -30.47,-154.8l7.46 -35.11c1.29,-3.98 2.47,-6.63 3.88,-10.49 4.57,-12.47 11.75,-27.92 18.26,-39.36 3.18,-5.57 7.39,-11.42 11.17,-17.19 16.95,-25.83 48.22,-51.94 74.64,-67.89 15.63,-9.43 44.39,-20.28 62.16,-24.51 28.2,-6.71 61.56,-6.95 90.36,-3.54 2.85,0.34 3.13,0.95 6.16,1.32 8.17,0.99 27.43,4.92 34.1,8.14l20.16 8.39c35.48,14.79 65.01,39.75 89.3,69.64 7.5,9.23 19.28,28.35 25.01,39.39 14.9,28.74 24.66,67.33 24.66,98.84zm-394.93 -342.18c-1.47,1.92 2.22,1.35 -2.41,1.71 -18.41,0 -36.83,0 -55.24,0l-41.43 0.02c-3.04,0 -10.05,1.17 -12.1,-1.23 -2.91,-3.42 0.47,-29.07 -0.94,-36.46 -0.96,-5.04 -15.08,-2.49 -24.56,-2.49l-71.35 0c-30.88,0 -64.47,-1.26 -95.32,0.09l-0.34 39.42c-8.46,2.62 -39.4,-2.04 -43.68,1.57 -1.86,3.24 -0.59,283.34 -0.59,313.46 0,5.83 -0.93,307.45 0.26,313.87 5.82,1.91 90.02,0.5 103.62,0.5l908.39 0c20.7,0 18.05,1.55 17.94,-6.68 -1.14,-79.84 1.71,-618.41 -0.58,-621.15 -2.47,-2.08 -37.09,-0.92 -43.44,-0.92l-303.87 0.14c-5.52,-0.19 -4.24,-0.94 -4.62,-1.81 -8.12,-19.46 -15.86,-53.83 -22.74,-72.48l-3.78 -9.94c-2.1,-1.89 -123.9,-0.75 -136.83,-0.75 -46.03,0 -92.06,0 -138.1,0 -3.24,0.67 -3.53,7.62 -4.33,10.01l-2.25 5.93c-0.07,0.17 -0.16,0.37 -0.23,0.55 -3.11,7.66 -5.64,17.05 -8,25.06l-13.46 41.6z"/>
   <path class="fil2" d="M1630.03 1712.3c-0.99,0.42 -7.76,0.68 -9.83,1.1 -3.02,0.62 -6.6,0.95 -9.81,1.76 -3.52,0.89 -6.33,1.15 -9.66,2.06 -14.69,4.01 -28.26,8.53 -41.8,16.59l-14.11 8.84c-8.32,5.16 -18.8,13.73 -25.55,20.51 -13.54,13.61 -19.6,19.97 -30.74,39.13 -5.92,10.17 -10.96,20.14 -14.99,31.8 -2.96,8.58 -7.97,28.53 -9.07,37.05 -0.49,3.75 0,7.07 -0.88,10.6 -0.75,3.02 -0.8,7.08 -0.86,10.85 -0.14,8.17 0.1,15.38 1.11,22.85 1.02,7.44 1.46,12.56 3.03,19.87 1.46,6.77 2.94,12.88 4.86,18.24 0.93,2.6 1.89,6.09 2.74,8.97 4.42,14.88 20.71,40.76 29.61,51.71 1.74,2.14 3.68,3.78 5.46,5.98 1.74,2.15 3.64,4.12 5.49,6.03 20.89,21.68 42.46,34.34 70.45,46.03 5.78,2.41 11.53,3.22 18.01,5.13 11.39,3.36 28.26,5.3 40.6,5.43 3.9,0.04 7.64,0.02 11.53,0.01 5.57,-0.02 6.18,-0.96 10.68,-1.19 38.29,-1.98 71.03,-18.22 99.33,-39.94 21.08,-16.18 39.08,-40.97 51.04,-64.74 3.65,-7.24 10.33,-25.79 12.31,-34.72 1.47,-6.65 2.22,-12.69 3.81,-18.99 2.87,-11.37 3,-32.63 0.65,-44.11 -0.67,-3.27 -0.3,-10.29 -2.65,-20.61 -1.49,-6.55 -2.93,-12.42 -4.82,-18.15 -3.24,-9.81 -9.03,-23.78 -13.97,-32.88 -18.88,-34.73 -44.55,-57.43 -79.12,-76.58l-2.41 -1.38c-10.77,-6.08 -42.15,-16.01 -55.7,-16.72 -14.48,-0.76 -16.53,-1.67 -33,-1.61 -2.07,0.01 -4.1,0 -6.17,0.09l-5.6 1z"/>
   <path class="fil3" d="M1635.62 1711.3c2.07,-0.09 4.1,-0.08 6.17,-0.09 16.46,-0.06 18.51,0.86 33,1.61 13.54,0.71 44.93,10.64 55.7,16.72l2.41 1.38c34.57,19.15 60.25,41.85 79.12,76.58 4.95,9.1 10.74,23.07 13.97,32.88 1.89,5.72 3.33,11.6 4.82,18.15 2.34,10.32 1.98,17.34 2.65,20.61 2.35,11.48 2.22,32.75 -0.65,44.11 -1.59,6.3 -2.34,12.34 -3.81,18.99 -1.98,8.92 -8.66,27.47 -12.31,34.72 -11.96,23.77 -29.96,48.56 -51.04,64.74 -28.3,21.72 -61.04,37.96 -99.33,39.94 -4.51,0.23 -5.11,1.17 -10.68,1.19 -3.89,0.01 -7.63,0.03 -11.53,-0.01 -12.34,-0.13 -29.22,-2.06 -40.6,-5.43 -6.48,-1.91 -12.23,-2.72 -18.01,-5.13 -27.99,-11.69 -49.57,-24.35 -70.45,-46.03 -1.85,-1.92 -3.75,-3.89 -5.49,-6.03 -1.78,-2.2 -3.72,-3.84 -5.46,-5.98 -8.9,-10.94 -25.19,-36.83 -29.61,-51.71 -0.85,-2.87 -1.81,-6.36 -2.74,-8.97 -1.92,-5.36 -3.4,-11.47 -4.86,-18.24 -1.57,-7.32 -2.02,-12.43 -3.03,-19.87 -1.02,-7.47 -1.26,-14.67 -1.11,-22.85 0.06,-3.77 0.11,-7.83 0.86,-10.85 0.88,-3.53 0.39,-6.85 0.88,-10.6 1.11,-8.52 6.11,-28.47 9.07,-37.05 4.03,-11.67 9.07,-21.63 14.99,-31.8 11.14,-19.16 17.2,-25.52 30.74,-39.13 6.75,-6.78 17.23,-15.36 25.55,-20.51l14.11 -8.84c13.54,-8.06 27.11,-12.58 41.8,-16.59 3.33,-0.91 6.14,-1.17 9.66,-2.06 3.22,-0.82 6.79,-1.15 9.81,-1.76 2.07,-0.42 8.84,-0.68 9.83,-1.1l5.6 -1zm250.83 182.06c0,-31.51 -9.76,-70.09 -24.66,-98.84 -5.72,-11.04 -17.51,-30.17 -25.01,-39.39 -24.29,-29.89 -53.82,-54.86 -89.3,-69.64l-20.16 -8.39c-6.67,-3.22 -25.93,-7.15 -34.1,-8.14 -3.03,-0.37 -3.31,-0.98 -6.16,-1.32 -28.81,-3.41 -62.16,-3.17 -90.36,3.54 -17.77,4.23 -46.53,15.08 -62.16,24.51 -26.42,15.95 -57.69,42.06 -74.64,67.89 -3.78,5.76 -8,11.61 -11.17,17.19 -6.52,11.44 -13.7,26.89 -18.26,39.36 -1.41,3.86 -2.59,6.51 -3.88,10.49l-7.46 35.11c-5.5,63.31 -0.15,98.61 30.47,154.8 1.75,3.21 3.61,5.63 5.67,8.84l18.6 24.29c4.32,4.93 8.61,9.25 13.67,14.69 4.85,5.21 10.82,9.65 15.39,13.77l16.75 12.42c11.08,8.61 35.06,20.12 47.57,24.62 1.58,0.57 4.3,1.41 5.66,2.04 11.29,5.19 39.17,11.09 52,12.15 39.81,3.3 69.96,0.49 107.48,-12.78 8.27,-2.93 27.02,-11.1 34.3,-15.63 31.78,-19.78 53.54,-36.64 75.97,-68.23 3.65,-5.13 8.2,-11.87 11.45,-17.81l9.74 -18.66c10.89,-21.33 12.92,-32.33 17.96,-54.2 2.33,-10.1 2.48,-18.24 3.73,-25.25 1.29,-7.23 0.92,-19.57 0.92,-27.42z"/>
   <polygon class="fil2" points="1898.62,1703.9 2102.01,1703.76 2101.99,1597.93 1898.55,1597.98 "/>
   <path class="fil4" d="M1821.25 1551.22c0.38,0.88 -0.9,1.62 4.62,1.81l303.87 -0.14c6.35,0 40.98,-1.16 43.44,0.92 2.29,2.74 -0.56,541.31 0.58,621.15 0.12,8.23 2.76,6.68 -17.94,6.68l-908.39 0c-13.6,0 -97.8,1.41 -103.62,-0.5 -1.19,-6.41 -0.26,-308.03 -0.26,-313.87 0,-30.12 -1.27,-310.22 0.59,-313.46 4.27,-3.6 35.21,1.06 43.68,-1.57l0.34 -39.42c30.86,-1.35 64.44,-0.09 95.32,-0.09l71.35 0c9.48,0 23.59,-2.55 24.56,2.49 1.41,7.39 -1.97,33.04 0.94,36.46 2.05,2.4 9.05,1.23 12.1,1.23l41.43 -0.02c18.41,0 36.83,0 55.24,0 4.63,-0.36 0.94,0.21 2.41,-1.71l-110.16 0.37c-2.52,-8.64 2.42,-34.14 -1.32,-39.42 -1.95,-1.79 -125.19,-0.74 -144.88,-0.74 -7.03,0 -45.12,-1.86 -47.9,1.09 -1.56,1.66 -0.87,4.49 -0.85,8.77l0 30.18c-6.76,0.34 -40.13,-1.03 -42.96,0.75 -2.41,1.93 -1.19,15.2 -1.19,18.18l0 572.35c0,9.6 -1.14,31.49 0.39,39.66 6.03,1.83 244.51,0.63 257.47,0.63l758.01 0c2.76,0 14.75,0.7 16.23,-1.07 1.54,-1.83 0.63,-498.58 0.63,-590.09 0,-10.57 1.16,-30.17 -0.27,-39.66 -6.7,-1.95 -279.56,-0.62 -308.9,-0.63 -11.9,-0 -33.86,1.27 -44.57,-0.33z"/>
   <path class="fil5" d="M1898.55 1597.98l203.44 -0.05 0.03 105.82 -203.4 0.15 -0.07 -105.92zm-1.52 1.54c0,19.04 -0.8,91.82 0.23,105.04l205.69 0.22 0.05 -107.52c-11.31,-1.23 -175.36,-0.36 -201.11,-0.35 -3.18,0 -4.86,-0.57 -4.86,2.61z"/>
  </g>
  <path class="fil6" d="M161.36 552.58c0,-9.83 18.24,-7.46 33.16,-6.64 48.26,2.64 97.67,0.01 145.87,0.01 29.77,0 54.48,2.22 81.78,2.22l152.59 -2.29c14.65,0.02 22.93,2.34 39.7,2.29 27.4,-0.07 50.22,-2.22 79.58,-2.22l0 369.12c0,7.88 1.08,17.68 8.84,17.68l143.67 0c13.57,0 8.84,-26.58 8.84,-39.79 -0.01,-106.11 1.65,-222.46 -0.08,-327.2 -0.42,-25.32 -8.46,-19.82 68.6,-19.82 13.23,0 26.67,-0.25 39.88,-0.09 13.39,0.16 21.47,2.33 37.48,2.31 48.44,-0.07 101.91,-2.96 154.82,-2.31 13.39,0.16 21.47,2.33 37.48,2.31l119.36 -2.22c27.59,0 50.09,2.22 75.15,2.22 48.02,0 103.71,-2.97 157.02,-2.31 13.12,0.16 19.83,2.34 35.27,2.32l126 -2.23c25.42,0 45.72,2.24 68.52,2.24l123.78 -2.24c25.42,0 45.72,2.24 68.52,2.24 47.73,0 108.93,-3.88 161.43,-2.31 11.67,0.35 16.73,2.34 30.86,2.33 22.31,-0.01 41.51,-2.25 66.32,-2.25l128.2 2.24c22.8,0 43.1,-2.24 68.52,-2.24l79.57 0c18.72,0 28.12,2.21 46.42,2.21l0 377.97c0,5.09 1.54,6.63 6.63,6.63l145.88 0c7.76,0 8.84,-9.81 8.84,-17.68l0 -369.12c13.11,0.29 26.62,3.83 43.88,1.89l148.49 -1.96c38.95,1.17 14.15,2.52 59.6,0.06l139.27 0c31.34,1.69 4.23,3.45 44.31,0.13l97.14 -0.11 0 2619.24 -3081.2 0 0 -2612.61zm532.69 -534.9l0 369.12 -84 0.01c-23.17,-1.25 -19.58,-2.17 -44.31,-0.13l-147.99 0.13c-23.17,-1.25 -19.58,-2.17 -44.31,-0.13 -24.68,2.04 -116.05,1.08 -145.84,0.19 -10.86,-0.33 -11.1,-2 -21.99,-2.39l-89.86 3.12 -68.81 37.28 -34.22 43.14c-4.81,8.76 -12.71,33.04 -12.71,42.55l0 2692.18c0,11.95 2.08,16.56 6.14,24.81l11.69 25.89c6.92,13.15 14.86,21.88 26.11,31.36 16.71,14.08 20.06,15.35 37.49,26.61 8.46,5.46 13.99,4.07 22.75,8.19 9.12,4.29 12.51,6.91 26.24,6.91l3143.09 0c16.77,0 21.99,-6.61 36.26,-10.16 13.57,-3.38 30.01,-13.96 40.87,-23.23 0.34,-0.3 0.81,-0.75 1.15,-1.06 0.34,-0.3 0.8,-0.77 1.14,-1.07l10.4 -9.49c0.33,-0.32 0.77,-0.8 1.09,-1.12 14.87,-14.79 12.67,-16.62 22.54,-30.51 8.44,-11.88 16.95,-31.92 16.95,-47.15l0 -2689.97c0,-15.35 -4.44,-22.77 -8.77,-35.43 -7.77,-22.72 -26.21,-44.03 -45.38,-58.51 -11.37,-8.58 -25.2,-18.74 -39.13,-22.75 -12.29,-3.54 -12.45,-7.79 -21.81,-9.13 -51.31,-7.39 -127.9,6.48 -179.81,-1.44l-182.53 1.29c-23.17,-1.25 -19.58,-2.17 -44.31,-0.13 -32.06,2.65 -103.73,0.11 -139.13,0.11 -14.7,0 -19.13,-2.21 -33.15,-2.21l0 -375.75c0,-5.17 -3.67,-8.84 -8.84,-8.84l-143.67 0c-14.69,0 -8.84,38.1 -8.84,48.63l0 298.4c0,37.52 6.51,42.11 -18.21,38.25 -9.74,-1.52 -18.08,-0.74 -26.93,0.6 -18.69,2.84 -131.58,2.26 -156.01,0.94 -23.17,-1.25 -19.58,-2.17 -44.31,-0.13l-147.98 0.13c-23.17,-1.25 -19.58,-2.17 -44.31,-0.13l-147.98 0.13c-23.17,-1.25 -19.58,-2.17 -44.31,-0.13l-150.2 0.13c-23.17,-1.25 -19.58,-2.17 -44.31,-0.13l-147.98 0.13c-23.17,-1.25 -19.58,-2.17 -44.31,-0.13l-147.98 0.13c-23.17,-1.25 -19.58,-2.17 -44.31,-0.13l-150.2 0.13c-23.17,-1.25 -19.58,-2.17 -44.31,-0.13l-147.99 0.13c-22.89,-1.24 -22.33,-2.13 -46.52,-0.13 -29.02,2.4 -59.23,0.11 -88.3,0.11 -11.75,0 -6.63,-32.89 -6.63,-42l0 -302.82c0,-13.44 4.92,-42 -8.84,-42l-143.67 0c-7.76,0 -8.84,9.81 -8.84,17.68z"/>
 </g>
</svg>
