<?xml version="1.0" encoding="UTF-8"?>
<!DOCTYPE svg PUBLIC "-//W3C//DTD SVG 1.1//EN" "http://www.w3.org/Graphics/SVG/1.1/DTD/svg11.dtd">
<!-- Creator: CorelDRAW 2019 (64-Bit) -->
<svg xmlns="http://www.w3.org/2000/svg" xml:space="preserve" width="124.384mm" height="121.558mm" version="1.1" style="shape-rendering:geometricPrecision; text-rendering:geometricPrecision; image-rendering:optimizeQuality; fill-rule:evenodd; clip-rule:evenodd"
viewBox="0 0 2220.46 2170"
 xmlns:xlink="http://www.w3.org/1999/xlink">
 <defs>
  <style type="text/css">
   <![CDATA[
    .fil6 {fill:#F6A30A}
    .fil0 {fill:#F59F15}
    .fil12 {fill:#F18D93}
    .fil5 {fill:#F08657}
    .fil8 {fill:#F0846F}
    .fil1 {fill:#EB5F61}
    .fil9 {fill:#F4B893}
    .fil11 {fill:#EEA7B8}
    .fil4 {fill:#F2D0B1}
    .fil13 {fill:#EBB8CA}
    .fil10 {fill:#D89866}
    .fil3 {fill:#B78D69}
    .fil7 {fill:#BCCBD0}
    .fil2 {fill:#7B7B7B}
    .fil14 {fill:#0A4A74}
   ]]>
  </style>
 </defs>
 <g id="Layer_x0020_1">
  <metadata id="CorelCorpID_0Corel-Layer"/>
  <g id="_2135032611936">
   <path class="fil0" d="M918.95 1282.04c8.61,-0.19 5.99,1.76 10.87,3.94 11.06,4.94 3.02,1.87 8.54,5.61 4.58,3.1 1.67,1.35 7.24,7 2.52,2.56 0.61,2.35 5.31,9.68 3.87,6.04 2.12,100.14 2.12,114.42 0,9.7 0.1,19.47 -0.11,29.16 -0.29,13.5 -1.17,6.84 -4.73,16.94 -1.22,3.48 -10.73,13.13 -13.84,15.09 -1.72,1.08 -3.55,1.21 -5.35,2.23 -4.2,2.38 -2.61,3.42 -10.05,3.93 -4.86,0.33 -10.11,0.31 -15,0.31 -16.94,0.03 -121.63,0.81 -129.94,-0.9 -4.32,-0.89 -2.28,-0.75 -4.99,-2.65 -2.19,-1.53 -2.83,-1.16 -5.32,-2.25 -3.1,-1.37 -1.74,-1.04 -3.55,-2.97 -1.45,-1.54 -0.21,-0.43 -1.8,-1.59 -5.98,-4.35 -1.5,-2.3 -5.77,-5.88 -2.35,-1.97 -2.44,-1.48 -2.72,-5.63 -3.42,-15.94 -4.99,5.94 -5.05,-39.98 -0.02,-15.27 -0.04,-30.54 -0.05,-45.8 -0,-9.34 -0.76,-60.99 0.57,-67.75 1.85,-9.43 10.53,-22.15 18.99,-26.92 2.84,-1.6 4.85,-1.89 8.01,-3.69 7.71,-4.38 42.82,-2.37 55.01,-2.37l91.61 0.04zm-98.91 -272.45c-6.5,0.25 -21.01,11.99 -28.2,15.37 -1.67,0.78 -2.06,0.66 -3.49,1.51 -2.5,1.49 -0.81,1 -3.19,2.63 -2.61,1.78 -4.7,1.72 -7.71,3.95 -3.3,2.45 -4.1,1.91 -7.05,3.79 -3.65,2.33 -10.27,7.38 -14.05,8.57 -1.99,0.63 -2.82,0.55 -4.3,1.45 -3.89,2.36 0.2,2.43 -5.62,5.1 -7.7,3.53 -15,9.07 -21.4,12.8 -1.57,0.92 -2.58,1 -4.1,1.76 -1.73,0.87 -1.39,1 -2.92,2.02l-11.03 6.49c-2.79,1.72 -4.59,1.32 -7.24,3.54 -2.74,2.3 0.49,0.46 -3.5,2.45l-24.14 14.91c-2.65,1.74 -4.84,2.1 -7.52,4.1 -6.22,4.65 -5.06,0.67 -8.26,5 -0.14,0.19 -0.51,0.82 -0.66,1l-11.87 6.58c-6.16,1.82 -3.73,2.73 -6.98,4.61 -4.05,2.35 1.1,-1.86 -6.97,3.87 -3.01,2.14 -4.06,1.71 -7.12,4.54 -3.36,3.1 -3.26,1.92 -7.64,3.24 -4.04,1.21 -3.71,2.95 -7.49,4.16 -6.91,2.22 -14.02,-1.78 -18.35,4.38 16.87,-1.5 13.88,-19.93 13.88,66.25 0,6.11 1.95,17.54 -3.14,19.72l0 222.22 2.75 1.15c1.11,10.87 0.31,73.03 0.3,89.18 0,14.38 -1.55,81.01 1.1,89.1 0.75,2.31 2.51,5.2 3.22,7.43 1.29,4.01 -0.34,6.34 1.97,9.89 3.19,4.92 1.37,1.15 3.51,7.24 1.74,4.93 2.52,1.63 5.04,6.48 0.97,1.87 0.32,1.26 1.97,3.24 0.74,0.89 2.12,2.27 2.73,3.05 0.42,0.54 2.14,3.2 2.35,3.43l15.73 12.85c5.17,2.87 0.51,3.06 6.72,4.35 10.11,2.11 2.15,0.33 6.94,4.22 2.19,1.78 6.37,1.52 8.98,2.03 4.43,0.88 3.88,1.89 8.58,3.03 9.16,2.22 32.72,1.08 43.88,1.08 33.35,0 354.47,0.88 358.14,-0.64 1.34,-44.56 -0.02,-91.15 0.01,-135.94 0.03,-45.53 -0.06,-91.05 -0.06,-136.58 0,-8.95 -0.96,-104.81 0.91,-110.09 1.44,-4.08 1.45,-0.91 3.27,-4.98 1.11,-2.45 0.79,-4.1 2.35,-5.83l14.3 -11.59c2.37,-1.13 3.09,-1.37 5.48,-2.77 8.49,-4.97 27.98,-2.95 40.31,-2.95l135.74 0c7.38,0 35.52,-1.71 40.58,1.92 7.14,5.12 5.81,1.43 10.07,6.5 3.58,4.26 8.83,6.92 11.72,13.99 1.99,4.89 1.68,2.12 3.22,5.14 3.17,6.22 1.59,99.73 1.59,109.81 0.01,91 -0.6,182.16 -0.04,273.13l89.43 0.28c0.15,-0.52 0.3,-1.02 0.35,-0.89 0,0 0.4,-2.64 9.02,-3.64 2.39,-0.28 4.95,-0.16 7.35,-0.35 8.59,-0.7 2.44,-2.74 10.39,-4.72 4.66,-1.16 3.25,-0.5 5.12,-2.69 1.62,-1.9 11.26,-7.53 13.39,-9.85l3.33 -3.18c6.7,-4.44 -0.98,0.11 4.98,-5.96 4.86,-4.96 2.08,-3.12 4.71,-6.97 2.45,-3.59 1.66,0.14 3.39,-4.29 0.75,-1.92 0.77,-4.32 1.51,-5.94 1.49,-3.25 1.18,-1.14 3.61,-3.4 0.4,-4.45 0.69,-8.15 1.62,-12.12 1.24,-5.28 2.98,-5.19 3.4,-10.38 1.02,-12.82 0.26,-68.76 0.25,-84.1l-0.05 -98.27c-0.04,-6.21 -1.16,-9.01 3.62,-11.4 -1.07,-8.36 -0.92,-94.35 0.56,-98.5l-3.01 -1.05c-2.19,-10.65 -0.84,-90.07 -0.89,-113.07 -0.01,-5.5 -1.22,-11.3 3.14,-13.23 0,-9.91 -1.41,-52.32 0.75,-58.33 -3.77,-1.92 -1.8,-3.15 -5.26,-4.66 -2.24,-0.97 -4.64,-0.72 -7.15,-2.01 -3.02,-1.54 -1.79,-2.17 -5.55,-3.47 -5.13,-1.76 -3.62,0.32 -7.11,-3.07 -1.48,-1.44 0.29,-0.4 -2.48,-1.84 -7.18,-3.74 -6.12,-4.43 -9.08,-5.71 -6.08,-2.63 -14.98,-9.41 -17.74,-10.47 -5.43,-2.09 -3.11,-1.8 -6.27,-3.87 -2.2,-1.45 -3.85,-1.25 -6.24,-2.92 -3.11,-2.18 -1.93,-1.97 -6.03,-3.99 -3.46,-1.71 -2.71,-2.27 -5.4,-3.71 -3.22,-1.71 -3.7,-0.86 -6.62,-3.39 -3.03,-2.62 -1.94,-1.81 -5.76,-3.44 -0.9,-0.39 -2.81,-1.35 -3.29,-1.71l-19.95 -12.5c-7.9,-3.47 -14.85,-9.35 -18.4,-10.74 -4.53,-1.78 -2.51,-1.24 -5.54,-3.6 -2.14,-1.67 -4.2,-1.75 -6.62,-3.43 -2.75,-1.91 -1.82,-1.87 -5.49,-3.54l-12.55 -6.74c-4.99,-4.28 -0.24,-1 -6.12,-3.88 -3.4,-1.67 -1.95,-2.23 -5.37,-3.81 -5.04,-2.32 -2.39,-0.3 -6.31,-3.61 -2.8,-2.38 -3.36,-1.57 -6.47,-2.97 -3.6,-1.62 -1.14,-2.01 -5.76,-4.11 -4.44,-2.02 -2.35,-0.57 -5.53,-3.46 -2.98,-2.69 -3,-1.34 -6.44,-2.97 -2.89,-1.37 -2.53,-2.33 -5.28,-3.77 -2.92,-1.52 -4.47,-1.8 -6.58,-3.39 -1.41,-1.06 -0.88,-0.84 -2.33,-1.75 -4.57,-2.84 -6.34,-4.57 -9.64,-5.7 -6.46,-2.21 -2.36,-3.09 -9.51,-4.93 -5.4,-1.39 -4.28,-1.41 -6.82,-4.09l-4.4 -3.23c-6.76,-5.62 -4.74,-1.83 -8.9,-5.27 -3.24,-2.69 -2.09,-1.78 -6.1,-3.87l-11.81 -7.36c-2.88,-2.31 -2.85,-1.37 -6.4,-2.98 -4.58,-2.07 -0.76,-1.98 -5.83,-4.12 -4.64,-1.96 -1.77,-0.47 -5.44,-3.47l-12.51 -6.89c-4.33,-1.82 -2.77,-2.02 -5.64,-4.07l-12.71 -6.68c-3.08,-1.34 -2.27,-2.37 -5.17,-3.88 -3.5,-1.83 -3.12,-0.59 -6.47,-3.47 -2.79,-2.4 -2.84,-1.88 -6.03,-3.29 -3.46,-1.53 -3.07,-2.4 -5.86,-3.93 -3.7,-2.04 -2.52,-0.8 -5.74,-3.45l-15.19 -9.18c-7.52,-7.54 -3.92,-0.55 -11.7,-7.17l-2.02 -2.04c-0.08,-0.1 -0.27,-0.32 -0.39,-0.49 -5.46,0.26 -3.73,-0.17 -6.22,-2.21 -2.72,-2.23 -2.07,-0.9 -5.46,-2.27l-13.47 -8.86c-11.67,-5.79 -2.96,-2.69 -8.89,-5.94l-23.97 -13.68c-1.47,-1.17 -2.52,-1.67 -4.59,-2.74 -7.54,-3.89 -8.13,-6.84 -16.27,-0.87 -1.8,1.32 -3.25,1.47 -5.16,2.33 -2.65,1.21 -1.35,1.57 -9.37,5.64l-9.33 5.64c-2.35,1.63 -1.71,2.09 -4.1,3.28 -2.99,1.49 -2.43,0.07 -5.14,2.5 -2.44,2.19 -0.13,1.47 -4.26,2.99 -8.32,3.07 -2.04,1.96 -10.08,5.15 -4.88,1.94 0.02,1.04 -9.45,5.5 -2.93,1.38 -2.17,1.67 -4.36,3.15 -1.96,1.32 -3.14,1.23 -5.24,2.31 -2.48,1.28 -2.14,1.79 -4.34,3.14l-14.63 8.65c-2.41,2.35 -0.69,1.51 -4.62,2.86 -5.76,1.99 -7.8,5.65 -19.75,10.52l-7.27 4.3c-6.73,3.54 -21.85,14.67 -24.81,15.81 -5.11,1.96 -12.96,7.9 -18.93,10.99 -2.94,1.52 -2.25,1.8 -4.34,3.19 -1.85,1.24 -3.5,1.4 -5.21,2.25 -4.07,2.02 -0.7,1.19 -4.25,3.26 -1.74,1.02 -3.28,1.23 -5,2.54 -2.07,1.58 -1.69,2.34 -3.89,3.39 -2.61,1.24 -2.29,-0.07 -5.26,2.47 -4.21,3.61 -5.91,2.26 -9.64,5.29 -5.38,4.37 -3.72,1.89 -7.47,4.15 -1.64,0.99 -0.84,0.65 -1.9,1.48l-19.58 11.01z"/>
   <path class="fil1" d="M968.1 739.86c-3.54,-0.02 -4.65,2.26 -4.95,2.5 -3.22,2.62 -2.1,0.62 -5.17,2.4 -3.74,2.17 0.67,1.52 -4.68,3.65 -1.26,0.5 -4.29,1.46 -4.81,1.76l-0.21 4.03c-1.11,0.47 -3.41,0.89 -4.37,1.62 -1.2,0.92 -0.12,-0.02 -1.1,1.34 -0.44,0.61 -0.33,0.87 -0.9,1.49 -1.32,1.42 -1.92,1.28 -4.07,1.66 -9.81,1.7 -2.63,2.65 -10.86,5.22 -5.79,1.82 -2.43,0.46 -4.91,4.88 -8.91,0.71 -4.79,2.94 -10.91,5 -5.04,1.7 -2.21,-0.57 -5.29,2.98 -2.04,2.35 -1.36,1.89 -4.7,2.75 -7.19,1.84 -1.26,-0.36 -5.14,3.27 -2.18,2.04 -2.5,1.26 -5.42,2.22 -4.21,1.38 -1.75,1.08 -3.94,3.28 -2.69,2.7 -1.97,0.38 -5.3,2.3 -2.87,4.12 -2.48,3.62 -9.06,4.59 -3.98,4.27 1.2,2.83 -6.95,5.16 -6.96,1.99 -0.26,1.71 -7.85,4.34 -4.62,1.6 -3.57,2.22 -6.81,4.32 -3.73,2.42 -3.9,0.51 -5.49,3.82 -2,4.16 -1.54,0.25 -5.39,3.8 -2.27,2.09 0.92,0.87 -2.98,2.48 -4.45,1.82 -5.45,0.2 -9.19,3.53 -2.02,1.8 -1.04,1.5 -4.26,2.5 -8.39,2.6 -1.79,2.66 -7.39,5 -1.43,0.6 -3.33,0.74 -4.5,1.33 -3.67,1.86 -0.12,0.91 -3.45,3.22 -1.76,1.22 -2.2,0.69 -4.2,1.7 -2.61,1.32 -0.98,1.1 -3.68,2.89 -2.53,1.69 -1.61,0.68 -4.28,1.68 -5.01,1.88 -0.99,0.4 -3.42,3.13 -2.41,2.71 -3.24,1.07 -6.72,2.46 -4.74,1.89 -1.14,3.91 -6.47,3.52 -4.39,-0.22 -4.74,1.97 -11.16,5.51 -2.67,1.47 -2.95,2.8 -5.08,3.98 -2.77,1.52 -3.31,0.42 -5.96,2.45 -2.45,1.88 -1.19,2.49 -5.28,3.78 -4.77,1.51 -2.44,-0.24 -5.84,2.59 -2.33,1.94 -8.33,6.09 -11.28,6.1 -1.11,2.42 -0.7,1.36 -5.76,5.16 -3.18,2.39 -4.63,1.21 -7.28,3.59l-13.95 8.57c-3.76,2 -2.05,3.57 -5.47,5.03 -2.85,1.22 -2.75,0.09 -5.97,2.53 -5.31,4.02 -6.14,2.01 -9.64,4.59l-13.9 8.53c-5.08,2.01 -2.16,2.26 -6.6,4.31 -1.29,0.59 -2.67,0.87 -3.68,1.35 -2.05,0.96 -1.78,1.27 -3.28,2.48 -2.54,2.05 -4.39,1.85 -7.48,4.23 -4.46,3.43 -4.71,2.31 -6.91,3.9 -3.28,2.36 0.8,1.53 -7.22,4.41 -6.21,0.96 -3.45,2.78 -17.56,5.3l0 1.29c21.58,0 15.6,3.02 22.83,-4.89 6.81,-3.06 0.68,-1.15 11.72,-6.38 2.7,-6.07 -1.14,-2.58 6.1,-5.15 7.25,-2.57 0.95,-2.74 7.08,-4.48 2.1,-0.6 2.82,-0.46 4.73,-1.39 0.01,-0 1.59,-1 1.63,-1.04l1.56 -1.79c3.34,-3.23 5.07,0.45 5.97,-5.69 6.15,-0.08 7.81,-0.83 9.99,-5l8.32 -0.52c0.16,-0.12 0.34,-0.69 0.4,-0.55 0.06,0.14 0.3,-0.46 0.39,-0.6 3,-4.67 0.21,-1.86 7.96,-4.3 3.69,-1.16 1.63,1.08 3.32,-1.95l77.17 15.1 2.8 -10.1 73.73 10.1 7.29 7.29 61.96 -3.65 21.77 7.61 13.44 -10.53c0.66,-2.5 1.31,-2.24 10.42,-2.62 2.68,-1.54 2.68,-2.64 6.28,-3.95 10.28,-3.75 1.55,-2.97 10.1,-5.74 0.16,-0.05 1.83,-0.57 1.92,-0.62 3.1,-1.36 1.68,-1.66 4.22,-3.25 1.39,-0.87 2.81,-1.12 4.33,-1.61l19.46 -12.09c1.35,-1.17 0.64,-1.12 2.63,-2.28l9.67 -5.91c6.96,-1.98 2.81,-0.97 7.25,-3.89 4.22,-2.78 12.9,-2.37 16.61,0.74 3.45,2.89 1.29,1.99 6.27,3.75 4.92,1.75 2.68,2.53 7.07,4 4.73,1.58 3.5,0.85 7.1,3.54 0.29,0.22 0.46,0.45 1.48,1.07 1.3,0.78 0.17,0.29 1.73,0.87 1.87,0.7 2.37,0.61 4.79,0.8l0.49 4.33c5.99,0.6 5.35,2.1 8.99,4.51 1.91,1.27 2.71,1.11 4.47,2.2 2.57,1.6 1.19,1.85 4.08,3.34 1.82,0.94 2.84,0.84 4.72,1.95 2.81,1.67 1.52,1.78 4.36,3.19 3.33,1.65 6.94,2.13 7.7,6.6 11.08,-1.15 1.63,1.34 11.72,4.86 3.93,1.37 2.57,1.72 4.83,3.45 2.05,1.57 3.87,1.33 6.3,2.89 6.04,3.87 8.74,6.72 15.52,9.42 5.27,2.1 1.58,1.7 5.14,3.98 2.68,1.72 3.6,0.36 6.25,2.14 2.51,1.69 0,1.6 4.83,3.55 4.54,1.83 2.01,0.97 5.11,3.16 2.21,1.56 3.95,1.44 6.21,2.97 3.97,2.69 0.37,1.91 4.58,3.73 8.01,3.46 1.41,0.04 7.88,4.57l8.68 4.31c2.4,0.32 3.92,0.72 7.06,0.82 2.07,7.81 4.72,1.97 10.53,7.77 2.69,2.69 3.8,2.84 9.47,2.95l0.95 4.11c4.88,0.01 6.33,1.73 9.53,3.76 4.1,2.6 3.15,-0.27 6.59,3.46 2.18,2.36 -0.81,0.29 2.08,2.01l8.79 3.01 68.83 5.19 -1.31 5.71 83.83 10.93 0 0 87.37 -5.82 0 0 63.14 -0.02c2.33,-0.02 4.21,-0.16 6.31,0.44l5.25 3.18c4.42,4.96 2.43,1.17 5.36,5.48 3.91,5.73 4.73,-0.78 4.96,8.32l4.71 0.21c0.2,2.65 0.46,4.1 1.37,5.94 1.17,2.37 1.74,2.92 4.85,4.35 -0.72,-4.73 -6.74,-14.85 -9.75,-19.3 -2.53,-3.74 -0.68,0.24 -5.45,-6.13l-9.12 -8.3c-7.59,-7.02 -21.95,-12.65 -25.06,-14.96 -2.15,-1.6 -0.71,-1.38 -2.97,-2.82 -2.75,-1.76 -4.59,-1.47 -7.65,-3.99l-15.05 -8.36c-2.6,-1.7 -0.65,-1.11 -2.97,-2.79 -1.3,-0.94 -2.65,-1.21 -3.99,-1.83 -3.32,-1.52 -3.63,-2.9 -7.2,-4.47 -5.15,-2.26 -3.19,-2.78 -7.08,-4.53 -4.08,-1.84 -5.68,-0.86 -6.54,-5.47 -5.06,0.57 -12.41,-6.38 -18.38,-9.6 -1.81,-0.97 -3.47,-1.2 -5.17,-2.36 -1.9,-1.3 -1.47,-1.81 -3.6,-3 -1.77,-0.99 -3.58,-1.12 -5.36,-2.16 -2.03,-1.19 -1.77,-1.88 -3.82,-2.9 -2.57,-1.28 -3.05,-0.51 -5.3,-2.2 -1.63,-1.22 -1.89,-2.22 -3.67,-3.02 -4.69,-2.12 -2.7,0.81 -7.14,-3.6 -3.27,-3.24 -4.81,-1.85 -7.76,-3.27 -1.87,-0.9 -1.36,-1.91 -3.5,-3.14 -2.78,-1.6 -4.4,-0.28 -6.97,-3.55 -0.1,-0.13 -0.25,-0.37 -0.34,-0.49l-0.7 -1.06c-0.06,-0.31 -0.22,-0.38 -0.35,-0.56 -5.24,-0.38 -3.87,-1.05 -6.16,-4.56 -16.69,-2.83 -3.84,-6.01 -17.71,-6.56 -3.42,-5.34 1.78,-1.79 -4.91,-5.21l-11.68 -8.18c-2.83,-1.92 -4.7,-1.07 -7.55,-3.28 -3.57,-2.77 -0.79,-1.91 -6.02,-4.01 -4.83,-1.94 -3.12,-2.8 -6.38,-4.34 -4.74,-2.24 -1.45,0.67 -6.38,-3.66 -2.37,-2.08 -4.27,-2.38 -8.49,-2.85 -4.24,-7.64 -2.11,-1.27 -8.91,-7.2 -2.99,-2.6 -1.84,-1.2 -5.51,-2.87 -2.41,-1.1 -1.69,-0.62 -4.31,-4.56 -0.11,-0.17 -0.3,-0.44 -0.44,-0.66 -3.59,-0.91 -3.55,-2.09 -6.06,-3.87 -2.19,-1.56 -4.14,-1.8 -6.68,-3.28l-19.66 -12.03c-2.72,-1.95 -3.76,-1.34 -6.55,-3.46 -3.9,-2.96 -2.4,-1.41 -6.73,-3.33 -3.55,-1.58 -1.72,-2.72 -5.96,-4.12 -10.33,1.78 -7.73,-2.17 -9.96,-3.49 -2.4,-1.43 -6,0.98 -8.77,-3.32l-8.72 -3.4c-1.58,-2.9 0.66,-1.93 -2.24,-3.93 -1.93,-1.33 -1.77,-0.1 -4.51,-2.31 -1.71,-1.38 -0.75,-1.63 -3.83,-2.78 -2.02,-0.76 -2.89,-0.7 -5.12,-0.86l-1.91 -4.39c-2.16,-0.26 -5.15,-0.66 -6.67,-1.17 -2.79,-0.94 -2.55,-1.21 -3.14,-4.13 -4.39,-0.35 -5.76,-0.43 -8.24,-2.73 -2.58,-2.39 0.84,-0.59 -2.74,-2.29 -0.51,-0.24 -3.43,-0.96 -4.07,-1.13 -2.45,-4.45 1.6,-3.09 -9.16,-5.01 -1.55,-2.53 0.19,-1.95 -1.79,-3.62 -1.49,-1.25 -0.46,-0.27 -2.33,-1.03 -0.21,-0.09 -0.44,-0.14 -0.65,-0.22 -5.46,-2.38 -0.82,-2.48 -7.86,-4.6 -7.34,-2.21 -1.53,-3.09 -6.71,-4.83 -1.87,-0.63 -2.8,-0.29 -4.72,-1.31 -3.56,-1.92 -0.44,-0.17 -2.59,-2.48 -2.85,-3.05 -4.25,-1.05 -7.75,-3.9 -1.63,-1.32 -0.54,-1.28 -3.11,-2.52 -11.42,-5.53 -0.14,-3.18 -10.05,-5.61 -4.97,-1.21 -4.76,-2.04 -5.85,-6.19 -6.84,-1.02 -2.65,-3.09 -7.13,-5.1 -2.51,-1.13 -2.27,-0.19 -4.98,-1.92 -2.63,-1.68 -0.87,-2.13 -3.77,-2 -10.36,0.59 -8.82,-2.82 -9.93,-4.87 -2.54,-0.18 -5.55,-0.27 -7.36,-1.17 -2.94,-1.47 -1.53,-1.67 -3.35,-3.99 -8.88,-0.58 -7.32,0.76 -10.67,-5.1 -8.52,-0.2 -10.71,0.87 -14.55,-3.16 -4.62,-4.86 -55.35,-2.11 -66.39,-1.88l-0.56 1.15c-0.1,0.19 -0.43,0.9 -0.56,1.11 -0.56,0.92 -0.07,0.58 -1.03,1.4 -1.07,0.91 -2.09,1.01 -3.69,1.15 -3.09,0.27 -6.76,0.13 -10,0.33 -1,1.52 -0.9,2.31 -1.74,3.89 -18.87,1.54 -1.35,5.09 -18.97,6.23 -3.43,6.81 -1.3,2.65 -7.61,5.58 -5.11,2.37 -0.64,4.62 -9.15,4.14z"/>
   <path class="fil1" d="M619.98 941.35c-5.53,0.82 -5.28,2.31 -8.57,4.76 -2.21,1.65 -2.83,1.04 -5.17,2.33 -2.24,1.23 -1.7,1.77 -4.29,3.2 -4.6,2.55 -2.13,-0.35 -6.83,4 -1.96,1.81 -0.03,0.62 -2.5,1.67 -10.68,4.52 -4.08,2.9 -9.63,5.36l-32.27 19.36c-2.34,1.52 -3.01,1.23 -5.11,2.38 -3.9,2.15 -0.71,1.38 -3.58,3.08 -1.45,0.86 -3.67,0.93 -5.51,1.99 -3.12,1.8 -1.57,1.93 -3.91,3.58l-19.46 18.01c-3.68,6.5 -3.42,2.07 -5.69,8.46 -2.61,7.34 -3.24,2.27 -4.83,10.16 -1.1,5.48 -8.6,13.63 -4.24,24.91 2.72,3.6 2.21,5.08 2.46,10.04 0.31,6.11 1.17,5.37 2.69,9.77 1,2.9 1.32,6.59 1.92,10.68 1.16,7.93 1.88,3.17 4.16,8.21 0.84,1.87 0.87,3.4 1.65,5.04l14.38 17.13c1.33,1.55 0.61,0.78 1.82,1.67 1.08,0.79 0.64,0.02 2,1.31 1.73,1.64 1.59,2.44 2.24,4.43 1.72,2.2 8.49,5.2 11.1,6.25 3.2,1.3 3.07,2.08 5.98,3.27 4.98,2.05 17.78,5.78 22.86,5.91 3.66,0.09 15.42,1.07 17.61,-0.9 4.33,-6.16 11.44,-2.16 18.35,-4.38 3.77,-1.21 3.44,-2.95 7.49,-4.16 4.38,-1.32 4.28,-0.14 7.64,-3.24 3.06,-2.83 4.11,-2.4 7.12,-4.54 8.07,-5.74 2.91,-1.53 6.97,-3.87 3.25,-1.88 0.82,-2.79 6.98,-4.61l11.87 -6.58c0.16,-0.18 0.52,-0.81 0.66,-1 3.2,-4.33 2.04,-0.35 8.26,-5 2.68,-2 4.88,-2.36 7.52,-4.1l24.14 -14.91c3.99,-1.99 0.76,-0.16 3.5,-2.45 2.65,-2.22 4.45,-1.83 7.24,-3.54l11.03 -6.49c1.52,-1.02 1.19,-1.14 2.92,-2.02 1.52,-0.76 2.53,-0.85 4.1,-1.76 6.4,-3.73 13.7,-9.27 21.4,-12.8 5.82,-2.67 1.73,-2.75 5.62,-5.1 1.49,-0.9 2.32,-0.82 4.3,-1.45 3.78,-1.19 10.39,-6.24 14.05,-8.57 2.95,-1.88 3.76,-1.34 7.05,-3.79 3.01,-2.23 5.1,-2.18 7.71,-3.95 2.38,-1.62 0.7,-1.14 3.19,-2.63 1.43,-0.85 1.82,-0.73 3.49,-1.51 7.19,-3.38 21.7,-15.12 28.2,-15.37 2.42,-5.14 0.43,-2.27 4.72,-5.13 2.8,-1.87 1.77,-2.2 4.26,-3.93 4.67,-3.26 2.59,0.49 11.04,-5.67 1.17,-0.85 1.77,-1.11 2.92,-2.07 4.48,-3.72 1.65,-2.2 7.69,-4.61 4.23,-1.69 1.92,-1.68 5,-3.47l5.95 -2.44c2.91,-2.14 0.34,-2.17 5.55,-3.61 3.22,-0.89 3.15,-0.65 5.34,-2.97 3.39,-3.6 1.96,-1.45 5.33,-2.99 3.56,-1.63 0.51,-1.42 4.94,-3.45 8.86,-4.07 4.91,-3.46 8.21,-5.13 0.79,-0.4 2.29,-0.75 3.17,-1.07 6.43,-2.3 3.24,-4.4 11.48,-5.64 3.73,-6 -1.94,-0.79 6.48,-5.41 4.74,-2.6 -1.24,-1.83 6.58,-4.28 3.08,-0.97 2.54,-0.79 4.62,-2.86 1.9,-1.89 -0.29,-0.58 2.28,-1.87l7.5 -4.17c1.5,-0.96 4.26,-1.68 5.17,-2.43 1.61,-1.33 1.14,-2.78 3.56,-3.77 2.88,-1.19 3.66,0.11 6.33,-2.09 2.61,-2.14 -0.05,-1.45 4.35,-3.18 7.64,-3 0.66,-4.12 9,-5.83 7.91,-1.62 2.58,-2.58 9.72,-5.34 9.61,-3.71 -1.47,-0.6 9.36,-5.36 -9.11,0.38 -9.76,0.12 -10.42,2.62l-14.14 0 -0.43 -5 -82.02 0 -0.01 -5.83 -81.6 0 -0.43 -5 -79.54 0c-1.69,3.03 0.37,0.79 -3.32,1.95 -7.75,2.43 -4.96,-0.37 -7.96,4.3 -0.09,0.14 -0.32,0.74 -0.39,0.6 -0.06,-0.14 -0.24,0.43 -0.4,0.55l-8.32 0.52c-2.19,4.17 -3.85,4.92 -9.99,5 -0.91,6.15 -2.63,2.47 -5.97,5.69l-1.56 1.79c-0.04,0.03 -1.62,1.03 -1.63,1.04 -1.9,0.93 -2.62,0.79 -4.73,1.39 -6.14,1.74 0.16,1.91 -7.08,4.48 -7.24,2.57 -3.4,-0.92 -6.1,5.15 -11.96,1.18 -5.45,2.48 -12.25,5.54 -10.2,4.59 -0.72,5.74 -22.3,5.74z"/>
   <path class="fil2" d="M1076.26 1459.3l-0.16 233.48 264.56 -0.06 0.05 -244.23c-1.25,1.53 -0.52,-1.58 -1,3.22l-0.13 28.74 -262.23 -0.08c0,-3.75 0.55,-18.37 -1.09,-21.07z"/>
   <path class="fil2" d="M1076.26 1468.28c1.64,2.59 1.09,16.66 1.09,20.26l262.23 0.08 0.13 -27.64c0.48,-4.61 -0.25,-1.62 1,-3.1 -1.1,-35.29 0.07,-79.01 0.07,-115.96 -0.01,-39.22 -1.22,-17.85 -4.95,-34.23 -1.27,-5.57 -0.98,-1.82 -3.66,-5.79 -3.94,-5.85 -8.27,-11.68 -16.48,-13.06 -0.56,-0.09 -2.68,-0.4 -3.56,-0.63 -4.17,-1.06 -2.35,-1.94 -6.56,-3.26 -4.88,-1.53 -162.34,-0.63 -180.09,-0.64 -24.09,-0.02 -13.8,1.65 -24.38,4.12 -3.29,0.77 -5.34,1.2 -7.29,2.74l-5.09 4.06c-1.68,1.38 -2.87,3.59 -4.47,5.41 -5.27,5.99 -1.22,6.22 -6.39,15.37l-1.48 6.05c-0.3,3.21 -0.23,6.63 -0.22,9.87l0.09 58.29c0,25.74 0.79,52.45 0.02,78.06z"/>
   <path class="fil2" d="M930.85 1482.03c0.45,-2.14 1.12,-2.38 4.45,-5.48l3.67 -3.65c0.07,-0.07 0.25,-0.24 0.32,-0.32 6.47,-6.65 5.75,-10.39 7.98,-15.7 1.43,-3.39 0.44,0.07 1.64,-3.31 1.11,-3.09 1.81,-123.49 0.82,-132.37 -0.52,-4.72 -0.92,-3.66 -2.5,-6.65 -1.33,-2.52 -1.29,-5.26 -2.12,-7.9 -0.36,-1.15 -0.16,-0.82 -0.77,-1.81l-3.12 -3.48c-4.47,-6.34 -8.51,-10.61 -16.08,-13.02 -11.32,-3.61 1.4,-4.03 -24.51,-4.02 -36.77,0.02 -78.49,-0.87 -114.09,0.07 -10.07,0.26 -8.41,1.2 -15.42,3.93 -4.98,1.94 -8.13,3.55 -11.95,7.1 -6.68,6.2 -6.27,9.71 -9.89,16.56 -0.09,0.17 -0.22,0.37 -0.31,0.53l-1.89 7.69c-1.44,30.35 -0.05,80.31 0.01,114.14 0.06,32.56 4.36,13.25 5.37,31.7 9.87,6.14 0.03,5.57 12.3,11.78 4.01,2.03 1.24,-0.07 3.38,3.97 15.5,0.84 6.23,3.63 16.9,4.84l129.59 -0.11c4.03,-0.73 7.68,-5.51 16.24,-4.51z"/>
   <path class="fil1" d="M1509.3 1140.45c1.73,-1.87 1.32,-0.75 3.66,-0.46 7.92,0.99 34.33,1.06 38.85,-1.3 2.22,-1.15 1.11,-1.26 3.56,-2.27 5.59,-2.29 2.21,1.47 12.63,-4.86 5.35,-3.25 2.78,0.08 7.18,-4.48 3.5,-3.62 1.68,-0.06 6.87,-4.79l4.65 -3.68c4.9,-4.1 8.2,-10.21 12.22,-14.43 2.71,-2.85 0.55,-2.78 4.08,-7.58 3.06,-4.16 1.97,-2.71 3.33,-8.33 1.1,-4.56 2.6,-4.53 3.63,-8.03 1.74,-5.9 0.21,-15.88 1.48,-21.47l0.14 -0.53c-1.59,-0.64 -2.85,1.07 -3.52,-6.08l-5.05 -18.96c-3.11,-1.43 -3.68,-1.99 -4.85,-4.35 -0.92,-1.84 -1.17,-3.3 -1.37,-5.94l-4.71 -0.21c-0.23,-9.1 -1.06,-2.59 -4.96,-8.32 -2.93,-4.31 -0.94,-0.52 -5.36,-5.48l-5.25 -3.18c-2.1,-0.61 -3.98,-0.47 -6.31,-0.44l-63.14 0.02 0.04 -5 -87.48 0 0.04 -5.83 -82.48 0 0 -5 -68.83 -0.19 -8.79 -3.01c-2.9,-1.72 0.09,0.35 -2.08,-2.01 -3.44,-3.73 -2.49,-0.86 -6.59,-3.46 -3.2,-2.03 -4.64,-3.75 -9.53,-3.76l-0.95 -4.11c-5.67,-0.11 -6.78,-0.26 -9.47,-2.95 -5.81,-5.8 -8.47,0.04 -10.53,-7.77 -3.14,-0.09 -4.66,-0.49 -7.06,-0.82 1.3,1.58 2.54,1.85 3.81,2.45 4.97,2.33 1.03,2.25 5.61,4.27 10.05,4.44 3.63,2.92 9.42,5.53 2.37,1.07 1.28,0.25 3.28,1.82 6.27,4.91 5.95,2.64 9.52,5.44l6.19 3.75c2.74,1.33 2.7,2.34 6.06,3.97 2.01,0.97 1.45,0.51 3.25,1.77 5.01,3.49 8.14,4.12 9.96,5.9 2.28,2.22 9.67,5.87 13.27,7.05 3,0.98 0.91,-0.22 3.46,1.27l1.42 0.99c5.77,4.65 -3.37,-0.74 7.45,5.09 3.33,1.8 0.89,1.85 6.35,3.77 6.77,2.37 1.86,4.88 13.99,5.84 0.72,1.18 0.94,2.4 1.63,3.17l11.65 8.5c7.51,5.43 4.3,2.22 9.2,4.88 6.92,3.76 7.6,6.4 15.4,9.42 2.97,1.15 1.63,0.65 3.27,1.98l11.99 7.04c6.42,2.88 3.05,1.99 6,4.05 2.22,1.55 4.02,1.32 6.71,3.3 8.01,5.89 4.38,2.48 9.5,4.68 2.61,1.12 0.54,0.32 2.73,2.27 2.97,2.64 3.45,0.87 6.51,3.5l11.32 7.75c4.79,1.71 3.26,-0.71 6.95,3.11l9.83 6.07c6.16,3.86 0.16,-1.24 7.78,5.44l25.21 13.95c2.26,2.12 -0.82,0.57 2.86,2.18 11.09,4.86 3.28,2.63 9.28,5.65 2.57,1.29 0.89,-0.06 3.27,1.78 7.19,5.57 4.56,2.71 8.54,5.48 8.92,6.19 3.14,0.56 12.32,6.86 6.31,4.33 8.73,-2.41 10.96,9.08z"/>
   <path class="fil0" d="M1284.54 725.9c3.36,2.39 1.6,6.91 -0.11,9.64 -2.5,4.01 -2.8,2.9 -2.92,9.24 -0.15,8.33 -0.11,16.7 -0.11,25.03 0.01,16.42 0.48,33.44 -0.93,48.99l1.45 0.72c6.25,0.48 3.85,1.87 7.49,3.73 2.05,1.05 6.25,1.04 7.73,2.27l2.4 2.69c1.47,0.97 2.85,0.93 4.07,1.28 5.25,1.5 0.83,2.05 5.21,4.44 3.36,1.84 4.38,-0.13 7.46,3.16 0.89,0.95 -0.09,1.01 3.07,2.32 8.76,3.63 0.2,3.83 10.04,5.23 4.57,0.65 2.99,1.26 4.46,4.84 2.48,0.08 7.05,0.55 8.34,1.77 3.46,3.29 -2.46,3.15 6.49,3.49 0.81,4.51 -0.54,3.35 3.33,4.56 5.56,1.73 4.31,-1.43 7.73,3.28 1.31,1.8 -0.38,0.65 1.82,1.91 1.72,0.99 3.85,0.83 6.37,1.02 0.83,1.15 0.99,2.23 1.22,4.46 12.42,1.1 -2.36,4.53 17.07,5.57 -1.59,-0.65 -1.47,-1.56 -1.15,1.66 0.34,3.51 -1.26,1.14 1.94,2.62 1.28,0.59 6.01,0.53 7.66,0.59 0.92,1.52 0.84,2.77 1.16,5.31 7.76,0.46 3.74,2.3 8.47,4.31 0.25,0.11 1.74,0.53 2.03,0.59 1.59,0.35 2.66,0.36 4.29,0.46 0.29,3.51 0.4,2.99 1.92,4.9 5.34,0.83 5.7,5.72 10.32,4.81 0.27,-30 -0.05,-60.15 -0.09,-90.17 -0.01,-8.74 0.54,-60.86 -0.57,-67.1 -1.22,-6.81 -5.24,-4.5 -4.28,-17.03l3.11 -1.05c-2.48,-3.08 -10.66,-12.06 -13.47,-13.68 -1.58,-0.91 -2.43,-0.9 -4.25,-1.58 -4.79,-1.81 -2.25,-2.6 -6.91,-3.91 -3.71,-1.05 -83.25,-1.17 -87.22,-0.12 -1.12,0.3 -11.86,5.69 -13.82,7.83 -2.39,2.61 0.23,0.18 -2.74,2.25 -4.64,3.24 0.84,-0.16 -5.67,5.97 -2.07,1.95 -1.18,1.04 -2.38,3.69z"/>
   <path class="fil3" d="M1073.89 1692.72l2.21 0.06 0.16 -224.5c0.77,-25.61 -0.02,-52.32 -0.02,-78.06l-0.09 -58.29c-0.01,-3.24 -0.08,-6.66 0.22,-9.87l1.48 -6.05c5.16,-9.15 1.12,-9.38 6.39,-15.37 1.6,-1.82 2.79,-4.03 4.47,-5.41l5.09 -4.06c1.95,-1.54 4,-1.97 7.29,-2.74 10.58,-2.48 0.29,-4.14 24.38,-4.12 17.75,0.01 175.21,-0.89 180.09,0.64 4.21,1.32 2.39,2.2 6.56,3.26 0.88,0.22 3,0.53 3.56,0.63 8.21,1.38 12.53,7.21 16.48,13.06 2.68,3.97 2.39,0.22 3.66,5.79 3.73,16.38 4.95,-4.98 4.95,34.23 0.01,36.95 -1.16,80.67 -0.07,115.96l-0.05 234.84 0.46 -0.05 2.22 -0.17c-0.56,-90.98 0.06,-182.13 0.04,-273.13 -0,-10.08 1.58,-103.59 -1.59,-109.81 -1.54,-3.03 -1.22,-0.25 -3.22,-5.14 -2.88,-7.07 -8.13,-9.73 -11.72,-13.99 -4.27,-5.07 -2.94,-1.38 -10.07,-6.5 -5.06,-3.64 -33.2,-1.92 -40.58,-1.92l-135.74 0c-12.33,0 -31.81,-2.02 -40.31,2.95 -2.39,1.4 -3.11,1.64 -5.48,2.77l-14.3 11.59c-1.56,1.73 -1.25,3.38 -2.35,5.83 -1.83,4.06 -1.83,0.9 -3.27,4.98 -1.87,5.28 -0.91,101.14 -0.91,110.09 -0,45.52 0.09,91.05 0.06,136.58 -0.03,44.8 1.33,91.38 -0.01,135.94z"/>
   <path class="fil4" d="M1073.76 1695.71l2.34 -2.93 -2.21 -0.06c-3.67,1.52 -324.79,0.64 -358.14,0.64 -11.15,0 -34.71,1.14 -43.88,-1.08 -4.7,-1.14 -4.14,-2.15 -8.58,-3.03 -2.61,-0.52 -6.8,-0.25 -8.98,-2.03 -4.79,-3.9 3.17,-2.12 -6.94,-4.22 -6.21,-1.29 -1.55,-1.49 -6.72,-4.35l-15.73 -12.85c-0.2,-0.23 -1.93,-2.88 -2.35,-3.43 -0.61,-0.78 -1.99,-2.16 -2.73,-3.05 -1.65,-1.98 -1,-1.37 -1.97,-3.24 -2.52,-4.84 -3.31,-1.55 -5.04,-6.48 -2.14,-6.08 -0.32,-2.32 -3.51,-7.24 -2.3,-3.55 -0.68,-5.88 -1.97,-9.89 -0.71,-2.22 -2.47,-5.12 -3.22,-7.43 -2.64,-8.09 -1.1,-74.71 -1.1,-89.1 0,-16.15 0.81,-78.31 -0.3,-89.18l-2.75 -1.15 -0.56 0.39c2.22,8.36 0.46,164.45 1.05,180.73 0.48,13.22 4.11,7.83 5.41,16.63 1.02,6.86 1.33,3.1 3.77,6.97 1.85,2.93 1.17,5.23 3.6,8.08l4.61 6.16c1.94,1.96 1.05,0.1 2.87,3.22 3.48,6 0.47,0.16 4.99,5.72 3.26,4.02 0.93,-1.05 6.96,4.59 6.83,6.39 12.04,7.34 13.62,9.02 1.91,2.02 -1.08,2.41 6.53,3.67l3.65 0.77c5.31,2.18 -1.76,2.3 10.06,3.38 14.17,1.29 30.12,0.77 45.01,0.77 120.55,-0 241.7,1.2 362.18,-0.03z"/>
   <path class="fil3" d="M930.85 1482.03c-8.56,-1.01 -12.21,3.78 -16.24,4.51l-129.59 0.11c-10.67,-1.21 -1.4,-4.01 -16.9,-4.84 -2.14,-4.04 0.63,-1.94 -3.38,-3.97 -12.27,-6.21 -2.43,-5.64 -12.3,-11.78 -1.01,-18.44 -5.31,0.86 -5.37,-31.7 -0.06,-33.83 -1.45,-83.78 -0.01,-114.14l1.89 -7.69c0.09,-0.16 0.22,-0.36 0.31,-0.53 3.63,-6.85 3.22,-10.36 9.89,-16.56 3.82,-3.55 6.98,-5.16 11.95,-7.1 7.01,-2.73 5.35,-3.67 15.42,-3.93 35.61,-0.93 77.32,-0.04 114.09,-0.07 25.91,-0.02 13.19,0.41 24.51,4.02 7.57,2.41 11.61,6.68 16.08,13.02l3.12 3.48c0.61,0.99 0.41,0.66 0.77,1.81 0.83,2.63 0.79,5.38 2.12,7.9 1.58,2.98 1.98,1.93 2.5,6.65 0.98,8.88 0.28,129.28 -0.82,132.37 -1.21,3.38 -0.22,-0.09 -1.64,3.31 -2.23,5.31 -1.51,9.05 -7.98,15.7 -0.07,0.07 -0.24,0.24 -0.32,0.32l-3.67 3.65c-3.34,3.1 -4,3.35 -4.45,5.48zm-180.99 -13.52c4.43,3.54 4.93,6.71 10.58,9.78 4.16,2.26 9.82,9.31 22.11,10.35l128.91 0.17c4.2,-0.17 7.33,-0.26 10.77,-1.85 2.78,-1.28 7.06,-3.04 8.61,-4.93 5.33,0.32 13.75,-10.33 15.71,-15.28l4.37 -11.55c1.31,-4.87 0.93,-70.12 0.93,-78.3 -0,-13.31 1.73,-52.39 -0.85,-62.73 -1.19,-4.75 -6.82,-16.06 -11.9,-20.14l-4.08 -3.25c-4.51,-4.05 -3.49,-1.3 -9.97,-5.64l-6.12 -3.1 -91.61 -0.04c-12.19,0 -47.29,-2.01 -55.01,2.37 -3.16,1.8 -5.17,2.09 -8.01,3.69 -8.47,4.77 -17.14,17.49 -18.99,26.92 -1.33,6.76 -0.57,58.41 -0.57,67.75 0.01,15.27 0.03,30.53 0.05,45.8 0.05,45.92 1.63,24.04 5.05,39.98z"/>
   <path class="fil5" d="M1509.3 1140.45c-2.23,-11.49 -4.66,-4.75 -10.96,-9.08 -9.18,-6.3 -3.4,-0.68 -12.32,-6.86 -3.99,-2.76 -1.36,0.09 -8.54,-5.48 -2.38,-1.85 -0.71,-0.49 -3.27,-1.78 -6,-3.03 1.81,-0.79 -9.28,-5.65 -3.67,-1.61 -0.6,-0.06 -2.86,-2.18l-25.21 -13.95c-7.63,-6.67 -1.62,-1.57 -7.78,-5.44l-9.83 -6.07c-3.69,-3.81 -2.16,-1.4 -6.95,-3.11l-11.32 -7.75c-3.06,-2.63 -3.54,-0.86 -6.51,-3.5 -2.2,-1.95 -0.13,-1.15 -2.73,-2.27 -5.12,-2.2 -1.5,1.2 -9.5,-4.68 -2.68,-1.98 -4.49,-1.75 -6.71,-3.3 -2.95,-2.06 0.42,-1.17 -6,-4.05l-11.99 -7.04c-1.64,-1.33 -0.3,-0.83 -3.27,-1.98 -7.8,-3.02 -8.48,-5.66 -15.4,-9.42 -4.91,-2.67 -1.69,0.55 -9.2,-4.88l-11.65 -8.5c-0.69,-0.77 -0.91,-1.98 -1.63,-3.17 -12.13,-0.96 -7.22,-3.47 -13.99,-5.84 -5.46,-1.92 -3.02,-1.97 -6.35,-3.77 -10.81,-5.83 -1.67,-0.44 -7.45,-5.09l-1.42 -0.99c-2.55,-1.49 -0.47,-0.28 -3.46,-1.27 -3.6,-1.18 -10.99,-4.83 -13.27,-7.05 -1.82,-1.78 -4.96,-2.41 -9.96,-5.9 -1.8,-1.26 -1.24,-0.79 -3.25,-1.77 -3.36,-1.63 -3.32,-2.64 -6.06,-3.97l-6.19 -3.75c-3.57,-2.8 -3.25,-0.53 -9.52,-5.44 -2,-1.57 -0.91,-0.75 -3.28,-1.82 -5.79,-2.6 0.63,-1.08 -9.42,-5.53 -4.57,-2.02 -0.63,-1.94 -5.61,-4.27 -1.28,-0.6 -2.51,-0.87 -3.81,-2.45l-8.68 -4.31c-6.47,-4.53 0.13,-1.11 -7.88,-4.57 -4.21,-1.82 -0.61,-1.04 -4.58,-3.73 -2.25,-1.53 -4,-1.41 -6.21,-2.97 -3.1,-2.19 -0.57,-1.33 -5.11,-3.16 -4.83,-1.95 -2.32,-1.87 -4.83,-3.55 -2.65,-1.78 -3.57,-0.42 -6.25,-2.14 -3.56,-2.28 0.13,-1.89 -5.14,-3.98 -6.78,-2.7 -9.48,-5.55 -15.52,-9.42 -2.43,-1.56 -4.25,-1.32 -6.3,-2.89 -2.26,-1.73 -0.9,-2.08 -4.83,-3.45 -10.09,-3.51 -0.63,-6.01 -11.72,-4.86 0.12,0.17 0.31,0.39 0.39,0.49l2.02 2.04c7.78,6.62 4.18,-0.37 11.7,7.17l15.19 9.18c3.23,2.65 2.04,1.41 5.74,3.45 2.78,1.53 2.39,2.4 5.86,3.93 3.19,1.41 3.24,0.89 6.03,3.29 3.35,2.88 2.97,1.64 6.47,3.47 2.91,1.52 2.1,2.54 5.17,3.88l12.71 6.68c2.87,2.05 1.31,2.24 5.64,4.07l12.51 6.89c3.67,3 0.8,1.51 5.44,3.47 5.07,2.14 1.25,2.05 5.83,4.12 3.56,1.61 3.52,0.67 6.4,2.98l11.81 7.36c4.01,2.09 2.87,1.18 6.1,3.87 4.16,3.44 2.14,-0.35 8.9,5.27l4.4 3.23c2.54,2.68 1.42,2.71 6.82,4.09 7.14,1.84 3.04,2.72 9.51,4.93 3.3,1.13 5.07,2.86 9.64,5.7 1.46,0.91 0.92,0.69 2.33,1.75 2.11,1.58 3.66,1.86 6.58,3.39 2.75,1.44 2.38,2.4 5.28,3.77 3.45,1.63 3.47,0.28 6.44,2.97 3.18,2.88 1.09,1.44 5.53,3.46 4.62,2.1 2.16,2.49 5.76,4.11 3.11,1.4 3.67,0.6 6.47,2.97 3.91,3.32 1.27,1.29 6.31,3.61 3.43,1.58 1.98,2.14 5.37,3.81 5.88,2.88 1.13,-0.4 6.12,3.88l12.55 6.74c3.67,1.67 2.74,1.63 5.49,3.54 2.42,1.68 4.48,1.76 6.62,3.43 3.03,2.36 1.01,1.82 5.54,3.6 3.55,1.39 10.49,7.27 18.4,10.74l19.95 12.5c0.48,0.35 2.39,1.32 3.29,1.71 3.81,1.63 2.72,0.82 5.76,3.44 2.92,2.53 3.41,1.68 6.62,3.39 2.69,1.44 1.94,2 5.4,3.71 4.09,2.02 2.92,1.81 6.03,3.99 2.38,1.67 4.03,1.47 6.24,2.92 3.16,2.07 0.84,1.79 6.27,3.87 2.76,1.06 11.67,7.84 17.74,10.47 2.95,1.28 1.9,1.97 9.08,5.71 2.77,1.44 1,0.4 2.48,1.84 3.49,3.39 1.98,1.31 7.11,3.07 3.76,1.3 2.53,1.93 5.55,3.47 2.51,1.28 4.91,1.03 7.15,2.01 3.47,1.51 1.49,2.74 5.26,4.66z"/>
   <path class="fil6" d="M898.13 778.85c2.45,-0.09 10.83,-5.07 13,-6.89 3.2,-2.68 2.6,-1.37 6.33,-3.07 4.18,-1.91 1.21,-2.22 5.65,-4.25 3.4,-1.55 2.95,-0.7 5.9,-3.1l19.48 -11.38c0.52,-0.3 3.55,-1.26 4.81,-1.76 5.35,-2.13 0.94,-1.48 4.68,-3.65 3.07,-1.78 1.95,0.22 5.17,-2.4 0.3,-0.24 1.41,-2.53 4.95,-2.5l4.19 -4.14c2.82,-2.48 0.79,-1.09 4.53,-2.43 5.71,-2.06 3.26,-3.33 9.08,-5.15 5.81,-1.82 2.28,-2.71 8.63,-5.07 5.17,-1.92 4.37,-2.99 8.93,-4.47 10.67,-3.46 12.61,-5.09 22.04,-6.14 9.75,-1.08 7.65,-1.8 11.29,-2.78 7.48,-2 29.91,-1.63 37.63,1.25 7.99,2.98 13.79,0.56 22.35,5.23 3.51,1.92 7.71,1.79 10.51,3.54 2.84,1.78 0.43,1.2 3.85,2.69 1.82,0.79 3.17,0.83 5.06,1.66 3.09,1.35 2.15,1.72 4.58,3 1.82,0.96 3.05,0.99 4.75,1.96l8.1 6.05c2.9,-0.12 1.15,0.33 3.77,2 2.71,1.73 2.47,0.79 4.98,1.92 4.48,2.01 0.29,4.08 7.13,5.1 5.79,1.29 3.41,2.66 8.57,4.65 4.99,1.92 4.49,2.72 8.59,4.43 5.68,2.36 3.16,2.47 7.26,4.93l8.24 4.98c2.13,1.53 1.4,0.66 3.9,1.82l20.17 11.67c7.12,5.45 4.4,2.41 8.24,5.05 7.25,4.97 4.6,2.38 8.06,4.49 1.57,0.96 1.22,1.21 3.23,2.56 1.77,1.18 2.55,1.19 4.52,2.13l23.71 14.52c3.91,1.53 14.78,9.63 15.02,9.75 5.83,2.89 -0.88,-1.52 8.87,4.6l2.6 -0.84c1.41,-15.54 0.94,-32.57 0.93,-48.99 -0,-8.33 -0.04,-16.7 0.11,-25.03 0.11,-6.34 0.41,-5.23 2.92,-9.24 1.71,-2.73 3.47,-7.25 0.11,-9.64l-1.33 -0.23c0.27,7.79 -0.91,4.56 -2.8,9.02 -1.87,4.41 -1.21,28.51 -1.21,34.28 0,9.91 1.22,40.1 -1.16,47.65 -3.76,-3.89 -3.98,-0.02 -10.35,-5.73l-11.13 -6.8c-3.34,-1.4 -2.36,-1.28 -4.78,-3.21 -3.22,-2.56 -2.4,-0.47 -8.83,-5.35 -0.15,-0.11 -0.34,-0.27 -0.49,-0.37l-18.45 -10.86c-7.24,-3.99 -6.41,-4.78 -11.14,-6.37 -2.95,-0.99 -2.94,-1.65 -4.74,-3.25 -2.53,-2.24 -3.57,-1.6 -6.27,-3.1 -2.58,-1.44 -2.2,-1.97 -5.56,-3.63 -4.6,-2.27 -3.21,-2.6 -8.65,-4.88 -5.21,-2.19 -4.06,-2.97 -7.98,-5.03 -9.41,-4.94 -1.72,-2.04 -11.05,-6.41l-16.08 -9.77c-2.95,-1.11 -13.15,-8.34 -17.17,-9.81 -3.86,-1.42 -2.11,-0.93 -4.78,-3.08 -2.89,-2.33 -3.22,-1.58 -6.43,-3.06 -2.96,-1.36 -2.32,-1.98 -4.83,-3.32 -4.42,-2.35 0.38,1.26 -8.88,-4.45 -1.95,-1.2 -1.39,-0.82 -3.84,-1.44 -16.38,-4.15 -2.51,-2.76 -20.59,-5.98 -5.34,-0.95 -8.66,-2.93 -13.34,-3.88 -6.39,-1.29 -27.63,-0.68 -34.02,-0.01 -6.74,0.71 -8.82,2.25 -14.18,3.43 -5.84,1.29 -8.94,0.97 -14.07,3.41 -3.85,1.83 -10.32,2.83 -12.94,4.69 -4.43,3.17 -13.44,6.77 -17.69,8.99 -2.71,1.42 -1.99,2.19 -5.29,3.87l-11.21 6.24c-3.37,1.72 -2.14,1.97 -4.83,3.51 -2.73,1.56 -3.29,0.99 -5.99,3.17l-10.45 6.91c-2.27,1.34 -3.76,1.33 -5.83,2.55 -2.7,1.59 -2.31,1.97 -5.68,3.53 -5.19,2.4 -1.44,0.46 -4.68,3.83 -3.32,3.46 -0.87,-1.31 -10.38,6.09 -0.12,0.09 -0.31,0.25 -0.44,0.34 -1.9,1.3 -0.43,0.15 -2.77,1.26 -2.38,1.14 -1.29,0.64 -3.04,2.18 -4.21,3.74 -8.41,1.87 -11.05,8.02z"/>
   <path class="fil7" d="M1341.12 1692.67l-0.46 0.05 -264.56 0.06 -2.34 2.93c28.02,1.37 59.16,0.16 87.52,0.16l263.99 -0.28c7.22,-0.01 13.82,-0.17 19.98,-1.56 4.56,-1.03 3.43,-2.19 7.57,-3.29 3.76,-1.01 5.25,-0.29 8,-2.63 5.33,-4.54 2.62,-1.47 7.05,-3.85 2.53,-1.36 3.35,-2.75 6.41,-4.47 3.38,-1.9 1.76,-1.74 3.92,-3.5 1.66,-1.36 0.65,-0.4 2.21,-1.29 3.19,-1.82 1.18,-1.16 3.94,-3.45 0.15,-0.12 0.36,-0.27 0.51,-0.38 6.05,-4.59 0.5,-1.24 4.77,-5.91l3.44 -4.83c2.39,-3.11 1.29,-0.45 3.33,-2.54 2.31,-2.38 0.38,-4.65 3.18,-7.72 1.01,-1.1 2.17,-1.14 2.86,-2.58 0.71,-1.48 0.35,-3.11 0.57,-5.03 0.78,-6.87 1.88,-2.53 3.67,-7.4 3.01,-8.21 1.51,-141.55 1.51,-164.13 -0,-13.59 -0.94,-30.97 0.28,-44.1 -4.07,7.21 1.86,182.78 -1.93,202.99 -0.58,3.1 -2.84,5.96 -3.87,9.23 -3.54,11.22 -1.4,4.21 -4.28,9.88 -2.47,4.85 -0.35,4.42 -4.42,8.92l-6.45 7.72c-5.14,7.06 -4.91,5.86 -10.66,10.17 -3.6,2.7 -7.73,6.76 -11.69,8.4l-25.17 9.26c-11.68,2.09 -59.5,1.27 -73.84,1.26 -4.84,-0 -23.12,2.33 -25.03,-2.06z"/>
   <path class="fil8" d="M980.57 910.83c-10.83,4.76 0.25,1.65 -9.36,5.36 -7.14,2.75 -1.82,3.72 -9.72,5.34 -8.35,1.71 -1.37,2.83 -9,5.83 -4.4,1.73 -1.74,1.04 -4.35,3.18 -2.67,2.2 -3.46,0.9 -6.33,2.09 -2.42,1 -1.94,2.44 -3.56,3.77 -0.91,0.75 -3.67,1.47 -5.17,2.43l-7.5 4.17c-2.56,1.29 -0.38,-0.01 -2.28,1.87 -2.08,2.07 -1.54,1.89 -4.62,2.86 -7.82,2.45 -1.84,1.68 -6.58,4.28 -8.42,4.62 -2.74,-0.6 -6.48,5.41 -8.24,1.23 -5.04,3.33 -11.48,5.64 -0.88,0.32 -2.38,0.66 -3.17,1.07 -3.3,1.67 0.66,1.06 -8.21,5.13 -4.43,2.03 -1.39,1.82 -4.94,3.45 -3.37,1.54 -1.94,-0.6 -5.33,2.99 -2.19,2.32 -2.11,2.08 -5.34,2.97 -5.2,1.44 -2.63,1.47 -5.55,3.61l-5.95 2.44c-3.08,1.79 -0.77,1.78 -5,3.47 -6.04,2.41 -3.21,0.89 -7.69,4.61 -1.15,0.96 -1.75,1.21 -2.92,2.07 -8.45,6.16 -6.37,2.41 -11.04,5.67 -2.49,1.74 -1.45,2.07 -4.26,3.93 -4.3,2.86 -2.3,-0.01 -4.72,5.13l19.58 -11.01c1.06,-0.83 0.26,-0.49 1.9,-1.48 3.75,-2.25 2.09,0.23 7.47,-4.15 3.73,-3.03 5.43,-1.68 9.64,-5.29 2.97,-2.55 2.65,-1.23 5.26,-2.47 2.2,-1.05 1.82,-1.81 3.89,-3.39 1.73,-1.31 3.26,-1.53 5,-2.54 3.55,-2.07 0.18,-1.24 4.25,-3.26 1.72,-0.85 3.36,-1.01 5.21,-2.25 2.08,-1.39 1.39,-1.67 4.34,-3.19 5.97,-3.1 13.82,-9.03 18.93,-10.99 2.96,-1.14 18.08,-12.26 24.81,-15.81l7.27 -4.3c11.94,-4.88 13.99,-8.54 19.75,-10.52 3.93,-1.35 2.21,-0.51 4.62,-2.86l14.63 -8.65c2.2,-1.36 1.85,-1.86 4.34,-3.14 2.1,-1.08 3.28,-0.99 5.24,-2.31 2.19,-1.47 1.43,-1.77 4.36,-3.15 9.47,-4.46 4.57,-3.57 9.45,-5.5 8.04,-3.19 1.76,-2.08 10.08,-5.15 4.13,-1.52 1.82,-0.8 4.26,-2.99 2.71,-2.43 2.15,-1.01 5.14,-2.5 2.4,-1.19 1.75,-1.65 4.1,-3.28l9.33 -5.64c8.03,-4.06 6.72,-4.43 9.37,-5.64 1.9,-0.87 3.36,-1.01 5.16,-2.33 8.14,-5.97 8.72,-3.02 16.27,0.87 2.07,1.07 3.12,1.57 4.59,2.74l23.97 13.68c5.93,3.25 -2.78,0.15 8.89,5.94l13.47 8.86c3.39,1.37 2.74,0.04 5.46,2.27 2.49,2.04 0.76,2.47 6.22,2.21 -0.77,-4.47 -4.38,-4.95 -7.7,-6.6 -2.85,-1.41 -1.55,-1.52 -4.36,-3.19 -1.87,-1.11 -2.9,-1.01 -4.72,-1.95 -2.89,-1.49 -1.51,-1.74 -4.08,-3.34 -1.76,-1.1 -2.56,-0.94 -4.47,-2.2 -3.64,-2.42 -3.01,-3.91 -8.99,-4.51l-0.49 -4.33c-2.42,-0.19 -2.93,-0.09 -4.79,-0.8 -1.55,-0.58 -0.43,-0.09 -1.73,-0.87 -1.02,-0.61 -1.19,-0.85 -1.48,-1.07 -3.6,-2.68 -2.37,-1.96 -7.1,-3.54 -4.39,-1.46 -2.15,-2.25 -7.07,-4 -4.97,-1.76 -2.82,-0.86 -6.27,-3.75 -3.71,-3.11 -12.38,-3.52 -16.61,-0.74 -4.44,2.93 -0.3,1.92 -7.25,3.89l-9.67 5.91c-1.99,1.16 -1.28,1.11 -2.63,2.28l-19.46 12.09c-1.52,0.49 -2.94,0.74 -4.33,1.61 -2.53,1.6 -1.12,1.89 -4.22,3.25 -0.09,0.04 -1.76,0.57 -1.92,0.62 -8.56,2.77 0.17,1.99 -10.1,5.74 -3.59,1.31 -3.6,2.42 -6.28,3.95z"/>
   <path class="fil9" d="M1343.34 1692.5l-2.22 0.17c1.91,4.39 20.18,2.06 25.03,2.06 14.34,0.01 62.15,0.83 73.84,-1.26l25.17 -9.26c3.96,-1.64 8.09,-5.7 11.69,-8.4 5.74,-4.31 5.52,-3.11 10.66,-10.17l6.45 -7.72c4.07,-4.5 1.95,-4.07 4.42,-8.92 2.89,-5.67 0.74,1.34 4.28,-9.88 1.03,-3.27 3.29,-6.14 3.87,-9.23 3.79,-20.2 -2.14,-195.78 1.93,-202.99l0.3 -2.28c-4.78,2.4 -3.65,5.2 -3.62,11.4l0.05 98.27c0.01,15.34 0.77,71.29 -0.25,84.1 -0.41,5.19 -2.16,5.1 -3.4,10.38 -0.93,3.97 -1.22,7.67 -1.62,12.12 -2.43,2.26 -2.12,0.16 -3.61,3.4 -0.74,1.62 -0.76,4.01 -1.51,5.94 -1.73,4.43 -0.94,0.71 -3.39,4.29 -2.63,3.84 0.15,2.01 -4.71,6.97 -5.95,6.07 1.73,1.52 -4.98,5.96l-3.33 3.18c-2.12,2.32 -11.77,7.95 -13.39,9.85 -1.87,2.19 -0.46,1.53 -5.12,2.69 -7.94,1.98 -1.79,4.02 -10.39,4.72 -2.4,0.19 -4.97,0.08 -7.35,0.35 -8.62,1 -9.02,3.64 -9.02,3.64 -0.06,-0.14 -0.21,0.37 -0.35,0.89l-89.43 -0.28z"/>
   <path class="fil10" d="M930.85 1482.03c-1.55,1.89 -5.83,3.65 -8.61,4.93 -3.44,1.59 -6.57,1.68 -10.77,1.85l-128.91 -0.17c-12.29,-1.04 -17.95,-8.09 -22.11,-10.35 -5.65,-3.07 -6.15,-6.24 -10.58,-9.78 0.29,4.15 0.38,3.66 2.72,5.63 4.28,3.58 -0.21,1.53 5.77,5.88 1.59,1.15 0.35,0.04 1.8,1.59 1.81,1.92 0.45,1.6 3.55,2.97 2.49,1.1 3.13,0.73 5.32,2.25 2.71,1.9 0.67,1.76 4.99,2.65 8.31,1.71 112.99,0.93 129.94,0.9 4.89,-0.01 10.14,0.02 15,-0.31 7.44,-0.51 5.86,-1.55 10.05,-3.93 1.8,-1.02 3.63,-1.15 5.35,-2.23 3.12,-1.96 12.62,-11.61 13.84,-15.09 3.56,-10.1 4.44,-3.44 4.73,-16.94 0.2,-9.69 0.11,-19.47 0.11,-29.16 0,-14.28 1.75,-108.39 -2.12,-114.42 -4.69,-7.33 -2.78,-7.12 -5.31,-9.68 -5.57,-5.65 -2.67,-3.9 -7.24,-7 -5.52,-3.75 2.51,-0.68 -8.54,-5.61 -4.88,-2.18 -2.26,-4.13 -10.87,-3.94l6.12 3.1c6.48,4.35 5.45,1.6 9.97,5.64l4.08 3.25c5.08,4.08 10.71,15.38 11.9,20.14 2.58,10.34 0.85,49.42 0.85,62.73 0,8.18 0.38,73.43 -0.93,78.3l-4.37 11.55c-1.96,4.94 -10.38,15.59 -15.71,15.28z"/>
   <path class="fil1" d="M968.1 739.86c8.51,0.49 4.04,-1.76 9.15,-4.14 6.3,-2.93 4.18,1.22 7.61,-5.58 17.62,-1.14 0.09,-4.69 18.97,-6.23 0.84,-1.58 0.74,-2.37 1.74,-3.89 3.24,-0.2 6.91,-0.06 10,-0.33 1.6,-0.14 2.62,-0.23 3.69,-1.15 0.96,-0.82 0.47,-0.48 1.03,-1.4 0.13,-0.21 0.46,-0.92 0.56,-1.11l0.56 -1.15c11.04,-0.23 61.76,-2.98 66.39,1.88 3.83,4.03 6.03,2.96 14.55,3.16 3.35,5.86 1.79,4.52 10.67,5.1 1.82,2.33 0.41,2.52 3.35,3.99 1.81,0.91 4.82,0.99 7.36,1.17 1.11,2.05 -0.44,5.46 9.93,4.87l-8.1 -6.05c-1.7,-0.97 -2.93,-1 -4.75,-1.96 -2.43,-1.28 -1.49,-1.65 -4.58,-3 -1.9,-0.83 -3.24,-0.87 -5.06,-1.66 -3.42,-1.49 -1.01,-0.91 -3.85,-2.69 -2.8,-1.76 -7,-1.62 -10.51,-3.54 -8.56,-4.68 -14.37,-2.25 -22.35,-5.23 -7.72,-2.88 -30.15,-3.25 -37.63,-1.25 -3.65,0.98 -1.54,1.7 -11.29,2.78 -9.44,1.05 -11.37,2.67 -22.04,6.14 -4.56,1.48 -3.76,2.55 -8.93,4.47 -6.35,2.36 -2.82,3.25 -8.63,5.07 -5.82,1.82 -3.37,3.09 -9.08,5.15 -3.73,1.34 -1.7,-0.05 -4.53,2.43l-4.19 4.14z"/>
   <path class="fil6" d="M1422.84 900.78c0.82,6.38 1.07,5.81 5.26,8.59 0.13,0.18 0.29,0.26 0.35,0.56l0.7 1.06c0.09,0.12 0.24,0.36 0.34,0.49 2.57,3.27 4.2,1.95 6.97,3.55 2.14,1.23 1.63,2.24 3.5,3.14 2.95,1.42 4.5,0.03 7.76,3.27 4.45,4.41 2.45,1.48 7.14,3.6 1.79,0.8 2.05,1.8 3.67,3.02 2.25,1.69 2.73,0.92 5.3,2.2 2.05,1.02 1.8,1.71 3.82,2.9 1.78,1.04 3.6,1.17 5.36,2.16 2.13,1.19 1.7,1.7 3.6,3 1.7,1.16 3.36,1.39 5.17,2.36 5.97,3.22 13.32,10.17 18.38,9.6 -0.14,-0.12 -0.39,-0.47 -0.45,-0.33l-4.01 -2.42c-1.57,-0.97 -2.58,-2.03 -4.35,-3.1l-29.2 -16.8c-1.72,-1.31 -2.27,-2.33 -4.01,-3.19 -11.17,-5.5 -4.17,-2.47 -9.17,-5.79 -1.79,-1.19 -3.79,-1.48 -5.73,-2.64l-9.3 -5.81c-4.84,-4.07 -7.84,-1.15 -8.54,-8.01 -1.52,-10.12 -0.64,-115.6 -0.64,-134.85 0,-8.04 1.11,-25.25 -2.29,-32.1 -2.26,-4.56 -2.59,-2.85 -1.5,-9.76l-3.11 1.05c-0.96,12.53 3.06,10.21 4.28,17.03 1.12,6.24 0.56,58.36 0.57,67.1 0.04,30.02 0.36,60.17 0.09,90.17z"/>
   <path class="fil1" d="M898.13 778.85c-2.12,0.23 -2.8,1.08 -4.23,1.49 -1.67,5.3 -3.05,2.85 -7.39,5.42 -3.7,2.19 1.26,0.27 -7.39,4.43 -3.89,1.87 -2.28,2.76 -6.54,4.68 -6.08,2.74 -3.88,2.93 -7.2,4.54 -1.45,0.7 -2.8,0.89 -4.25,1.67 -2.13,1.15 -1.54,1.34 -3.29,2.58 -2.79,1.98 -4.83,1.75 -7.72,3.95 -3.92,2.98 -9.61,5.67 -14.27,8.33 -2.92,1.66 -3.27,3.25 -6.67,4.67 -1.62,0.67 -2.57,0.81 -4.09,1.79 -1.68,1.08 -1.36,1.42 -3.31,2.58 -1.45,0.87 -2.5,1.01 -3.96,1.91 -1.61,0.99 -1.8,1.57 -3.24,2.53 -2.69,1.82 -4.2,1.47 -7.18,3.72l-21.35 13.21c-2.42,0.88 -3.45,0.31 -5.66,3.34 -1.12,1.53 0.1,-0.44 -1.11,2 5.33,0.39 1.74,-1.63 6.47,-3.52 3.48,-1.39 4.31,0.25 6.72,-2.46 2.43,-2.73 -1.59,-1.25 3.42,-3.13 2.67,-1.01 1.76,0 4.28,-1.68 2.69,-1.79 1.06,-1.57 3.68,-2.89 2,-1.01 2.44,-0.48 4.2,-1.7 3.33,-2.3 -0.21,-1.36 3.45,-3.22 1.17,-0.59 3.07,-0.73 4.5,-1.33 5.59,-2.34 -1,-2.4 7.39,-5 3.22,-1 2.24,-0.7 4.26,-2.5 3.74,-3.34 4.74,-1.71 9.19,-3.53 3.91,-1.6 0.71,-0.38 2.98,-2.48 3.85,-3.54 3.39,0.36 5.39,-3.8 1.59,-3.31 1.76,-1.39 5.49,-3.82 3.24,-2.1 2.18,-2.72 6.81,-4.32 7.59,-2.63 0.88,-2.35 7.85,-4.34 8.15,-2.33 2.97,-0.89 6.95,-5.16 6.57,-0.98 6.19,-0.47 9.06,-4.59 3.34,-1.93 2.61,0.4 5.3,-2.3 2.19,-2.2 -0.27,-1.9 3.94,-3.28 2.92,-0.96 3.24,-0.19 5.42,-2.22 3.88,-3.63 -2.05,-1.43 5.14,-3.27 3.34,-0.86 2.66,-0.4 4.7,-2.75 3.08,-3.55 0.25,-1.28 5.29,-2.98 6.12,-2.06 2,-4.29 10.91,-5 2.48,-4.43 -0.87,-3.07 4.91,-4.88 8.23,-2.58 1.04,-3.52 10.86,-5.22 2.15,-0.37 2.75,-0.23 4.07,-1.66 0.57,-0.62 0.46,-0.87 0.9,-1.49 0.98,-1.36 -0.1,-0.42 1.1,-1.34 0.96,-0.74 3.25,-1.15 4.37,-1.62l0.21 -4.03 -19.48 11.38c-2.96,2.4 -2.5,1.55 -5.9,3.1 -4.44,2.03 -1.47,2.34 -5.65,4.25 -3.73,1.7 -3.13,0.39 -6.33,3.07 -2.17,1.82 -10.55,6.79 -13,6.89z"/>
   <path class="fil1" d="M734.69 876.09c2.94,-0.02 8.95,-4.16 11.28,-6.1 3.4,-2.83 1.07,-1.08 5.84,-2.59 4.08,-1.29 2.83,-1.9 5.28,-3.78 2.65,-2.03 3.2,-0.93 5.96,-2.45 2.14,-1.18 2.42,-2.51 5.08,-3.98 6.42,-3.54 6.77,-5.73 11.16,-5.51 1.2,-2.44 -0.01,-0.48 1.11,-2 2.21,-3.02 3.24,-2.46 5.66,-3.34l21.35 -13.21c2.97,-2.25 4.49,-1.9 7.18,-3.72 1.44,-0.97 1.63,-1.55 3.24,-2.53 1.46,-0.9 2.51,-1.04 3.96,-1.91 1.95,-1.16 1.63,-1.5 3.31,-2.58 1.52,-0.97 2.48,-1.12 4.09,-1.79 3.4,-1.41 3.76,-3 6.67,-4.67 4.66,-2.66 10.35,-5.35 14.27,-8.33 2.89,-2.2 4.93,-1.97 7.72,-3.95 1.75,-1.24 1.15,-1.43 3.29,-2.58 1.44,-0.78 2.8,-0.97 4.25,-1.67 3.33,-1.6 1.12,-1.8 7.2,-4.54 4.26,-1.92 2.65,-2.81 6.54,-4.68 8.65,-4.16 3.69,-2.24 7.39,-4.43 4.34,-2.57 5.72,-0.11 7.39,-5.42 -5.65,0.87 -11.7,5.98 -13.94,7.05 -9.35,4.46 -4.83,3.17 -8.28,5.02 -1.96,1.05 -2.81,0.67 -4.85,1.95 -1.97,1.24 -1.31,1.57 -3.56,2.99 -1.76,1.11 -3,1.17 -4.56,2.17 -4.39,2.8 2.24,0.08 -8.19,4.93 -2.77,1.29 -2.18,1.54 -4.03,2.82 -1.95,1.34 -2.47,1.03 -4.65,2.04 -4.01,1.87 -2.3,2.52 -8.45,4.91 -3.83,1.49 -2.9,2.85 -8.22,5.07 -2.31,0.96 -11.29,8.15 -16.64,10.02l-12.45 7.48c-5.26,3.87 -5.84,2.41 -8.68,4.69 -7.67,6.16 -3.79,2.08 -8.44,4.85 -2.71,1.61 -0.76,1.3 -3.82,2.92 -2.46,1.3 -2.18,0.36 -4.54,2.1 -8.71,6.45 -7.62,3.27 -10.72,9.24 -5.68,0.09 -4.84,0.26 -8.08,2.72l-15.73 9.34 -1.4 3.45z"/>
   <path class="fil11" d="M1603.02 1033.22l5.05 18.96c0.67,7.15 1.94,5.44 3.52,6.08 -1.11,-5.34 -0.94,-12.85 -2.34,-16.85 -1.12,-3.2 -1.68,-3.08 -2.75,-6.43 -0.77,-2.43 -0.86,-4.44 -1.59,-6.78l-6.2 -11.23c-0.99,-1.46 -1.3,-1.22 -2.27,-2.87 -2.79,-4.75 -1.55,-3.93 -7.55,-9.84l-6.38 -6.03c-0.15,-0.11 -0.36,-0.24 -0.5,-0.36 -9,-7.17 -3.54,-2.12 -10.15,-6.67 -2.5,-1.72 -3.86,-1.76 -6.01,-3.14 -2.23,-1.44 -1.88,-2.22 -4.66,-3.61 -8.32,-4.19 -6.45,-5.3 -10.9,-5.73l-25.34 -14.91c-4.85,-1.87 -13.53,-8.45 -18.41,-10.68 -4.64,-2.12 -2.62,-2.34 -6.35,-2.87 0.87,4.61 2.46,3.63 6.54,5.47 3.89,1.75 1.93,2.27 7.08,4.53 3.57,1.57 3.88,2.95 7.2,4.47 1.34,0.61 2.69,0.89 3.99,1.83 2.32,1.68 0.36,1.09 2.97,2.79l15.05 8.36c3.06,2.52 4.9,2.24 7.65,3.99 2.25,1.44 0.81,1.22 2.97,2.82 3.11,2.31 17.47,7.95 25.06,14.96l9.12 8.3c4.77,6.37 2.93,2.39 5.45,6.13 3.01,4.45 9.03,14.57 9.75,19.3z"/>
   <path class="fil1" d="M1282.01 821.32l-0.09 -1.8 -1.45 -0.72 -2.6 0.84c-9.75,-6.11 -3.04,-1.7 -8.87,-4.6 -0.24,-0.12 -11.11,-8.22 -15.02,-9.75l-23.71 -14.52c-1.97,-0.94 -2.76,-0.95 -4.52,-2.13 -2.01,-1.35 -1.66,-1.6 -3.23,-2.56 -3.46,-2.11 -0.81,0.48 -8.06,-4.49 -3.84,-2.64 -1.12,0.4 -8.24,-5.05l-20.17 -11.67c-2.5,-1.16 -1.77,-0.28 -3.9,-1.82l-8.24 -4.98c-4.1,-2.46 -1.57,-2.56 -7.26,-4.93 -4.1,-1.7 -3.6,-2.51 -8.59,-4.43 -5.16,-1.99 -2.78,-3.36 -8.57,-4.65 1.1,4.15 0.89,4.98 5.85,6.19 9.92,2.42 -1.37,0.07 10.05,5.61 2.56,1.24 1.48,1.2 3.11,2.52 3.51,2.85 4.91,0.84 7.75,3.9 2.15,2.31 -0.97,0.56 2.59,2.48 1.92,1.03 2.84,0.68 4.72,1.31 5.18,1.74 -0.63,2.62 6.71,4.83 7.04,2.12 2.4,2.22 7.86,4.6 0.2,0.09 0.44,0.14 0.65,0.22 1.87,0.77 0.84,-0.22 2.33,1.03 1.98,1.66 0.25,1.08 1.79,3.62 10.76,1.92 6.71,0.56 9.16,5.01 0.64,0.17 3.56,0.89 4.07,1.13 3.58,1.69 0.16,-0.11 2.74,2.29 2.49,2.3 3.85,2.38 8.24,2.73 0.59,2.92 0.35,3.19 3.14,4.13 1.52,0.51 4.51,0.91 6.67,1.17l1.91 4.39c2.23,0.15 3.1,0.1 5.12,0.86 3.08,1.15 2.11,1.4 3.83,2.78 2.74,2.2 2.58,0.98 4.51,2.31 2.9,2 0.65,1.02 2.24,3.93l8.72 3.4c2.77,4.3 6.37,1.9 8.77,3.32 2.23,1.33 -0.37,5.28 9.96,3.49z"/>
   <path class="fil1" d="M619.98 937.89l0 2.18c13.82,0.49 11.47,-3.12 17.56,-5.3 8.02,-2.88 3.94,-2.05 7.22,-4.41 2.21,-1.59 2.45,-0.46 6.91,-3.9 3.08,-2.37 4.94,-2.18 7.48,-4.23 1.5,-1.21 1.23,-1.53 3.28,-2.48 1.01,-0.47 2.39,-0.75 3.68,-1.35 4.44,-2.05 1.52,-2.3 6.6,-4.31l13.9 -8.53c3.5,-2.58 4.33,-0.57 9.64,-4.59 3.23,-2.44 3.12,-1.32 5.97,-2.53 3.42,-1.46 1.71,-3.03 5.47,-5.03l13.95 -8.57c2.66,-2.38 4.1,-1.2 7.28,-3.59 5.06,-3.79 4.65,-2.74 5.76,-5.16 -4.54,-0.67 -5.62,1.19 -8.4,3.24 -3.29,2.43 -4.22,1.24 -7.28,3.67l-13.35 8.23c-8.91,3.75 -3.08,1.82 -7.45,4.28 -3.48,1.96 -3.53,0.64 -7.29,3.56l-13.74 7.97c-4.89,2.09 -2.31,2.99 -6.57,4.88l-13.74 8.03c-3.09,2.93 -3.87,1.68 -7,3.82l-7.45 4.24c-2.8,1.49 -2.34,2.5 -6.52,4.26 -7.29,3.08 -5.04,5.84 -15.91,5.63z"/>
   <path class="fil4" d="M599.58 1222.84l0.41 0.57c5.09,-2.18 3.14,-13.62 3.14,-19.72 -0,-86.18 2.98,-67.75 -13.88,-66.25 -2.2,1.97 -13.95,0.99 -17.61,0.9 -5.08,-0.13 -17.88,-3.86 -22.86,-5.91 -2.91,-1.19 -2.78,-1.97 -5.98,-3.27 -2.61,-1.06 -9.37,-4.05 -11.1,-6.25 -4.75,-1.89 -1.02,-1.86 -4.96,-2.43 0.61,4.6 2.97,3.27 6.39,6.05 6.32,5.13 1.66,1.54 7.42,4.33 3.85,1.87 1.81,3 7.31,4.16 6.64,1.4 4.02,0.49 8.67,3.06 5.36,2.97 14.51,2.37 21.8,2.37 7.42,0.01 19.92,-1.74 21.5,0.21 1.74,2.72 1.25,76.46 -0.26,82.19z"/>
   <path class="fil5" d="M1282.01 821.32c4.23,1.4 2.4,2.54 5.96,4.12 4.33,1.93 2.83,0.37 6.73,3.33 2.8,2.13 3.83,1.52 6.55,3.46l19.66 12.03c2.55,1.48 4.49,1.72 6.68,3.28 2.51,1.78 2.47,2.97 6.06,3.87l3.97 0.22c4.12,5.89 3.05,2.2 8.42,5.51 3.56,2.19 0.42,1.51 5.1,2.81 9.61,2.68 4.17,2.89 9.39,5.46 8.56,4.21 3.53,3.37 8.77,5.95 3.31,1.63 2.13,1 4.78,2.88 2.29,1.62 2.6,1.27 5.07,2.37 5.66,2.52 -1.2,0.5 9.46,5.57l9.43 5.66c7.86,6.7 4.32,2.12 9.34,5.59 2.61,1.8 0.94,2.09 5.14,2.53 -1.52,-1.91 -1.63,-1.39 -1.92,-4.9 -1.62,-0.09 -2.7,-0.11 -4.29,-0.46 -0.29,-0.06 -1.78,-0.48 -2.03,-0.59 -4.73,-2.02 -0.71,-3.86 -8.47,-4.31 -0.32,-2.55 -0.24,-3.8 -1.16,-5.31 -1.65,-0.06 -6.38,0 -7.66,-0.59 -3.2,-1.48 -1.6,0.88 -1.94,-2.62 -0.32,-3.22 -0.44,-2.31 1.15,-1.66 -19.43,-1.03 -4.65,-4.47 -17.07,-5.57 -0.23,-2.22 -0.39,-3.31 -1.22,-4.46 -2.52,-0.19 -4.65,-0.03 -6.37,-1.02 -2.2,-1.26 -0.51,-0.11 -1.82,-1.91 -3.42,-4.71 -2.16,-1.54 -7.73,-3.28 -3.88,-1.21 -2.52,-0.05 -3.33,-4.56 -8.95,-0.34 -3.03,-0.2 -6.49,-3.49 -1.29,-1.22 -5.86,-1.7 -8.34,-1.77 -1.47,-3.58 0.11,-4.2 -4.46,-4.84 -9.85,-1.39 -1.28,-1.6 -10.04,-5.23 -3.15,-1.31 -2.17,-1.37 -3.07,-2.32 -3.08,-3.3 -4.1,-1.32 -7.46,-3.16 -4.38,-2.39 0.04,-2.94 -5.21,-4.44 -1.22,-0.35 -2.6,-0.31 -4.07,-1.28l-2.4 -2.69c-1.48,-1.22 -5.68,-1.22 -7.73,-2.27 -3.64,-1.86 -1.24,-3.25 -7.49,-3.73l0.09 1.8z"/>
   <path class="fil1" d="M1428.1 909.37c-4.2,-2.78 -4.44,-2.21 -5.26,-8.59 -4.62,0.91 -4.97,-3.98 -10.32,-4.81 -4.2,-0.44 -2.53,-0.73 -5.14,-2.53 -5.02,-3.47 -1.48,1.11 -9.34,-5.59l-9.43 -5.66c-10.66,-5.07 -3.81,-3.05 -9.46,-5.57 -2.47,-1.1 -2.78,-0.76 -5.07,-2.37 -2.66,-1.88 -1.47,-1.24 -4.78,-2.88 -5.24,-2.58 -0.2,-1.75 -8.77,-5.95 -5.22,-2.57 0.22,-2.78 -9.39,-5.46 -4.67,-1.3 -1.53,-0.62 -5.1,-2.81 -5.37,-3.31 -4.3,0.38 -8.42,-5.51l-3.97 -0.22c0.14,0.22 0.32,0.49 0.44,0.66 2.62,3.93 1.9,3.46 4.31,4.56 3.67,1.68 2.52,0.27 5.51,2.87 6.8,5.93 4.67,-0.43 8.91,7.2 4.21,0.47 6.11,0.77 8.49,2.85 4.93,4.33 1.64,1.42 6.38,3.66 3.26,1.54 1.55,2.4 6.38,4.34 5.24,2.1 2.45,1.24 6.02,4.01 2.85,2.21 4.72,1.36 7.55,3.28l11.68 8.18c6.69,3.42 1.49,-0.13 4.91,5.21 13.86,0.55 1.01,3.72 17.71,6.56 2.29,3.51 0.92,4.18 6.16,4.56z"/>
   <path class="fil4" d="M1509.31 1326.12c-3.02,-9.87 -1.37,-50 -1.37,-63.31 -0,-10.28 -1.75,-58.1 1.45,-63.24 0,-1.16 0.3,-0.92 -0.83,-0.79 -4.36,1.93 -3.15,7.73 -3.14,13.23 0.05,22.99 -1.3,102.41 0.89,113.07l3.01 1.05z"/>
   <path class="fil12" d="M496.74 1056.32c4.53,3.04 0.76,9.91 3.98,20.05 1.42,4.45 3.98,14.54 5.9,17.62l2.19 3.81c2.82,6.36 1.8,2.99 4.58,6.85 4.91,6.83 12.79,14.38 13.35,15.82 3.94,0.57 0.21,0.54 4.96,2.43 -0.66,-1.99 -0.52,-2.79 -2.24,-4.43 -1.35,-1.29 -0.91,-0.52 -2,-1.31 -1.21,-0.89 -0.48,-0.12 -1.82,-1.67l-14.38 -17.13c-0.77,-1.64 -0.8,-3.17 -1.65,-5.04 -2.28,-5.04 -2.99,-0.28 -4.16,-8.21 -0.6,-4.1 -0.92,-7.78 -1.92,-10.68 -1.52,-4.4 -2.38,-3.66 -2.69,-9.77 -0.25,-4.96 0.25,-6.44 -2.46,-10.04 -1.9,0 -1.91,-0.64 -1.34,0.83l-0.32 0.87z"/>
   <path class="fil13" d="M526.75 1120.47c-0.57,-1.44 -8.44,-8.99 -13.35,-15.82 -2.78,-3.87 -1.77,-0.49 -4.58,-6.85l-2.19 -3.81c-1.93,-3.08 -4.49,-13.17 -5.9,-17.62 -3.23,-10.14 0.55,-17.01 -3.98,-20.05 1.38,7.52 0.53,15.2 1.62,22.46 0.76,5.02 2.33,3.35 3.65,8.13 4,14.47 1.33,5.18 5.14,12.3 0.77,1.43 0.87,3.12 1.57,4.32 2.48,4.29 0.4,-3.06 4.59,7.27 1.48,3.64 1.75,1.12 5.92,5.43 2.32,2.39 4.23,4.15 7.51,4.23z"/>
  </g>
  <path class="fil14" d="M105.26 360.46c0,-6.41 11.9,-4.87 21.63,-4.33 31.48,1.72 63.71,0.01 95.16,0.01 19.42,0 35.54,1.45 53.35,1.45l99.54 -1.5c9.56,0.01 14.96,1.52 25.9,1.5 17.87,-0.04 32.76,-1.45 51.91,-1.45l0 240.79c0,5.14 0.71,11.54 5.77,11.54l93.72 0c8.85,0 5.77,-17.34 5.77,-25.95 -0.01,-69.22 1.07,-145.12 -0.05,-213.44 -0.27,-16.51 -5.52,-12.93 44.75,-12.93 8.63,0 17.4,-0.16 26.01,-0.06 8.74,0.11 14.01,1.52 24.45,1.5 31.6,-0.04 66.48,-1.93 100.99,-1.5 8.74,0.11 14.01,1.52 24.45,1.5l77.86 -1.45c18,0 32.68,1.45 49.02,1.45 31.33,0 67.65,-1.94 102.43,-1.51 8.56,0.11 12.94,1.53 23.01,1.51l82.19 -1.45c16.58,0 29.83,1.46 44.7,1.46l80.74 -1.46c16.58,0 29.83,1.46 44.7,1.46 31.14,0 71.06,-2.53 105.3,-1.51 7.62,0.23 10.92,1.52 20.13,1.52 14.55,-0.01 27.08,-1.47 43.27,-1.47l83.63 1.46c14.87,0 28.12,-1.46 44.7,-1.46l51.91 0c12.21,0 18.35,1.44 30.28,1.44l0 246.56c0,3.32 1,4.33 4.33,4.33l95.16 0c5.06,0 5.77,-6.4 5.77,-11.54l0 -240.79c8.55,0.19 17.36,2.5 28.63,1.23l96.86 -1.28c25.41,0.76 9.23,1.64 38.88,0.04l90.85 0c20.45,1.11 2.76,2.25 28.91,0.08l63.37 -0.07 0 1708.6 -2009.95 0 0 -1704.27zm347.49 -348.93l0 240.79 -54.8 0.01c-15.11,-0.82 -12.77,-1.42 -28.91,-0.08l-96.54 0.08c-15.11,-0.82 -12.77,-1.42 -28.91,-0.08 -16.1,1.33 -75.7,0.7 -95.13,0.12 -7.09,-0.21 -7.24,-1.3 -14.34,-1.56l-58.62 2.03 -44.89 24.32 -22.32 28.14c-3.13,5.72 -8.29,21.56 -8.29,27.76l0 1756.18c0,7.79 1.36,10.8 4,16.18l7.62 16.89c4.52,8.58 9.69,14.28 17.03,20.46 10.9,9.19 13.09,10.01 24.45,17.36 5.52,3.56 9.13,2.66 14.84,5.34 5.95,2.8 8.16,4.51 17.12,4.51l2050.32 0c10.94,0 14.34,-4.31 23.65,-6.63 8.85,-2.2 19.58,-9.1 26.66,-15.15 0.22,-0.19 0.53,-0.49 0.75,-0.69 0.22,-0.2 0.52,-0.5 0.74,-0.7l6.79 -6.19c0.21,-0.21 0.51,-0.52 0.71,-0.73 9.7,-9.65 8.27,-10.84 14.7,-19.9 5.51,-7.75 11.06,-20.82 11.06,-30.75l0 -1754.74c0,-10.01 -2.9,-14.85 -5.72,-23.11 -5.07,-14.82 -17.1,-28.72 -29.6,-38.16 -7.41,-5.6 -16.44,-12.23 -25.53,-14.84 -8.02,-2.31 -8.12,-5.08 -14.23,-5.96 -33.47,-4.82 -83.43,4.23 -117.29,-0.94l-119.07 0.84c-15.11,-0.82 -12.77,-1.42 -28.91,-0.08 -20.91,1.73 -67.67,0.07 -90.76,0.07 -9.59,0 -12.48,-1.44 -21.63,-1.44l0 -245.12c0,-3.38 -2.39,-5.77 -5.77,-5.77l-93.72 0c-9.58,0 -5.77,24.85 -5.77,31.72l0 194.65c0,24.48 4.25,27.47 -11.88,24.95 -6.36,-0.99 -11.8,-0.49 -17.56,0.39 -12.19,1.85 -85.84,1.48 -101.77,0.62 -15.11,-0.82 -12.77,-1.42 -28.91,-0.08l-96.53 0.08c-15.11,-0.82 -12.77,-1.42 -28.91,-0.08l-96.53 0.08c-15.11,-0.82 -12.77,-1.42 -28.91,-0.08l-97.98 0.08c-15.11,-0.82 -12.77,-1.42 -28.91,-0.08l-96.53 0.08c-15.11,-0.82 -12.77,-1.42 -28.91,-0.08l-96.53 0.08c-15.11,-0.82 -12.77,-1.42 -28.91,-0.08l-97.98 0.08c-15.11,-0.82 -12.77,-1.42 -28.91,-0.08l-96.54 0.08c-14.93,-0.81 -14.57,-1.39 -30.35,-0.08 -18.93,1.57 -38.63,0.07 -57.6,0.07 -7.67,0 -4.33,-21.46 -4.33,-27.4l0 -197.54c0,-8.77 3.21,-27.4 -5.77,-27.4l-93.72 0c-5.06,0 -5.77,6.4 -5.77,11.54z"/>
 </g>
</svg>
