<?xml version="1.0" encoding="UTF-8"?>
<!DOCTYPE svg PUBLIC "-//W3C//DTD SVG 1.1//EN" "http://www.w3.org/Graphics/SVG/1.1/DTD/svg11.dtd">
<!-- Creator: CorelDRAW 2019 (64-Bit) -->
<svg xmlns="http://www.w3.org/2000/svg" xml:space="preserve" width="113.864mm" height="45.4883mm" version="1.1" style="shape-rendering:geometricPrecision; text-rendering:geometricPrecision; image-rendering:optimizeQuality; fill-rule:evenodd; clip-rule:evenodd"
viewBox="0 0 14481.48 5785.28"
 xmlns:xlink="http://www.w3.org/1999/xlink">
 <defs>
  <style type="text/css">
   <![CDATA[
    .fil9 {fill:#2B2A29}
    .fil8 {fill:#55595A}
    .fil7 {fill:#FEFEFE;fill-rule:nonzero}
    .fil0 {fill:#2B2A29;fill-rule:nonzero}
    .fil5 {fill:#F2911A;fill-rule:nonzero}
    .fil2 {fill:#E42426;fill-rule:nonzero}
    .fil4 {fill:#F5CE0D;fill-rule:nonzero}
    .fil6 {fill:#8ABE3C;fill-rule:nonzero}
    .fil3 {fill:#27AAE1;fill-rule:nonzero}
    .fil1 {fill:#623085;fill-rule:nonzero}
   ]]>
  </style>
 </defs>
 <g id="Layer_x0020_1">
  <metadata id="CorelCorpID_0Corel-Layer"/>
  <g id="_2135029101952">
   <path class="fil0" d="M2893 5181.85c-2.95,0 -6.63,-0.65 -11.04,-1.28 -40.35,-10.25 -79.27,-14.74 -116.73,-14.74 -19.81,0 -41.12,1.28 -64.61,4.49 -22.75,2.56 -47.73,7.03 -74.91,13.44 2.21,13.47 2.96,24.36 2.96,32.69 0,29.46 -2.2,69.19 -5.89,120.42l157.13 -12.79c46.26,-4.5 74.88,-6.4 85.15,-6.4 11.04,0 19.83,2.56 26.44,8.97 7.34,5.75 11.01,13.44 11.01,23.05 0,19.22 -11.01,29.47 -33.04,32.04l-85.15 6.4 -165.96 13.46c-0.72,14.73 -1.45,28.83 -2.17,41.65 -0.75,13.44 -0.75,25.63 -0.75,37.15 0,46.12 3.69,73.03 11.75,80.71 5.86,5.77 24.23,8.98 55.81,8.98 15.43,0 37.44,-0.65 67.55,-1.28 29.37,-0.64 52.13,-0.64 66.81,-0.64 5.14,0 11.74,-0.65 21.29,-1.92 9.53,-1.3 16.15,-1.93 20.57,-1.93 25.68,0 38.17,10.9 38.17,32.67 0,17.3 -10.29,27.55 -30.1,31.4 -22.75,3.83 -71.22,5.75 -146.11,5.75 -74.16,0 -121.87,-8.33 -143.17,-25.63 -22.77,-18.57 -34.5,-61.49 -34.5,-128.11 0,-13.46 0.72,-28.18 0.72,-44.21 0.74,-15.38 2.21,-32.67 2.95,-51.24 -2.21,-4.48 -3.68,-9.61 -3.68,-15.38 0,-7.06 2.19,-13.46 6.6,-19.22 5.14,-60.22 7.35,-104.43 7.35,-133.25 0,-7.69 -1.48,-19.22 -3.68,-33.96 -2.21,-14.74 -3.68,-26.26 -3.68,-33.96 0,-24.97 11.76,-37.15 35.97,-37.15 10.29,0 18.38,3.22 25.72,8.97 28.63,-6.41 55.79,-11.52 81.49,-14.71 24.98,-3.22 49.21,-5.14 71.96,-5.14 57.99,0 104.25,5.77 138.76,17.93 16.16,5.76 24.24,15.39 24.24,30.1 0,8.33 -2.94,15.39 -9.55,21.8 -6.6,7.05 -15.41,10.89 -25.68,10.89zm564.6 447.78c-19.83,0 -30.84,-8.97 -34.5,-27.55 -4.4,-22.42 -8.81,-55.1 -12.5,-96.72l-12.48 -96.73c-2.2,-14.74 -6.59,-28.84 -12.48,-42.29 -8.06,-18.58 -16.89,-28.18 -26.43,-28.18 -8.8,0 -24.97,6.4 -49.18,19.85 -22.79,11.54 -37.47,21.77 -44.78,28.83 0,19.23 0.72,39.08 1.45,58.3l11.03 83.93c4.39,32.66 6.59,59.56 6.59,81.33 0,8.97 -2.93,16.66 -9.55,22.43 -6.58,5.76 -15.4,8.97 -25.68,8.97 -10.26,0 -18.35,-3.2 -24.95,-8.97 -6.61,-5.77 -10.29,-13.47 -10.29,-22.43 0,-25.61 -2.93,-62.78 -8.09,-111.45 -5.88,-49.33 -8.8,-86.5 -8.8,-112.11 0,-21.77 -3.68,-39.08 -11.01,-51.25 -16.15,6.41 -33.77,17.3 -50.66,32.67l-42.58 41c-3.68,5.11 -9.55,11.52 -18.37,19.85 0,12.17 -1.46,30.74 -3.66,55.1 -2.94,24.34 -4.41,42.28 -4.41,54.45 0,5.77 1.48,14.74 3.69,26.26 2.19,10.9 3.65,19.23 3.65,24.34 0,8.33 -3.65,15.39 -10.99,21.14 -7.35,6.41 -16.18,8.97 -25.72,8.97 -27.17,0 -41.11,-26.89 -41.11,-80.71 0,-12.17 1.46,-30.74 4.39,-55.73 2.21,-24.98 3.69,-43.56 3.69,-55.73 0,-11.52 -0.75,-28.18 -3.69,-49.97 -2.2,-22.41 -2.93,-39.07 -2.93,-49.96 0,-47.41 11.75,-71.12 35.98,-71.12 9.55,0 18.34,3.22 25.69,10.9 8.08,7.03 11.75,14.73 11.75,23.06 0,3.85 -0.72,10.26 -1.46,18.57 -1.48,8.33 -2.21,14.74 -2.21,18.59l0.74 33.3c12.49,-22.41 30.84,-42.9 55.07,-60.86 24.23,-17.93 44.78,-26.9 61.67,-26.9 37.44,0 63.13,16.01 77.81,48.69 12.48,-15.38 28.64,-26.26 47.01,-33.94 17.61,-7.69 38.92,-11.54 62.41,-11.54 39.66,0 66.81,18.58 81.5,56.37 2.93,7.69 8.06,36.51 14.66,87.77 6.63,35.88 15.43,95.45 25.72,179.36 0.72,8.33 -2.2,15.38 -9.55,21.15 -7.34,6.4 -16.16,8.97 -26.43,8.97zm267.98 -15.38c-24.24,0 -50.68,-3.19 -79.29,-10.25l-0.72 149.91c0,9.6 -2.96,16.66 -9.55,22.41 -6.61,6.41 -15.43,8.97 -24.97,8.97 -10.29,0 -19.1,-2.56 -25.7,-8.97 -5.88,-5.75 -9.55,-12.81 -9.55,-22.41l0.75 -124.92 0 -124.92c-0.75,-46.13 -2.21,-87.78 -5.14,-124.93l-5.9 -64.06c0,-14.71 2.95,-26.9 9.55,-37.15 7.34,-12.18 17.63,-18.57 31.58,-18.57 9.55,0 16.89,2.56 23.49,8.32 6.61,5.76 9.55,13.46 9.55,21.77 0,1.92 0,5.14 -0.72,10.25 -1.49,6.41 -2.21,12.18 -2.94,17.96 20.55,-12.82 40.37,-21.8 59.47,-28.21 19.09,-5.75 37.44,-8.97 55.06,-8.97 49.19,0 85.17,19.22 107.19,57.03 18.37,30.1 27.15,69.82 27.15,119.14 0,44.84 -13.94,81.99 -41.84,111.47 -29.35,30.74 -68.26,46.12 -117.47,46.12zm24.97 -270.99c-22.03,0 -41.86,4.49 -59.47,12.82 -13.2,5.76 -29.38,17.3 -48.47,33.32 2.96,46.75 4.41,96.73 4.41,148.62 26.44,8.95 52.13,13.44 78.56,13.44 30.1,0 52.86,-9.61 68.3,-28.82 13.93,-17.3 20.54,-39.1 20.54,-65.99 0,-37.8 -5.14,-65.98 -16.16,-85.21 -10.26,-18.57 -26.4,-28.18 -47.71,-28.18zm349.5 278.68c-40.41,0 -74.91,-12.81 -104.28,-39.1 -32.29,-28.82 -49.19,-67.25 -50.66,-115.94 -1.48,-46.76 12.48,-88.4 41.13,-124.28 33.03,-42.26 80.02,-63.41 139.49,-63.41 48.47,0 84.42,19.22 108.65,57 19.84,30.75 29.38,67.92 28.63,111.47 -0.72,46.12 -14.66,85.85 -41.83,118.52 -30.12,37.15 -71.22,55.73 -121.14,55.73zm21.28 -279.32c-35.24,0 -62.41,14.1 -82.22,43.56 -15.41,23.71 -23.52,50.62 -23.52,80.72 0,30.12 9.55,53.82 28.65,70.46 15.4,14.1 34.5,21.15 55.81,21.15 24.22,0 46.23,-7.68 63.85,-23.71 20.58,-17.3 30.85,-41 32.32,-71.11 3.68,-80.71 -21.28,-121.08 -74.88,-121.08zm659.32 -19.22c-18.38,67.92 -42.61,144.77 -72.7,230.62 -7.34,19.22 -18.35,38.45 -33.77,58.94 -8.08,10.9 -19.81,16.02 -33.78,16.02 -26.44,-0.64 -46.26,-28.82 -60.95,-84.56 -5.13,-17.95 -9.54,-42.92 -14.68,-73.66l-11.74 -69.84 -29.37 60.22 -55.08 128.76c-2.94,8.33 -7.35,14.09 -13.2,18.57 -7.35,12.18 -19.1,17.96 -34.53,18.58 -18.33,0.64 -35.94,-30.74 -52.83,-93.52 -8.1,-32.04 -16.89,-75.6 -25.72,-131.33l-8.81 -46.76c-2.93,-18.59 -4.39,-34.59 -4.39,-47.41 0,-8.33 3.65,-16 10.26,-21.77 7.35,-5.77 16.15,-8.33 25.7,-8.33 18.35,0 29.35,8.33 33.77,25.63 2.93,12.81 5.89,27.55 7.34,46.12l5.89 46.13 21.29 140.29c26.42,-64.06 53.59,-138.36 82.21,-222.29 8.1,-23.07 21.3,-34.59 41.12,-34.59 19.1,0 31.58,12.82 38.19,38.45 6.6,24.97 13.95,62.12 23.49,112.73 9.55,52.53 17.61,93.53 25.68,123l25.72 -85.21 46.26 -170.4c3.68,-12.81 13.95,-19.22 30.84,-19.22 10.26,0 19.09,3.2 26.44,8.98 7.34,5.76 10.99,13.46 10.99,21.79 0,0.64 -1.45,5.75 -3.65,14.08zm240.08 294.06c-53.61,0 -97.65,-11.55 -130.69,-35.25 -36.72,-26.26 -55.08,-62.78 -55.08,-109.54 0,-53.81 15.44,-99.29 45.53,-135.82 32.3,-40.34 76.37,-60.2 131.42,-60.2 39.66,0 71.96,5.75 96.91,17.3 30.85,14.71 46.26,36.5 46.26,66.61 0,20.51 -13.2,39.73 -40.37,57.03 -12.48,7.03 -37.47,18.57 -76.36,34.59l-137.32 56.37c13.24,17.3 30.12,30.74 49.93,39.07 19.83,8.97 43.33,13.46 69.77,13.46 16.88,0 35.97,-2.56 57.99,-8.32 28.64,-7.06 46.26,-16.02 54.32,-26.91 8.83,-10.89 16.89,-16.66 26.44,-16.66 8.81,0 16.15,2.58 22.77,8.33 6.6,5.14 9.55,11.55 9.55,19.22 0,23.07 -21.3,42.92 -63.9,59.58 -36.7,14.08 -71.95,21.15 -107.18,21.15zm-9.55 -284.44c-28.64,0 -52.87,9.6 -72.7,29.46 -19.08,19.88 -33.77,49.33 -43.31,89.07l110.11 -45.48c43.32,-18.59 74.16,-34.62 92.52,-48.06 -20.58,-16.65 -49.21,-24.98 -86.64,-24.98zm524.22 39.72c-2.21,26.26 -13.94,39.07 -35.95,39.07 -20.58,0 -30.85,-10.25 -30.85,-31.38 0,-3.85 0,-10.9 -0.71,-21.79l-1.49 -26.28c-37.46,3.84 -68.27,13.47 -91.05,27.55 -21.26,14.1 -38.9,33.96 -52.86,61.51l0.74 171.68c0,21.14 -11.75,31.39 -35.24,31.39 -21.3,0 -31.58,-10.25 -31.58,-31.39l0 -219.73c0,-7.05 0,-17.3 0.72,-30.75 0.76,-14.08 0.76,-24.33 0.76,-31.38 0,-21.15 10.26,-31.4 31.57,-31.4 23.49,0 35.23,17.3 35.23,51.89 46.28,-38.43 96.91,-57.66 152.72,-57.66 19.84,0 33.77,6.41 44.06,19.23 9.53,12.81 13.94,32.02 13.94,57.65 0,10.89 0,17.93 0,21.79zm142.44 -165.29c-11.75,0 -21.3,-3.83 -30.09,-10.89 -8.1,-7.05 -12.48,-15.38 -12.48,-25.61 0,-9.61 4.38,-17.95 12.48,-25.63 8.79,-7.06 18.34,-10.25 30.09,-10.25 11.01,0 21.29,3.19 29.37,10.25 8.09,7.68 12.48,16.01 12.48,25.63 0,10.24 -4.39,18.57 -12.48,25.61 -8.08,7.06 -18.35,10.89 -29.37,10.89zm16.15 253.69c0,12.81 0.74,31.39 1.46,56.37 0.74,24.34 0.74,43.56 0.74,55.73 0,8.97 -2.94,16.66 -9.54,22.42 -6.6,5.77 -15.43,8.98 -25.7,8.98 -10.28,0 -18.34,-3.2 -24.95,-8.98 -6.63,-5.76 -10.28,-13.46 -10.28,-22.42 0,-12.17 0,-31.39 -0.75,-55.73 -0.72,-24.98 -1.45,-43.56 -1.45,-56.37 0,-19.87 1.45,-44.2 3.65,-73.04 2.2,-29.46 2.96,-53.81 2.96,-73.66 0,-8.97 3.65,-16.66 10.28,-22.41 6.58,-6.41 14.68,-8.99 24.95,-8.99 10.28,0 19.08,2.58 25.7,8.99 6.6,5.75 9.54,13.44 9.54,22.41 0,19.85 -0.74,44.21 -2.94,73.66 -2.21,28.84 -3.68,53.17 -3.68,73.04zm395 164.62c-20.55,0 -32.32,-9.6 -35.24,-29.46l-9.55 -68.55c-3.66,-24.33 -5.14,-47.4 -5.14,-68.55 0,-5.75 0.72,-15.36 1.48,-29.46 0.74,-14.09 1.46,-24.36 1.46,-30.1 0,-44.84 -10.28,-67.28 -29.37,-67.28 -26.44,0 -52.12,14.1 -76.36,41.65 -22.02,24.98 -39.66,57 -52.13,95.45 0,8.33 -1.45,17.93 -2.93,30.74 -1.49,10.25 -2.21,20.51 -2.21,30.1 0,6.41 0.72,15.38 2.21,28.2 1.48,12.17 2.2,21.77 2.2,28.18 0,8.97 -3.69,16.66 -9.55,22.43 -6.61,6.4 -15.4,8.97 -25.69,8.97 -10.29,0 -19.08,-2.57 -24.98,-8.97 -6.6,-5.77 -10.26,-13.47 -10.26,-22.43 0,-6.41 -0.72,-16.01 -2.21,-28.18 -1.46,-12.82 -2.19,-21.79 -2.19,-28.2 0,-21.77 1.46,-51.24 5.14,-89.04 3.68,-38.43 5.14,-67.9 5.14,-89.69 0,-6.41 0,-16.01 -1.46,-29.46 -0.75,-12.81 -0.75,-23.07 -0.75,-29.47 0,-8.97 2.95,-16.66 10.29,-22.42 6.6,-5.77 14.69,-8.33 24.97,-8.33 22.02,0 34.5,13.46 36.7,40.35l0.72 36.51c40.39,-46.75 81.5,-69.82 124.09,-69.82 38.17,0 65.36,14.74 80.04,44.2 10.28,19.22 16.14,48.69 16.89,87.13l0 31.38 0 28.84c0,17.3 2.17,39.71 7.34,67.25 5.14,27.55 7.35,49.97 7.35,67.27 0,8.97 -3.69,16.66 -10.31,22.43 -6.58,5.75 -15.4,8.3 -25.68,8.3zm406.01 -157.59l-8.08 105.06c-1.45,42.29 -6.6,76.23 -14.69,102.51 -11.01,33.94 -27.9,58.94 -51.37,74.94 -28.65,19.23 -70.5,28.84 -124.84,28.84 -31.57,0 -57.99,-1.92 -79.27,-5.77 -30.12,-5.11 -45.52,-16.01 -45.52,-32.67 0,-18.58 10.28,-27.55 31.55,-27.55 8.09,0 22.77,1.93 42.59,5.77 19.84,3.19 42.58,5.11 66.82,4.49 45.51,-0.64 77.08,-21.15 94.7,-61.52 11.75,-26.9 17.61,-68.53 18.35,-124.26 -12.49,24.33 -27.9,42.26 -46.24,54.45 -17.63,12.81 -38.19,18.58 -60.96,18.58 -43.33,0 -78.55,-12.82 -105.71,-38.45 -26.42,-26.25 -40.38,-59.57 -40.38,-100.58 0,-56.37 18.35,-101.22 55.78,-135.82 38.19,-35.22 89.59,-53.17 155.66,-53.17 22.02,0 41.12,2.58 55.81,7.69 15.41,4.49 26.43,12.18 34.52,22.42 25.68,0.65 38.15,12.81 38.15,37.16 0,14.74 -2.17,34.59 -7.34,59.57 -5.14,28.18 -8.79,48.05 -9.54,58.29zm-115.26 -122.34c-44.79,0 -80.02,12.16 -105.01,36.51 -22,22.41 -33.02,49.97 -33.02,84.55 0,26.9 6.61,47.41 19.81,60.86 13.2,13.46 32.3,20.49 58.75,20.49 24.23,0 47.72,-10.89 70.47,-32.01 19.81,-19.87 31.58,-39.1 34.52,-58.3 5.14,-20.5 10.29,-51.88 16.15,-94.8 -9.55,-5.77 -19.09,-10.26 -29.37,-13.47 -10.28,-2.56 -21.3,-3.83 -32.3,-3.83zm775.33 -93.54c-15.4,0 -27.15,-7.68 -34.5,-23.71 -6.61,-12.81 -12.49,-21.14 -18.35,-24.33 -5.14,-1.93 -17.61,-3.22 -37.43,-3.22 -34.52,0 -72.7,23.07 -115.29,69.2 -57.27,62.13 -85.9,121.71 -85.9,177.44 0,26.9 10.28,49.97 30.09,69.19 19.83,19.85 44.06,30.1 72.7,30.1 24.97,0 49.19,-5.76 74.17,-16.66 13.93,-6.4 35.22,-18.56 63.87,-37.15 13.2,-8.33 23.49,-12.81 30.83,-12.81 10.28,0 19.1,3.19 25.68,10.25 6.63,6.41 10.31,14.09 10.31,22.42 0,9.61 -4.41,17.92 -13.24,24.99 -63.13,48.67 -127,73.03 -191.62,73.03 -49.18,0 -91.05,-16.66 -125.55,-49.98 -32.29,-32.01 -49.18,-69.82 -49.18,-114.02 0,-70.47 33.78,-142.86 102.04,-217.16 56.53,-62.15 113.09,-92.89 171.1,-92.89 11.71,0 22,0.64 31.55,1.27 8.81,1.28 17.61,2.58 24.23,4.48 8.81,-10.89 19.83,-16 33.03,-16 16.16,0 26.44,9.6 30.85,28.18 3.65,17.3 5.85,37.8 5.85,62.78 0,8.33 -2.2,16.02 -8.06,22.43 -5.86,8.3 -15.4,12.16 -27.17,12.16zm396.46 370.28c-16.86,0 -27.89,-7.69 -33.03,-23.71 -5.14,-17.3 -10.26,-41.63 -15.4,-73.03 -3.69,-30.1 -5.9,-55.08 -5.9,-74.3 0,-5.77 0,-13.47 0.75,-24.99 0.74,-10.89 0.74,-19.22 0.74,-24.34 0,-39.07 -11.01,-58.95 -33.78,-58.95 -30.84,0 -57.99,12.18 -81.51,35.88 -12.48,12.18 -29.37,35.89 -50.64,70.47 0,79.45 -3.68,126.85 -11.01,141.57 -6.6,12.82 -16.88,19.22 -30.84,19.22 -10.26,0 -18.35,-2.56 -25.69,-8.95 -8.09,-5.77 -11.75,-12.82 -11.75,-21.15 0,-3.19 1.46,-7.68 3.66,-13.44 1.49,-5.77 2.94,-20.49 3.69,-46.12l1.45 -46.14 0.74 -229.97c1.46,-25.63 2.21,-42.92 2.21,-51.89 0,-10.89 -0.75,-21.14 -2.95,-30.75 -2.2,-8.97 -3.65,-19.23 -3.65,-29.46 0,-8.33 3.65,-16.04 10.26,-21.79 7.35,-5.77 15.41,-8.33 25.69,-8.33 19.83,0 30.84,8.97 34.52,27.55 3.68,19.85 5.14,38.42 5.14,54.45 0,21.79 -0.75,44.86 -2.19,68.55 -1.49,22.42 -2.21,45.48 -1.49,68.54l0 27.55c19.81,-23.07 40.38,-40.37 63.15,-51.25 22.02,-11.52 46.24,-17.3 71.22,-17.3 39.64,0 66.8,10.89 82.24,33.96 10.28,15.38 16.14,42.29 17.61,80.07l2.94 59.58 7.34 64.7c2.93,24.34 7.34,46.12 11.75,64.71 0.72,3.19 1.46,6.4 1.46,8.97 0,8.33 -3.66,16 -11.01,21.77 -6.61,5.77 -15.4,8.33 -25.7,8.33zm193.11 -415.12c-11.75,0 -21.3,-3.83 -30.09,-10.89 -8.1,-7.05 -12.48,-15.38 -12.48,-25.61 0,-9.61 4.38,-17.95 12.48,-25.63 8.79,-7.06 18.34,-10.25 30.09,-10.25 11.01,0 21.29,3.19 29.37,10.25 8.09,7.68 12.5,16.01 12.5,25.63 0,10.24 -4.41,18.57 -12.5,25.61 -8.08,7.06 -18.35,10.89 -29.37,10.89zm16.15 253.69c0,12.81 0.74,31.39 1.46,56.37 0.74,24.34 0.74,43.56 0.74,55.73 0,8.97 -2.93,16.66 -9.55,22.42 -6.6,5.77 -15.41,8.98 -25.69,8.98 -10.28,0 -18.34,-3.2 -24.95,-8.98 -6.63,-5.76 -10.28,-13.46 -10.28,-22.42 0,-12.17 0,-31.39 -0.76,-55.73 -0.72,-24.98 -1.44,-43.56 -1.44,-56.37 0,-19.87 1.44,-44.2 3.65,-73.04 2.2,-29.46 2.96,-53.81 2.96,-73.66 0,-8.97 3.65,-16.66 10.28,-22.41 6.58,-6.41 14.68,-8.99 24.95,-8.99 10.26,0 19.08,2.58 25.69,8.99 6.6,5.75 9.55,13.44 9.55,22.41 0,19.85 -0.74,44.21 -2.95,73.66 -2.2,28.84 -3.66,53.17 -3.66,73.04zm212.18 -103.78l-5.14 155.67c0,16.02 -0.72,40.35 -2.93,72.39 -2.21,21.12 -13.96,31.38 -35.23,31.38 -23.52,0 -35.27,-10.89 -35.27,-32.02 0,-24.98 1.49,-63.41 4.41,-113.38 2.2,-50.62 3.68,-89.04 3.68,-114.03 0,-33.31 0.74,-70.47 2.19,-113.4 0.75,-42.28 1.48,-80.07 1.48,-112.75 0,-21.14 11.75,-31.38 35.23,-31.38 23.52,0 35.27,10.24 35.27,31.38 0,32.67 -0.75,70.47 -1.49,112.75 -1.46,42.92 -2.2,80.09 -2.2,113.4zm439.79 -30.1c-2.95,30.74 -4.41,61.51 -4.41,91.6 0,69.84 3.68,121.73 11.01,157.6 0.74,2.56 0.74,5.11 0.74,7.05 0,8.33 -2.94,15.36 -9.54,20.49 -7.35,5.77 -14.69,8.33 -23.52,8.33 -14.68,0 -25.68,-9.6 -32.29,-28.18 -16.89,10.89 -35.25,19.22 -53.61,24.99 -18.35,5.75 -38.17,8.33 -57.99,8.33 -49.18,0 -90.31,-14.74 -123.35,-42.92 -33.03,-29.48 -49.92,-67.28 -49.92,-113.4 0,-55.74 16.89,-99.94 50.64,-133.88 33.78,-33.31 77.84,-49.97 132.18,-49.97 27.89,0 49.18,3.84 63.87,10.89l33.77 21.79c3.69,-87.78 7.34,-146.7 11.75,-177.44 2.93,-18.59 13.96,-27.56 32.29,-27.56 21.3,0 32.32,10.26 32.32,30.12 0,28.82 -4.41,92.88 -13.94,192.18zm-159.33 8.32c-39.64,0 -69.75,10.26 -90.3,30.75 -19.81,21.14 -30.13,51.89 -30.13,93.52 0,26.92 11.04,49.98 33.07,69.85 22.03,19.22 47.72,28.82 77.08,28.82 19.83,0 36.72,-3.2 50.66,-9.6 8.08,-3.85 21.3,-12.82 39.64,-26.26 3.69,-2.58 7.34,-5.77 11.03,-9.61l-1.49 -53.82 0.75 -36.51 0.74 -36.51c-9.55,-16.65 -21.3,-29.46 -36.7,-37.79 -14.7,-8.97 -33.04,-12.82 -54.34,-12.82zm829.67 -153.74c-2.96,0 -6.63,-0.65 -11.04,-1.28 -40.38,-10.25 -79.3,-14.74 -116.73,-14.74 -19.81,0 -41.12,1.28 -64.61,4.49 -22.75,2.56 -47.74,7.03 -74.91,13.44 2.21,13.47 2.95,24.36 2.95,32.69 0,29.46 -2.19,69.19 -5.88,120.42l157.13 -12.79c46.26,-4.5 74.88,-6.4 85.15,-6.4 11.04,0 19.83,2.56 26.44,8.97 7.34,5.75 11,13.44 11,23.05 0,19.22 -11,29.47 -33.03,32.04l-85.15 6.4 -165.96 13.46c-0.72,14.73 -1.45,28.83 -2.19,41.65 -0.74,13.44 -0.74,25.63 -0.74,37.15 0,46.12 3.66,73.03 11.75,80.71 5.86,5.77 24.23,8.98 55.81,8.98 15.4,0 37.43,-0.65 67.53,-1.28 29.38,-0.64 52.12,-0.64 66.81,-0.64 5.14,0 11.75,-0.65 21.3,-1.92 9.53,-1.3 16.15,-1.93 20.57,-1.93 25.68,0 38.15,10.9 38.15,32.67 0,17.3 -10.28,27.55 -30.09,31.4 -22.77,3.83 -71.23,5.75 -146.11,5.75 -74.16,0 -121.88,-8.33 -143.18,-25.63 -22.75,-18.57 -34.5,-61.49 -34.5,-128.11 0,-13.46 0.72,-28.18 0.72,-44.21 0.75,-15.38 2.2,-32.67 2.96,-51.24 -2.21,-4.48 -3.69,-9.61 -3.69,-15.38 0,-7.06 2.2,-13.46 6.61,-19.22 5.14,-60.22 7.35,-104.43 7.35,-133.25 0,-7.69 -1.49,-19.22 -3.69,-33.96 -2.21,-14.74 -3.66,-26.26 -3.66,-33.96 0,-24.97 11.75,-37.15 35.97,-37.15 10.29,0 18.37,3.22 25.7,8.97 28.63,-6.41 55.78,-11.52 81.5,-14.71 24.97,-3.22 49.19,-5.14 71.96,-5.14 57.99,0 104.25,5.77 138.76,17.93 16.16,5.76 24.24,15.39 24.24,30.1 0,8.33 -2.94,15.39 -9.55,21.8 -6.63,7.05 -15.41,10.89 -25.68,10.89zm439.06 145.42c-2.96,30.74 -4.41,61.51 -4.41,91.6 0,69.84 3.65,121.73 10.99,157.6 0.76,2.56 0.76,5.11 0.76,7.05 0,8.33 -2.96,15.36 -9.55,20.49 -7.34,5.77 -14.68,8.33 -23.5,8.33 -14.69,0 -25.68,-9.6 -32.3,-28.18 -16.89,10.89 -35.24,19.22 -53.59,24.99 -18.35,5.75 -38.18,8.33 -57.99,8.33 -49.21,0 -90.32,-14.74 -123.35,-42.92 -33.04,-29.48 -49.93,-67.28 -49.93,-113.4 0,-55.74 16.89,-99.94 50.66,-133.88 33.78,-33.31 77.84,-49.97 132.18,-49.97 27.88,0 49.18,3.84 63.87,10.89l33.75 21.79c3.68,-87.78 7.35,-146.7 11.76,-177.44 2.93,-18.59 13.95,-27.56 32.29,-27.56 21.3,0 32.3,10.26 32.3,30.12 0,28.82 -4.4,92.88 -13.93,192.18zm-159.33 8.32c-39.64,0 -69.76,10.26 -90.3,30.75 -19.81,21.14 -30.13,51.89 -30.13,93.52 0,26.92 11.03,49.98 33.05,69.85 22.03,19.22 47.73,28.82 77.1,28.82 19.81,0 36.7,-3.2 50.66,-9.6 8.08,-3.85 21.28,-12.82 39.63,-26.26 3.68,-2.58 7.35,-5.77 11.04,-9.61l-1.49 -53.82 0.74 -36.51 0.75 -36.51c-9.55,-16.65 -21.3,-29.46 -36.73,-37.79 -14.69,-8.97 -33.03,-12.82 -54.32,-12.82zm552.83 84.56c0,15.38 0,37.8 0.74,67.92 0,30.09 0,52.53 0,67.89 0,4.49 0,11.54 1.48,20.51 0.74,9.6 0.74,16.65 0.74,21.12 0,8.97 -3.68,16.66 -10.29,22.43 -6.6,5.75 -15.41,8.33 -25.7,8.33 -18.33,0 -30.09,-9.63 -34.5,-30.12 -30.09,14.09 -64.6,20.49 -103.53,20.49 -31.58,0 -57.26,-5.76 -77.81,-17.92 -22.75,-13.46 -35.99,-33.32 -40.38,-58.95 -9.54,-55.08 -13.95,-104.42 -13.95,-147.34 0,-28.82 3.66,-61.49 10.28,-98.01 3.68,-17.95 14.69,-26.91 34.5,-26.91 10.29,0 18.35,2.56 25.69,8.33 6.63,5.77 10.28,13.44 10.28,22.43 0,9.6 -1.45,24.97 -5.14,46.12 -3.65,20.49 -5.14,37.15 -5.14,48.04 0,34.59 1.49,64.7 3.69,89.69 2.94,24.34 6.59,44.2 11.73,59.57 8.1,3.84 15.44,6.41 23.5,8.33 7.35,1.92 15.41,3.2 22.75,3.2 31.58,0 66.1,-4.48 101.33,-13.46l0 -63.41 -0.72 -60.86c0,-44.84 1.46,-83.93 5.86,-117.22 2.94,-19.23 14.68,-28.84 35.25,-28.84 10.28,0 18.37,2.56 25.7,8.97 6.6,5.77 10.28,12.82 9.55,21.79l-5.9 117.87zm251.11 203.07c-48.46,0 -89.59,-12.82 -122.62,-39.07 -33.78,-26.9 -51.39,-62.78 -51.39,-107 0,-42.26 16.16,-86.47 48.46,-131.3 35.97,-49.98 76.36,-74.96 121.15,-74.96 23.47,0 49.91,4.49 78.55,14.09 36.69,12.81 55.07,27.55 55.07,45.48 0,7.69 -2.93,14.73 -8.83,21.14 -5.86,5.77 -13.2,8.97 -22.03,8.97 -7.34,0 -13.2,-1.91 -18.34,-5.75 -5.13,-3.22 -10.29,-7.06 -14.68,-10.26 -14.69,-9.59 -37.46,-14.73 -69.75,-14.73 -24.24,0 -48.47,19.22 -71.96,57.02 -22.03,34.59 -33.05,64.71 -33.05,90.31 0,27.56 11.03,49.33 32.32,64.71 19.81,14.73 46.26,22.42 77.82,22.42 13.95,0 29.38,-3.2 45.52,-10.25l41.86 -19.22c6.61,-3.19 11.75,-5.11 15.4,-5.11 8.83,0 16.16,3.19 22.79,8.95 6.58,6.41 9.53,13.46 9.53,21.15 0,15.38 -18.35,30.1 -55.07,44.84 -32.29,12.16 -59.47,18.57 -80.75,18.57zm496.34 0.65c-5.16,0 -13.24,-4.5 -24.98,-13.47 -11.01,-8.95 -19.09,-16.64 -24.23,-23.05 -22.75,10.89 -43.33,19.2 -60.22,24.34 -17.61,5.77 -32.3,8.33 -44.03,8.33 -55.81,0 -96.94,-13.47 -122.62,-41.65 -23.5,-25.61 -35.98,-65.33 -35.98,-118.52 0,-50.59 19.81,-93.52 59.46,-129.39 40.39,-35.87 88.12,-53.8 143.17,-53.8 20.58,0 44.06,4.48 69.76,14.08 32.32,11.54 49.19,25.63 49.19,42.29 0,5.76 -2.95,10.24 -7.34,14.73 -2.19,8.33 -4.4,21.14 -5.88,39.08 -1.48,18.57 -2.21,41.64 -2.21,69.82 0,26.26 2.21,46.12 5.9,61.49 2.93,8.98 10.26,27.55 22.74,55.1 1.45,3.85 4.41,8.97 8.08,16.66l2.2 5.13c0,8.33 -2.93,15.36 -10.28,20.5 -6.61,5.76 -13.95,8.33 -22.74,8.33zm-74.91 -217.8c0,-8.99 0.75,-18.59 2.19,-28.84 1.49,-10.89 2.95,-21.77 5.9,-33.96 -8.83,-3.83 -16.89,-7.05 -22.79,-8.97 -6.58,-1.92 -11.71,-2.56 -15.4,-2.56 -37.44,0 -69.01,13.44 -96.19,39.71 -27.17,26.29 -40.37,57.03 -40.37,90.99 0,34.59 7.34,60.22 20.54,77.52 13.96,17.3 35.27,25.6 63.16,25.6 22.77,0 41.86,-3.83 57.99,-10.89 8.81,-3.83 21.3,-12.16 36.7,-23.71 -8.06,-55.72 -11.74,-97.37 -11.74,-124.89zm410.42 -69.21c-5.14,0 -11.01,-0.64 -17.61,-0.64 -6.6,-0.64 -12.48,-0.64 -17.63,-0.64 -5.86,0 -22.03,1.27 -49.19,4.49l6.63 185.14 0 13.44 0.72 16.01c0.71,45.51 -11.76,68.55 -38.18,68.55 -9.55,0 -17.61,-2.56 -24.23,-8.33 -7.35,-5.11 -11.01,-12.16 -11.01,-20.49 0,-7.69 0.74,-19.22 1.46,-35.23 0.74,-16.02 0.74,-28.21 0.74,-35.88l-6.6 -182.58c-17.61,-0.64 -44.06,-2.56 -79.3,-5.13 -21.28,-2.56 -32.29,-12.81 -32.29,-31.39 0,-8.97 2.93,-16.65 9.53,-22.42 6.61,-6.4 14.69,-8.97 24.95,-8.97l75.63 5.13c0,-10.89 -0.72,-24.98 -1.48,-42.92 -1.46,-17.3 -1.46,-30.1 -1.46,-38.43 0,-8.32 2.94,-16.01 10.28,-21.79 6.61,-5.75 15.43,-8.33 24.97,-8.33 21.3,0 33.79,15.39 37.44,46.14 0.75,7.67 1.48,16.66 1.48,27.55l-0.72 18.57 -0.75 19.22c30.1,-3.19 46.99,-5.13 51.39,-5.13 24.97,0 41.12,1.27 48.46,3.2 14.7,3.84 22.05,14.09 22.05,29.47 0,8.97 -2.96,16.66 -9.55,22.41 -6.61,5.77 -15.44,8.97 -25.72,8.97zm174.02 -129.39c-11.75,0 -21.3,-3.83 -30.12,-10.89 -8.08,-7.05 -12.48,-15.38 -12.48,-25.61 0,-9.61 4.4,-17.95 12.48,-25.63 8.81,-7.06 18.37,-10.25 30.12,-10.25 10.99,0 21.26,3.19 29.37,10.25 8.06,7.68 12.48,16.01 12.48,25.63 0,10.24 -4.41,18.57 -12.48,25.61 -8.1,7.06 -18.38,10.89 -29.37,10.89zm16.13 253.69c0,12.81 0.76,31.39 1.49,56.37 0.72,24.34 0.72,43.56 0.72,55.73 0,8.97 -2.94,16.66 -9.55,22.42 -6.59,5.77 -15.41,8.98 -25.68,8.98 -10.28,0 -18.35,-3.2 -24.95,-8.98 -6.63,-5.76 -10.29,-13.46 -10.29,-22.42 0,-12.17 0,-31.39 -0.75,-55.73 -0.72,-24.98 -1.46,-43.56 -1.46,-56.37 0,-19.87 1.46,-44.2 3.68,-73.04 2.2,-29.46 2.94,-53.81 2.94,-73.66 0,-8.97 3.68,-16.66 10.28,-22.41 6.6,-6.41 14.69,-8.99 24.98,-8.99 10.26,0 19.05,2.58 25.68,8.99 6.61,5.75 9.55,13.44 9.55,22.41 0,19.85 -0.72,44.21 -2.94,73.66 -2.2,28.84 -3.69,53.17 -3.69,73.04zm255.53 160.8c-40.41,0 -74.91,-12.81 -104.28,-39.1 -32.32,-28.82 -49.21,-67.25 -50.66,-115.94 -1.48,-46.76 12.48,-88.4 41.13,-124.28 33.03,-42.26 80.01,-63.41 139.48,-63.41 48.48,0 84.42,19.22 108.66,57 19.81,30.75 29.37,67.92 28.63,111.47 -0.72,46.12 -14.68,85.85 -41.83,118.52 -30.13,37.15 -71.23,55.73 -121.14,55.73zm21.28 -279.32c-35.24,0 -62.41,14.1 -82.22,43.56 -15.43,23.71 -23.52,50.62 -23.52,80.72 0,30.12 9.55,53.82 28.65,70.46 15.4,14.1 34.5,21.15 55.81,21.15 24.2,0 46.23,-7.68 63.85,-23.71 20.58,-17.3 30.85,-41 32.3,-71.11 3.69,-80.71 -21.26,-121.08 -74.87,-121.08zm504.39 283.14c-20.55,0 -32.3,-9.6 -35.24,-29.46l-9.55 -68.55c-3.66,-24.33 -5.13,-47.4 -5.13,-68.55 0,-5.75 0.72,-15.36 1.46,-29.46 0.74,-14.09 1.46,-24.36 1.46,-30.1 0,-44.84 -10.28,-67.28 -29.37,-67.28 -26.44,0 -52.12,14.1 -76.35,41.65 -22.03,24.98 -39.67,57 -52.14,95.45 0,8.33 -1.44,17.93 -2.93,30.74 -1.49,10.25 -2.21,20.51 -2.21,30.1 0,6.41 0.72,15.38 2.21,28.2 1.49,12.17 2.2,21.77 2.2,28.18 0,8.97 -3.69,16.66 -9.54,22.43 -6.63,6.4 -15.41,8.97 -25.7,8.97 -10.29,0 -19.08,-2.57 -24.97,-8.97 -6.6,-5.77 -10.28,-13.47 -10.28,-22.43 0,-6.41 -0.72,-16.01 -2.21,-28.18 -1.46,-12.82 -2.19,-21.79 -2.19,-28.2 0,-21.77 1.48,-51.24 5.14,-89.04 3.68,-38.43 5.14,-67.9 5.14,-89.69 0,-6.41 0,-16.01 -1.46,-29.46 -0.74,-12.81 -0.74,-23.07 -0.74,-29.47 0,-8.97 2.94,-16.66 10.29,-22.42 6.6,-5.77 14.68,-8.33 24.95,-8.33 22.03,0 34.5,13.46 36.7,40.35l0.72 36.51c40.41,-46.75 81.51,-69.82 124.08,-69.82 38.19,0 65.37,14.74 80.05,44.2 10.28,19.22 16.14,48.69 16.89,87.13l0 31.38 0 28.84c0,17.3 2.17,39.71 7.35,67.25 5.14,27.55 7.34,49.97 7.34,67.27 0,8.97 -3.69,16.66 -10.3,22.43 -6.59,5.75 -15.41,8.3 -25.69,8.3z"/>
   <path class="fil1" d="M14388.99 2075.4c0,-227.04 -184.01,-411.1 -411.09,-411.11l0 -719.44 -719.51 0c0,-227.08 -184.02,-411.14 -411.1,-411.14 -227.04,0 -411.1,184.06 -411.1,411.14l-719.47 0 0 2261.13 719.47 0c0,227.06 184.06,411.11 411.1,411.11 227.08,0 411.1,-184.06 411.1,-411.11l719.51 0 0 -719.44c227.08,0 411.09,-184.08 411.09,-411.13z"/>
   <path class="fil2" d="M1952.8 944.85c0,-227.08 -184.08,-411.14 -411.15,-411.14 -227.04,0 -411.1,184.06 -411.1,411.14l-719.45 0 0 719.44c-227.06,0 -411.11,184.07 -411.11,411.11 0,227.06 184.06,411.13 411.11,411.13l0 719.44 719.45 0c0,227.06 184.06,411.11 411.1,411.11 227.07,0 411.15,-184.06 411.15,-411.11l719.4 0 0 -2261.13 -719.4 0z"/>
   <path class="fil3" d="M11716.73 1664.29l0 -719.44 -2261.11 0 0 2261.13 719.47 0c0,227.06 184.07,411.11 411.09,411.11 227.04,0 411.11,-184.06 411.11,-411.11l719.44 0 0 -719.44c227.07,0 411.11,-184.07 411.11,-411.13 0,-227.04 -184.04,-411.11 -411.11,-411.11z"/>
   <path class="fil4" d="M9455.62 1664.29l0 -719.44 -719.42 0c0,-227.08 -184.04,-411.14 -411.13,-411.14 -227.04,0 -411.09,184.06 -411.09,411.14l-719.48 0 0 2261.13 2261.11 0 0 -719.44c227.11,0 411.15,-184.07 411.15,-411.13 0,-227.04 -184.04,-411.11 -411.15,-411.11z"/>
   <path class="fil5" d="M2672.2 944.85l0 719.44c-227.03,0 -411.09,184.07 -411.09,411.11 0,227.06 184.06,411.13 411.09,411.13l0 719.44 719.48 0c0,227.06 184.06,411.11 411.1,411.11 227.06,0 411.14,-184.06 411.14,-411.11l719.43 0 0 -2261.13 -2261.15 0z"/>
   <path class="fil6" d="M7556.2 2075.4c0,-210.28 -157.97,-383.41 -361.69,-407.85l0 -722.71 -2261.15 0 0 719.44c-227.06,0 -411.09,184.07 -411.09,411.11 0,227.06 184.03,411.13 411.09,411.13l0 719.44 2261.15 0 0 -722.68c203.72,-24.47 361.69,-197.59 361.69,-407.88z"/>
   <path class="fil7" d="M1626.13 2300.28c30.84,-2.68 50.73,-21.16 59.6,-56.61 8.95,-34.26 10.11,-89.36 3.46,-165.27l-23.07 -290.86c-3.64,-41.52 3.14,-73.19 21.57,-95.12 17.32,-20.65 49.7,-33.07 97.14,-37.21 29.67,-2.61 53.81,0.08 72.44,8 18.63,7.94 34.53,25.68 49.96,51.81 15.44,26.16 27.06,63.39 35.97,110.42 8.9,47.06 16.78,109.72 23.63,188.03 4.04,46.26 4.34,90.46 -0.45,131.54 -4.77,41.04 -12.34,77.58 -22.79,108.37 -10.45,30.79 -24.66,59.53 -40.38,84.83 -16.8,26.57 -35.22,48.51 -54.03,65.69 -18.84,17.19 -40.21,32.22 -61.82,44.87 -21.61,12.65 -43.42,22.93 -64.47,28.36 -22.13,6.7 -43.27,10.96 -63.45,12.73 -71.17,6.22 -137.22,-10.71 -199.28,-50.71 -52.89,51.24 -114.88,80.58 -187.26,86.92 -30.84,2.71 -62.1,0.65 -93.78,-6.13 -31.57,-5.6 -63.76,-18.34 -97.76,-38.07 -34.01,-19.74 -64.86,-44.53 -92.68,-75.57 -27.73,-29.85 -50.44,-70.89 -70.53,-122.93 -20.01,-50.85 -33.4,-108.26 -39.01,-172.32 -9.03,-103.21 -11.14,-181.92 -5.14,-236.25 4.82,-54.2 17.12,-91.15 35.64,-111.89 18.52,-20.76 46.14,-32.74 85.29,-36.15 32.04,-2.81 58.54,-0.37 78.25,6.28 19.83,7.82 34.02,19.74 43.88,36.81 9.86,17.07 15.4,39.3 17.79,66.59l26.52 289.36c6.64,75.93 17.35,129.98 32.23,163.34 14.88,33.37 40.05,47.9 74.46,44.9 17.81,-1.55 30.23,-9.82 37.16,-25.97 7.07,-14.97 10.91,-39.22 11.69,-71.57 -14.74,-45.31 -25.72,-116.08 -34.24,-213.37 -4.77,-54.56 -7.41,-98.57 -7.86,-130.82 -0.43,-32.23 0.64,-61.01 3.31,-85.15 2.66,-24.15 9.53,-41.49 19.26,-53.1 9.75,-11.62 22.18,-19.88 35.99,-25.87 12.74,-4.69 31.53,-8.72 56.44,-10.91 14.24,-1.23 27.28,-2.39 38.07,-2.12 10.77,0.24 20.48,1.78 30.27,4.5 9.82,2.73 18.42,5.57 24.67,8.62 6.24,3.01 12.69,8.43 19.36,16.22 6.65,7.8 10.94,15.78 15.01,21.4 4.08,5.62 7.39,16.09 12.2,30.01 3.62,14.03 7.03,25.69 9.14,36.26 2.14,10.56 3.59,27.18 6.54,47.24 1.87,21.37 3.43,39.15 5.96,54.48 1.35,15.41 3.32,37.95 5.81,66.43 8.72,99.66 10.4,173.63 3.89,222.02 6.05,28.16 13.85,48.99 23.3,61.31 9.45,12.31 24.3,18.19 42.11,16.62z"/>
   <path class="fil7" d="M3757.25 2488.08c-65.68,26.53 -137.03,35.81 -214.15,29.07 -78.29,-6.87 -146.93,-28.4 -205.83,-65.84 -60.17,-36.35 -105.94,-86.99 -137.23,-153.08 -31.26,-66.11 -43.8,-141.31 -36.42,-225.54 11.2,-128.14 59.29,-226.73 143.04,-295.9 83.66,-68 186.64,-97.23 308.84,-86.53 122.2,10.7 219.72,57.49 290.28,138.97 70.46,82.68 100.69,188.14 89.47,316.25 -7.38,84.23 -32.8,156.13 -75.06,215.78 -43.47,59.57 -97.36,101.49 -162.93,126.83zm-198.98 -144.14c27.29,2.39 50.87,-7.5 73.1,-29.48 21.06,-22.07 37.9,-50.47 49.21,-84.16 11.32,-33.66 18.21,-71.31 21.63,-110.48 3.54,-40.33 2.1,-78.71 -2.98,-116.21 -5.19,-36.32 -16.74,-68.4 -33.54,-94.98 -17.98,-26.68 -39.38,-41.7 -65.49,-43.99 -24.9,-2.17 -48.6,8.89 -69.76,32.15 -21.15,23.25 -38.09,52.86 -50.8,88.79 -12.71,35.95 -20.78,73.5 -24.22,112.64 -3.41,39.16 -2,77.53 4.48,112.77 5.29,35.13 16.94,66.03 35.03,91.52 16.9,25.4 38.41,39.24 63.32,41.42z"/>
   <path class="fil7" d="M6495.3 2295.49c3.01,34.42 -5.28,62.62 -23.67,84.55 -18.4,21.94 -48.32,35.32 -87.46,38.74 -10.68,0.94 -20.29,0.59 -31.16,-0.86 -10.9,-1.42 -21.99,-5.23 -33.18,-10.24 -12.39,-4.9 -23.58,-9.89 -32.39,-15.08 -8.84,-5.2 -20.23,-12.59 -34.33,-23.31 -13.98,-9.53 -25.5,-18.09 -33.23,-24.58 -8.84,-5.19 -21.62,-14.85 -38.4,-28.91 -16.78,-14.07 -29.57,-23.71 -37.32,-30.21l-235.07 -186.23 22.54 257.44c3.42,39.15 -1.41,65.85 -14.4,81.36 -14.18,15.58 -36.08,24.67 -68.12,27.47 -34.42,3.01 -61.24,-3 -79.18,-16.98 -17.98,-13.96 -28.65,-40.53 -31.88,-77.3l-50.16 -573.02c-3.94,-45.07 4.91,-80.52 25.47,-105.03 20.58,-24.53 52.74,-39.3 95.46,-43.04 29.65,-2.59 53.8,0.08 72.33,6.82 18.62,7.94 40.24,22.78 67.23,44.34l326.32 272.7 -22.65 -258.64c-3.01,-34.4 3.12,-60.06 19.37,-79.41 15.15,-18.06 36.96,-28.34 66.63,-30.94 34.39,-3.01 58.86,3.23 75.62,17.3 16.78,14.09 26.17,39.55 29.3,75.14l52.32 597.93z"/>
   <path class="fil7" d="M8390.06 1704.2c123.38,10.8 219.91,55.12 288.44,132.84 68.5,77.73 96.67,179.4 85.76,303.98 -3.52,40.34 -10.52,79.2 -20.96,116.54 -11.62,37.23 -26.71,72.95 -47.6,106.99 -21.04,35.23 -45.09,64.2 -73.46,88.02 -28.49,24.99 -63.59,43.46 -105.26,55.34 -41.82,13.09 -87.62,17.44 -138.63,12.97l-233.71 -20.46c-48.63,-4.26 -82.01,-19.13 -100,-45.81 -19.18,-26.78 -26,-71.6 -20.39,-135.68l43.81 -500.63c8.2,-93.73 57.44,-137.25 147.61,-129.36l174.39 15.26zm-92.5 647.01c20.17,1.77 39.36,1.06 55.2,-2.33 15.73,-2.21 30.71,-9.28 45.98,-19.88 13.99,-9.55 27.2,-23.94 37.16,-42.19 9.96,-18.26 19.27,-42.55 27.79,-71.68 7.35,-29.25 12.73,-63.45 16.27,-103.78 3.94,-45.09 3.7,-83.37 -1.79,-116.12 -5.62,-31.58 -14.21,-56.24 -28.18,-74.19 -14.07,-16.79 -28.45,-30.01 -45.62,-38.68 -17.28,-7.48 -39.5,-13.02 -64.33,-16.38l-42.47 485.21z"/>
   <path class="fil7" d="M10794.08 1950.94c41.51,-3.64 71.81,0.89 90.73,12.37 17.75,11.6 28.15,34.61 30.94,66.63 2.39,27.28 -5.44,47.1 -24.67,59.55 -19.13,13.62 -50.64,22.36 -93.35,26.1l-192.2 16.83 11.01 125.74 257.53 -21.34c43.9,-3.84 76.45,-0.72 97.76,10.57 20.12,11.38 31.71,34.29 34.61,67.51 3.32,37.96 -5.07,64.99 -26.26,82.38 -21.19,17.41 -54.97,27.53 -101.24,31.59l-384.38 33.65c-46.27,4.04 -81.82,-6 -105.37,-29.04 -24.71,-22.94 -39.22,-65.91 -44.73,-128.8l-43.83 -500.64c-8.3,-94.9 32.62,-146.31 122.78,-154.2l384.38 -33.65c46.28,-4.06 81.31,0.05 105.09,12.32 23.78,12.26 36.74,37.42 39.97,74.21 3.01,34.39 -4.31,60.14 -22.16,74.85 -18.91,16.02 -50.33,25.93 -94.22,29.79l-258.62 22.63 12.15 138.81 204.06 -17.86z"/>
   <path class="fil7" d="M12811.83 2333.77c-10.39,118.64 -61.86,173.91 -154.39,165.81 -46.27,-4.04 -79.54,-20.11 -98.69,-46.89 -20.39,-26.89 -27.22,-71.73 -21.71,-134.6l43.83 -500.64c4.04,-46.28 20.11,-79.54 47.2,-102.27 26.99,-21.56 60.07,-30.61 100.41,-27.08l249.12 21.81c97.29,8.51 173.62,37.9 230.19,88.29 56.44,51.56 81.01,112.3 74.78,183.46 -4.67,53.38 -19.09,95.17 -44.22,122.86 -25.25,28.88 -64,48.19 -115.07,58.07 37.76,5.69 71.79,26.61 100.8,63.81 29.02,37.21 41.8,82.57 37.33,133.58 -4.57,52.2 -12.85,92.12 -24.71,118.57 -13.18,27.53 -29.07,45.26 -47.69,53.2 -18.63,7.94 -45.15,10.4 -78.37,7.5 -46.28,-4.06 -79.83,-16.57 -99.44,-38.6 -20.86,-20.96 -28.95,-51.55 -25.53,-90.71 4.26,-48.62 2.84,-87 -4.26,-115.14 -7.21,-26.92 -17.63,-44.56 -32.32,-54.23 -14.69,-9.64 -34.56,-14.98 -61.84,-17.36l-65.35 -4.51 -10.07 115.06zm216.39 -382.73c3.32,-37.96 -8.61,-65.32 -34.67,-81.94 -26.03,-16.61 -72.86,-27.89 -138.11,-33.6l-17.97 205.23c61.68,5.41 108.69,1.16 139.7,-11.66 31.01,-12.85 47.62,-38.88 51.05,-78.03z"/>
   <g>
    <polygon class="fil0" points="2750.65,4334.49 2750.65,3829.98 2669.85,3829.98 2669.85,4400.04 3062.99,4400.04 3062.99,4334.49 "/>
    <path class="fil0" d="M4250.64 4304.62c-51.23,23.24 -96.57,41.49 -156.68,41.49 -84.74,0 -130.06,-37.34 -143.84,-107.04l99.51 0c131.05,0 221.7,-48.13 221.7,-134.43 0,-81.32 -83.75,-133.6 -181.3,-133.6 -157.65,0 -221.7,127.79 -221.7,234 0,112.02 71.93,202.47 225.63,202.47 74.9,0 140.9,-21.57 193.14,-53.1l-36.46 -49.79zm-304.46 -126.97c3.94,-61.4 47.29,-147.7 146.82,-147.7 53.2,0 102.47,24.06 102.47,74.68 0,53.1 -59.13,73.02 -145.84,73.02l-103.45 0z"/>
    <path class="fil0" d="M5567.37 4327.01c-6.91,13.28 -12.82,17.42 -23.64,17.42 -9.87,0 -21.7,-7.45 -21.7,-19.08l0 -346.85 -63.04 0c-35.48,-4.15 -86.71,-7.48 -116.27,-7.48 -150.76,0 -244.38,93.77 -244.38,220.74 0,112.02 72.93,215.74 215.8,215.74 55.17,0 106.41,-15.77 139.91,-50.62 15.76,29.05 51.24,50.62 90.66,50.62 29.56,0 67,-12.45 84.74,-44.81l-62.08 -35.69zm-121.2 -87.95c0,18.25 -3.94,33.18 -11.82,46.46 -20.71,35.67 -62.08,60.58 -119.23,60.58 -93.61,0 -138.92,-75.52 -138.92,-156 0,-88.79 55.17,-157.67 161.58,-157.67 28.58,0 76.86,4.99 108.38,6.64l0 199.99z"/>
    <path class="fil0" d="M6405.21 4010.04c29.56,20.76 43.34,50.62 43.34,95.42l0 294.58 75.86 0 0 -294.58c14.79,-23.24 35.48,-43.15 51.25,-53.1 18.72,-13.29 39.4,-19.1 73.89,-19.1 13.8,0 30.55,0.84 65.04,8.3l0 -62.23c-44.35,-6.64 -53.21,-8.3 -67.01,-8.3 -31.53,0 -63.07,5.81 -88.68,19.92 -16.74,8.3 -33.5,23.24 -48.28,40.67 -10.84,-24.9 -28.57,-44.82 -57.14,-60.59l-48.28 39.01z"/>
    <path class="fil0" d="M7484.46 4010.04c29.56,20.76 43.36,50.62 43.36,95.42l0 294.58 75.86 0 0 -292.92c41.38,-45.63 79.82,-74.68 145.84,-74.68 66.01,0 94.59,26.56 94.59,87.13l0 208.29c0,42.31 41.38,82.15 97.55,82.15 37.43,0 67.98,-16.6 86.71,-44.82l-62.08 -34.01c-8.88,11.61 -14.79,14.93 -23.66,14.93 -9.86,0.83 -22.65,-7.47 -22.65,-18.25l0 -229.86c-5.91,-84.64 -67.99,-126.97 -165.55,-126.97 -62.06,0 -117.24,19.09 -162.58,64.72 -9.84,-25.72 -28.58,-49.78 -59.11,-64.72l-48.28 39.01z"/>
    <path class="fil0" d="M8869.16 3805.09c-26.59,0 -51.23,20.74 -51.23,43.97 0,22.41 24.64,43.15 51.23,43.15 27.6,0 53.21,-20.74 53.21,-43.15 0,-23.22 -25.61,-43.97 -53.21,-43.97zm42.38 172.6l-75.88 0 0 347.68c0,44.81 44.35,82.15 97.55,82.15 36.46,0 69.96,-18.26 86.71,-44.81l-65.03 -35.69c-4.93,14.1 -11.82,17.42 -21.68,17.42 -9.86,0 -21.67,-8.29 -21.67,-19.08l0 -347.68z"/>
    <path class="fil0" d="M9771.08 4010.04c29.56,20.76 43.36,50.62 43.36,95.42l0 294.58 75.86 0 0 -292.92c41.38,-45.63 79.82,-74.68 145.84,-74.68 66.01,0 94.59,26.56 94.59,87.13l0 208.29c0,42.31 41.38,82.15 97.55,82.15 37.43,0 67.98,-16.6 86.71,-44.82l-62.08 -34.01c-8.88,11.61 -14.79,14.93 -23.66,14.93 -9.86,0.83 -22.65,-7.47 -22.65,-18.25l0 -229.86c-5.91,-84.64 -67.99,-126.97 -165.55,-126.97 -62.06,0 -117.24,19.09 -162.58,64.72 -9.84,-25.72 -28.58,-49.78 -59.11,-64.72l-48.28 39.01z"/>
    <path class="fil0" d="M11646.47 4532.81c-1.97,9.13 -9.86,18.26 -22.66,18.26 -12.81,0 -14.78,-4.16 -23.64,-16.61l-64.05 37.35c14.78,26.56 50.25,45.63 86.71,45.63 44.34,0 101.48,-29.05 101.48,-83.81l0 -397.47 -77.84 0 0 73.03c-14.78,85.45 -95.58,152.68 -208.88,152.68 -144.85,0 -263.09,-108.71 -263.09,-235.65 0,-131.11 123.16,-247.29 271.95,-247.29 56.16,0 155.68,17.42 155.68,62.23 0,13.29 -8.88,23.24 -19.71,23.24 -5.9,0 -9.84,-1.65 -22.66,-9.12l-45.31 48.96c16.74,14.93 43.34,22.4 66.99,22.4 52.23,0 95.59,-36.51 95.59,-85.48 0,-95.42 -149.78,-126.11 -231.56,-126.11 -183.27,0 -345.85,145.22 -345.85,310.34 0,156 147.8,299.55 337.97,299.55 77.84,0 153.7,-24.89 208.88,-74.68l0 182.56z"/>
    <path class="fil8" d="M7173.12 4786.81l15.63 0 24.18 0 0 -34.47c0,-9.22 -2.8,-17 -5.46,-23.44 -2.67,-6.42 -9.87,-11.96 -21.54,-16.53l0 -9.65c10.23,-2.31 18.14,-8.72 23.73,-19.31 5.6,-10.54 8.39,-26.19 8.39,-46.88l4.39 0c0,16.1 1.95,30.35 5.82,42.75 3.89,12.4 12.65,20.23 26.28,23.44l0 9.65c-9.23,3.68 -15.82,8.62 -19.7,14.8 -3.88,6.19 -7.3,14.58 -7.3,25.17l0 34.47 29.94 0 0 -8.28c12.64,-1.83 23.11,-4.38 31.38,-7.58 8.25,-3.19 18.01,-8.27 29.21,-15.15 23.35,13.79 41.97,23.21 55.86,28.27 13.84,5.04 26.15,7.54 36.86,7.54l8.76 5.55 -8.76 5.51c-14.12,0 -28.25,3.09 -42.34,9.3 -14.13,6.19 -30.92,15.07 -50.38,26.54 -9.73,-5.98 -19.24,-10.8 -28.48,-14.47 -9.25,-3.69 -19.97,-6.42 -32.11,-8.28l0 -8.27 -29.94 0 0 34.48c0,9.21 2.8,17.02 5.47,23.43 2.67,6.44 9.87,11.96 21.53,16.53l0 9.67c-10.2,2.29 -18.15,8.72 -23.72,19.29 -5.6,10.56 -8.38,26.21 -8.38,46.89l-4.39 0c0,-16.1 -1.95,-30.35 -5.84,-42.76 -3.9,-12.4 -12.67,-20.21 -26.29,-23.43l0 -9.67c9.25,-3.66 15.82,-8.6 19.71,-14.82 3.89,-6.18 7.29,-14.55 7.29,-25.14l0 -34.48 -24.18 0 -15.63 0 0 8.27c-12.17,1.86 -22.88,4.59 -32.13,8.28 -9.23,3.68 -18.75,8.5 -28.46,14.47 -19.47,-11.47 -36.26,-20.35 -50.38,-26.54 -14.09,-6.21 -28.23,-9.3 -42.35,-9.3l-8.75 -5.51 8.75 -5.55c10.71,0 23.03,-2.51 36.87,-7.54 13.88,-5.06 32.51,-14.49 55.86,-28.27 11.19,6.88 20.93,11.96 29.2,15.15 8.28,3.2 18.75,5.75 31.39,7.58l0 8.28z"/>
    <path class="fil8" d="M12551.33 4679.28c-8.57,0.92 -15.53,-1.27 -20.81,-6.54 -5.3,-5.29 -7.96,-11.84 -7.96,-19.66 0,-7.34 2.76,-13.58 8.22,-18.61 5.51,-5.06 12.22,-7.57 20.18,-7.57 11.48,0 19.6,4.11 24.36,12.41 4.69,8.22 7.06,15.38 7.06,21.35 0,4.13 -2.02,11.03 -6.05,20.68 -4.02,9.65 -10.59,19.18 -19.69,28.6 -9.09,9.45 -20.32,17.84 -33.58,25.16 -13.37,7.39 -29.56,12.67 -48.46,15.87 -18.92,3.18 -50.16,4.82 -93.41,4.82l-4185.19 0 0 -20.69 4174.33 0 29.54 0 9.09 0c11.6,0 22.46,-0.46 32.56,-1.39 10.07,-0.9 21.21,-1.96 33.32,-3.09 12.09,-1.13 26.91,-7.36 44.3,-18.61 17.42,-11.23 28.16,-22.18 32.19,-32.75zm315.8 123.39c-14.64,0 -29.3,3.09 -43.93,9.3 -14.64,6.19 -32.06,15.07 -52.25,26.54 -10.1,-5.98 -19.97,-10.8 -29.53,-14.47 -9.6,-3.69 -20.72,-6.42 -33.33,-8.28l0 -8.27 -31.05 0 0 34.48c0,9.21 2.89,17.02 5.67,23.43 2.77,6.44 10.24,11.96 22.33,16.53l0 9.67c-10.58,2.29 -18.82,8.72 -24.61,19.29 -5.8,10.56 -8.69,26.21 -8.69,46.89l-4.55 0c0,-16.1 -2.02,-30.35 -6.07,-42.76 -4.04,-12.4 -13.13,-20.21 -27.26,-23.43l0 -9.67c9.58,-3.66 16.41,-8.6 20.44,-14.82 4.06,-6.18 7.57,-14.55 7.57,-25.14l0 -34.48 -4465.9 0 0 -20.68 4465.9 0 0 -34.47c0,-9.22 -2.9,-17 -5.66,-23.44 -2.79,-6.42 -10.24,-11.96 -22.35,-16.53l0 -9.65c10.61,-2.31 18.82,-8.72 24.61,-19.31 5.8,-10.54 8.71,-26.19 8.71,-46.88l4.55 0c0,16.1 2.02,30.35 6.03,42.75 4.04,12.4 13.15,20.23 27.27,23.44l0 9.65c-9.58,3.68 -16.42,8.62 -20.43,14.8 -4.04,6.19 -7.58,14.58 -7.58,25.17l0 34.47 31.05 0 0 -8.28c13.11,-1.83 23.97,-4.38 32.56,-7.58 8.56,-3.19 18.68,-8.27 30.31,-15.15 24.23,13.79 43.53,23.21 57.93,28.27 14.37,5.04 27.14,7.54 38.24,7.54l9.09 5.55 -9.09 5.51zm-315.8 112.35c-4.03,-11.01 -14.64,-22.07 -31.81,-33.09 -17.14,-11 -32.44,-17.33 -45.8,-18.94 -13.37,-1.62 -26.01,-2.66 -37.87,-3.12 -11.85,-0.45 -23.88,-0.67 -35.98,-0.67l-29.54 0 -4174.33 0 0 -20.69 4185.68 0c36.87,0 65.31,0.94 85.22,2.77 19.9,1.82 38,7.34 54.13,16.53 16.16,9.18 28.44,18.03 36.76,26.53 8.32,8.48 14.52,17.47 18.54,26.9 4.03,9.4 6.05,17.35 6.05,23.77 0,5.52 -2.29,12.31 -6.82,20.34 -4.53,8.03 -12.6,12.06 -24.23,12.06 -8.08,0 -14.89,-2.52 -20.44,-7.58 -5.56,-5.05 -8.33,-11.26 -8.33,-18.59 0,-7.36 2.66,-13.68 7.96,-18.95 5.28,-5.29 12.23,-7.71 20.81,-7.26z"/>
    <path class="fil8" d="M8234.06 4755.81l-546.45 0c-12.45,0 -23.49,-0.37 -33.3,-1.04 -9.79,-0.67 -18.59,-2.77 -26.3,-6.19 -7.75,-3.43 -13.86,-8.27 -18.29,-14.47 -4.45,-6.19 -6.69,-13.46 -6.69,-21.72 0,-6.88 2.98,-12.65 8.93,-17.23 5.91,-4.59 13.37,-6.91 22.31,-6.91 8.89,0 16.34,2.31 22.28,6.91 5.93,4.59 8.9,10.35 8.9,17.23 0,3.22 -2.48,7.35 -5.33,13.09 -3.12,6.23 0.31,9.65 8,9.65l565.93 0 0 20.69zm0 51.69l-622.55 0c-5.96,9.67 -15.76,14.49 -29.44,14.49 -8.92,0 -16.53,-2.44 -22.74,-7.24 -6.19,-4.81 -9.35,-10.71 -9.35,-17.58 0,-6.91 3.15,-12.79 9.35,-17.58 6.21,-4.81 13.82,-7.24 22.74,-7.24 13.68,0 23.48,4.81 29.44,14.46l622.55 0 0 20.68zm0 51.71l-565.93 0c-7.67,0 -11.12,3.43 -8,9.64 2.85,5.75 5.33,9.88 5.33,13.09 0,6.89 -3,12.64 -8.9,17.25 -5.94,4.59 -13.39,6.89 -22.28,6.89 -8.94,0 -16.37,-2.29 -22.31,-6.89 -5.95,-4.6 -8.93,-10.35 -8.93,-17.25 0,-8.27 2.24,-15.5 6.69,-21.68 4.43,-6.22 10.43,-11.05 17.83,-14.49 7.45,-3.43 15.8,-5.53 24.97,-6.21 9.21,-0.65 21,-1.04 35.24,-1.04l546.3 0 0 20.69z"/>
    <path class="fil8" d="M7478.33 4773.41c-18.3,0 -33.13,10.73 -33.13,23.99 0,13.24 14.83,23.97 33.13,23.97 18.29,0 33.12,-10.73 33.12,-23.97 0,-13.25 -14.83,-23.99 -33.12,-23.99z"/>
    <path class="fil8" d="M1879.26 4679.28c8.6,0.92 15.54,-1.27 20.81,-6.54 5.32,-5.29 7.97,-11.84 7.97,-19.65 0,-7.35 -2.76,-13.6 -8.22,-18.62 -5.51,-5.06 -12.22,-7.57 -20.18,-7.57 -11.48,0 -19.61,4.11 -24.34,12.41 -4.72,8.22 -7.08,15.38 -7.08,21.35 0,4.13 2.02,11.03 6.07,20.68 4.01,9.65 10.58,19.18 19.69,28.6 9.09,9.45 20.31,17.84 33.58,25.16 13.37,7.39 29.56,12.67 48.46,15.87 18.91,3.18 50.16,4.82 93.41,4.82l4185.19 0 0 -20.69 -4174.33 0 -29.54 0 -9.09 0c-11.6,0 -22.46,-0.46 -32.56,-1.39 -10.07,-0.9 -21.21,-1.96 -33.32,-3.09 -12.11,-1.13 -26.91,-7.36 -44.3,-18.61 -17.42,-11.23 -28.16,-22.18 -32.2,-32.75zm-315.8 123.39c14.65,0 29.32,3.09 43.94,9.3 14.64,6.19 32.06,15.07 52.25,26.54 10.09,-5.98 19.97,-10.8 29.53,-14.47 9.6,-3.69 20.71,-6.42 33.33,-8.28l0 -8.27 31.05 0 0 34.48c0,9.21 -2.9,17.02 -5.67,23.43 -2.77,6.44 -10.24,11.96 -22.33,16.53l0 9.67c10.58,2.29 18.81,8.72 24.6,19.29 5.8,10.56 8.7,26.21 8.7,46.89l4.55 0c0,-16.1 2.02,-30.35 6.07,-42.76 4.04,-12.4 13.13,-20.21 27.24,-23.43l0 -9.67c-9.56,-3.66 -16.39,-8.6 -20.43,-14.82 -4.06,-6.18 -7.58,-14.55 -7.58,-25.14l0 -34.48 4465.91 0 0 -20.68 -4465.91 0 0 -34.47c0,-9.22 2.91,-17 5.67,-23.44 2.77,-6.42 10.24,-11.96 22.33,-16.53l0 -9.65c-10.59,-2.31 -18.81,-8.72 -24.6,-19.31 -5.8,-10.54 -8.71,-26.19 -8.71,-46.88l-4.55 0c0,16.1 -2.02,30.35 -6.03,42.75 -4.04,12.4 -13.15,20.23 -27.27,23.44l0 9.65c9.58,3.68 16.42,8.62 20.43,14.8 4.04,6.19 7.58,14.58 7.58,25.17l0 34.47 -31.05 0 0 -8.28c-13.13,-1.83 -23.99,-4.38 -32.56,-7.58 -8.57,-3.19 -18.68,-8.27 -30.31,-15.15 -24.23,13.79 -43.53,23.21 -57.93,28.27 -14.37,5.04 -27.14,7.54 -38.26,7.54l-9.07 5.55 9.07 5.51zm315.8 112.35c4.04,-11.01 14.65,-22.07 31.82,-33.09 17.14,-11 32.44,-17.33 45.8,-18.94 13.37,-1.62 26.01,-2.66 37.87,-3.12 11.85,-0.45 23.88,-0.67 35.98,-0.67l29.54 0 4174.33 0 0 -20.69 -4185.69 0c-36.86,0 -65.3,0.94 -85.21,2.77 -19.9,1.82 -38,7.34 -54.14,16.53 -16.15,9.18 -28.43,18.03 -36.74,26.53 -8.32,8.48 -14.54,17.47 -18.54,26.9 -4.04,9.4 -6.07,17.35 -6.07,23.77 0,5.52 2.3,12.31 6.83,20.34 4.53,8.03 12.6,12.06 24.22,12.06 8.09,0 14.89,-2.52 20.45,-7.58 5.56,-5.05 8.33,-11.26 8.33,-18.59 0,-7.36 -2.66,-13.68 -7.97,-18.95 -5.27,-5.29 -12.21,-7.71 -20.81,-7.26z"/>
    <path class="fil8" d="M6196.55 4755.81l546.45 0c12.45,0 23.49,-0.37 33.28,-1.04 9.81,-0.67 18.61,-2.77 26.3,-6.19 7.76,-3.43 13.86,-8.27 18.3,-14.47 4.45,-6.19 6.68,-13.46 6.68,-21.72 0,-6.88 -2.98,-12.65 -8.92,-17.23 -5.91,-4.59 -13.37,-6.91 -22.31,-6.91 -8.9,0 -16.34,2.31 -22.29,6.91 -5.91,4.59 -8.89,10.35 -8.89,17.23 0,3.22 2.48,7.35 5.33,13.09 3.1,6.23 -0.31,9.65 -8.01,9.65l-565.92 0 0 20.69zm0 51.69l622.55 0c5.96,9.67 15.76,14.49 29.43,14.49 8.93,0 16.55,-2.44 22.75,-7.24 6.19,-4.81 9.36,-10.71 9.36,-17.58 0,-6.91 -3.17,-12.79 -9.36,-17.58 -6.21,-4.81 -13.82,-7.24 -22.75,-7.24 -13.67,0 -23.47,4.81 -29.43,14.46l-622.55 0 0 20.68zm0 51.71l565.92 0c7.68,0 11.12,3.43 8.01,9.64 -2.85,5.75 -5.33,9.88 -5.33,13.09 0,6.89 2.99,12.64 8.89,17.25 5.95,4.59 13.39,6.89 22.29,6.89 8.94,0 16.37,-2.29 22.31,-6.89 5.94,-4.6 8.92,-10.35 8.92,-17.25 0,-8.27 -2.23,-15.5 -6.68,-21.68 -4.44,-6.22 -10.43,-11.05 -17.83,-14.49 -7.45,-3.43 -15.81,-5.53 -24.97,-6.21 -9.21,-0.65 -21,-1.04 -35.24,-1.04l-546.3 0 0 20.69z"/>
    <path class="fil8" d="M6952.27 4773.41c18.29,0 33.13,10.73 33.13,23.99 0,13.24 -14.84,23.97 -33.13,23.97 -18.29,0 -33.13,-10.73 -33.13,-23.97 0,-13.25 14.84,-23.99 33.13,-23.99z"/>
   </g>
   <path class="fil9" d="M14078.76 -0.01c222.48,0 402.7,180.33 402.7,402.7 0,222.47 -180.22,402.7 -402.7,402.7 -222.42,0 -402.63,-180.23 -402.63,-402.7 0,-222.36 180.22,-402.7 402.63,-402.7zm0 44.13c198.06,0 358.56,160.52 358.56,358.56 0,198.05 -160.5,358.55 -358.56,358.55 -198.05,0 -358.55,-160.5 -358.55,-358.55 0,-198.05 160.5,-358.56 358.55,-358.56z"/>
   <path class="fil0" d="M13895.97 544.06l0 -234.96 -83.72 0 0 -47.78 224.3 0 0 47.78 -83.33 0 0 234.96 -57.24 0zm176.83 0l0 -282.74 85.75 0 50.67 192.83 50.07 -192.83 85.96 0 0 282.74 -52.92 0 -0.18 -222.58 -55.76 222.58 -55.01 0 -55.5 -222.58 -0.18 222.58 -52.91 0z"/>
  </g>
 </g>
</svg>
