<?xml version="1.0" encoding="UTF-8"?>
<!DOCTYPE svg PUBLIC "-//W3C//DTD SVG 1.1//EN" "http://www.w3.org/Graphics/SVG/1.1/DTD/svg11.dtd">
<!-- Creator: CorelDRAW 2019 (64-Bit) -->
<svg xmlns="http://www.w3.org/2000/svg" xml:space="preserve" width="124.384mm" height="121.558mm" version="1.1" style="shape-rendering:geometricPrecision; text-rendering:geometricPrecision; image-rendering:optimizeQuality; fill-rule:evenodd; clip-rule:evenodd"
viewBox="0 0 1211.77 1184.23"
 xmlns:xlink="http://www.w3.org/1999/xlink">
 <defs>
  <style type="text/css">
   <![CDATA[
    .fil1 {fill:#F59F15}
    .fil0 {fill:#0A4A74}
   ]]>
  </style>
 </defs>
 <g id="Layer_x0020_1">
  <metadata id="CorelCorpID_0Corel-Layer"/>
  <g id="_2135032823648">
   <path class="fil0" d="M57.44 196.72c0,-3.5 6.49,-2.66 11.81,-2.36 17.18,0.94 34.77,0 51.93,0 10.6,0 19.39,0.79 29.11,0.79l54.32 -0.82c5.21,0.01 8.16,0.83 14.13,0.82 9.75,-0.02 17.88,-0.79 28.33,-0.79l0 131.41c0,2.8 0.38,6.3 3.15,6.3l51.15 0c4.83,0 3.15,-9.46 3.15,-14.16 -0,-37.78 0.59,-79.2 -0.03,-116.48 -0.15,-9.01 -3.01,-7.05 24.42,-7.05 4.71,0 9.5,-0.09 14.2,-0.03 4.77,0.06 7.64,0.83 13.34,0.82 17.24,-0.02 36.28,-1.05 55.11,-0.82 4.77,0.06 7.64,0.83 13.34,0.82l42.49 -0.79c9.82,0 17.83,0.79 26.75,0.79 17.1,0 36.92,-1.06 55.9,-0.82 4.67,0.06 7.06,0.83 12.56,0.83l44.85 -0.79c9.05,0 16.28,0.8 24.39,0.8l44.06 -0.8c9.05,0 16.28,0.8 24.39,0.8 16.99,0 38.78,-1.38 57.47,-0.82 4.16,0.12 5.96,0.83 10.99,0.83 7.94,-0 14.78,-0.8 23.61,-0.8l45.64 0.8c8.12,0 15.34,-0.8 24.39,-0.8l28.33 0c6.66,0 10.01,0.79 16.52,0.79l0 134.55c0,1.81 0.55,2.36 2.36,2.36l51.93 0c2.76,0 3.15,-3.49 3.15,-6.3l0 -131.41c4.67,0.1 9.48,1.36 15.62,0.67l52.86 -0.7c13.86,0.42 5.04,0.9 21.22,0.02l49.58 0c11.16,0.6 1.51,1.23 15.77,0.04l34.58 -0.04 0 932.43 -1096.88 0 0 -930.07zm189.63 -190.42l0 131.41 -29.9 0c-8.25,-0.45 -6.97,-0.77 -15.77,-0.04l-52.68 0.04c-8.25,-0.45 -6.97,-0.77 -15.77,-0.04 -8.79,0.73 -41.31,0.38 -51.92,0.07 -3.87,-0.12 -3.95,-0.71 -7.83,-0.85l-31.99 1.11 -24.5 13.27 -12.18 15.36c-1.71,3.12 -4.53,11.76 -4.53,15.15l0 958.4c0,4.25 0.74,5.89 2.18,8.83l4.16 9.22c2.46,4.68 5.29,7.79 9.29,11.16 5.95,5.01 7.14,5.47 13.34,9.47 3.01,1.95 4.98,1.45 8.1,2.92 3.25,1.53 4.45,2.46 9.34,2.46l1118.92 0c5.97,0 7.83,-2.35 12.91,-3.62 4.83,-1.2 10.68,-4.97 14.55,-8.27 0.12,-0.11 0.29,-0.27 0.41,-0.38 0.12,-0.11 0.28,-0.27 0.4,-0.38l3.7 -3.38c0.12,-0.11 0.28,-0.28 0.39,-0.4 5.29,-5.27 4.51,-5.92 8.02,-10.86 3,-4.23 6.04,-11.36 6.04,-16.78l0 -957.61c0,-5.46 -1.58,-8.1 -3.12,-12.61 -2.77,-8.09 -9.33,-15.67 -16.16,-20.83 -4.05,-3.06 -8.97,-6.67 -13.93,-8.1 -4.38,-1.26 -4.43,-2.77 -7.76,-3.25 -18.27,-2.63 -45.53,2.31 -64.01,-0.51l-64.98 0.46c-8.25,-0.45 -6.97,-0.77 -15.78,-0.04 -11.41,0.94 -36.93,0.04 -49.53,0.04 -5.23,0 -6.81,-0.79 -11.8,-0.79l0 -133.77c0,-1.84 -1.31,-3.15 -3.15,-3.15l-51.15 0c-5.23,0 -3.15,13.56 -3.15,17.31l0 106.23c0,13.36 2.32,14.99 -6.48,13.62 -3.47,-0.54 -6.44,-0.26 -9.59,0.21 -6.65,1.01 -46.84,0.81 -55.54,0.34 -8.25,-0.45 -6.97,-0.77 -15.78,-0.04l-52.68 0.04c-8.25,-0.45 -6.97,-0.77 -15.78,-0.04l-52.68 0.04c-8.25,-0.45 -6.97,-0.77 -15.78,-0.04l-53.47 0.04c-8.25,-0.45 -6.97,-0.77 -15.78,-0.04l-52.68 0.04c-8.25,-0.45 -6.97,-0.77 -15.78,-0.04l-52.68 0.04c-8.25,-0.45 -6.97,-0.77 -15.78,-0.04l-53.47 0.04c-8.25,-0.45 -6.97,-0.77 -15.77,-0.04l-52.68 0.04c-8.15,-0.44 -7.95,-0.76 -16.56,-0.04 -10.33,0.85 -21.08,0.04 -31.43,0.04 -4.18,0 -2.36,-11.71 -2.36,-14.95l0 -107.8c0,-4.78 1.75,-14.95 -3.15,-14.95l-51.15 0c-2.76,0 -3.15,3.49 -3.15,6.3z"/>
   <path class="fil1" d="M221.9 557.1c0,4.87 3.84,4.61 7.32,6.85l19.9 10.78c2.05,1.44 4.17,1.43 6.06,2.6l19.98 9.92c1.82,1.21 0.44,0.84 2.76,1.96 3.89,1.89 8.23,3.44 11.49,5.82l7.95 4.64c1.07,0.49 2.11,0.63 3.46,1.26 2.15,1.01 0.6,0.41 2.48,1.45 7.52,4.18 26.14,12.46 32.14,16.65l4.19 2.1c0.15,0.08 0.35,0.2 0.5,0.29 1.99,1.21 0.42,1.01 3.32,2.19l18.05 8.7c3.33,2.4 17.59,8.31 20.16,10.53l23.3 12.1c1.63,0.67 1.39,0.43 2.73,1.2l8.63 4.74c1.47,0.82 1.22,0.47 2.76,1.17l7.28 3.74c2.64,1.71 -0.45,0.91 3.65,2.65 0.99,0.42 0.9,0.23 1.77,0.59 1.39,0.59 0.31,0.05 1.56,0.8 4.5,2.7 10.25,4.53 14.62,7.41 2.8,1.85 3.48,1.39 5.84,2.81l5.79 2.86c1.04,0.53 0.94,0.6 1.42,0.94l4.19 2.11c4.19,1.61 6.88,4.32 11.02,6.29l11.64 5.67c0.88,0.59 -0.49,-0.01 1.42,0.94l10.77 4.97c1.61,0.86 1.28,1.03 2.83,1.89l5.7 2.96c0.2,0.12 0.79,0.46 1.01,0.56l10.28 5.46c1.82,1.29 0.23,0.68 2.31,1.62 1.35,0.61 0.77,0.2 1.8,0.56l1.18 0.39c0.17,0.07 0.37,0.17 0.53,0.25l8.39 4.2c2.59,1.73 -0.39,0.26 3.06,1.66l14.54 7.5c6.23,2.66 11.62,7.09 20.16,10.52l17.52 9.23c8.54,0 3.72,0.58 10.02,-2.57l39.27 -20.53c1.75,-0.87 0.98,0.46 4.66,-1.63l4.69 -2.39c4.4,-1.8 8.57,-5.28 12.88,-6.79l3.96 -2.33c0.15,-0.09 0.35,-0.2 0.51,-0.28 0.16,-0.08 0.38,-0.16 0.55,-0.24l28.56 -14.72c0.16,-0.08 0.37,-0.18 0.52,-0.26l38.19 -20.03c1.44,-0.56 1.15,-0.31 2.66,-1.27 1.38,-0.88 0.63,-0.7 2.39,-1.54l38.82 -20.19c1.23,-0.65 1.89,-0.74 2.83,-1.1l67.95 -35.13c2.2,-1.18 1.76,-1.46 4.46,-2.63l15.22 -7.6c2.19,-1.17 1.77,-1.47 4.45,-2.63l12.4 -6.48c0.92,-0.39 1.6,-0.46 2.82,-1.12l9.52 -5.43c2.81,-1.41 7.14,-4.1 10.56,-4.39l0 177.04c0,9.96 1.74,10.51 -3.14,16.53l-7.31 10c-0.1,0.13 -0.24,0.32 -0.34,0.45l-38.49 51.21c-0.93,1.2 -0.12,-0.02 -1.06,1.3 -1.59,2.26 -0.71,3.05 -3.95,3.91 0,5.09 -0.25,5.68 2.54,9.26 1.89,2.43 3.28,5.35 5.21,7.39 0.92,0.97 0.42,0.3 1.19,1.17l3.25 3.83c0.11,0.12 0.27,0.29 0.37,0.42l24.06 32.59c0.48,0.7 0.77,1.32 1.21,1.94l8.08 10.02c0.1,0.12 0.27,0.28 0.38,0.41l24.07 32.58c0.1,0.13 0.23,0.32 0.33,0.46l5.26 6.54c2.61,3.41 2.57,6.72 7.45,6.72 2.64,0 3.27,-2.64 4.41,-4.24 1.49,-2.09 0.24,-0.23 1.47,-1.67l20.14 -27.07c0.1,-0.12 0.56,-0.58 1.1,-1.26l49.75 -66.71c4.44,-5.71 8.37,-6.9 4.01,-12.99 -0.1,-0.13 -0.25,-0.31 -0.34,-0.44 -0.1,-0.14 -0.23,-0.32 -0.33,-0.46 -0.09,-0.14 -0.22,-0.34 -0.31,-0.48l-7.14 -9.38c-1.48,-1.68 -2.36,-2.8 -3.48,-4.39l-28.5 -38.38c-0.1,-0.13 -0.26,-0.3 -0.37,-0.42 -0.11,-0.12 -0.28,-0.28 -0.39,-0.4l-3.76 -4.89c-2.12,-2.7 -5.22,-8.64 -7.94,-9.37 0,-24.66 1.12,-207.45 -0.42,-218.33 -1.23,-8.64 -1.98,-6.92 -8.18,-9.92l-36.5 -18.58c-3.93,-2.61 -8.43,-3.37 -12.43,-5.67l-7.65 -4.15c-2.65,-1.7 -1.69,-0.73 -4.48,-1.81 -2.89,-1.12 -1.73,-1.24 -3.97,-2.33l-40.38 -20.21c-1.6,-0.96 -2.66,-0.97 -4.39,-1.91 -1.98,-1.07 -1.01,-1.11 -3.35,-2.15 -2.32,-1.03 -2.12,-0.28 -4.58,-1.72l-3.52 -1.99c-4.38,-1.72 -7.82,-4.76 -12.22,-6.67l-14.43 -6.82c-0.71,-0.3 -1.49,-0.46 -2.35,-0.8 -4.38,-1.72 -7.32,-4.33 -11.82,-6.28l-56.78 -28.21c-2.6,-1.36 0.11,0.19 -1.84,-1.3 -1.89,-1.44 -3.94,-1.56 -6.42,-3.02l-7.99 -3.81c-1.69,-1.03 -0.31,-0.4 -1.96,-1.19l-22.74 -11.09c-2.83,-1.22 -1.66,-1.14 -3.91,-2.39l-36.43 -17.86c-6.64,-2.42 -14.36,-8.66 -20.15,-10.53 -6.81,-2.21 -16.14,-8.49 -20.65,-10.04 -3.05,-1.05 -1.73,-0.22 -4.34,-1.96 -3.67,-2.45 -8.53,-3.74 -12.09,-6.01 -5.22,-3.33 -1.44,-2.44 -9.36,-2.44 -1.54,0 -8.43,4.7 -10.64,5.88l-19.92 9.98c-1.94,1.24 -1.28,0.69 -3.25,1.47 -2.38,0.94 -0.57,0.05 -2.59,1.34l-72.35 36.24c-1.92,0.67 -1.07,0.11 -2.92,1.01 -1.62,0.78 -0.96,0.81 -3.01,1.71 -1.38,0.6 -1.56,0.44 -2.9,1.03l-11.26 6.05c-1.42,0.64 -0.78,0.23 -1.75,0.61l-1.13 0.44c-0.16,0.08 -0.36,0.18 -0.52,0.27l-34.32 17.62c-2.08,1.26 0.11,0.41 -2.4,1.53l-5.95 2.7c-2.04,1.32 -0.73,0.52 -3.2,1.52 -3.21,1.3 -2.84,1.97 -6.18,3.26l-13.7 6.76c-2.44,1 -1.18,0.22 -3.2,1.52l-22.85 11.77c-3.52,1.57 -2.38,0.38 -5.95,2.7l-10.55 5.19c-0.17,0.07 -0.39,0.15 -0.55,0.23 -0.16,0.08 -0.36,0.18 -0.52,0.27l-46.07 23.17c-1.71,0.69 -1.32,0.35 -2.73,1.2l-17.15 8.82c-1.32,0.57 -1.93,0.58 -3.31,1.41 -1.2,0.72 -0.9,0.85 -2.34,1.6l-34.72 17.21c-1.42,0.67 -1.9,0.57 -3.36,1.36l-6.32 3.12c-0.17,0.07 -0.38,0.16 -0.55,0.24l-2.8 1.92c-2.17,1.19 -6.48,1.05 -6.48,4.54z"/>
   <path class="fil1" d="M371.4 753.03l0.03 36.22c-0.38,12.7 -0.79,6.95 -0.02,21.22 0.82,15.12 0.04,30.51 0.02,45.67 -0.01,4.55 -0.71,5.36 -0.84,9.39 -0.23,7.54 0.83,12.12 0.81,19.7l-0.01 29.92c-0.05,3.64 -1.05,7.85 2.37,7.85l436.71 0c3.54,0 2.15,-4.4 2.7,-8.32 0.5,-3.61 0.49,-6.69 0.48,-10.59 -0.01,-4.73 -0.79,-5.71 -0.85,-10.17l0.03 -31.51c0,-9.05 0.8,-16.28 0.8,-24.39l-0.8 -43.28c0,-4.19 -0.08,-8.45 -0.03,-12.62 0.06,-4.67 0.83,-7.06 0.83,-12.55l-0.79 -44.07c0,-3.42 -0,-6.83 -0.02,-10.25 -0.02,-5.01 4.25,-27.52 -3.13,-27.52 -2.01,0 -1.73,0.89 -3.03,1.69l-10.06 4.89c-2.54,0.92 -1.31,0.29 -3.2,1.52l-54.62 27.22c-1.93,1.17 -0.62,0.92 -3.44,2.07l-13.8 6.66c-1.53,0.54 -1.99,0.38 -3.53,1.19l-57.11 29.44c-1.68,0.87 -1.83,0.54 -3.42,1.3l-10.32 5.41c-1.19,0.62 -2.2,0.81 -3.36,1.36 -2.05,0.98 -1.46,1.17 -3.36,2.15l-18.58 8.96c-1.41,0.84 -0.48,0.54 -1.88,1.26l-13.66 6.8c-2.94,1.72 -11.95,5.86 -14.6,5.86 -2.52,0 -0.88,-0.42 -3.39,-1.33 -2.57,-0.93 -1.64,-0.33 -3.8,-1.71 -4.25,-2.7 -9.31,-3.84 -14,-6.46l-16.48 -8.7c-4.68,-1.97 -8.67,-5.05 -13.38,-7.08l-6.95 -3.28c-2.05,-0.78 -2.25,-0.44 -4.1,-1.4l-54.57 -27.26c-2.01,-0.99 -1.48,-1.11 -2.86,-1.86l-17.53 -8.44c-3.17,-1.7 0.38,-0.29 -2.7,-2.02 -1.55,-0.87 -1.87,-0.43 -3.88,-1.63l-20.64 -10.05c-1.89,-0.9 -1.13,-0.83 -2.94,-1.78l-28.78 -14.5c-1.53,-0.47 -0.68,0.07 -2.48,-0.67l-13.59 -6.87c-4.74,-1.87 -1.15,-2.77 -7.45,-2.77 -2.18,9.37 -0.2,22.34 -0.78,33.05 -0.26,4.79 -1.36,9.56 -0.68,15.62 0.59,5.22 0.67,10.31 0.67,16.64z"/>
  </g>
 </g>
</svg>
