<?xml version="1.0" encoding="UTF-8"?>
<!DOCTYPE svg PUBLIC "-//W3C//DTD SVG 1.1//EN" "http://www.w3.org/Graphics/SVG/1.1/DTD/svg11.dtd">
<!-- Creator: CorelDRAW 2019 (64-Bit) -->
<svg xmlns="http://www.w3.org/2000/svg" xml:space="preserve" width="124.384mm" height="121.558mm" version="1.1" style="shape-rendering:geometricPrecision; text-rendering:geometricPrecision; image-rendering:optimizeQuality; fill-rule:evenodd; clip-rule:evenodd"
viewBox="0 0 13866.94 13551.78"
 xmlns:xlink="http://www.w3.org/1999/xlink">
 <defs>
  <style type="text/css">
   <![CDATA[
    .fil0 {fill:#F59F15}
    .fil2 {fill:#FCEDBB}
    .fil3 {fill:#F8DC97}
    .fil4 {fill:#EDDCB1}
    .fil1 {fill:#201D21}
    .fil5 {fill:#0A4A74}
   ]]>
  </style>
 </defs>
 <g id="Layer_x0020_1">
  <metadata id="CorelCorpID_0Corel-Layer"/>
  <g id="_2135026857712">
   <path class="fil0" d="M6295.49 8987.16c-40.84,-262.17 162.54,-523.52 445.01,-563.62 194.4,-27.59 411.72,88.51 494.36,248.41 25.33,49.01 61.72,129.46 67.86,187.09 18.41,172.75 -36.11,281.26 -112.1,391.08 -132.88,191.99 -493.03,263.18 -718.99,64.93 -84.84,-74.43 -153.27,-181 -176.15,-327.89zm2987.94 -251.05c34.14,90.97 33.24,88.04 32.02,208.35 -2.17,210.29 -113.91,360.92 -297.99,452.49 -123.02,61.21 -291.65,44.36 -415.46,-7.09 -220.82,-91.8 -369.18,-400.32 -250.39,-665.28 47.2,-105.26 135.87,-201.88 243.81,-253.88 124.93,-60.16 274.92,-67.25 408.57,-15.56 114.91,44.46 199.57,139.55 262.87,237.18 55.95,-26.59 19.01,-24.96 53.69,-79.73l61.36 -131.7c8.21,-19.57 7.41,-34.49 14.13,-50.97 11.76,-28.91 13.02,-8.56 25.07,-36.37 13.52,-31.16 -2.2,-27.05 25.39,-48.89l8.86 30.51c-0.39,36.38 -8.94,3.61 -25.57,84.03l-62.32 157.28c-7.44,16.5 -16.48,32.13 -24.82,52.71 -22.33,55.07 -35.51,87.28 -59.21,66.91zm-5621.3 -1669.21c19.13,8.95 8.38,1.09 20.76,27.15 24.91,52.48 23.8,86.31 29,142.5 5.61,60.92 23.08,129.97 25.21,191.98 2.25,65.22 -1.82,151.3 21.71,202 17.83,38.46 38.55,140.1 23.97,182.75 -23.11,-31.58 -18.13,-54.17 -28.4,-79.63 -38.47,-95.43 -14.64,-61.71 -48.6,-171.47 -9.32,-30.11 -63.71,-454.13 -43.65,-495.26zm-7.8 -124.24c-42.54,-64.66 11.38,-442.74 27.51,-497.93 10.78,-36.88 10.83,-87.99 21.15,-114.75 9.93,-25.72 14.88,-10.09 22.09,-47.11 4.7,-24.09 3.28,-40.49 10.89,-61.14 5.15,-13.94 16.38,-27.22 21.17,-41.72 7.59,-22.91 2.83,-38.9 11.96,-60.88 11.03,-26.61 12.84,-10.12 22.14,-49.16 6.32,-26.51 0.97,-33.01 24.11,-40.85 -0.13,71.84 -18.67,82.57 -23.08,106.1 -4.83,25.79 0.12,30.07 -8.55,56.36 -20.76,62.89 -16.04,94.55 -34.49,171.69 -8.96,37.38 -8.73,82.57 -16.82,118.74 -16.42,73.28 -22.37,164.84 -31.74,241.42 -4.58,37.45 -15.43,72.22 -18.22,114.93 -3.5,53.59 4.84,78.69 -28.13,104.32zm1944.09 -244.16c-10.23,61.57 -3.44,990.74 -3.05,1135.93 0.18,64.08 -0.12,128.07 -0.1,192.12 0.01,237.85 84.51,192.91 -375.48,190.55 -157.33,-0.81 -1122.39,10.47 -1139.14,-5.53 -18.89,-36.66 -7.27,-1122.92 -7.49,-1266.6 -0.33,-234.83 -16.29,-379.93 62.8,-571.26 57.24,-138.44 194.98,-262.94 352.54,-286 68.16,-9.97 1993.58,-1.96 2225.59,-2.36 64.61,-0.12 95.85,-5.25 136.4,19.64 52.88,32.48 47.82,50.42 107.77,2.69 92.39,-73.57 268.76,-192.98 367.72,-265.49 124.35,-91.11 239.31,-171.23 363.44,-263 31.71,-23.45 55.26,-52.94 106.04,-54.2 39.37,-0.99 90.57,19.74 114.62,45.93 24.2,26.35 42.14,69.88 34.99,121.57 -6.43,46.63 -42.85,67.59 -72.71,91.29l-622.34 487.58c-162.29,130.54 -132.16,83.86 -143.51,175.16 -13.85,111.47 -130.78,207.35 -241.54,242.69 -81.53,26 -1057.12,-6.25 -1266.54,9.29zm-909.22 -1793.88c464.86,-85.37 777.83,449.51 492.15,806.62 -187.49,234.39 -528.63,251.91 -711.41,83.67 -50.38,-46.37 -77.56,-63.9 -118.15,-131.31 -40.56,-67.35 -49.61,-91.54 -68.02,-180.33 -31.55,-152.23 23.39,-293.96 95.46,-389.1 77.1,-101.79 179.69,-165.64 309.96,-189.56zm-386.67 4197.94c-8.92,-90.38 -22.09,-51.05 -19.06,-200.78 3.66,-180.24 90.35,-312.54 241.27,-410.32 301.68,-195.47 731.72,25.52 761.23,381.51 21.61,260.32 -115.01,447.71 -337.63,533.15 -56.04,21.49 -122.19,26.33 -191.1,25.53 -93.83,-1.11 -112.77,-20.23 -186.01,-38.5 87.1,91.96 227.93,191.52 329.67,268.52 22.19,16.79 11.68,-1.33 18.66,21.75 285.07,6.06 569.37,-52.87 748.79,178.81 22.25,28.73 45.39,58.93 62.06,94.12 20.01,42.19 26.05,68.61 41.55,113.9 -0.46,-37.02 -2.53,-8.44 9.97,-19.73 66.15,3.57 80.28,15.62 131.96,26.12 47.51,9.67 92.02,14.75 138.26,21.98 54.33,-221.72 189.66,-365.11 406.05,-407.2 81.27,-15.81 693.88,-8.06 803.77,-7.77 170.5,0.43 313.66,50.81 399.67,151.11 11.87,-29.58 8.8,-23.32 41.14,-37.11l330.86 -174.12 140.98 -106.67c61.94,-34.46 191.98,-138.78 240.92,-187.19 7.78,-7.71 13.2,-14.59 25.49,-19.35 96.81,-37.39 -32.25,118.82 -32.48,119.12 -19.48,27.07 -8.24,17.94 -19.1,44.97 -16.72,41.63 -57.54,29.98 -46.88,82.11 10.88,53.2 41.07,-5.65 70.85,-10.68 11.13,-26.15 70.64,-80.29 99.42,-87.31 3.23,48.31 -44.37,105.81 -68.67,134.12 -10.96,12.75 -95.29,109.27 -96.94,113.19 24.97,15.66 23.68,3.11 38.67,-6.76 36.64,-24.06 107.79,-55.32 154.05,-47.46l1.06 33.29 374.18 -1.64c-7.93,-8.16 11.44,-10.5 -12.32,-8.51 25.65,-7.63 91.71,-61.89 109.73,-75.66 36.4,-27.89 61.45,-57.01 98.31,-86.48 110.11,-88.02 109.78,-101.82 194.04,-175.96 18.93,-16.66 26.61,-32.48 43.18,-49.39 15.71,-16.03 30.67,-33.91 45.04,-47.51 10.99,-10.4 11.95,-8.8 25.03,-16.72 10.13,-6.18 2.55,-0.72 13.41,-8.76 127.81,-94.46 89.05,-79.73 170.44,-199.7l6.1 -8.12c31.13,-42.81 154.66,-306.64 188.97,-380.23l79.27 -197.81c43.39,-120.38 138.37,-462.67 145.2,-601.26 11.33,-229.83 48.34,-465.01 18.51,-700.91 -3.41,-26.98 -3,-58.95 -7.54,-85.43 -13.29,-77.52 -8.05,-140.74 -14.57,-170.68 -5.53,-25.44 -15.85,-41.37 -20.16,-69.48 -13.05,-85.13 -3,-53.37 -26.4,-159.78l-119.14 -435.65c-11.23,-46.12 -29.53,-90.75 -50.99,-133.76 -33.67,-67.56 -46.29,-134.54 -111.71,-258.09 -31.74,-59.96 -76.59,-180.62 -129.8,-241.32l-53.57 -90.66c-10.99,-18.63 11.29,-1.65 -18.91,-18.64 -5.52,61.33 -1.45,132.01 -2.12,194.61 -0.56,50.47 0.27,44.14 19.08,77.18 14.2,24.96 28.96,42.91 31.58,75.74 -47.4,-9.67 -19.28,-15.59 -49.03,-28.14 -10.36,110.88 -1.17,1144.17 -1.9,1369.2 -0.71,227.38 -175.2,184.91 -408.46,184.04 -375.9,-1.39 -824.61,12.25 -1181.19,-0.79 -51.74,-62.48 -29.57,-137.1 -195.62,-222.45 -94.16,-48.37 -266.63,-30.29 -394.98,-30.89 -207.87,-0.99 -377.35,-34.56 -515.57,116.71 -47.86,52.38 -40.28,84.28 -75.02,136.19 -64.69,4.63 -163.44,7.73 -219.16,-6.56 -59.69,-15.3 -98.75,-56.12 -110.65,-119.61 -9.6,-51.16 -6.13,-402.82 0.43,-463.93 111.19,-5.23 406.91,6.12 481.1,-5.9 101.64,-16.5 229.67,-118.41 255.86,-224.62 22.88,-92.73 -12.03,-74.88 91.57,-151.07 53.9,-39.63 74.85,-50.05 137.43,-104.55l466.19 -351.95c63.54,-53.8 127.17,-78.74 170.18,-157.07 102.25,-186.19 -116.47,-384.2 -276.57,-283.69 -43.47,27.29 -200.1,158.1 -276.92,207.63 -86.34,55.69 -191.49,155.23 -272.96,209.89l-233.17 172.25c-22.19,22.12 -17.59,26.19 -60.78,20.42 -78.73,-10.52 -465.26,6.71 -481.98,-10.9 -16.24,-17.08 -6.45,-502.15 -6.45,-564.02 0,-63.41 -7.1,-372.27 8.18,-419.87 15.35,-47.89 28.11,-52.31 64.3,-78.26 13.19,-16.46 22.91,-17.38 61.31,-24.43 57.3,-10.5 1594.91,-3.55 1731.92,-3.9 195.1,-0.48 404.1,7.2 597.27,-0.71 -3.9,-30.78 -33.4,-48.56 -51.24,-68.99l-199.48 -169.84c-87.33,-47.47 -17.18,22.04 -143.36,-77.25 -93.88,-73.89 -188.44,-118.84 -296.89,-172.14 -55.6,-27.32 -111.07,-44.36 -165.57,-70.31 -131.3,-62.55 -76.98,-30.01 -131.37,-33.78l-220.03 -68.82c-60.31,-15.13 -9.26,6.74 -95.91,-25.03l-196.25 -45.03c-60.34,-20.49 -466.98,-45.06 -534.21,-45.83 -246.99,-2.84 -520.87,5.14 -760.38,63.71 -37.46,9.16 -11.94,22.21 -97.29,20.16 6.69,-20.6 1.9,-14.15 17.64,-26.22l67.48 -25.3c75.35,-26.34 331.37,-76.95 409.13,-79.96 150.54,-5.82 183.69,-11.97 356,-9.21 160.11,2.53 315.47,6.4 468.12,24.87l215.3 34.77 283.16 83.99c155.67,53.69 409.54,149.49 544.29,240.02l45.14 26.56c54.34,31.68 94.78,59.92 151.17,97.24 58.74,38.86 14.47,-4.24 70.19,50.61l138.19 104.13c44.29,36.25 178.07,141.43 193.21,175.33l191.39 -1.27c-2.47,-33.16 -12.62,-37.3 -34.09,-55.01l-90.63 -80c-20,-18.51 -31.77,-21.94 -53.46,-39.22l-93.46 -77.55c-18.87,-16.39 -24.86,-30.21 -41.62,-43.77l-293.06 -233.07c-25.44,-20.35 -27.49,-16.39 -53.91,-31.71l-106.84 -70.79c-35.28,-22.77 -70.64,-36.01 -107.73,-62.97l-173 -90.44c-60.56,-20.83 -107.77,-57.38 -178.64,-83.23l-60.87 -24.74c-29.94,-10.59 -37.86,-5.12 -67.63,-19.6l-261.09 -86.24 -287.25 -63.1c-64.84,-15.94 -390.5,-45.82 -482.28,-46.57 -82.79,-0.67 -435.41,1.67 -499.47,21.22 -60.24,18.39 -185.54,14.64 -231.35,33.49 -49.14,20.21 -118.62,20.31 -212.84,49.44l-128.63 41.24c-43.07,14.77 -22.27,0.4 -98.6,30.32 -16.56,6.48 -22.53,5.32 -39.62,10.1l-215.9 83.84c-30.87,11.81 -9.13,5.7 -31.54,18.21 -53.3,29.73 -30.64,-6.49 -115.71,62.74 -30.49,24.79 -32.21,18.11 -73.12,54.89l-11.57 9.69c-16.39,14.25 3.04,-12.75 -16.09,15.04 7.88,4.4 1.65,4.43 17.12,5.3 29.92,1.69 15.18,-9.18 48.19,-11.14 -12.68,26.92 -184.26,154.52 -237.51,201.3l-177.65 150.38c-33.9,24.33 -34.52,28.9 -60.06,53.19 -163.77,155.67 -288.61,283.51 -427.28,462.35 -29.4,37.93 -77.23,87.56 -96.79,123.68 -32.71,60.38 -40.49,59.32 -63.17,101.76 -12.3,23.01 -27.92,24.44 -66.55,95.74 -15.37,28.37 -30.01,47.9 -43.11,70.81 -83.44,146 -69.97,92.83 -147.59,293.27 -64.72,167.08 -58.85,115.04 -116.3,325.48l-49.18 176.09c-5.36,24.3 -6.71,70.85 -12.76,95.53 -40.99,167.2 -12.13,136.77 -32.15,302.35 -30.58,252.77 -7.05,401.24 4.73,635.31 8.23,163.93 41.33,315.62 81.32,472.74 3.28,12.88 10.33,23.41 14.38,40.93l94.04 289.35c29.33,71.77 61.9,173.06 96.68,237.55 46.49,86.2 52.39,125.28 114.88,219.06l105.21 172.27c9.67,14 11.92,23.47 20.12,36.7 27.09,43.65 115.85,137.9 143.82,191.03 17.29,32.91 19.12,45.3 52.49,63.59z"/>
   <path class="fil1" d="M5598.42 6698.49c209.42,-15.54 1185.01,16.71 1266.54,-9.29 110.76,-35.34 227.7,-131.22 241.54,-242.69 11.35,-91.31 -18.77,-44.63 143.51,-175.16l622.34 -487.58c29.86,-23.7 66.28,-44.66 72.71,-91.29 7.15,-51.7 -10.79,-95.22 -34.99,-121.57 -24.05,-26.19 -75.25,-46.92 -114.62,-45.93 -50.78,1.26 -74.34,30.76 -106.04,54.2 -124.13,91.77 -239.09,171.9 -363.44,263 -98.96,72.51 -275.33,191.92 -367.72,265.49 -59.96,47.74 -54.89,29.79 -107.77,-2.69 -40.55,-24.89 -71.8,-19.77 -136.4,-19.64 -232.01,0.4 -2157.43,-7.6 -2225.59,2.36 -157.56,23.07 -295.3,147.56 -352.54,286 -79.09,191.33 -63.13,336.43 -62.8,571.26 0.22,143.68 -11.39,1229.94 7.49,1266.6 16.74,16 981.81,4.72 1139.14,5.53 459.99,2.36 375.49,47.3 375.48,-190.55 -0.02,-64.05 0.28,-128.04 0.1,-192.12 -0.39,-145.19 -7.18,-1074.35 3.05,-1135.93z"/>
   <path class="fil1" d="M8265.8 9781.56c-76.6,59.64 -150.87,140.29 -180.6,250.91 -28.85,107.24 -26.42,240.09 -24.72,356.69l7.99 47.77c31.07,10.12 1410.79,9.51 1705.61,5.59 9.7,-0.12 18.36,-0.35 27.96,-1.71l18.85 -4.87c19.29,-50.79 8.91,-322.66 -17.02,-396.53 -71.48,-203.64 -246.94,-353.17 -478.27,-355.1 -136.03,-1.13 -274.54,-2.37 -410.41,-1.05l-374.18 1.64c-113.63,6.63 -194.96,36.52 -275.22,96.66z"/>
   <path class="fil1" d="M5771.96 10070.25c-15.5,-45.3 -21.54,-71.72 -41.55,-113.9 -16.68,-35.18 -39.81,-65.39 -62.06,-94.12 -179.41,-231.68 -463.72,-172.75 -748.79,-178.81 -136.19,-0.46 -275.58,-1.56 -411.58,0.5 -212.98,3.23 -408.18,162.38 -466.34,361.23 -19.1,65.29 -21.75,107.58 -21.66,187.24 0.03,36.88 -6.08,176 7.03,204.22 45.03,15.75 1360.91,3.27 1648.18,5.3 33.74,0.23 74.82,5.95 103.9,-6.13 20.25,-55.43 4.47,-299.35 -7.14,-365.52z"/>
   <path class="fil1" d="M6052.15 10098.63c-4.77,61.47 -21.06,289.38 0.17,335.37 30.51,19.93 165.42,7.87 213.47,8.05l1323.51 0.16c19.2,0.01 212.75,9.44 218.47,-13.38l4.69 -89.69c0.55,-80.27 4.54,-197.05 -12.7,-267.96 -20.2,-83.17 -83.97,-194.41 -138.12,-236.4 -86.01,-100.29 -229.17,-150.67 -399.67,-151.11 -109.89,-0.29 -722.5,-8.04 -803.77,7.77 -216.39,42.09 -351.72,185.48 -406.05,407.2z"/>
   <path class="fil1" d="M9283.43 8736.11l-16.58 -43.79c-63.3,-97.64 -147.96,-192.72 -262.87,-237.18 -133.65,-51.68 -283.64,-44.59 -408.57,15.56 -107.94,52.01 -196.6,148.62 -243.81,253.88 -118.79,264.97 29.58,573.49 250.39,665.28 123.8,51.45 292.44,68.3 415.46,7.09 184.07,-91.57 295.81,-242.2 297.99,-452.49 1.23,-120.31 2.12,-117.38 -32.02,-208.35z"/>
   <path class="fil1" d="M6295.49 8987.16c22.88,146.89 91.31,253.46 176.15,327.89 225.96,198.25 586.11,127.06 718.99,-64.93 75.99,-109.81 130.5,-218.33 112.1,-391.08 -6.14,-57.64 -42.53,-138.08 -67.86,-187.09 -82.63,-159.9 -299.96,-276 -494.36,-248.41 -282.47,40.1 -485.85,301.45 -445.01,563.62z"/>
   <path class="fil1" d="M4302.52 9102.56c19,33.01 25.22,58.86 47.11,92.97 18.67,29.08 47.76,60.56 64.73,77.64 52.89,53.2 84.25,74.4 156.86,119.99 73.25,18.26 92.19,37.38 186.01,38.5 68.91,0.8 135.05,-4.04 191.1,-25.53 222.62,-85.44 359.24,-272.84 337.63,-533.15 -29.51,-355.99 -459.55,-576.98 -761.23,-381.51 -150.93,97.78 -237.62,230.08 -241.27,410.32 -3.02,149.73 10.15,110.4 19.06,200.78z"/>
   <path class="fil1" d="M4689.2 4904.62c-130.27,23.91 -232.86,87.77 -309.96,189.56 -72.07,95.14 -127.01,236.87 -95.46,389.1 18.41,88.79 27.46,112.98 68.02,180.33 40.59,67.4 67.77,84.94 118.15,131.31 182.78,168.24 523.91,150.72 711.41,-83.67 285.68,-357.12 -27.29,-892 -492.15,-806.62z"/>
   <path class="fil2" d="M6450.7 5002.36c195.62,-15.42 404.39,-13 604.93,-7.84 197.42,5.06 421.4,4.46 619.06,0.03 285.07,-6.37 623.03,-0.13 917.92,-1.2 52.83,-0.19 236.1,8.84 267.28,-7.3 25.47,-13.18 -5.42,-23.77 48.35,-9.04 -15.14,-33.9 -148.92,-139.08 -193.21,-175.33l-138.19 -104.13c-55.72,-54.85 -11.45,-11.75 -70.19,-50.61 -56.39,-37.31 -96.84,-65.55 -151.17,-97.24l-45.14 -26.56c-134.75,-90.53 -388.62,-186.32 -544.29,-240.02l-283.16 -83.99 -215.3 -34.77c-152.66,-18.47 -308.01,-22.34 -468.12,-24.87 -172.31,-2.76 -205.47,3.39 -356,9.21 -77.76,3.01 -333.77,53.61 -409.13,79.96l-67.48 25.3c-15.74,12.07 -10.95,5.62 -17.64,26.22 85.35,2.05 59.83,-10.99 97.29,-20.16 239.51,-58.57 513.39,-66.56 760.38,-63.71 67.24,0.77 473.88,25.34 534.21,45.83l196.25 45.03c86.65,31.77 35.6,9.9 95.91,25.03l220.03 68.82c54.39,3.77 0.08,-28.77 131.37,33.78 54.49,25.95 109.97,42.99 165.57,70.31 108.45,53.3 203.01,98.25 296.89,172.14 126.18,99.29 56.03,29.78 143.36,77.25l199.48 169.84c17.84,20.42 47.34,38.21 51.24,68.99 -193.17,7.92 -402.17,0.23 -597.27,0.71 -137.01,0.36 -1674.62,-6.6 -1731.92,3.9 -38.4,7.05 -48.12,7.97 -61.31,24.43z"/>
   <path class="fil3" d="M3654.33 6942.65c32.97,-25.63 24.63,-50.73 28.13,-104.32 2.79,-42.71 13.63,-77.48 18.22,-114.93 9.36,-76.58 15.32,-168.14 31.74,-241.42 8.09,-36.18 7.86,-81.36 16.82,-118.74 18.45,-77.14 13.73,-108.8 34.49,-171.69 8.67,-26.29 3.72,-30.57 8.55,-56.36 4.4,-23.53 22.94,-34.26 23.08,-106.1 -23.14,7.84 -17.79,14.34 -24.11,40.85 -9.3,39.04 -11.12,22.55 -22.14,49.16 -9.13,21.98 -4.37,37.97 -11.96,60.88 -4.79,14.49 -16.02,27.78 -21.17,41.72 -7.61,20.65 -6.19,37.05 -10.89,61.14 -7.2,37.02 -12.15,21.39 -22.09,47.11 -10.32,26.76 -10.37,77.87 -21.15,114.75 -16.13,55.2 -70.06,433.27 -27.51,497.93z"/>
   <path class="fil3" d="M3782.77 7813.26c14.58,-42.64 -6.14,-144.28 -23.97,-182.75 -23.52,-50.7 -19.45,-136.78 -21.71,-202 -2.13,-62.01 -19.6,-131.06 -25.21,-191.98 -5.2,-56.19 -4.09,-90.02 -29,-142.5 -12.37,-26.05 -1.63,-18.19 -20.76,-27.15 -20.07,41.13 34.33,465.15 43.65,495.26 33.96,109.77 10.12,76.04 48.6,171.47 10.27,25.46 5.28,48.05 28.4,79.63z"/>
   <path class="fil3" d="M9266.85 8692.31l16.58 43.79c23.7,20.37 36.88,-11.84 59.21,-66.91 8.34,-20.58 17.38,-36.21 24.82,-52.71l62.32 -157.28c16.63,-80.41 25.18,-47.65 25.57,-84.03l-8.86 -30.51c-27.58,21.84 -11.86,17.73 -25.39,48.89 -12.05,27.8 -13.31,7.46 -25.07,36.37 -6.71,16.48 -5.92,31.41 -14.13,50.97l-61.36 131.7c-34.68,54.77 2.26,53.14 -53.69,79.73z"/>
   <path class="fil4" d="M8413.42 9545.84c46.11,-10.62 29.26,-21.73 62.7,-36.63 -13.28,57.74 -133.26,167.24 -159.02,198.59 -22.21,26.99 -18.19,40.71 -56.07,57.57 -5.53,36.96 -2.16,5.93 4.76,16.2 80.26,-60.13 161.6,-90.02 275.22,-96.66l-1.06 -33.29c-46.25,-7.86 -117.4,23.4 -154.05,47.46 -14.99,9.87 -13.7,22.42 -38.67,6.76 1.65,-3.92 85.98,-100.44 96.94,-113.19 24.3,-28.31 71.91,-85.81 68.67,-134.12 -28.79,7.02 -88.3,61.16 -99.42,87.31z"/>
  </g>
  <path class="fil5" d="M657.34 2251.13c0,-40.06 74.29,-30.39 135.11,-27.06 196.61,10.76 397.89,0.04 594.26,0.04 121.26,0 221.93,9.03 333.16,9.03l621.63 -9.34c59.68,0.09 93.41,9.52 161.74,9.34 111.61,-0.28 204.61,-9.03 324.19,-9.03l0 1503.75c0,32.09 4.4,72.04 36.02,72.04l585.29 0c55.27,0 36.02,-108.27 36.02,-162.09 -0.06,-432.29 6.71,-906.28 -0.31,-1332.98 -1.71,-103.13 -34.45,-80.73 279.45,-80.73 53.91,0 108.66,-1.03 162.44,-0.36 54.56,0.67 87.48,9.49 152.7,9.4 197.34,-0.28 415.15,-12.06 630.69,-9.4 54.56,0.67 87.48,9.49 152.7,9.4l486.25 -9.04c112.4,0 204.07,9.05 306.16,9.05 195.64,0 422.48,-12.1 639.68,-9.41 53.47,0.66 80.8,9.53 143.68,9.44l513.29 -9.09c103.56,0 186.27,9.12 279.15,9.12l504.24 -9.12c103.56,0 186.27,9.12 279.15,9.12 194.46,0 443.76,-15.81 657.62,-9.42 47.56,1.43 68.17,9.52 125.71,9.49 90.88,-0.06 169.1,-9.19 270.19,-9.19l522.26 9.12c92.88,0 175.59,-9.12 279.13,-9.12l324.16 0c76.24,0 114.57,9.01 189.09,9.01l0 1539.77c0,20.75 6.27,27.01 27.02,27.01l594.29 0c31.62,0 36.02,-39.96 36.02,-72.04l0 -1503.75c53.41,1.19 108.43,15.6 178.78,7.69l604.9 -7.99c158.66,4.75 57.66,10.26 242.79,0.26l567.37 0c127.68,6.9 17.25,14.04 180.52,0.51l395.73 -0.47 0 10670.33 -12552.27 0 0 -10643.32zm2170.08 -2179.09l0 1503.75 -342.21 0.04c-94.37,-5.09 -79.78,-8.85 -180.52,-0.51l-602.87 0.51c-94.37,-5.09 -79.78,-8.85 -180.52,-0.51 -100.54,8.32 -472.76,4.39 -594.12,0.77 -44.25,-1.33 -45.21,-8.14 -89.58,-9.72l-366.08 12.7 -280.33 151.89 -139.4 175.76c-19.58,35.7 -51.78,134.62 -51.78,173.34l0 10967.48c0,48.66 8.47,67.46 24.99,101.07l47.6 105.48c28.21,53.57 60.54,89.15 106.36,127.76 68.08,57.37 81.73,62.54 152.71,108.42 34.45,22.26 57.01,16.59 92.69,33.37 37.16,17.47 50.96,28.16 106.91,28.16l12804.4 0c68.31,0 89.57,-26.91 147.71,-41.39 55.26,-13.76 122.25,-56.86 166.49,-94.64 1.4,-1.22 3.31,-3.07 4.7,-4.3 1.38,-1.23 3.26,-3.13 4.63,-4.37l42.39 -38.65c1.33,-1.3 3.16,-3.24 4.46,-4.55 60.59,-60.26 51.62,-67.7 91.83,-124.28 34.38,-48.38 69.06,-130.05 69.06,-192.07l0 -10958.47c0,-62.52 -18.09,-92.74 -35.74,-144.35 -31.66,-92.55 -106.77,-179.37 -184.87,-238.34 -46.3,-34.96 -102.68,-76.36 -159.42,-92.7 -50.07,-14.43 -50.74,-31.73 -88.85,-37.21 -209.02,-30.12 -521.06,26.4 -732.51,-5.86l-743.61 5.25c-94.37,-5.09 -79.78,-8.85 -180.53,-0.51 -130.62,10.81 -422.59,0.47 -566.81,0.47 -59.89,0 -77.94,-9.01 -135.06,-9.01l0 -1530.76c0,-21.08 -14.94,-36.02 -36.02,-36.02l-585.29 0c-59.84,0 -36.02,155.22 -36.02,198.1l0 1215.62c0.01,152.87 26.52,171.55 -74.19,155.83 -39.69,-6.19 -73.67,-3.03 -109.69,2.44 -76.16,11.57 -536.05,9.22 -635.56,3.85 -94.37,-5.09 -79.78,-8.85 -180.53,-0.51l-602.86 0.51c-94.37,-5.09 -79.78,-8.85 -180.53,-0.51l-602.86 0.51c-94.37,-5.09 -79.78,-8.85 -180.53,-0.51l-611.87 0.51c-94.37,-5.09 -79.78,-8.85 -180.53,-0.51l-602.86 0.51c-94.37,-5.09 -79.78,-8.85 -180.53,-0.51l-602.86 0.51c-94.37,-5.09 -79.78,-8.85 -180.53,-0.51l-611.87 0.51c-94.37,-5.09 -79.78,-8.85 -180.52,-0.51l-602.87 0.51c-93.23,-5.04 -90.98,-8.67 -189.52,-0.51 -118.21,9.78 -241.27,0.47 -359.7,0.47 -47.88,0 -27.02,-133.99 -27.01,-171.08l0 -1233.62c0,-54.75 20.03,-171.08 -36.02,-171.08l-585.29 0c-31.62,0 -36.02,39.96 -36.02,72.04z"/>
 </g>
</svg>
