<?xml version="1.0" encoding="UTF-8"?>
<!DOCTYPE svg PUBLIC "-//W3C//DTD SVG 1.1//EN" "http://www.w3.org/Graphics/SVG/1.1/DTD/svg11.dtd">
<!-- Creator: CorelDRAW 2019 (64-Bit) -->
<svg xmlns="http://www.w3.org/2000/svg" xml:space="preserve" width="124.384mm" height="121.558mm" version="1.1" style="shape-rendering:geometricPrecision; text-rendering:geometricPrecision; image-rendering:optimizeQuality; fill-rule:evenodd; clip-rule:evenodd"
viewBox="0 0 9001.78 8797.19"
 xmlns:xlink="http://www.w3.org/1999/xlink">
 <defs>
  <style type="text/css">
   <![CDATA[
    .fil0 {fill:#F59F15}
    .fil3 {fill:#FCFDFE}
    .fil1 {fill:#F7D5A9}
    .fil5 {fill:#F3EDE8}
    .fil6 {fill:#94A574}
    .fil4 {fill:#70566F}
    .fil2 {fill:#56B9B8}
    .fil7 {fill:#0A4A74}
   ]]>
  </style>
 </defs>
 <g id="Layer_x0020_1">
  <metadata id="CorelCorpID_0Corel-Layer"/>
  <path class="fil0" d="M4596.61 5185.38c27.46,0.61 56.9,-0.67 83.97,0.78 16.02,0.86 14.66,4.22 33.75,4.36 61.43,0.42 153.62,-2.4 207.82,2.44l5.45 15.65c2.43,5.93 4.18,7.92 8.29,13.45l86.07 135.63c2.7,3.66 6.98,10.18 8.5,13.48l8 15.39c8.96,14.57 13.35,18.96 13.23,29.71 -19.68,5.02 -326.44,-4.84 -379.9,-4.92 -32.21,-0.05 -64.62,-0.21 -96.82,-0.66 -35.21,-0.49 -39.49,-4.96 -67.04,30.95 -24.75,32.28 -68.05,74.59 -89.57,103.74 -32.23,1.43 -71.99,-11.84 -102.42,-16.04 -17.13,-2.37 -31.19,-6.88 -50.03,-9.55l-262 -48.71c-8.88,2.89 -85.98,-11.05 -103.74,-13.58 -17.54,-2.48 -31.93,-7.74 -48.58,-10.39 -18.09,-2.88 -34.4,-4.98 -53.47,-7.69l-150.52 -28.07c-13.87,-2.6 -44.89,-4.78 -54.62,-8.53 3.5,-11.3 17.3,-16.73 29.86,-23.11 8.35,-4.25 22.69,-15.72 32.41,-21.83l201.75 -128.51c78.71,-50.82 52.93,-36.69 115.29,-25.99l136.9 30.32c16.73,3.26 33.8,4.29 47.07,7.95 7.75,2.14 14.9,5.29 20.96,6.73 2.11,0.51 11.35,1.82 13.26,1.76 27.8,-0.97 18.77,-49.91 32.13,-71.24 3.08,-4.91 -3.59,-3.96 5.91,-2.55 6.28,-4.7 8.35,-2.85 18.76,-2.68 8.59,0.12 17.23,0.3 25.84,0.44l141.56 3.39c25.58,3.41 173.9,4.42 181.89,7.88zm817.03 -404.89c8.6,-6.92 23.09,-5.13 38.02,-8.08 67.6,-13.35 117.85,5.26 184.16,22.93 15.92,4.25 47.48,19.87 61.19,26.84 64.31,32.73 120.08,80.55 162.59,139.34 7.63,10.54 29.91,41.42 34.53,53.45 14.01,36.47 17.08,35.75 26.34,59.63l32.14 98.03c0.69,6.14 0.69,13.82 1.66,19.65 2.05,12.32 2.93,5.53 5.12,17.58 2.26,12.4 3.34,29.79 4.05,42.52 0.8,14.59 3.68,20.83 5.87,35.82 6.01,41.25 -2.08,199.88 4.1,212.24 2.82,5.62 11.87,10.58 16.76,13.32l7.38 4.59c3.17,2.29 9.5,7.66 12.57,9.05 5.54,2.5 11.8,2.74 18.16,5.78l4.2 30.7c-29.84,17.16 -38.28,4.85 -66.75,-13.45l-118.89 -69.35c-51.59,-30.63 -133.1,-83.78 -180.03,-107.41l-118.63 -72.04c-9.35,-6.09 -33.48,-14.84 -44.66,-23.91 -7.03,-5.7 -3.21,-5.57 -14.38,-11.05l-61.9 -35.27c-5.17,-2.87 -8.54,-5.13 -13.99,-8.6 -10.08,-6.42 -5.02,-2.45 -16.45,-7.09l-58.53 -37.57c-21.96,-14.58 -17.05,-5.23 -37.52,-22.01 -14.79,-12.11 -53.94,-30.59 -66.44,-39.14l-104.66 -63.32c-17.8,-8.28 -14.48,-9.65 -39.17,-9.31 -16.2,0.23 -32.28,0.03 -48.48,0.01l-1478.05 0.28c-22.76,0.28 -19.21,7.48 -40.32,10.4 -3.97,12.19 -44.42,29.79 -56.13,38.02l-337.91 200.43c-8.87,4.73 -22.43,11.51 -30.62,17.67 -22.63,17.06 -100.41,61.36 -123.16,73.55 -20.89,11.2 -40.6,25.09 -61.76,37.66l-59.89 36.64c-9.53,5.39 -22.65,10.92 -32.18,16.76 -7.9,4.84 -5.53,6.52 -13.77,11.05 -5.6,3.09 -12.43,4.67 -18.65,7.98 -10.6,5.62 -15.93,11.41 -29.27,18.77 -23.14,12.75 -11.75,10.4 -44.49,26.55l-46.4 30.03c-21.61,12.8 -55.6,-2.58 -41.24,-29.82 11.38,-21.61 40.74,-22.53 59.3,-40.26 5,-34.81 1.35,-98.79 1.36,-136.68 0.01,-49.49 3.18,-83.94 9.34,-129.65l17.69 -84.22c3.37,-11.62 5.94,-11.95 9.06,-23.95 13.9,-53.45 45.84,-118.81 78.98,-163.62l29.54 -38.79c28.55,-28.41 55.41,-57.56 94.69,-79.07 18.33,-10.04 25.36,-16.5 43.78,-24.77 28.74,-12.9 71.02,-32.55 101.12,-37.64 11.06,-11.61 103.9,-17.16 126.02,-14.48 73.24,8.86 146.32,37.43 207.49,76.09 6.3,3.98 16.2,9.91 20.77,13.61 7.51,6.09 13.94,11.87 20.55,16.37 11.3,7.7 10.76,5.19 19.82,14.2 21.38,21.26 49.8,51.64 66.76,75.47 25.09,35.2 -6.72,33.69 72.42,34.56l1355.42 0.46c43.21,0 102.79,3.37 144,-0.38 9.53,-13.5 43.83,-73.47 62.42,-78.78l1.82 -2.86c0.29,-0.42 1.62,-2.37 2.06,-2.97 8.23,-11.33 34.78,-34.97 43.91,-41.34l44.57 -29.98c27.45,-13.4 7.61,-6.97 26.42,-15.95 40.61,-19.42 29.9,-19.66 86.22,-36.42 7.33,-2.18 12.1,-4.15 19.74,-5.93 3.84,-0.89 5.94,-1.22 9.93,-1.81l10.31 -1.1zm-2364.06 -58.28c-19.06,4.55 -44.85,-20.25 -50.17,-23.85 -25.64,-17.34 -45.88,-26.29 -72.79,-61.31 -18.61,-24.22 -28.17,-36.66 -41.78,-63 -25.69,-49.78 -37.55,-131.52 -24.39,-184.05 4.23,-16.87 9.61,-62.21 22.08,-84.21 17.82,-31.47 14.58,-32.37 40.43,-64.84 8.03,-10.09 42.79,-46.74 55.92,-49.73 4.48,-11.6 13.27,-16.58 29.11,-24.53 48.16,-24.18 53.03,-28.97 113.18,-40.54 25.66,-4.94 70.05,-5.81 95.15,-0.39 12.98,2.79 30.11,5.43 42.59,8.96l55.97 23.16c6.79,4.04 5.48,5.92 15.03,10.41 26.49,12.48 63.41,48.31 82.31,71.32 27.87,33.92 55.38,95.33 64.32,144.1 17.15,93.64 -8.68,172.76 -59.32,243.38 -17.75,24.75 -21.75,25.32 -36.94,40.06 -32.56,31.58 -69.64,51.96 -112.89,68.8 -30.37,11.83 -99.51,18.11 -136.86,12.85 -13.62,-1.92 -50.16,-8.61 -62.26,-14.16 -10.25,-4.69 -13.76,-4.76 -18.69,-12.44zm2364.16 -585.26l20.77 -7.46c33.62,-7.24 84.42,-8.46 118.13,-0.2l40.87 10.53c15.68,7.62 67.72,26.93 85.67,42.73l26.88 24.19c11.6,11.34 2.99,-1.38 26.22,25.03 18.3,20.81 31.54,33.04 41.4,60.1 10.86,29.78 0.03,-17.95 22.43,54.84 15.79,51.3 16.59,131.48 -2.02,182.78 -11.09,30.56 -0.09,21.12 -17.69,44.85l-2.32 3.66c-1.05,1.91 -1.54,3.94 -2.53,6.17l-18.72 32.23c-11.8,16.6 -59.92,66.23 -76.62,77.02 -26.81,17.36 -56.45,33.81 -86.65,43.94 -17.65,5.93 -68.06,12.97 -89.13,13.48 -32.94,0.81 -62.03,-2.97 -90.35,-11.77 -31.64,-9.84 -44.13,-15.6 -72.07,-30.36 -12.15,-6.41 -22.08,-11.08 -32.19,-19.36 -10.62,-8.68 -21.32,-16.54 -27.32,-27.94 -20.09,-5.83 -57.56,-71.49 -67.71,-90.24 -4.26,-7.84 -11.17,-30.94 -14.31,-40.27 -25.04,-74.32 -18.37,-150.73 12.41,-221.85 7.09,-16.39 28.22,-51.4 41.63,-66.88 8.03,-9.27 16.31,-21.57 25.53,-28.8 15.28,-11.99 25.55,-23.8 43.87,-35.87l53.97 -28.73c10.88,-4.41 25.05,-14.37 39.85,-11.84zm-2006.9 -482.02c0,-19.1 -1.06,-31.8 3.45,-48.36 6.67,-24.53 9.77,-20.59 22.98,-28.47 12.79,-7.63 28.6,-5.96 45.41,-5.94l578.05 -0.06c49.59,0 101.83,-1.62 151.06,-0.13 58.91,1.79 52.67,45.72 52.66,100.05 0,58.86 3.02,336.13 -0.57,381.52 -3.46,43.73 -16.54,9.65 -19.43,47.18 -19.47,1 -20.77,7.53 -44.05,7.81l-216.54 0.12c-125.06,0 -48.34,5.63 -97.06,15.7 -0.64,5.01 -0.04,4.1 -2.16,8.73 -3.49,7.61 1.01,-0.17 -3.61,5.52l-29.69 29.89c-33.09,40.8 -38.63,40.9 -74.27,79.79 -10.67,11.65 -24.71,34.53 -37.25,37.91 -3.1,-27.31 6.78,-58.49 12.32,-88.52 2.64,-14.32 4.67,-28.95 8.26,-43.05 2.76,-10.82 8.15,-29.95 9.12,-40.48 -14.96,-9.45 -38.9,-5.71 -61.86,-5.62l-216.41 -0.01c-73.62,0.1 -80.4,-15.8 -80.39,-74.86l-0.01 -378.72zm1550.92 466.54c-13.76,-0.98 -32.41,-27.48 -44.86,-41.22 -7.57,-8.34 -14.67,-16.01 -21.52,-24.08l-19.72 -20.21c-69.52,-5.27 -247.57,-0.64 -336.54,-0.65 -65.09,-0.01 -140.48,17.81 -137.94,-87.09 4.27,-176.79 -3.2,-376.53 -0.35,-555.38 0.41,-25.86 5.2,-40.19 18.14,-54.49 6.15,-6.79 0.65,-1.69 5.62,-8.01 5.05,-6.43 27.71,-17.68 34.73,-18.45l971.06 -0.27c32.4,-0.12 59.5,-4.19 77.92,6.72 21.68,12.83 11.02,-2.37 34.8,27.35l7.58 11.51c6.51,15.43 3.19,242.47 3.19,272.08l0.38 333.25c0.13,9.84 1.19,16.49 -2.68,24.72 -10.62,22.61 -8.97,19.14 -23.14,33.45 -5.75,5.8 -5.16,8.59 -13.35,11.25 -36.46,11.83 -403.88,-5.07 -441.27,4.52 -1.92,12.25 27.21,158.19 33.4,190.81 2.76,14.52 19.55,45.51 -1.45,52.98 -8.47,-4.47 -13.02,-11.26 -18.74,-19.45 -10.12,-14.47 -9.51,-6.77 -18.81,-18.47l-15.39 -21.67c-3.76,-4.93 -0.88,-2.02 -6.3,-5.67 -4.48,-3.03 -0.07,0.76 -5.49,-3.03l-46.24 -47.52c-23.12,-22.12 -26.6,-23.35 -33.06,-42.99zm-2708.92 626.9c0,48.9 -1.25,105.07 4.52,152.33l9.18 101.21c1.51,27.93 6.34,15.45 9.23,25.53 0.68,32.93 5.51,80.74 12.94,108.81l20.92 101.76c2.34,15.37 32.99,129.45 39.07,140.55l50.42 130.71c9.36,20.34 22.96,71.13 33.16,90.18l60.67 121.03c7.07,15.6 43.86,87.93 52.85,98.68 6.53,7.82 7.64,10.65 12.83,18.24 15.83,23.15 29.4,49.34 47.74,74.76l13.16 15.36c4.73,5.76 5.32,12.92 10.6,20.82l39.47 48.23c5.52,8.92 5.01,11.92 11.55,20.36 8.13,10.47 19.12,23.04 27.58,34.96l26.49 33.47c20.03,22.58 40.94,39 56.42,62.6 8.07,12.32 24.02,20.26 32.83,30.21l26 33.6c6.93,8.84 21.83,24.07 30.36,32.64l39.13 34.91c23.21,21.87 47.06,46.53 73.27,63.9 19.27,12.76 85.01,74.85 117.23,95.49 26.42,16.92 33.8,27.57 70.89,48.71l74.51 48.03c7.13,3.66 11.85,7.71 17.23,11.15 8.25,5.28 12.19,4.99 21.76,9.94l76.71 45.47c22.33,16.49 61.84,21.89 84.88,37.71 11.24,7.72 26.42,12.8 41,19.17l150.57 59.87c13.55,4.63 24.18,3.06 35.75,10.06 12.49,7.54 22.28,9.26 37.59,12.05 15.9,2.89 28.43,9.7 44.55,14.39 16.84,4.89 28.14,9.38 46.06,13.43l75.92 16.28c24.16,4.32 52.22,7.58 74.4,15.38 22.28,7.82 136.02,22.38 161.13,22.97 40.95,0.96 72.54,6.27 113.78,8.34 66.78,3.37 177.99,7.8 241.26,-4.18 33.27,-6.3 83.81,-2.61 120.27,-8.68 82.41,-13.71 191.48,-26.18 270.16,-52.19 13.51,-4.47 2.78,-5.49 20.64,-8.84l104.14 -28.81c10.44,-6.05 9.6,-5.32 23.48,-9.78l72.36 -27.5c22.27,-10.26 46.27,-15.85 68.03,-26.21 21.12,-10.07 65.58,-24.82 78.57,-32.81 1.67,-1.03 0.92,-1.01 5.59,-3.19l80.55 -38.93c42.52,-28.17 88.2,-50.17 131.35,-79.31 18.72,-12.65 38.96,-25.63 55.63,-41.03l96.43 -65.87c26.1,-22 57.1,-40.41 80.69,-64.49l93.72 -85.83c27.24,-24.02 51.19,-54.5 78.64,-80.69l75.87 -86.47c17.45,-20.03 116.05,-144.56 123.85,-167.57 3.45,-10.23 -0.88,-2.39 4.39,-9.11 27.56,-35.2 73.95,-110.42 93.97,-151.3 11.07,-22.6 23.75,-37.02 33.79,-63.03 4.89,-12.69 14.5,-33.12 22.38,-42.32 10.29,-12.01 15.02,-30.69 21.15,-44.65l38.39 -89.54c8.67,-18.84 52.64,-139.55 58.52,-165.92 3.38,-15.16 4.63,-14.4 8.72,-25.32 4.87,-12.98 9.59,-37.78 13.03,-52.82 3.77,-16.41 9.48,-36.84 13.01,-52.43 4.28,-18.91 4.88,-35.77 9.31,-54.32 2.26,-9.47 5.01,-12.4 7.13,-22.86l12.22 -89.66c1.75,-22.18 6.49,-33.1 9.35,-55.11 2.58,-19.87 1.75,-39.42 4.28,-58.66 1.57,-12.02 3.98,-9.74 4.47,-25.63 0.48,-15.31 0.12,-17.98 3.2,-30.95 4.89,-20.62 4.83,-246.35 -0.6,-267.91 -9.55,-37.9 -5.75,-79.69 -10.36,-118.39 -2.63,-21.99 -3.84,-46.91 -10.31,-65.3 -6.25,-17.77 -24.03,-133.71 -36.34,-174.08l-19.79 -77.46c-5.25,-17.4 -9.15,-33.04 -13.56,-49.28l-131.24 -321.67c-6.12,-15.39 -15.29,-27.1 -21.54,-40.76l-34.72 -62.25c-5.6,-9.19 -7.97,-10.55 -12.62,-18.4 -3.9,-6.59 -1.17,-2.29 -4.6,-9.65l-56.67 -91.9c-8.45,-11.93 -6.22,-3.71 -14.62,-19.48 -4.89,-9.21 -18.72,-28.51 -25.65,-37.01 -6.27,-7.69 -7.33,-9.72 -12.79,-18.87 -25.53,-42.79 -111.12,-132.68 -146.07,-175.45l-49.13 -50.44c-23.47,-21.14 -41.06,-43.9 -64.34,-63.71l-119.03 -103.05c-18.79,-14.16 -40.84,-26.28 -58.48,-41.34 -11.63,-9.93 -25.37,-18.01 -37.54,-27.97 -10.44,-8.55 -6.22,-5.86 -19.75,-11.98 -11.83,-5.37 -1.2,0.25 -8.73,-5.38 -27.86,-20.81 -55.2,-41.98 -85.69,-59.28l-121.82 -71.36 -89.92 -41.4c-32.31,-12.85 -55.31,-26.39 -91.35,-37.52l-92.77 -35.37c-16.44,-5.38 -31.24,-12.85 -44.99,-16.89l-152.61 -43.86c-24.08,-6.4 -87.8,-17.88 -103.9,-23.96 -18.24,-6.89 -86.07,-13.92 -110.73,-17 -46.87,-5.88 -99.34,-5.6 -148.57,-12.39 -53.53,-7.38 -226.77,-3.87 -273.42,1.95 -36.87,4.6 -83.02,2.56 -121.56,8.22 -36.01,5.28 -74.9,9.75 -109.87,18.25l-105.26 24.19c-17.96,3.87 -34.43,6.4 -52.36,11.25 -38.99,10.55 -65.41,14.49 -102.29,29.47 -8.69,3.52 -16.2,3.21 -25.34,6.16 -10.52,3.38 -10.05,6.26 -23.56,10.22l-92.63 35.16c-29.69,13.03 -62.01,24.79 -90.55,40.02 -21.94,11.72 -43.43,15.32 -87.62,40.93 -12.11,7.01 -29.54,14.46 -41.9,21.02l-79.89 47.79c-28.86,15.41 -51.09,34.21 -79.52,51.43 -36.56,22.13 -77.23,54.84 -114.21,79.78 -14.05,9.47 -22.89,18.92 -36.33,29.04 -9.61,7.23 -15.79,15.85 -26.26,22.36l-27.03 21.22c-7.09,5.97 -9.02,8.64 -16.91,14.56 -5.14,3.86 -13.46,9.29 -17.67,13.26l-7.93 9.03c-16.8,19.97 -15.73,20.18 -34.87,36.64 -0.48,0.42 -1.12,0.97 -1.58,1.41l-67.77 68.5c-37.97,36.42 -69.79,79.97 -107.36,117.75 -7.45,7.49 -6.44,10.43 -12.45,19.05 -4.29,6.17 -8,9.73 -13.73,17.63 -19.93,27.53 -57.48,65.97 -70,95.59 -6.41,15.2 -40.19,54.15 -52.15,75.42l-124.27 232.06c-11.09,21.86 -15.73,40.75 -30.19,66.35 -7.95,14.09 -10.81,31.05 -19.5,45.76 -11.7,19.81 -25.94,71.23 -34.36,97.37l-18.32 42.85c-8.96,22.51 -15.1,51.29 -21.01,75.87 -3.33,13.87 -5.56,11.38 -8.19,25.37 -3.43,18.29 -9.45,32.85 -13.13,52.41 -4.78,25.4 -13.08,91.95 -19.99,109.71 -8.19,21.06 -6.43,30.76 -8.65,56.72 -1.77,20.55 -6.88,36.05 -8.93,56.07 -8.26,80.64 -13.52,159.98 -13.52,245.68z"/>
  <path class="fil1" d="M2248.84 4748.37c0,-85.69 5.26,-165.03 13.52,-245.68 2.06,-20.02 7.16,-35.52 8.93,-56.07 2.21,-25.95 0.46,-35.66 8.65,-56.72 6.9,-17.75 15.21,-84.3 19.99,-109.71 3.68,-19.56 9.7,-34.12 13.13,-52.41 2.63,-14 4.86,-11.51 8.19,-25.37 5.91,-24.58 12.05,-53.36 21.01,-75.87l18.32 -42.85c8.42,-26.15 22.66,-77.57 34.36,-97.37 8.68,-14.71 11.55,-31.67 19.5,-45.76 14.45,-25.6 19.1,-44.49 30.19,-66.35l124.27 -232.06c11.96,-21.27 45.74,-60.23 52.15,-75.42 12.52,-29.62 50.07,-68.06 70,-95.59 5.72,-7.9 9.44,-11.46 13.73,-17.63 6.01,-8.62 5.01,-11.56 12.45,-19.05 37.57,-37.78 69.39,-81.34 107.36,-117.75l67.77 -68.5c0.46,-0.44 1.09,-0.99 1.58,-1.41 19.14,-16.46 18.06,-16.67 34.87,-36.64l7.93 -9.03c4.2,-3.97 12.53,-9.4 17.67,-13.26 7.9,-5.92 9.83,-8.59 16.91,-14.56l27.03 -21.22c10.46,-6.51 16.65,-15.13 26.26,-22.36 13.44,-10.12 22.28,-19.57 36.33,-29.04 36.97,-24.94 77.65,-57.65 114.21,-79.78 28.43,-17.22 50.66,-36.01 79.52,-51.43l79.89 -47.79c12.36,-6.56 29.79,-14.01 41.9,-21.02 44.19,-25.61 65.68,-29.22 87.62,-40.93 28.54,-15.23 60.86,-26.99 90.55,-40.02l92.63 -35.16c13.52,-3.96 13.05,-6.84 23.56,-10.22 9.15,-2.95 16.65,-2.63 25.34,-6.16 36.88,-14.98 63.3,-18.92 102.29,-29.47 17.93,-4.85 34.4,-7.38 52.36,-11.25l105.26 -24.19c34.96,-8.5 73.85,-12.97 109.87,-18.25 38.54,-5.66 84.69,-3.62 121.56,-8.22 46.65,-5.82 219.88,-9.33 273.42,-1.95 49.23,6.79 101.7,6.51 148.57,12.39 24.66,3.08 92.49,10.11 110.73,17 16.1,6.09 79.82,17.56 103.9,23.96l152.61 43.86c13.76,4.04 28.56,11.51 44.99,16.89l92.77 35.37c36.05,11.14 59.05,24.67 91.35,37.52l89.92 41.4 121.82 71.36c30.49,17.3 57.84,38.47 85.69,59.28 7.53,5.63 -3.1,0.01 8.73,5.38 13.53,6.12 9.31,3.43 19.75,11.98 12.17,9.97 25.91,18.04 37.54,27.97 17.64,15.06 39.69,27.18 58.48,41.34l119.03 103.05c23.28,19.81 40.87,42.57 64.34,63.71l49.13 50.44c34.96,42.77 120.55,132.66 146.07,175.45 5.46,9.15 6.51,11.18 12.79,18.87 6.93,8.5 20.76,27.8 25.65,37.01 8.39,15.78 6.17,7.55 14.62,19.48l56.67 91.9c3.44,7.36 0.7,3.06 4.6,9.65 4.65,7.85 7.02,9.21 12.62,18.4l34.72 62.25c6.25,13.66 15.41,25.37 21.54,40.76l131.24 321.67c4.41,16.25 8.3,31.89 13.56,49.28l19.79 77.46c12.3,40.37 30.08,156.31 36.34,174.08 6.46,18.39 7.68,43.31 10.31,65.3 4.62,38.7 0.82,80.49 10.36,118.39 5.43,21.56 5.49,247.29 0.6,267.91 -3.08,12.96 -2.72,15.64 -3.2,30.95 -0.49,15.89 -2.9,13.61 -4.47,25.63 -2.53,19.24 -1.69,38.79 -4.28,58.66 -2.86,22.02 -7.6,32.93 -9.35,55.11l-12.22 89.66c-2.12,10.46 -4.87,13.4 -7.13,22.86 -4.43,18.56 -5.03,35.41 -9.31,54.32 -3.53,15.59 -9.24,36.02 -13.01,52.43 -3.44,15.05 -8.16,39.84 -13.03,52.82 -4.09,10.91 -5.34,10.15 -8.72,25.32 -5.88,26.38 -49.85,147.09 -58.52,165.92l-38.39 89.54c-6.14,13.96 -10.86,32.64 -21.15,44.65 -7.87,9.2 -17.48,29.64 -22.38,42.32 -10.04,26.02 -22.72,40.43 -33.79,63.03 -20.02,40.87 -66.41,116.1 -93.97,151.3 -5.26,6.72 -0.93,-1.12 -4.39,9.11 -7.8,23.01 -106.4,147.54 -123.85,167.57l-75.87 86.47c-27.45,26.19 -51.4,56.67 -78.64,80.69l-93.72 85.83c-23.59,24.08 -54.59,42.49 -80.69,64.49l-96.43 65.87c-16.67,15.41 -36.91,28.38 -55.63,41.03 -43.15,29.14 -88.83,51.14 -131.35,79.31l-80.55 38.93c-4.67,2.18 -3.92,2.16 -5.59,3.19 -12.98,8 -57.44,22.75 -78.57,32.81 -21.75,10.36 -45.76,15.95 -68.03,26.21l-72.36 27.5c-13.88,4.46 -13.04,3.73 -23.48,9.78l-104.14 28.81c-17.86,3.35 -7.13,4.37 -20.64,8.84 -78.68,26 -187.75,38.48 -270.16,52.19 -36.46,6.07 -87,2.37 -120.27,8.68 -63.27,11.98 -174.49,7.55 -241.26,4.18 -41.24,-2.07 -72.83,-7.38 -113.78,-8.34 -25.11,-0.59 -138.86,-15.15 -161.13,-22.97 -22.19,-7.79 -50.25,-11.06 -74.4,-15.38l-75.92 -16.28c-17.91,-4.05 -29.22,-8.55 -46.06,-13.43 -16.12,-4.68 -28.65,-11.49 -44.55,-14.39 -15.31,-2.79 -25.1,-4.51 -37.59,-12.05 -11.57,-7 -22.2,-5.43 -35.75,-10.06l-150.57 -59.87c-14.58,-6.38 -29.76,-11.45 -41,-19.17 -23.04,-15.81 -62.56,-21.22 -84.88,-37.71l-76.71 -45.47c-9.57,-4.95 -13.51,-4.67 -21.76,-9.94 -5.38,-3.44 -10.1,-7.49 -17.23,-11.15l-74.51 -48.03c-37.1,-21.14 -44.47,-31.79 -70.89,-48.71 -32.22,-20.64 -97.96,-82.73 -117.23,-95.49 -26.21,-17.36 -50.06,-42.03 -73.27,-63.9l-39.13 -34.91c-8.53,-8.57 -23.43,-23.8 -30.36,-32.64l-26 -33.6c-8.81,-9.95 -24.76,-17.9 -32.83,-30.21 -15.48,-23.6 -36.39,-40.02 -56.42,-62.6l-26.49 -33.47c-8.46,-11.91 -19.45,-24.48 -27.58,-34.96 -6.54,-8.44 -6.03,-11.44 -11.55,-20.36l-39.47 -48.23c-5.28,-7.9 -5.86,-15.06 -10.6,-20.82l-13.16 -15.36c-18.34,-25.42 -31.9,-51.61 -47.74,-74.76 -5.19,-7.59 -6.3,-10.42 -12.83,-18.24 -8.98,-10.75 -45.77,-83.07 -52.85,-98.68l-60.67 -121.03c-10.2,-19.06 -23.8,-69.84 -33.16,-90.18l-50.42 -130.71c-6.08,-11.1 -36.74,-125.18 -39.07,-140.55l-20.92 -101.76c-7.43,-28.07 -12.26,-75.88 -12.94,-108.81 -2.89,-10.07 -7.72,2.4 -9.23,-25.53l-9.18 -101.21c-5.77,-47.26 -4.52,-103.43 -4.52,-152.33zm856.61 -1885.26c-3.58,8.4 -8.71,12.55 -16.52,17.33 -22.93,14.04 2.73,-6.4 -37.76,24.99 -8.42,6.52 -12.19,6.03 -19.84,11.79 -0.49,0.38 -1.09,0.96 -1.56,1.35l-25.91 19.17c-23.71,19.06 -25.16,9.71 -45.14,32.1 -10.57,11.83 -6.07,7.15 -19.89,14.12l-28.04 26.15c-16.2,15.28 -9.1,-0.23 -34.01,25.75 -0.41,0.41 -0.96,1.05 -1.37,1.44 -6.3,5.96 -6.88,2.94 -12.22,11.3 -5.74,9 3.31,1.89 -6.51,9.7 -5.58,4.44 -11.6,5.91 -19.2,12.23 -7.37,6.13 -10.72,10.66 -17.19,14.23 -3.19,15.78 -6.82,5.15 -16.44,14.76 -8.48,8.48 1.38,6.46 -11.75,16.52l-9.24 8.6c-14.96,18.19 -7.9,-4.24 -22.41,17.52 -6.69,10.07 -9,11.26 -17.2,19.38 -6.01,5.93 -14.18,14.29 -20.51,19.24l-37.13 36.9c-0.43,0.44 -1.04,1.01 -1.48,1.45l-4.46 4.41c-0.41,0.46 -0.97,1.08 -1.37,1.54 -8.73,10.33 -2.62,7.24 -12.76,13.68 -7.87,11.99 -21.34,19.62 -33.97,30.35l-6.25 4.97c-5.99,5.28 -0.22,-0.33 -5.72,5.92l-19.51 20.39c-0.37,0.48 -0.85,1.17 -1.19,1.66l-3.37 5.15c-13.97,22.92 -0.08,11.93 -21.79,36.99l-5.47 6.88c-6.06,8.4 -7.5,14.66 -15.34,21.65 -22.7,20.26 -26.17,36.51 -47.34,63.73 -15.83,20.34 -28.27,28.9 -35.95,46.36 -4.04,9.15 -4.18,8.05 -8.35,17.62 -10.82,24.87 -39.25,52.73 -41.01,78.25 -19.31,3.84 -9.57,7.4 -29.02,33.72 -8.78,11.89 -8.44,22.94 -16.38,32.12 -0.19,0.22 -4.54,4.34 -4.58,4.37 -0.36,0.33 -1.48,1.94 -1.74,1.42 -0.28,-0.52 -1.19,0.96 -1.79,1.42 -3.34,15 -5.37,12.9 -13.69,21.92 -8.23,8.92 8.87,-10.51 -3.76,4.84 -7.75,9.42 -4.76,4.49 -13.61,10.59 -1.61,31.27 -1.66,20.66 -11.86,40.82 -5.05,9.99 -11.94,25.32 -17.37,33.92l-19.61 40.4c-16.31,23.22 -7.69,27.99 -14.34,42.74 -5.85,13 -7.83,-1.65 -11.33,27.08 -1.72,14.18 0.9,4.45 -4.52,14.16 -14.26,25.59 -7.96,21.41 -14.84,42.89 -4.61,14.44 -7.21,3.08 -13.22,23.04 -3.84,12.77 -5.99,15.75 -9.84,27.01 -3.63,10.63 -8.19,21.54 -10.2,30.11 -5.5,23.67 -3.01,9.91 -13.27,23.15 -6.35,8.19 -2.79,8.58 -8.64,28.36 -3.24,10.95 -4.41,18.57 -8.52,28.91 -5.23,13.16 -3.42,20.48 -7.37,32.42 -4.27,12.9 -6.33,11.37 -11.54,24.92 -8.06,20.94 -4.73,49.84 -10.35,62.69 -7.09,6.06 -4.73,13.97 -7.53,25.05l-10.94 50.38c-2.38,21.62 -2.21,6.11 -7.09,20.44 -3.09,9.09 -3.89,43.06 -5.41,55.52 -1.82,14.97 -7.99,27.91 -10.55,44.91l-7.29 70.01c-8.52,26.33 -1.71,64.69 -9.47,93.08 -5.38,19.64 -1.42,44.58 -10.04,45.54l0 270.98c0.43,0.65 0.75,1.6 0.93,2.11 0.19,0.51 0.67,1.5 0.88,2.14l7.22 47.48c1.93,16.1 1.36,40.97 2.8,56.91l18.92 114.19c6.46,13.69 5.23,13.33 7.22,34.09 8.21,85.87 7.38,40.64 13.35,75.24 3.73,21.68 15.81,55.75 11.15,69.56 3.12,2.64 -0.2,0.48 5.45,3.86 0.55,0.33 4.31,1.82 4.34,1.83 0.7,11.22 0.46,19.51 4.3,28.37 5.23,12.09 6.04,6.51 9.99,17.77 6.89,19.61 0.31,55.13 12.38,74.1 13.24,20.8 1.98,19.79 15.02,41.86l5.75 13.41c0.27,0.7 0.58,1.44 0.86,2.12 0.28,0.68 0.64,1.39 0.92,2.06l23.22 67.96c3.32,33.54 9.79,8.41 14.26,43.08 6.36,49.38 19.6,-2.69 21.77,62.35l16.28 7.92c0.34,5.93 -0.1,8.84 1.86,14.48 2.95,8.49 -0.31,0.31 3.13,6.09 20.52,34.46 11.88,40.81 30.36,69.4l21.64 40.78c3.52,5.75 2.19,4.22 5.62,11.22 6.1,12.45 10.08,14.45 11.25,32.92 23.12,6.06 10.57,12.77 22.99,30.26 6.55,9.23 4.27,1.79 9.31,15.39 4.01,10.83 3.21,9.13 8.79,17.46 21.15,31.6 3.77,17.01 22.71,31.98 11.29,8.91 1.69,2.47 8.37,16.44 6.83,14.29 1,4.75 13.65,10.34 1,8.76 2.55,23.58 7.29,29.15l8.1 6.08c7.67,6.75 7.01,14 11.64,22.32l10.75 17.9c2.53,2.91 2.28,1.22 7.31,6.79 8.24,9.11 18.95,25.05 25.12,37.65l18.25 27.18c10.33,12.46 4.71,9.63 16.6,20.49 0.42,0.39 1.08,0.93 1.51,1.32 19.49,18.03 35.83,42.34 49.92,64.05 6.12,9.42 0.75,1.93 6.58,7.66l9.92 9.96c8.16,8.45 28.52,30.06 32.68,39.27l36.41 39.54c0.56,0.62 2.27,2.34 2.81,2.97 19.27,22.52 15.97,14.4 27.52,29.58 5.41,7.11 8.92,8.71 14.47,13.94 9.09,8.58 19.08,19.34 27.59,28.27 16.41,11.04 -10.47,1.81 24.58,22.07 24.55,14.18 16.1,18.56 35.4,32.95 4.49,3.36 8.48,6.63 12.7,10.23 17.04,14.58 33.02,24.5 37.02,30.66 7.9,12.14 -4.88,1.94 11.65,12l48.15 42.6c10.39,8.16 18.73,9.44 28.38,17.33l17.57 13.98c18.92,11.9 7.8,7.97 20.21,16.84 4.35,3.1 8.97,5.41 13.78,8.88 4.57,3.29 7.56,6.19 12.61,10.27l9.21 7.87c9.91,8.55 19.58,9.57 27.94,17.3 20.61,19.06 8.24,6.02 31.84,14.84l52.23 37.63c18.51,17.61 22.04,-2.62 26.06,22.72 19.36,0.69 16.56,-0.3 26.01,10.57 11.25,12.95 29.11,20.4 46.38,28.35 16.36,7.52 12.04,3.43 18.93,19.83 28.27,0.47 29.09,9.44 49.24,19.76 30.49,15.6 16.83,5.58 44.23,24.13l47.63 21.02c9.31,4.05 16.41,4.26 25.25,8.68 14.73,7.36 8.63,7.47 17.25,16.05 7.87,0.47 16.88,-0.03 24.13,2.54l10.59 6.33c0.12,0.07 5.36,2.65 5.8,2.87 5.05,2.52 3.96,1.93 7.37,3.86 7.85,4.46 -1.1,1.84 9.57,4.65 9.87,2.61 15.8,1.49 23.72,4.83l76.57 32.36c7.46,8.42 3.84,6.52 18.41,8.95 9.1,1.51 18.44,3.03 26.27,5.41 13.79,4.21 31.93,14.59 44.71,16.48 32.31,1.6 50.59,19.47 77.39,20.31 8.25,0.27 15.68,-0.62 23.46,2.54 4.48,1.82 3.5,1.66 6,3.5l87.57 18.07c45.93,12.95 50.11,2.31 88.6,18.93 10.91,4.71 7.64,4.44 22.13,4.78l66.77 3.73c11.25,3.1 0.6,4.17 18.67,6 30.11,3.04 32.64,-2.36 35.36,13.92l401.76 0 2.99 -6.97 78.35 -8.71c21.49,-2.3 -0.59,-4.5 48.3,-5.38 11.37,-0.21 23.15,0.17 34.37,-0.14 22.2,-0.62 13.08,-5.49 31.05,-7.73 18.61,-2.31 52.24,-2.6 71.27,-2.97l4.78 -13.14c17.82,-1.78 27.69,-4.8 43.7,-6.97 17.04,-2.32 18.95,-7.53 39.9,-8.84 18.08,-2.56 -3.72,-3.95 16.94,-7.71 8.87,-1.61 17.53,0.8 47.32,-4.94 8.8,-1.69 12.57,-4.3 20.45,-8.12l2.12 -7.59c25.24,-2.45 27.07,-5.62 44.47,-9.87 14.04,-3.44 30.29,-11.74 41.04,-7.66l9.79 0.01c3.22,-7.4 2.66,-3.32 5.08,-6.01 2.55,-12.26 -3.46,-2.68 7.71,-8.15 2.95,-1.45 9.43,-3.2 12.87,-4.2 9.25,-2.71 17.8,-3.42 24.76,-8.11 10.22,-8.15 22.09,-4.98 33.95,-8.08 12.02,-3.15 4.65,-2.46 11.12,-7.99l41.84 -17.85c11.43,-5.42 15.22,-11.46 30.32,-12.68l14.16 -2.49c7.71,-15.21 20.39,-16.62 48.84,-18.95 28.01,-33.85 21.37,-14.92 46.34,-31.35 11.3,-7.43 14.35,-6.43 27.1,-12.71 11.12,-5.47 20.76,-7.61 30.29,-12.6l28.4 -12.06c23.67,-7.77 9.3,-22.28 46.72,-34.36 22.45,-7.25 3.98,-6.12 39.78,-23.07l5.71 -3.28c15.59,-9.19 20.97,-7.37 32.54,-18.95 16.5,-16.51 11.33,-6.87 23.8,-15.91 16.36,-11.87 -1.96,-5.07 26.42,-16.2l48.63 -34.27c12.33,-8.45 35.64,-30.82 49.18,-33.96l23.49 -1.74c1.45,-19.7 1.94,-16.36 12.88,-25.58 13.84,-21.23 40.69,-33.66 52.24,-45.84l34.6 -30.48c24.68,-15.65 37.16,-35.99 56.72,-46 4.86,-17.9 5.91,-3.3 20.75,-22.17 4.5,-5.73 0.6,-2.05 6.77,-7.4l57.96 -56.01c7.5,-10.5 3.01,-7.24 12.5,-15.82l108.76 -124.92c6.26,-8.28 9.16,-11.46 18.19,-14.17 5.44,-6.71 19.44,-28.16 25.69,-31.91l14.02 -7.87c0.2,-1.72 0.65,-7.1 1,-8.5 0.21,-0.81 0.39,-1.71 0.64,-2.54l1.88 -4.52c0.22,-0.54 0.67,-1.43 1.11,-2.08 10.72,-24.43 33.15,-47.13 50.36,-66.1 8.28,-9.12 6.75,-10.81 10.81,-17.94 3.92,-6.9 -0.14,-1.57 6.64,-6.92 19.6,-15.44 13.04,-33.6 26.09,-49.19l11.27 -10.76c11.3,-9.84 5.98,-10.91 14.39,-25.08 4.56,-7.7 5.14,-5.62 8.81,-11.15 3.22,-4.87 2.55,-6.71 6.8,-13.16 8.66,-13.14 9.49,-5.17 14.36,-25.14 3.09,-12.69 -2.07,-8.32 6.58,-13.92 3.8,-26.3 19.79,-33.13 23.78,-36.28 1.66,-18.34 -0.54,-13.63 8.22,-25.68 8.96,-12.32 24.61,-50.93 31.71,-62.43l9.84 -21.48c3.62,-8.62 4.11,-15.23 8.84,-22.54 7.61,-11.79 6.93,-3.12 10.87,-21.41 2.28,-10.62 2.47,-15.57 11.09,-20.23l1.87 -2.16c14.37,-18.3 -0.09,-32.31 17.49,-57.19 0.38,-0.54 0.92,-1.18 1.29,-1.77 11.64,-18.82 -4.04,-15.23 15.26,-35.01 10.71,-10.97 4.17,-17.22 8.97,-29.27l24.85 -57.04c17.67,-27.14 -3.89,-21.71 21.52,-66.68 0.3,-0.55 0.71,-1.29 1.01,-1.84l6.42 -10.96 0.49 -9.97c0.6,-7.14 2.52,-24.98 3.96,-31.94 1.87,-9.04 5.06,-8.51 8.57,-22.7 1.98,-8.01 3.29,-20.35 5.58,-28.38 4.16,-14.57 6.58,1.77 8.28,-23.68 1.35,-20.12 13.16,-51.19 18.11,-78.1l15.52 -80.69c7.74,-15.56 8.68,-1.9 9.99,-20.5 0.72,-10.28 -0.53,-20 0.84,-30.87l10.15 -118.77 9.42 -1.45 0 -587.84 -29.98 -0.08c-0.01,-15.7 0.17,-31.42 0.13,-47.14 -0.01,-6.52 0.24,-15.7 -0.62,-21.91 -1.55,-11.28 -1.19,-9.82 -7.89,-13.37 -10.03,-5.31 -7.98,5.36 -12.9,-10.67l-12 -52.36c-1.63,-1.16 -4.73,-2.79 -7.1,-4.78 -0.97,-20.9 -0.5,-42.01 -9.14,-56.7l-5.02 -8.87c-1.08,-3.71 -1.02,-8.61 -1.67,-12.81 -1.18,-7.62 -3.39,-15.47 -4.54,-25.77 -9.78,-24.9 -16.76,-41.79 -22.07,-71.61 -5.2,-3.37 -1.54,1.79 -6.92,-5.85 -3.99,-5.67 -1.64,-0.56 -3.32,-9.26 -0.77,-12.66 -2.01,-12.61 -5.9,-21.26 -3.13,-6.95 -3.81,-11.24 -6.6,-19.34 -5.44,-15.76 -10.75,-20.42 -13.26,-40.06 -5.14,-3.42 -3.63,-1.85 -6.12,-8.47 -2.47,-6.57 -1.26,-5.78 -2.25,-12.47 -1.25,-8.55 -2.36,-16.1 -4.4,-24.75 -6.06,-25.71 -16.41,0.88 -18.79,-39.22 -6.07,-2.16 -9.62,1.26 -17.38,-25.75 -14.79,-51.46 -4.65,-13.52 -16.82,-40 -4.13,-8.98 -0.3,-0.34 -2.97,-8.17l-23.4 -44.42c-9.37,-4.72 -12.2,-15.24 -23.27,-34.54 -6.54,-11.4 -3.4,-22.07 -10.54,-32.77 -5.47,-8.19 -0.83,-2.1 -5.66,-5.7 -21.06,-15.71 -18.53,-30.92 -33.36,-48.85 -4.76,-5.76 -8.72,-7.71 -10.86,-13.84 -6.9,-19.93 4.73,-5.83 -9.88,-19.78 -7.95,-7.58 -4.85,-7.41 -11.01,-14.6 -26.72,-31.24 -5.78,-3.52 -15.91,-37.57 -5.38,-18.07 -10.93,-0.03 -21.28,-33.44 -4.79,-15.46 -12.81,-13.79 -30.86,-46.19 -7.92,-14.24 -8.14,-10.05 -17.02,-16.77 -9.97,-7.54 -13.39,-22.41 -23.38,-31.3 -9.86,-8.77 -5.04,-0.73 -12.9,-14.71 -20.26,-36.06 -39.34,-45.82 -47.76,-60.32 -2.62,-4.52 -2.23,-5.31 -5.07,-9.31 -3.17,-4.47 -2.27,-2.67 -5.59,-6.22 -18.79,-20.15 -13.45,-24.32 -21.1,-33.02 -1.93,-2.19 -1.51,-1.45 -4.49,-3.98 -17.35,-14.63 -38.89,-31.4 -48.85,-51.06l-4.33 -0.56c-7.48,-13.56 -16.2,-18.65 -23.86,-30.98 -1.53,-2.46 -2.3,-4.49 -3.03,-5.49 -7.3,-9.97 0.04,-1.48 -11.88,-7.31 -9.99,-4.89 -35.41,-31.62 -39.29,-41.61 -10.2,-5.75 -14.92,-12.62 -20.89,-19.91l-10.28 -8.27c-0.46,-0.4 -1.12,-0.89 -1.54,-1.3l-6.12 -11.01c-15.89,-4.36 -30.71,-23.73 -45.49,-34.24 -31.63,-22.49 -13.95,-18.5 -25.22,-49.71 -9.32,-0.43 -22.3,0.93 -30.81,-2.04 -1.76,-0.61 -44.38,-30.31 -49.6,-37.93 -15.42,-8.91 -1.46,-9.97 -15.19,-16.51l-56.12 -32.71c-19.36,-10.52 -20.06,-19.43 -43.52,-33.46 -0.54,-0.32 -1.26,-0.75 -1.79,-1.06l-5.12 -3.39c-6.61,-4 -11.93,-4.56 -18.32,-10.17 -12.46,-10.94 1.62,-6.53 -20.41,-11.68 -23.67,-5.54 -21.17,-15.39 -33.35,-25.67l-12.02 -7.69c-0.51,-0.38 -1.16,-0.92 -1.64,-1.32 -7.24,-5.97 -31.87,-22.57 -40.55,-24.5 -13.17,-2.92 -30.83,-8.04 -38.96,-18.64 -10.93,-1.51 -2.28,0.97 -9.48,-4.48 -19.66,-14.86 -16.24,-4.24 -27.91,-12.41 -8.43,-5.91 -2.64,-6.25 -16.18,-11.84 -9.8,-4.05 -9.71,-2.29 -16.05,-10.37l-15 -6.5c-22.63,-2.36 -6.65,-4.65 -28.3,-10.28 -40.24,-10.47 -27.47,-10.8 -45.88,-24.35 -7.21,-5.3 -17.51,-6.01 -29.78,-6.37l-3.47 -14.34c-20.3,-0.66 -27.69,1.12 -40.39,-8.32 -14.66,-10.88 -31.3,-8.6 -51.82,-19.68 -23.37,-12.63 -15.34,-1.04 -33.46,-11.85 -15.9,-9.47 -30.9,-10.45 -51.98,-19.71l-16.54 -6.25c-8.68,-4.73 -3.73,-5.64 -13.29,-8.74 -7.56,-2.45 -17.38,-2.68 -22.51,-3.85 -9.57,-2.19 -9.2,-3.34 -15.99,-6.48 -0.63,-0.29 -1.32,-0.69 -1.98,-0.96 -10.52,-4.24 -24.43,-2.6 -31.28,-10.72 -15.32,0.28 -9.55,0.1 -22.27,-4.22 -19.43,-6.6 -25.9,-5.28 -43.49,-8.17 -6.89,-1.13 -20.35,-6.1 -28.51,-8.23 -10.17,-2.65 -20.46,-2.19 -31.65,-5.67 -12.83,-3.99 -47.09,-15.75 -57.53,-16.79 -26.94,-2.68 -41.76,-1.66 -65.45,-3.92 -17.87,-1.71 -1.15,2 -12.78,-5.14 -6.54,-4 7.82,0.49 -8.1,-3.78l-40.82 -4.78c-24.29,-2.82 -40.6,-7.92 -66.76,-8.29 -17.62,-0.24 -16.54,-3.92 -31,-5.04 -20.1,-1.57 -89.29,-0.98 -98.74,-10.4l-249.53 0c-2.22,7.9 -1.38,3.97 -13.13,5.5 -40.14,5.23 -106.72,5.62 -124.27,10.26 -8.13,2.14 -10.11,1.22 -18.61,1.62 -4.73,0.22 -5.7,-0.08 -10.07,1.24 -9.48,2.89 2.42,-0.99 -5.41,2.72l-92.11 15.76c-7.78,0.63 -21.69,3.83 -33.83,5.62l-91.34 22.25c-60.65,10.82 -49.71,17.24 -92.61,24.14 -29.19,4.69 -29.42,1.04 -37.44,9.36 -13.32,13.81 -55.9,13.08 -58.5,14.2 -1.23,0.52 -6.58,9.73 -13.19,12.78l-54.52 17.13c-9.23,3.31 -11.16,2.76 -20.29,5.48 -16.35,4.88 -2.99,2.33 -14.1,8.71 -8.38,4.82 -26.02,6.35 -35.27,10.14 -14.6,5.99 -12.17,8.87 -34.13,14.05 -14.39,3.4 -9.15,3.45 -17.49,8.71l-128.15 62.12c-10.96,4.97 -10.69,2.4 -21.88,9.97 -18.35,12.42 -16.98,3.89 -27.27,12.8 -25.21,21.83 -2.56,4.23 -27.8,17.59 -34.47,18.22 -25.92,21.57 -58.01,35.28l-10.19 4.71c-22.74,10.1 -19.37,24.81 -50.5,29.28z"/>
  <path class="fil2" d="M4871.67 4035.96l19.72 20.21c6.85,8.08 13.95,15.74 21.52,24.08 12.45,13.74 31.09,40.23 44.86,41.22l37.07 33.36c10.57,10.39 25.4,26.37 36.25,35.22 12.77,10.42 6.19,10.28 14.6,18.82 3.23,3.29 3.2,1.45 8.86,8.16 3.5,4.14 2.57,4.26 8,9.57l36.39 34.09c5.03,-9.55 -18.03,-91.56 -19.1,-110.22 -2.27,-39.6 -28.32,-102.69 -16.73,-115.56 10.8,-10.16 83.99,-4.48 104.17,-4.48l330.31 -0.54c9.02,-9.5 -0.69,-6.4 8.42,-13.26 5.96,-4.5 21.47,-1.52 31.99,-39.09 4.77,-17.02 4.77,-508.73 2.79,-570.43 -1.16,-36.04 -8.14,-51.98 -26.74,-70.19 -16.03,-15.7 -52.08,-13.74 -81.95,-13.03l-956.88 -0.92c-15.36,0.05 -28.46,4.21 -40.67,8.7 -12.87,4.74 -7.38,0.56 -12.82,10.64 -4.39,8.11 -4.05,9.11 -9.09,16.58 -16.55,24.57 -9.63,142.98 -9.63,182.16l-0.01 384.42c0.18,40.68 -3.6,52.15 15.75,79.17 11.16,15.57 -3.1,-0.47 26.75,21.78 14.16,10.54 212.58,4.44 234.86,4.44l179.52 -0.16c17.96,2.81 6.07,-1.6 11.8,5.28z"/>
  <path class="fil3" d="M2183.08 3767.25c-23.29,0 -17.78,-4.68 -17.73,-52.57 0.04,-36.29 0.46,-30.54 34.8,-30.57 11.02,-0.01 23.77,-1.06 34.5,-0.34 13.93,0.94 13.5,2.21 14.27,16.36 0.37,6.69 2.16,57.56 -3.06,63.22 -6.12,6.62 -47.04,3.89 -62.77,3.89zm66.78 -129.41c0,-46.13 -5.08,-39.14 61.56,-38.6 26.47,0.22 22.05,3.63 21.83,30.03 -0.13,15.19 -0.1,30.42 0.14,45.59 -0.78,0.58 -1.85,1.04 -2.57,1.4l-7.19 3.34c-15.26,5.86 -58.86,4.91 -71.45,-0.14l-2.32 -41.61zm-84.47 -93.97c0,-35.13 -4.62,-31.8 81.64,-26.44l0.98 32.13c0.67,42.82 3.42,45.85 -16.15,47.53 -81.24,6.93 -66.47,2.95 -66.47,-53.22zm84.47 -85.43c0,-27.11 0.22,-21.25 5.8,-25.01 8.99,-6.08 67.98,-0.79 78.01,-0.38l-2 79.72c-23.21,2.27 -59.47,5.03 -79.79,-1.62l-2.02 -52.71zm84.66 -88.28c0,-29.72 2.67,-24.11 30.79,-23.62 17.19,0.3 35.11,-1.08 50.08,2.13 5.25,21.77 4.18,56.12 0.28,80.76l-79.73 0.14 -1.42 -59.41zm-151.44 59.74c-21.91,0 -18.24,-7.25 -17.85,-28.35 0.84,-46.09 -6.18,-53.77 14.65,-55.2l66.54 0.78 2.56 20.18c4.86,76.5 -0.3,62.59 -65.9,62.59zm235.35 -150.86c0,-19.98 5.36,-17.41 23.77,-17.41 30.51,-0.2 28.4,-1.51 58.43,2.01 2.99,27.36 1.19,51.85 0.6,80.06 -13.91,2 -27.83,1.06 -41.95,1.05 -48.05,-0.01 -40.86,9.09 -40.86,-65.71zm-167.83 54.08c-0.23,-1.14 -0.76,-9.75 -0.8,-11.26 -2.09,-76.24 -4.59,-58.4 55.8,-60.47 26.21,-0.9 31.47,-7.75 27.03,63.39l-3.91 17.42c-10.44,5.33 -62.26,4.65 -74.45,0.6l-3.67 -9.68zm252.69 -155.56l83.55 0.07 -2.23 82.47 -81.36 -0.35 0.04 -82.19zm-168.58 -0.11l83.31 0.37 -0.74 79.81c-16.19,1.8 -21.78,2.76 -40.57,2.63 -14.89,-0.09 -27.52,1.2 -42.52,-0.71l0.52 -82.1zm-86.94 81.21c-79.25,1.53 -83.04,11.8 -82.65,-19.27l0.94 -62.23 83.01 -0.09 -1.3 81.58zm340.76 -163.95c12.27,-1.79 76.54,-7.05 80.24,3.35 0.22,0.59 0.76,1.55 0.98,2.3 2.77,9.22 1.32,26.36 1.35,36.3 0.05,13.4 0.32,26.44 -0.69,40.04l-83.21 -0.15 1.33 -81.84zm-167.35 0.9c10.98,-4.52 65.19,-2.25 80.85,-2.27l0.09 83.29 -83.31 0.12c-1.09,-23.38 -5.58,-62.16 2.37,-81.13zm-170 -1.89c8.3,-0.28 74.94,-3.41 80.5,2.55 6.72,16.61 1.96,58.77 1.96,80.36l-83.86 -0.09 1.4 -82.82zm423.52 -4.84c-3.7,-7.71 -5.67,-71.7 0.64,-77.55 6.4,-5.93 65.72,-2.45 80.2,-2.27l-0.21 82.39c-11.65,0.85 -70.73,4.08 -80.63,-2.57zm-260.98 0.46c-7.03,4.59 -9.32,3.01 -19.74,2.95 -6.68,-0.02 -13.4,-0.22 -20.12,-0.22 -42.55,0.08 -44.76,14.83 -38.78,-83.05l80.57 0.6c1.54,8.04 4.06,61.65 1.27,72.6 -1.37,5.4 -0.75,3.52 -3.19,7.11zm-230.65 2.75c-22.39,0 -18.06,-7.92 -17.77,-29.42 0.79,-59.69 -6.18,-52.8 37.7,-53.09 15.91,-0.12 27.15,-0.46 43.22,1.27 14.37,96.01 4.92,81.24 -63.15,81.24zm323.16 -3.84c-6.19,-9.92 -7.27,-66.26 0.8,-75.08 6.84,-7.48 66.96,-3.93 77.1,-1.31 3.37,13.92 2.26,34.03 2.45,50.79 0.32,28.09 4.42,29.44 -21.96,29.44 -15.68,0 -48.5,2.58 -58.4,-3.84zm82.17 -159.02c15.6,-5.09 67.63,-6.97 81.75,-2.31 2.26,98.4 5.07,80.37 -42.88,80.98 -43.39,0.55 -41.89,15.79 -38.87,-78.67zm168.21 -5.13l81.61 1.61c1.03,12.72 6.95,74.43 -3.71,78.29l-78.07 3 0.18 -82.91zm-336.1 80.61c-2.55,-10.7 -5.12,-67.47 1.45,-75.79 5.31,-6.72 5.83,-4.91 17.06,-5.02l61.23 1.02c0.67,24.1 9.49,74.82 -6.94,80.54 -0.96,0.34 -1.61,0.69 -2.69,0.99 -1.07,0.3 -1.64,0.45 -2.77,0.67l-67.34 -2.42zm-89.37 -3.71c-4.01,3.84 -9.83,4.28 -17.87,5.22 -79.72,9.39 -67.55,-5.46 -61.52,-79.83 8.23,-1.74 72.86,-6.33 79.38,1.82 5.14,11.27 4.83,61.47 0,72.8zm509.39 -134.85c0,-15.89 -4.25,-24.18 11.43,-26.61 6.35,-0.99 27.04,-0.07 34.45,0.22 40.86,1.52 37.78,-6.59 37.78,34.93 0,53.27 8.74,48.73 -46.32,48.73 -45.81,0 -37.34,7.5 -37.34,-57.27zm-85.07 56.98c-13.46,0.48 -74.19,3.34 -80.39,-2.45 -6.79,-6.34 -3.35,-65.73 -1.41,-80.06l81.94 -0.7 -0.14 83.21zm-250.84 0c-3.4,-16.14 -1.73,-45.19 -1.78,-62.93 -0.06,-22.68 -3.28,-20.89 41.87,-20.7 26.76,0.11 40.3,-6.73 41.73,20.67 0.99,18.93 0.56,41.75 -1.44,60.46 -24.28,5.01 -53.87,2.5 -80.37,2.5zm-88.4 -0.67c-13.35,1.43 -74.44,4.2 -79.91,-1.54 -5.9,-6.19 -2.36,-66.4 -1.39,-79.77 17.82,-3.06 65.08,-5.45 78.8,1.14 3.13,2.76 4.25,8.66 4.41,20.89l-1.91 59.27zm-248.04 -2.21c-4.04,-7.79 -5.85,-71.11 0.2,-77.28 7.53,-7.69 64.61,-2.84 79.17,-1.53 2.15,17.82 5.59,65.98 -2.08,78.56 -9.02,5.2 -67.53,5.79 -77.28,0.25zm165.62 -165.35c-0.28,20.09 4.7,65.34 -2.4,80.14 -5.97,6.74 -71.81,5.53 -77.36,0.09 -7.78,-7.62 -3.65,-68.45 -2.55,-77.2 26.76,-5.67 54.61,-0.62 82.32,-3.04zm254.27 28.67c0,-27.43 -6.01,-27.83 44.91,-27.83 44.28,0 37.79,-1.82 38.01,24.98l-2.06 55.99c-18.64,5.99 -57.43,1.06 -79.8,-0.77l-1.06 -52.37zm-167.37 52.91c-2.63,-9.73 -5.98,-72.1 1.03,-78.68 6.61,-6.21 66.07,-3.03 80.56,-2.07l-0.9 81.68c-20.52,3.33 -63.62,4.13 -80.69,-0.93zm504.39 -52.91c0,-35.71 -4.46,-28.83 83.54,-28.01l-0.86 81.38c-24.75,4.13 -62.34,5.55 -81.11,-2.73l-1.57 -50.64zm-168.54 -27.63c21.23,-0.41 64.96,-2.69 80.96,2.4 3.35,12.55 5.36,61.57 -0.25,73.64 -3.81,3.18 -2.22,3.05 -8.78,5.3l-72 1.67 0.07 -83.01zm-1.03 -86.08l-0.25 84.88c-86.04,0 -88.05,19.84 -83.39,-65.39 1.93,-35.35 25,-13.11 83.64,-19.5zm-421.72 85.04l2.43 -82.8 78.76 3.26c4.18,4.41 3.73,50.95 3.1,60.01 -2.03,29.51 -12.88,19.34 -84.3,19.53zm846.42 -2.97c-4.86,-14.31 -3.12,-44.29 -2.53,-62.38 0.79,-23.59 17.97,-18.85 41.79,-18.91 24.42,-0.07 41.98,-6.43 42.89,18.67 0.74,20.35 -0.93,41.92 -1.14,62.24 -20.32,3.97 -61.87,7.29 -81.01,0.38zm-169.51 1.49c-0.27,-31.53 -2.59,-52.12 2.27,-82.08 25.26,-0.54 56.54,-3.23 78.96,3.04 2.87,15.66 2.95,62.88 -0.46,79.5l-80.77 -0.46zm-845.33 -60.97c0,-27.03 3.68,-21.35 31.92,-21.21 16.83,0.09 32.07,-0.25 49.03,0.77 2.36,19.5 3.97,61.73 -0.53,80.95 -28.1,1.17 -51.19,4 -77.54,-0.1 -4.98,-11.96 -2.88,-44 -2.88,-60.4zm675.15 0c0,-26.84 3.57,-21.39 31.62,-21.21 16.93,0.12 32.09,-0.22 49.28,0.72 4.83,35.9 3.61,41.19 0.08,77.44 -9.05,5.4 -28.08,4.89 -40.8,4.89 -50.76,0 -40.18,4.27 -40.18,-61.84zm-332.27 59.58c-7.95,-8.38 -5.02,-24.56 -5.11,-45.35 -0.17,-39.32 -7.22,-35.53 58.79,-35.58 21.33,-0.01 24.94,-0.17 24.94,21.35 0,10.24 2.12,54.36 -5.15,60.21 -11.41,4.15 -63.43,4.76 -73.46,-0.63zm247.25 -82.17l0.54 -82.62 65.08 -1.07c5.75,0.08 5.4,-0.33 10.57,1.03 16.47,4.34 8.92,54.86 7.75,82.07l-83.94 0.59zm507.01 -65.68c0,-21.62 4.43,-17.69 45.31,-17.69 44.3,0 40.01,-6.72 38.39,60.57 -0.03,1.35 -0.62,10.05 -0.83,11.07 -2.1,9.89 1.23,2.5 -3.71,8.54 -9.55,6.11 -65.43,4.99 -77.92,0.11l-1.24 -62.59zm-168.96 0c0,-23.59 10.39,-17.69 32.02,-17.69 62.96,0 51.69,-11.11 51.28,60.55 -0.02,3.52 0.17,7.65 -0.23,11.15l-1.64 6.9c-0.08,-0.37 -0.43,1.42 -0.77,2.06 -9.11,4.65 -27.46,2.5 -40.09,2.47 -46.65,-0.09 -40.56,9.13 -40.56,-65.43zm-164.45 63.46c-0.43,-0.69 -0.81,-1.64 -1.01,-2.21l-2.24 -7.21c-0.23,-1.24 -0.71,-9.6 -0.77,-11.21 -0.81,-25.92 -5.04,-57.23 9.58,-60.5 5.8,-1.3 36.81,0.02 45.76,-0.26 20,-0.64 28.35,-4.48 28.35,17.93 0,36.36 5.83,61.91 -11.53,65.18 -3.2,0.61 -7.68,0.55 -11,0.56l-57.14 -2.27zm-510.7 -63.46c0,-20.08 5.07,-17.69 23.77,-17.69 55.33,0 60.12,-6.04 60.12,17.69 0,76.13 6.72,65.48 -43.03,65.43 -46.89,-0.04 -40.86,9.32 -40.86,-65.43zm168.96 0c0,-13.73 -0.04,-16.62 13.95,-17.66 85.35,-6.34 69.85,9.05 69.67,34.74 -0.35,48.08 13.14,57.66 -82.55,47.11l-1.07 -64.19zm-336.39 63.35c-7.06,-100.52 1.89,-80.88 40.27,-81.03 28.19,-0.12 41.79,-9.43 42.18,20.31 0.16,11.76 3.2,56.1 -6.12,59.46l-36.06 2.6c-14.2,-0.07 -26.03,0.09 -40.27,-1.34zm-170.44 -81.04l73.81 0.32c13.8,2.05 10.02,15.37 9.84,43 -0.33,50.41 11.33,39.8 -83.65,39.8l0 85.56 83.54 0.83 -1.39 81.9 -82.15 1.15 0 85.25 82.68 1.56c0.75,12.26 6.46,74.38 -3.9,78.1 -16.39,5.9 -61.3,3.25 -78.78,3.25l0 86.24 83.46 0.28 -0.37 82.97 -83.09 -0.04 0 84.98c5.89,0 76.73,-1.79 80.82,2.34 6.88,13.74 4.02,61.31 1.42,80.63l-82.23 0.15 0 86.11 83.02 1.4c1.56,22.13 3.59,60.73 -1.61,79.12 -20.51,5.16 -57.27,2.91 -81.42,2.91l0 85.15 83.75 1.56 -1.32 80.6 -82.43 0.75 0 86.33c30.12,0 54.66,-0.13 83.54,2.08l-0.36 81.13 -83.18 0 0 85.01 81.98 0.01c3.31,17.12 2.53,64.99 0.34,82.13l-82.32 0.96 0 86.14 81.35 0.41 4.27 14.37c7.75,-8.84 -0.91,-18.68 -0.96,-44.52 -0.03,-15.42 -3.58,-40.82 3.6,-52.12l28.88 -3.72c8.2,-9.4 28.2,-73.2 28.83,-83.8 -19.71,-1.35 -42.9,2.14 -60.3,-2.79l-0.86 -80.65 83.31 -0.62 1.19 28.7c6.59,-1.94 10.63,-9.08 10.46,-18.58 -0.52,-30.4 -19.29,27.73 -9.06,-93.95 19.75,-0.98 40.69,1.51 55.19,-5.05 5.43,-8.6 12.32,-23.93 17.37,-33.92 10.2,-20.16 10.25,-9.55 11.86,-40.82 8.85,-6.09 5.86,-1.17 13.61,-10.59 12.64,-15.35 -4.47,4.07 3.76,-4.84 8.32,-9.02 10.35,-6.92 13.69,-21.92 3.39,-12.8 24.98,-41.84 25.55,-52.42l-57.59 -1.89c-1.5,-19.55 -4.94,-64.45 1.8,-79.42 10.43,-6.19 66.01,-5.3 78.31,-1.11l3.45 18.47c0.17,9.92 -2.06,8.85 1.14,17.28 11.41,-3.78 1.85,1.63 9.29,-8.44 10.8,-14.6 12.79,-12.72 13.79,-28.71l-24.11 -2.4 1.87 -82.68 81.74 -0.56c4.28,-25.22 -3.34,-57.63 2.8,-79.96 12.09,-4.98 50.2,-3.09 68.98,-5.72 21.71,-25.06 7.82,-14.07 21.79,-36.99l3.37 -5.15c0.34,-0.49 0.83,-1.18 1.19,-1.66l19.51 -20.39c5.5,-6.25 -0.28,-0.64 5.72,-5.92l6.25 -4.97c12.63,-10.73 26.1,-18.35 33.97,-30.35 9.68,-29.86 6.3,-20.45 6.84,-60.23 39.98,-2.77 42.24,5.47 66.13,-18.89 23.76,-24.22 16.33,-23.07 17.66,-65.52 12.68,-1.22 23.95,-0.5 36.46,-0.8 20,-0.48 13.64,-3.81 27.65,-8.56 6.85,-15 17.04,-12.46 19.82,-28.07 2.84,-15.94 -2.08,-31.16 3.3,-45.52 28.51,-9.08 50.42,9.1 72.79,-12.58 15.49,-15 7.83,-31.45 10.61,-72.09 24.4,-5.28 67.93,5.26 84.88,-5.17 2.15,-17.37 -11.09,-74.06 3.45,-79.09l36.42 -2.71c13.58,0.06 27.05,0.51 41.13,0.66l0.09 25.13 12.66 -2.21c21.23,-17.46 26.4,-11.62 27.87,-24.47 -13.11,-0.45 -26.18,3.08 -37.78,-2.44 -5.52,-17.76 -3.37,-59.2 -0.43,-80.16 18.96,-1.79 64.76,-4.1 79.7,0.93 5.18,4.51 2.15,43.66 3.72,56.49 4.11,-0.09 39.02,-20.54 46.17,-24.61 36.47,-20.75 32.41,-13.03 40.74,-33.07 31.57,-0.14 38.99,-13.12 62.67,-22.41 14.16,-5.55 17.99,-6.48 19.24,-23.97 2.4,-33.53 -15.95,-43.94 69.06,-38.4 29.36,1.93 1.85,7.12 22.79,10.18 9.39,1.38 17.61,-4.7 21.44,-8.64 -10.2,-6.03 -14.43,-3.72 -29.14,-3.88l0.74 -82.05c12.32,-0.14 75.52,-3.6 80.62,2.66 6.85,14.16 2,41.09 2.86,58.43 15.7,-1.3 71.7,-19.95 84.08,-29.26 3.76,-29.22 -8.79,-32.72 26.88,-32.01 20.44,0.41 37.88,-1.52 57.81,1.83l-0.04 -86.57 -85.01 0c0,5.75 1.29,76.3 -3.16,80.69 -10.45,5.2 -67.94,5.38 -78.15,-0.32 -7.09,-13.69 -2.31,-60.53 -2.31,-80.37l-85.01 0 -0.57 83.49 -82.74 -0.68 -0.19 -82.81 -85.27 0 -1.33 83.83 -66.44 0.68c-2.62,-0.23 -7.23,-1.3 -9.07,-1.95 -14.91,-5.3 -7.32,-53.75 -7.32,-82.56l-84.33 0c0,80.73 8.97,83.91 -21.89,83.9 -72.65,-0.04 -61.5,5.5 -61.85,-44.03 -0.09,-13.3 -0.14,-26.57 -0.14,-39.87l-85.47 0c0,18.43 3,68.54 -2.92,80.43 -4.23,4.41 -76.5,7.57 -79.02,-2.08l-1.72 -78.35 -84.98 0 -0.48 83.45 -82.78 -0.55 -0.31 -82.9 -85.47 0c0,14.24 0.13,28.48 -0.14,42.71 -0.13,6.63 0.59,34.13 -4.65,38.45 -15.69,6.31 -57.93,2.21 -78.44,1.87l-0.11 -83.03 -85.25 0 -1.33 83.33 -82.5 -0.43 -0.06 -82.89 -85.08 0c0,18.09 3.03,68.55 -2.81,80.14 -5.06,5.55 -76.86,5.83 -78.94,-1.63l-1.85 -78.51 -84.82 0 0 84.82z"/>
  <path class="fil3" d="M6386.82 6893c17.25,-3.06 63.85,-2.9 81.15,0.16 2.95,17.51 2.97,63.67 0,81.87l-82.19 -0.43 1.04 -81.59zm-675.15 -0.19c15.92,-4.6 65.37,-3.18 82.61,0.48l-1.27 81.71 -82.39 -0.3 1.05 -81.88zm-254.27 82.47l-84.41 -1.26 0.7 -81.47 83.24 -0.3 0.47 83.04zm422.97 -81.89c20.62,-3.54 59.8,-3.41 80.45,0.09 2.82,14.16 7.11,67.56 -0.29,77.54 -10.3,8.75 -63.06,4.16 -81.26,3.73l1.1 -81.37zm-338.95 24.8c0,-21.31 -4.08,-27.36 18.82,-27.36l64.36 2.74 -0.35 80.45 -81.13 0.47 -1.69 -56.3zm-336.26 -25.06c25.11,-3.22 62.02,-5.61 80.59,3.13 3.52,18.36 6.21,57.83 -0.83,74.18 -16.24,10.73 -56.8,4.58 -80.87,4.45l1.11 -81.76zm1266.89 -4.05c-3.15,-18.19 -3.13,-62.94 -0.16,-82l82.19 0.51 -0.88 81.59c-15.84,3.1 -64.87,2.61 -81.16,-0.09zm-425.9 -0.26c-12.27,2.82 -72.59,4.54 -78.97,-1.73 -7.08,-6.95 -3.18,-65.26 -1.48,-79.27l81.52 0.23 -1.07 80.77zm-588.71 -81.88l82.23 0.93c2.22,17.52 5.28,67.2 -2.15,79.06 -13.01,7.62 -61.19,4.47 -80.14,3.39l0.06 -83.38zm843.79 28.67c0,-37.02 3.78,-28.56 42.08,-28.6 43.27,-0.05 45.97,-20.94 41.32,81.6 -16.8,4.41 -39.28,2.84 -58.54,2.78 -30.93,-0.11 -24.85,-4.8 -24.85,-55.78zm-506.68 34.17c0.15,-73.64 -5.16,-62.66 27.66,-62.77l56.46 0.66 -0.52 81.91 -18.92 1.67c-66.83,2.97 -64.55,1.11 -64.68,-21.47zm-168.47 -34.17c0,-37.11 3.92,-28.55 42.37,-28.6 38.88,-0.05 41.79,-9.6 41.79,25.76l-1.93 54.39c-18.14,7.74 -57.74,4.76 -80.17,1.95l-2.06 -53.5zm-337.34 0c0,-28.96 -3.91,-27.2 23.64,-27.33 13.28,-0.07 33.61,-1.99 46.17,-0.59 19.75,2.19 13.93,16.12 13.81,36.47 -0.09,14.85 1.01,29.87 -1.22,44.54 -18.61,4.41 -40,1.59 -56.63,0.43 -32.24,-2.27 -25.76,5.62 -25.76,-53.52zm928.42 -91.11c0,-27.78 4.29,-22.08 32.15,-21.98 15.58,0.06 35.3,-2.16 48.44,1.91 3.5,7.09 3.03,10.51 3.03,20.07 0,68.8 6.8,62.01 -45.75,62.01 -48.27,0 -37.88,3.47 -37.88,-62.01zm-84.62 62.41c-18.51,-0.96 -70.09,4.32 -81.67,-3.4 -6.27,-6.33 -2.73,-72.86 -0.86,-78.2 17.6,-6.64 59.68,-2.56 82,-2.85l0.53 84.46zm-420.94 -82.18c18.14,-3.75 65.35,-3.08 80.85,0.93 3.76,16.23 5.7,63.69 -1.43,78.64 -12.2,5.33 -63.41,3.4 -80.11,1.79l0.69 -81.37zm753.71 79.22c-6.69,4.05 -73.77,5.39 -77.74,-1.08 -4.04,-6.57 -1.19,-68.17 -0.72,-79.94 19.42,-1.06 66.26,-2.82 81.12,2.08 2.28,7.74 6.23,68.11 -2.66,78.93zm-923.89 -59.45c0,-30.54 9.63,-21.56 41.6,-22.03 46.56,-0.67 42.55,-2.81 42.55,22.03 0,15.68 1.5,47.86 -3.08,60.28 -97.42,3.99 -81.07,10.23 -81.07,-60.28zm416.48 58.79c-0.8,0.35 -1.82,0.65 -2.5,0.83 -13.62,3.48 -4.62,1.89 -36.37,2.1 -10.33,0.07 -30.94,2.45 -37.02,-4.41 -6.56,-7.4 -3.04,-63.35 -1.16,-76.13 18.79,-4.36 63.8,-4.84 79.32,0.28 3.66,11.49 3.38,26.98 2.84,41.5 -0.28,7.59 -0.85,11.92 -1.45,17.86l-3.66 17.98zm514.47 -82.69c-2.42,-13.99 -2.18,-40.74 -2.37,-55.93 -0.38,-30.36 1.58,-26.39 29.93,-26.39 51.59,0 54.21,-5.48 54.13,17.95l-1.09 65.18 -80.61 -0.8zm-677.8 -64.37c0,-22.96 9.13,-17.95 30.49,-17.95 46.05,0 53.83,-5.66 53.76,15.1l-0.73 67.1c-13.76,1.8 -27.75,1.01 -41.63,0.99 -50.63,-0.08 -41.89,8.79 -41.89,-65.24zm-167.44 -15.79c13.25,-3.38 27.59,-1.88 41.32,-2.17 35.56,-0.73 41.3,-4.26 41.54,23.51 0.67,77.4 6.17,59.47 -83.78,59.31l0.92 -80.64zm674.42 80.56c0.04,-17.76 -0.21,-35.67 -0.37,-53.44 -0.25,-25.64 -4.76,-29.27 22.2,-29.27 67.64,0 67.45,-18.99 58.97,83.15l-80.79 -0.44zm-168.8 -82.18c14.14,-0.98 28.38,-0.52 42.56,-0.55 6.69,-0.01 13.45,-0.28 20.07,-0.26 3,0.01 8.21,0.16 11.01,0.65 7.95,1.4 3.71,0.4 7.15,2.5 5.25,11.75 4.68,63.57 0.32,76.01l-4.84 2.05c-10.88,3.04 -67.24,1.66 -76.53,0.45l0.27 -80.85zm-167.52 79.8c-1.3,-19.07 -2.58,-43.83 -1.55,-62.75 1.19,-22.01 10.25,-17.2 43.63,-17.57 41.86,-0.47 40.4,-1.7 40.44,20.52 0.02,17.3 3.51,44.41 -3.42,58.19 -6.56,7.71 -70.45,3.34 -79.1,1.61zm420.68 -164.94l83.86 -0.09 -1.32 83.19 -82.51 -0.26 -0.04 -82.84zm-337.32 0.59l83.2 0.07 -1.14 82.63 -81.63 -0.43 -0.43 -82.26zm-254.4 -0.65l-0.89 83.15 -82.61 -0.07 0.38 -83.18 83.12 0.09zm503.89 80.15c-9.65,5.8 -24.58,3.13 -40.19,3.13 -41.44,-0.01 -45.93,18.09 -40.28,-83.2l83.09 0.12c0.22,17.71 3.02,68.54 -2.62,79.96zm-418.91 -80.15l83.19 0.16 0.19 62.77c-1.22,27.28 -3.27,22.42 -83.22,19.65l-0.16 -82.58zm253.68 -83.52l83.05 0.63 -0.48 82.55 -82.82 0.01 0.26 -83.18zm-168.38 83.27c-1.56,-20.84 0.33,-41.81 -0.07,-62.52 -0.49,-25.18 -4.49,-20.78 42.91,-20.78 46.38,-0.01 41.16,-2.7 40.43,23.72 -0.55,19.82 0.38,39.7 -0.62,59.39l-82.65 0.2zm506.23 -80.9l77.64 1.95c9.1,8.71 5.25,60.87 5.08,78.47l-83.36 -0.36 0.64 -80.06zm-167.79 -1.93c14.58,-0.84 28.75,-0.09 43.26,-0.51 19.28,-0.56 24.16,1.41 38.96,2.15l-0.19 80.63 -83.45 -0.28 1.43 -82zm164.14 -3.84c-8.65,2.77 -72.46,5.06 -78.31,-0.98 -6.88,-7.11 -2.55,-65.36 -1.9,-79.14 17.35,-2.3 67.51,-4.65 79.35,1.64 6.08,11.05 5.23,66.44 0.87,78.47zm-231.93 1.93c-14.73,0 -17.32,-2.77 -18.16,-17.05 -4.7,-80.01 4.6,-65.93 35.22,-66 9.93,-0.01 25.13,-1.49 34.33,-0.24 13.31,1.82 13.06,3.39 14.13,17.46 1.35,17.63 2.55,49.44 -2.09,63.27 -11.3,4.16 -46.33,2.56 -63.44,2.56zm-183.9 -3.16c-7.06,-13.21 -2.73,-42.96 -2.75,-60.05 -0.04,-24.83 -1.99,-19.78 44.27,-19.9 46.95,-0.12 39.33,-18.85 39.33,82.63 -12,0.77 -70.63,3.51 -80.85,-2.68zm420.87 -83.22c-3.42,-20.82 -3.15,-59.8 0.38,-81.58l81.42 0.56 -0.5 82.57 -81.3 -1.56zm-170.39 -42.08c0,-7.03 0.07,-19.28 0.77,-25.99 1.19,-11.42 0.85,-12.56 12.16,-13.85 10.68,-1.23 39.7,-0.48 51.75,-0.23 24.61,0.5 18.86,10.28 18.7,34.37 -0.38,55.72 8.08,48.87 -53.21,49.47 -32.55,0.31 -30.17,2.94 -30.17,-43.76zm-169.2 -39.87c13.53,0.3 77.37,-4.41 80.87,4.67 0.2,0.51 0.72,1.46 0.94,2.12 3.7,10.92 -1.69,-9.91 1.45,4.71l0.38 31.22c-0.12,11.01 4.75,35.46 -7.41,38.84 -12.59,3.5 -64.46,2.28 -76.16,1.35l-0.08 -82.91zm253.3 -54.1c0,-26.58 -5.93,-30.49 20.16,-30.49 31.71,-0.22 31.76,-2.29 62.11,2.43 2.7,17.38 3.03,64.16 -0.19,81.45l-81.72 -0.01 -0.35 -53.39zm161.68 -31.96c-18.17,5.02 16.04,-2.14 -4.89,1.18 -11.95,1.9 -64.12,1.69 -68.85,-2.9 -7.31,-7.1 -4.02,-65.99 -1.97,-80.61l81.82 0.66c1.19,18.6 3.91,65.9 -1.7,79.89l-4.41 1.79zm-246.24 -53.46c0,-37.23 3.66,-28.91 42.08,-28.96 42.45,-0.06 42.08,-9.55 42.08,28.96 0,62.04 4.92,55.67 -30.61,55.43 -16.67,-0.12 -38.46,2.69 -51.93,-4.1l-1.62 -51.33zm165.32 -30.72c-9.29,1.97 -74.66,4.5 -78.91,-2.19 -4.64,-7.3 -1.14,-67.3 -0.98,-80.07 81.95,-4.34 82.73,-4.79 83.2,21.68 0.11,6.54 -0.2,13.47 -0.14,20.1 0.14,15.86 1.13,27.02 -3.17,40.47zm3.63 -148.68c0,-23.44 8,-18.82 29.75,-18.82 51.72,0 53.58,-5.37 53.58,18.82l-2.67 64.94 -79.01 -0.72 -1.64 -64.21zm-169.51 65.47c2.99,-24.44 -4.41,-62.44 2.91,-82.26 10.23,-3.67 65.76,-5.35 76.79,-0.28 10.18,12.53 7.35,62.45 2.53,79.67 -20.51,7.19 -57.51,-0.21 -82.23,2.88zm85.32 -168.28l83.83 -0.11 -1.56 83.2 -82.27 -0.08 0.01 -83.01zm167.89 -85.25l0.18 84.28 -83.69 -0.2c-0.48,-24 -4.76,-59.99 2.34,-79.88 8.6,-4.03 12.83,-3.01 12.85,-3.01l40.01 0.69 28.31 -1.87zm-165.8 -1.95c-5.29,-16.59 -2.27,-60.72 0.91,-80.84l77.37 0.22c2.92,15.89 5.11,68.8 0.57,81 -14.03,4.05 -65.58,4.45 -78.86,-0.38zm84.75 -84.82c-3.77,-15.34 -2.58,-29.6 -2.82,-46.94 -0.29,-20.13 -4.58,-34.65 15.68,-34.51l67.96 1.08c-1.17,29.24 1.34,52.82 -2.06,81.97 -21.43,1.55 -60.36,2.37 -78.76,-1.61zm19.26 -321.73l-0.49 9.97c-2.26,21.92 -11.91,35.63 -13.81,46.96 -5.38,32.3 48.64,4.86 74.57,17.65 4.07,12.31 4.44,66.67 -0.77,78 -13.28,7.57 -61.15,3.38 -80.67,2.29l-2.32 -64.42c-7.01,3.62 -20.78,49.83 -20.98,61.91l12.13 3.42c4.38,0.89 4.77,0.25 9.15,1.53 1.25,19.71 2.9,64.22 -0.83,82.3 -18.16,1.26 -44.78,-4.22 -59.27,3.29 -11.03,13.31 0.72,18.92 -14.02,26.79l-1.87 2.16c-1.18,14.16 -3.88,12.95 -6.07,23.49 -3.19,15.36 1.26,19.56 -5.91,25.42l-3.38 2.61c-3.5,2.8 -0.62,-0.43 -4.84,3.81 -2.47,2.49 -38.42,69.58 -37.35,81.43 8.77,2.07 16.28,0.72 25.06,0.69 14.8,-0.04 12.52,2.33 24.82,3l-0.51 80.48 -78.44 -0.15c-3.97,-5.69 -4.54,-14.46 -5.7,-18.18 -9.97,1.89 -3.66,0.3 -12.03,7.47l0.51 9.29c13.98,6.66 7.11,-2.1 11.98,8.55l-1.48 76.21c-27.12,3.24 -46.33,-0.23 -73.22,5.19 -13.05,15.59 -6.49,33.75 -26.09,49.19 -6.78,5.35 -2.71,0.01 -6.64,6.92 -4.06,7.13 -2.53,8.82 -10.81,17.94 -17.2,18.96 -39.64,41.66 -50.36,66.1l-0.77 25 85.63 0.41c-1.24,-19.84 -3.74,-66.46 1.06,-81.58 18.42,-7.31 58.69,-0.81 82.26,-3.1 -6.54,78.94 34.6,90.14 -83.94,83.77l-0.45 85.07 83.98 0.97 -0.96 82.59 -80.16 0.04c-5.64,-22.83 -3.04,-57.55 -2.09,-83.62l-85.06 1.01 0.51 83.62c-108.4,-5.09 -81.29,25.11 -84.42,-83.44 -0.63,0.51 -1.38,1.25 -1.78,1.64 -0.4,0.38 -1.26,1.15 -1.74,1.62l-7.39 7.66c-3.89,4.13 -6.71,6.84 -9.84,10.01 -7.35,7.44 -11.33,13.54 -18.47,21.45 -2.31,2.55 -3.18,3.16 -5.57,5.69 -5.15,5.47 -27.78,28.34 -29.18,34.46 19.24,3.52 56.07,-6.25 69.48,4.62 7.1,8.05 3.94,26.67 3.91,39.01 -0.04,12.53 2.63,32.41 -3.18,38 -13.21,7.16 -61.09,3.68 -79.29,1.7 -0.71,-12.65 -1.4,-24.11 -1.28,-36.87l-0.23 -28.03c-0.96,-6.98 0.22,-2.48 -1.78,-6.67 -10.75,3.32 -9.5,9.7 -19.15,18.41 -8.09,7.3 -50.04,47.11 -52.35,53.31l17.21 2.52c5.86,0.23 11.42,0.15 17.27,0.12 8.14,-0.04 32.9,-2.14 35.24,4.34l3.1 38.58c-0.02,11.99 1.98,28.62 -3.09,37.02 -7.27,7.14 -74.17,2.53 -80.87,0.16l0.06 88.01 -84.98 0 0.63 -78.46c-14.15,1.06 -25.89,12.26 -40.16,25.27 -7.43,6.77 -23.68,22.31 -35.03,25.89 -10.94,9.21 -11.43,5.88 -12.88,25.58l-23.49 1.74c-4.49,9.76 -29.66,26.13 -39.2,32.18 -29.01,18.35 -16.37,14.15 -20.75,50.6 -26.88,2 -55.74,-3.16 -74.32,11.51 -15.05,11.88 -6.75,52.3 -9.4,73.48l-82.65 -0.07 0.51 85.61c-19.82,-1.18 -68.28,4.5 -81.72,-3.18 -6.61,-10.66 -1.61,-33.16 -3.37,-48.08 -11.33,0.77 -41.99,15.63 -49.23,22.6 -12.97,12.48 -3.47,3.61 -22.83,10.27 -13.82,4.75 -9.76,6.36 -17.12,17.22 -25.84,2.98 -34.56,5.48 -53.68,15.54l-14.16 2.49c-7.14,7.02 -6.21,1.73 -9.89,10.18 -3.38,7.75 -1.37,41.38 -2.24,56.48l-82.36 -0.4 -2.04 -21.22 -20.69 1.57c-6.95,4.68 -15.51,5.4 -24.76,8.11 -3.44,1 -9.92,2.75 -12.87,4.2 -11.17,5.47 -5.16,-4.11 -7.71,8.15l51.99 0.69c4.17,0.41 4.11,0.58 7.73,1.35 15.68,3.37 7.27,66.03 5.47,82.05l-81.6 -0.17c-2.24,-19.82 -2.65,-59.68 1.53,-77.94 -10.75,-4.07 -27,4.23 -41.04,7.66 -17.4,4.25 -19.23,7.43 -44.47,9.87l-2.12 7.59 -2.28 50.31c-12.59,6.09 -40.59,2.94 -57.04,3.1 -33.93,0.3 -22.23,-3.19 -25.4,-32.64 -20.94,1.31 -22.86,6.53 -39.9,8.84 -16.01,2.17 -25.88,5.19 -43.7,6.97l-4.78 13.14c-19.03,0.38 -52.66,0.67 -71.27,2.97 -17.96,2.24 -8.85,7.11 -31.05,7.73 -11.22,0.32 -23,-0.07 -34.37,0.14 -48.89,0.88 -26.81,3.08 -48.3,5.38l-78.35 8.71 -2.99 6.97 271.22 0 -0.14 -27.06c18.45,-1.44 36.79,0.14 55.09,0.01 26.88,-0.2 29.41,-2.66 29.61,27.04l84.72 0c-0.22,-36.8 1.3,-27.82 39.39,-27.94 39.42,-0.12 42.53,-9.48 44.02,27.94l84.12 0 2.8 -27.2c17.86,-2.09 36.87,-0.38 54.21,-0.85 31.21,-0.85 27.8,-3.76 27.96,28.04l84.78 0 1.55 -24.74c15.55,-4.26 36.21,-3.08 53.72,-3.28 30.87,-0.37 27.49,-1.13 28.75,28.02l84.76 0 -0.01 -28.33 82.05 0.98 1.94 27.35 85.17 0c-0.04,-30.03 -3.38,-28.3 27.58,-28.01 17.22,0.17 39.85,-2.5 53.83,2.63l2.47 25.37 83.74 0c1.36,-36.89 5.69,-27.99 42.28,-27.91 39.75,0.07 42.37,-11.15 42.55,27.91l84.98 0 1.33 -24.64c15.13,-4.52 36.13,-3.18 53.45,-3.38 31.2,-0.36 27.64,-1.65 29.14,28.02l84.66 0 -0.11 -28.33c-18.95,-0.33 -70.22,4.37 -82.18,-3.43 -5.32,-11.02 -4.02,-63.74 -0.16,-76.45 15.18,-9.8 60.05,-3.35 82.4,-5.25l0.03 -83.26 84.17 1.48 -0.41 81.98 84.11 3.12 -1.11 80.74 -81.34 1.17 -0.96 28.22 85.46 0c-0.22,-28.56 -1.77,-28.43 26.5,-28.04 17.39,0.24 39.97,-2.37 54.15,2.48l2.5 25.56 83.81 0 2.82 -27.11c17.84,-2.09 35.71,-0.44 53.36,-0.92 31.21,-0.85 28.49,-4.32 28.65,28.03l28.25 0 0 -28.44 -28.02 -0.51 0.87 -81.63 27.15 -2.51 0 -83.48 -25.44 -3c-4.96,-13.96 -2.41,-36.72 -2.6,-53.97 -0.33,-30.23 -0.05,-25.06 28.04,-27.07l0 -84.98 -27.94 0.38 -0.09 -84.65 28.03 -0.07 0 -84.63c-25.69,-1.83 -28.62,9.19 -27.65,-40.74 0.87,-44.53 3.17,-39.8 12.74,-42.08 1.98,-0.47 12.17,-0.01 14.91,0.03l0 -86.33c-14.86,0.33 -25.79,4.24 -28.19,-8.16 -0.85,-4.45 0.27,-27.67 0.26,-34.2 -0.03,-38.75 -9.47,-40.9 27.93,-42.27l0 -83.57c-27.62,-2.06 -28.44,2.13 -28.12,-27.8 0.17,-16.86 -1.8,-40.67 2.78,-54.87l25.34 -1.77 0 -84.88c-10.73,0.46 -6.74,0.49 -15.99,-1.68 -9.85,-2.31 5.03,-2.39 -11.72,-2.59l0.14 -78.78 27.57 -0.09 0 -85.51c-28.61,-1.62 -28.08,3.92 -27.69,-28.78 0.2,-16.94 -0.11,-37.08 2.52,-53.97l25.17 -0.77 0 -85.46c-10.54,0.23 -18.11,1.14 -26.08,-2.21 -4.17,-16.91 -1.22,-36.53 -1.59,-54.14 -0.65,-30.62 -2.92,-26.08 27.67,-28.43l0 -83.68c-34.94,-3.58 -27.87,-1.86 -27.61,-41.61 0.04,-6.07 -0.67,-30.27 1,-34.26 4.5,-10.8 10.93,-6.55 26.61,-7.77l0 -85.21 -27.89 -1.46 -0.33 -83.2 -14.49 1.83 -15.47 82.62c29.95,0.75 30.32,-4.98 29.98,27.72 -0.18,17.58 0.14,38.49 -1.26,55.97l-51.38 0.72c-3.09,4.65 -4.47,7.93 -9.58,13.14z"/>
  <path class="fil3" d="M6554.17 3851.74l-83.52 0.19 0.11 -82.95 82.92 -0.48 0.49 83.25zm-168.78 -84.78l1.47 -82.19c10.52,-1.15 78.78,-5.89 79.72,3.44 0.33,3.21 2.27,-1.17 2.34,17.81 0.25,67.22 8.48,61.9 -31.63,61.28 -17.27,-0.26 -34.75,0.96 -51.9,-0.33zm82.47 -250.67c3.21,18.52 2.92,62.36 0.38,81.24l-81.87 1.19c-0.94,-14.37 -4.2,-74.34 2.17,-80.94 6.51,-6.74 65.89,-3.42 79.32,-1.49zm85.43 -85.49c1.14,10.86 3.19,76.55 -2.47,81.59 -12.46,6.2 -64.31,3.5 -79.04,-0.09 -2,-14.1 -1.64,-25.5 -1.64,-39.62 0.01,-48.64 -13.27,-46.25 83.14,-41.89zm-249.79 2.27c14.65,-4.23 67,-6.21 79.61,-0.19 4.74,8.75 4.48,67.53 0.38,76.95 -6.32,8.99 -71.04,4.94 -79.35,2.01 -4.85,-13.4 -4.92,-65.08 -0.64,-78.78zm136.62 -3.16l-53.82 0 -0.23 -82.08c18.01,-2.85 67.76,-4.81 80,2.08 6.88,11.17 3.79,36.1 3.89,51.63 0.18,32.72 -0.47,28.36 -29.83,28.36zm-140.25 -82.08l0.43 78.28c-17.51,4.28 -66.2,5.84 -80.2,1.8 -3.76,-8.56 -6.61,-71.82 0.04,-78.29 7.17,-6.99 66.29,-3.47 79.73,-1.79zm252.1 -83.91c3.83,12.51 4.7,66.03 -0.57,77.72 -4.64,5.44 -47.89,3.08 -57.32,3.18 -32.65,0.39 -22.09,-6.13 -23.66,-40.15 -1.28,-27.94 -7.77,-43.39 20.73,-43.31 18.48,0.05 46.61,-3.13 60.83,2.56zm-419.16 80.56l-0.13 -82.49c16.1,-0.72 32.23,-0.29 48.33,-0.35 36.36,-0.15 35.12,-10.99 35.12,40.19 0,47.97 2.86,43.54 -20.65,43.07 -20.78,-0.41 -41.77,0.35 -62.67,-0.42zm170.6 -2.95c-3.73,-8.75 -10.31,-75.32 6.59,-78.82l24.75 -1.09c55.87,0.51 51.02,-10.18 50.64,43.05 -0.25,34.93 14.38,45.04 -67.92,40.19 -3.34,-0.2 -4.49,-0.2 -7.78,-0.94 -8.82,-2 -2.8,-0.21 -6.28,-2.4zm82.32 -164.81l83.18 0.41 0.34 84.1 -82.5 -0.04 -1.02 -84.47zm-84.85 0c-0.2,9.55 3.52,75.66 -3.78,81.95 -10.18,5.54 -66.95,3.92 -78.78,0.22l-1.11 -81.81 83.66 -0.35zm253.33 0l-83.47 -0.05 -0.07 -82.75 82.9 -0.61 0.64 83.41zm-168.49 0l-84.85 0 1 -82.04c13.57,-2.32 27.65,-1.01 41.42,-1.22l38.19 2.16c9.82,3.55 3.46,64.33 4.23,81.11zm-253.28 -0.04c1.59,-101.22 -24.32,-82.9 82.95,-82.94l0.82 82.83 -83.77 0.12zm0 -168.29l-0.44 82.84 -81.74 0.92c-3.64,-13.06 -5.44,-70.25 0.38,-79.95 5.65,-6.41 62.2,-2.21 81.8,-3.81zm254.46 1.29l80.77 -0.55c1.93,12.8 1.22,26.48 1.75,39.27 2.03,48.68 2.31,43.78 -40.7,43.7 -46.09,-0.09 -47.64,15.68 -41.82,-82.42zm-88.11 79.54c-11.38,4.62 -46.14,2.89 -63.69,2.89 -23.61,0 -18.22,-9.21 -17.99,-32.3 0.16,-15.81 -1.73,-36.75 3.11,-48.87 8.99,-2.48 70.76,-5.69 77.28,0.73 6.59,6.49 3.93,68.47 1.3,77.55zm-422.84 -162.91c5.67,10.11 2.27,68.88 2.28,81.11 -19.93,0.95 -41.87,0.77 -61.93,0.73 -25.73,-0.04 -21.86,1.47 -21.78,-42.34 0.01,-8.97 -0.88,-21.57 0.59,-30.03 2.29,-13.29 4.53,-12.14 18.26,-12.25 16.78,-0.14 50.46,-4.7 62.59,2.79zm426 0.73c17.77,-5.23 64.42,-6.65 81.06,-0.83 4.6,12.42 4.23,66.43 -0.29,79.09 -9.31,2.97 -67.38,5.37 -75.95,0.01 -10.68,-6.68 -4.71,-63.4 -4.82,-78.28zm249.06 -0.92c2.11,3.91 0.22,-3.32 2.05,6.14 2.49,12.77 0.4,61.12 0.14,75.1 -19.7,1.18 -42.18,0.77 -62.07,0.56 -28.98,-0.3 -21.39,-13.37 -21.44,-42.09 -0.05,-25.94 -7.13,-41.92 18.55,-42.27 15.23,-0.2 52.6,-3.16 62.77,2.56zm-83.74 -84.17c4.92,17.06 4.07,60.1 0.78,80.53l-81.59 1.03c-1.17,-14.55 -4.28,-73.8 2.2,-80.71 6.56,-6.98 68.98,-3.63 78.61,-0.85zm-248.56 -0.72c16.88,-3.08 67.1,-4.64 78.88,2.21 9.22,15.71 3.77,57.9 1.7,78.62 -13.84,0.95 -71.91,5.23 -78.9,-1.45 -6.78,-6.51 -3.95,-66.79 -1.68,-79.38zm-338.72 81.59l-0.54 -81.37c91.35,-13.24 89.89,-2.68 82.26,78.91 -24.12,5.75 -55.2,3.52 -81.72,2.47zm-114.74 0.61l-53.57 -0.55 -0.44 -82.02c17.15,-2.45 34.31,-1.23 51.19,-1.37 36.44,-0.29 32.1,-8.13 32.1,57.98 0,31.08 1.21,25.95 -29.28,25.95zm367.19 84.96c0.19,-14.07 3.29,-77.57 -2.17,-82.91 -6.1,-5.96 -66.78,-1.54 -81.81,-3.52 -0.77,-20.51 -3.44,-64.89 2.06,-80.71l81.95 -2.62 0.07 -83.58c19.18,0.3 69.43,-2.94 82.63,3.07 0.83,2.63 10.04,72.79 -5.78,79.12 -9.38,3.76 -64.42,2.06 -77.05,2.64l-0.28 83.75c33.72,0.76 78.17,-7.59 82.94,8.58 0.94,3.19 6.38,68.96 -5.68,73.96l-76.86 2.2zm-86.17 -171.44c-12.46,2.92 -72.81,4.62 -79.2,-1.75 -4.68,-4.67 -5.44,-71.76 0.37,-77.11 3.6,-3.31 72.11,-4.84 76.97,-0.09 6.44,6.34 3.84,66.22 1.87,78.95zm425.61 -81.02l81.5 -0.74 0.57 82.13c-19.3,3.86 -66.3,3.92 -81.35,-0.81 -4.65,-16.33 -3.88,-60.87 -0.72,-80.58zm-678.03 -0.86l84.47 0.14c1.18,18.11 3.95,69.71 -2.02,82.33 -14.62,4.32 -69.46,5.07 -79.81,-2.71 -6.76,-22.39 1.06,-55.05 -2.64,-79.76zm-85.55 3.26c4.26,8.94 4.07,68.04 -0.16,76.16 -7.12,9.14 -46.29,5.15 -56.97,5.15 -31.27,0 -25.18,-8.16 -25.13,-38.96 0.07,-45.59 -3.51,-45.01 19.33,-45.59 10.96,-0.28 54.61,-2.07 62.93,3.25zm424.23 -3.27l-84.13 -1.39c-0.19,-27.46 -1.83,-54.96 1.95,-81.74l81.66 0.46 0.53 82.66zm-338.68 0.01l-83.05 -0.83 1.17 -83.35c78.57,-1.77 82.1,-7.39 82.73,21.36l-0.85 62.82zm506.8 -85.23c-2.11,22.62 7.37,61.52 -2.97,79.41 -7.03,7.02 -22.83,5.15 -36.95,5.43 -48.66,0.94 -44.24,2.27 -44.18,-39.44 0.12,-70.7 3.89,-34.88 84.1,-45.4zm-417.17 81.06c-8.1,-8.47 -4.14,-31.41 -4.18,-44.23 -0.16,-39.93 -6.77,-35.07 56.9,-35.53 26.14,-0.2 30.63,-4.41 26.36,64.25 -0.23,3.77 -0.45,6.85 -1.4,10.5 -4.83,18.51 -74.68,7.47 -77.68,5zm-339.03 2.74c-4.87,-15.18 -2.97,-28.93 -3.05,-46.96 -0.17,-42.89 -7.06,-35.83 58.82,-36.2 25.29,-0.14 25.34,-3.56 25.34,21.98l-1.58 58.5c-14.93,5.5 -59.7,4.34 -79.53,2.68zm840.54 0.54c1.14,18.35 4.78,67.43 -1.77,80.59 -12.46,11.43 -60.63,5.16 -79.16,2.27 -3.54,-17.88 -6.33,-63.09 -0.14,-79.09 23.09,-9.61 59.61,4.61 80.09,-4.81 6.51,-13.82 2.06,-61.96 2.82,-82.26 20.41,-0.47 41.61,-0.5 62.03,-0.31 24.62,0.22 21.17,2.84 21.28,41.8 0.09,34.43 18.51,51.16 -85.16,41.8zm85.17 -150c0,-22.98 8.84,-17.69 29.75,-17.69 51.17,0 54.21,-5.51 54.13,17.69l-1.09 65.33 -81.26 -0.74 -1.54 -64.59zm-843.71 64.85c-0.14,-17.84 -0.25,-35.69 -0.43,-53.53 -0.33,-32.94 -5.81,-32.62 80.99,-27.41 6.14,17.59 3.91,58.78 0.37,81.42l-80.92 -0.48zm506.28 -82.16c101.28,-4.94 83.71,-1.85 83.28,42.94 -0.47,48.12 10.91,42 -83.47,39.62l0.19 -82.55zm-165.31 80.18c-7.46,-14.03 -3.9,-42.63 -3.8,-60.28 0.14,-23.47 0.32,-20.29 43.66,-20.29 48.49,0 40.41,-1.2 40.21,34.77 -0.08,13.4 3.17,36.12 -3.99,44.84 -8.32,6.68 -65.08,5.41 -76.08,0.96zm-171.01 0.32c-1.19,-14.45 -5.15,-70.95 2.32,-77.93 6.43,-6.03 65.39,-4.15 77.22,-1.61 4.72,16.64 2.13,60.79 1.14,81.08l-80.68 -1.53zm-338.73 -80.4l62.85 -0.74c6.14,0.03 14.92,0.01 17.72,3.11 4.96,10.27 5,68.12 -0.57,77.62 -12.26,7.12 -61.06,2.79 -80.31,2.56l0.32 -82.55zm842.97 82.87c2.34,-19.84 -7.8,-77.23 6.96,-81.46l4.69 -1.41c0.89,-0.17 1.59,-0.29 2.55,-0.42 1.22,-0.16 6.89,-0.28 8.35,-0.29l51.01 0.55c20.94,4.6 12.89,64.23 8.19,82.72l-81.75 0.31zm-1007.18 -3.92c-5.59,-9.4 -4.84,-14.05 -4.85,-27.5 -0.04,-59.2 -8.13,-51.93 43.81,-51.93 47.06,0 40.23,-1.64 39.93,31.9 -0.09,10.33 3.37,43.28 -4.6,47.04l-55.38 3.94c-4.54,-0.11 -6.74,-0.23 -11.24,-1.08 -7.07,-1.32 -5.71,-1.51 -7.69,-2.37zm-341.27 -79.81c16.38,-1.32 37.95,0.68 55.73,0.03 32.47,-1.19 18.6,1.81 25.95,18.04 4.69,10.35 -0.83,2.06 5.73,5.93 9.47,5.58 67.28,29.62 80.06,26.5 -0.1,-22.12 -4.4,-46.06 11.05,-49.51l61.86 -0.17 9.74 9.08c0.22,0.88 0.39,1.58 0.56,2.53l0.32 31.27c-0.48,32.56 -4.21,39.04 9.89,41.34 9.49,1.55 52.52,-2.32 70.22,2.28 6.87,15 1.02,23.02 6.4,36.53 5.12,8.81 38.91,16.97 49.15,28.04l15 6.5c9.1,2.89 9.76,3.07 19.94,4.04 1.04,-16.59 -5.96,-70.55 5.09,-74.21l77.56 -2.76 0.09 82.81 -72.07 0.73c1.85,6.82 -1.79,6.17 19.11,14.56 8.97,3.6 15.18,8.45 19.91,13.94 18.38,3.15 19.22,12.69 33.62,11.64l0.43 -39.98c15.73,-0.19 78.32,-7.71 81.92,6.56 0.15,0.56 0.55,1.56 0.7,2.29l0.17 64.69c-4.64,19.11 -6.1,-0.98 -8.97,17.93 24.77,-0.06 -5.36,-7.22 43.12,-6.61 15.96,0.2 36.08,-1.18 49.25,2.33l2.37 66.23c45.87,31.35 51.75,4.65 82.45,19.61l1.94 42.11c5.22,7.62 47.84,37.32 49.6,37.93 8.51,2.97 21.49,1.61 30.81,2.04 11.28,31.21 -6.4,27.23 25.22,49.71 14.79,10.51 29.61,29.88 45.49,34.24l19.08 -1.72c-1.79,-17.46 -10.49,-78.62 7.78,-82.92 3.94,-0.92 6.3,-0.96 10.38,-1.06l64.11 0.63c1.6,-20.95 -7.21,-71.44 5.88,-82.2 9.68,-6.74 65.52,-7.22 74.47,-0.07 6.92,6.31 6.86,72.21 0.09,77.95 -11.15,7.69 -62.03,2.6 -79.86,2.72l-0.14 85.03c95.3,0.92 86.45,-23.9 83.9,84.28l85.16 -0.3c-1.11,22.38 3.92,66.74 -2.87,84.23l-81.66 0.35 0.14 -83.38 -84.5 -0.55c0.15,13.58 -0.85,17.42 5.88,25.67 4.62,5.67 12.12,8.01 9.04,17.2l4.33 0.56c9.16,3.92 16.82,14.97 25.76,25.57 20.85,24.75 15.4,7.74 35.75,18.35 9.15,9.18 -7.42,13.25 18.26,44.28 39.37,47.56 19.19,33.02 69.5,38.15 -0.47,68.9 -4.03,38.03 23.06,82.52l57.19 1.48c2.19,4.45 1.53,2.27 2.88,7.83l0.93 33.75c-0.42,22.34 -5.18,38.71 8.3,41.5l74.82 2.53 1.93 81.04 -30.41 1.27 17.88 36.47c7.25,11.94 0.72,7.01 12.22,9.24l2.08 -44.18c17.85,-2.13 63.11,-2.68 79.87,0.71 3.35,12.99 5.54,70.86 -0.87,77.97 -13,10.75 -46.81,-0.42 -64.89,6.45 0.25,3.99 20.14,38.84 24.52,49.07l23.4 44.42c2.68,7.83 -1.15,-0.81 2.97,8.17 12.17,26.48 2.03,-11.46 16.82,40 7.76,27.01 11.3,23.59 17.38,25.75l67.33 -0.41 -0.29 83.36 -35.48 1.96c2.51,19.64 7.82,24.3 13.26,40.06 2.79,8.11 3.47,12.39 6.6,19.34 3.89,8.66 5.12,8.6 5.9,21.26l9.93 -3.78c1.73,-55.41 -11.81,-77.57 21.74,-78.25 73.37,-1.48 64.86,-13.69 62.07,82.02 -22.38,5.44 -57.83,1.88 -83.19,1.99l-0.3 13.14c5.3,29.82 12.28,46.71 22.07,71.61l61.43 0.26 0.98 84.59 28.31 -1.09 0 -83.44c-36.71,-3.09 -28.07,-3.53 -27.96,-43.61 0.12,-37.73 -7.31,-38.89 27.96,-41.12l0 -84.33 -27.36 -0.63 -0.98 -84.3 28.33 0.59 0 -84.23c-28.43,-1.26 -28.39,2.77 -28.03,-27.64 0.22,-18.48 -0.93,-40.21 3.23,-55.85l24.8 -0.57 0 -84.89c-32.87,0.41 -29.33,-5.77 -28.44,27.25 0.51,18.77 -0.67,37.4 -0.76,55.99 -21.73,1.66 -62.42,2.78 -81.41,-1.99 -2.82,-18.56 -6.04,-65.55 2.4,-79.61 13.8,-4.43 62.52,-2.33 80.65,-1.51 -1.2,-18.43 -0.11,-36.97 -0.44,-55.46 -0.57,-32.24 -3.33,-27.59 28,-29.76l0 -83.52c-26.68,-2.27 -28.26,3.08 -28.14,-26.05 0.08,-17.48 -1.51,-39.93 2.2,-54.77l25.94 -3.32 0 -85.07c-28.77,1.07 -28.78,0.38 -28.26,-27.76 0.35,-18.79 0.78,-38.07 -0.02,-56.84l28.28 0.45 0 -84.39c-28.67,-0.83 -28.4,3.12 -28.03,-27.2 0.22,-18.56 -0.88,-40.1 3.13,-56.04l24.9 -0.67 0 -85.46c-37.96,0.83 -27.98,-1.95 -27.92,-40.19 0.04,-41.09 -10.5,-41.62 27.92,-44.44l0 -83.6 -25.5 -3.08c-4.5,-12.9 -4.53,-66.35 0.35,-79.86l25.15 -1.57 0 -84.51 -27.92 0.19 -0.01 -84.7 -84.88 0 -1.24 83.3 -82.52 -0.3 -0.12 -82.99 -85.01 0c0,13.53 4.34,77.81 -4.71,81.06 -1.73,0.62 1.87,2.74 -18.11,2.71 -11.33,-0.02 -56.53,2.4 -58.81,-5.16l-1.99 -78.6 -85.11 0 -0.19 83.38 -83.07 -0.38 -0.7 -83 -85.07 0 -0.48 62.83c-1.58,35.63 -15.21,16.06 -83.12,21.93l-0.09 -84.76 -84.78 0 -1.14 83.3 -82.69 -0.12 -0.05 -83.18 -85.08 0c0,6.24 0.98,76.69 -4.33,81.26 -12.04,4.68 -64.23,4.71 -76.2,-0.12 -3.2,-2.69 -3.37,-17.63 -3.36,-21.25l0.32 -59.89 -85.47 0 -0.85 83.18c-21.53,0.69 -59.76,3.52 -76.84,-1.64 -9.39,-19.2 -5.41,-54.83 -5.41,-81.55l-85.67 0c0,22.65 5.91,62.72 -3.74,80.61 -15.18,7.09 -59.8,2.66 -79.94,2.16l-0.01 -82.77 -84.79 0c0,21.86 4.62,63.06 -2.46,80.43 -5.23,5.64 -75.78,3.16 -81.26,2.76l-0.16 -83.19 -83.36 0c-0.01,23.93 -2.3,69.81 0.16,84.44z"/>
  <path class="fil4" d="M3406.85 3654.93l0.01 378.72c-0.01,59.06 6.77,74.96 80.39,74.86l216.41 0.01c22.96,-0.09 46.9,-3.84 61.86,5.62 -0.97,10.53 -6.36,29.66 -9.12,40.48 -3.59,14.1 -5.62,28.72 -8.26,43.05 -5.54,30.03 -15.42,61.21 -12.32,88.52 12.53,-3.38 26.57,-26.26 37.25,-37.91 35.64,-38.89 41.18,-38.99 74.27,-79.79l29.69 -29.89c4.62,-5.69 0.12,2.09 3.61,-5.52 2.12,-4.62 1.52,-3.72 2.16,-8.73 48.72,-10.07 -28,-15.7 97.06,-15.7l216.54 -0.12c23.28,-0.28 24.58,-6.81 44.05,-7.81 2.89,-37.52 15.97,-3.45 19.43,-47.18 3.59,-45.39 0.57,-322.66 0.57,-381.52 0.01,-54.33 6.25,-98.26 -52.66,-100.05 -49.23,-1.49 -101.47,0.13 -151.06,0.13l-578.05 0.06c-16.81,-0.01 -32.62,-1.69 -45.41,5.94 -13.21,7.88 -16.31,3.94 -22.98,28.47 -4.51,16.56 -3.45,29.26 -3.45,48.36z"/>
  <path class="fil5" d="M3073 4781.71c31.92,4.47 68.22,-7.84 99.33,-7.71 0.23,8.08 -2.27,12.27 -2.53,22.66 -1.74,67.89 -1.14,399.59 2.41,409.02 2.08,0.74 2.1,1.63 7.09,0.88 3.68,-0.56 5.87,-1.94 8,-3.33l41.69 -24.21c9.65,-6.44 16.1,-9.08 27.36,-15.4 10.88,-6.12 14.08,-12.68 24.4,-17.95 10.6,-5.41 17.86,-8.37 27.75,-14.89 35.58,-23.46 92.33,-49.52 125.24,-74.59l65.29 -37.02c4.2,-2.39 6.72,-4.49 12.26,-7.27 27.58,-13.84 16.28,-19.22 43.1,-9.15 17.68,6.65 750.32,-3.65 776.95,3.52l0.54 29.7c-22.57,5.38 -665.78,2.16 -767.87,0.67 -10.7,-0.16 -25.51,3.47 -32.59,8.56 -8.29,5.98 -3.76,-0.71 -7.79,9.88 21.11,-2.92 17.56,-10.12 40.32,-10.4l1478.05 -0.28c16.2,0.01 32.28,0.22 48.48,-0.01 24.69,-0.34 21.38,1.03 39.17,9.31l104.66 63.32c12.51,8.55 51.66,27.03 66.44,39.14 20.47,16.78 15.56,7.43 37.52,22.01l58.53 37.57c11.43,4.63 6.37,0.67 16.45,7.09 5.45,3.47 8.82,5.73 13.99,8.6l61.9 35.27c11.17,5.49 7.35,5.35 14.38,11.05 11.18,9.08 35.31,17.82 44.66,23.91l118.63 72.04c46.93,23.63 128.44,76.78 180.03,107.41l118.89 69.35c28.48,18.3 36.92,30.61 66.75,13.45l-4.2 -30.7c-6.35,-3.05 -12.61,-3.28 -18.16,-5.78 -3.08,-1.39 -9.4,-6.76 -12.57,-9.05l-7.38 -4.59c-4.89,-2.74 -13.94,-7.7 -16.76,-13.32 -6.19,-12.36 1.91,-170.99 -4.1,-212.24 -2.19,-14.99 -5.07,-21.23 -5.87,-35.82 -0.71,-12.73 -1.79,-30.13 -4.05,-42.52 -2.19,-12.05 -3.07,-5.25 -5.12,-17.58 -0.97,-5.83 -0.97,-13.51 -1.66,-19.65l-32.14 -98.03c-9.26,-23.88 -12.33,-23.16 -26.34,-59.63 -4.62,-12.04 -26.9,-42.92 -34.53,-53.45 -42.51,-58.79 -98.28,-106.61 -162.59,-139.34 -13.71,-6.98 -45.27,-22.59 -61.19,-26.84 -66.31,-17.67 -116.56,-36.28 -184.16,-22.93 -14.93,2.95 -29.42,1.16 -38.02,8.08 27.5,6.41 54.08,-9.28 81.77,-6.35 -11.04,29.73 3.84,378.04 -3.58,435.48 -13.99,0.25 -16.02,-4.8 -25.03,-11.62l-104.7 -63.33c-34.94,-16.46 -17.7,-14.58 -33.02,-20.83 -12.23,-4.99 -11.54,-3.11 -23.93,-10.78 -10,-6.19 -15.39,-9 -23.2,-13.77l-115.8 -68.91c-12.4,-8.17 -7.33,-7.14 -23.19,-14.37 -14.64,-6.67 -4.27,-7.22 -24.56,-8.55 6.46,-4.34 3.56,-11.97 23.56,-38.1 7.75,-10.12 10.38,-9.9 16.14,-18.9l10.56 -21.61c-18.58,5.3 -52.89,65.28 -62.42,78.78 -41.21,3.75 -100.78,0.38 -144,0.38l-1355.42 -0.46c-79.14,-0.88 -47.33,0.64 -72.42,-34.56 -16.96,-23.82 -45.38,-54.21 -66.76,-75.47 -9.06,-9.01 -8.52,-6.5 -19.82,-14.2 -6.61,-4.5 -13.03,-10.28 -20.55,-16.37 -4.57,-3.7 -14.47,-9.63 -20.77,-13.61 -61.17,-38.66 -134.25,-67.23 -207.49,-76.09 -22.12,-2.68 -114.96,2.87 -126.02,14.48z"/>
  <path class="fil3" d="M2165.93 6975.3c0.13,-22.19 -7.61,-63.17 2.91,-80.95 9.61,-5.78 67.54,-4.44 76.92,0.93 4.1,7.14 2.6,6.43 3.02,17.01l-1.41 61.73 -81.43 1.28zm417.98 -78.97c5.25,8.61 5.13,67.49 -0.29,75.14 -11.74,8.31 -42.57,3.73 -59.03,3.94 -14.58,0.2 -20.02,2.76 -22.12,-8.81 -0.87,-4.77 0.26,-27.44 0.25,-34.18 -0.02,-30.56 -8.63,-41.36 21.87,-41.72 13.82,-0.16 48.99,-4.34 59.31,5.63zm-167.78 77.99l-81.5 0.94 -0.41 -82.16c17.82,-3.29 64.52,-2.87 81.92,0 3.85,17.77 4.56,63.6 0,81.21zm2.61 -166.45l82.81 -0.86 0.57 82.27 -82 1.15 -1.38 -82.56zm165.45 -82.89c3.2,9.58 4.07,56.46 1.82,70.53 -0.96,5.98 -0.46,4.82 -2.55,7.77 -9.37,6.9 -66.92,4.45 -78.23,0.64 -3.46,-9.34 -6.15,-70.63 1.22,-77.73 7.55,-7.28 67.59,-4.48 77.75,-1.21zm-338.72 -0.16c9.19,14.52 5.2,58.85 1.7,78.27 -15.44,5.01 -63.22,5.72 -78.72,1.62 -3.42,-7.92 -7.29,-69.58 -0.95,-78.31 4.93,-6.79 70.64,-5.25 77.96,-1.58zm87.66 81.3l0.35 82.59c-18.46,3.19 -66.65,6.27 -79.25,-1.71 -9.73,-12.36 -7.08,-60.6 -2.85,-77.05 34.02,-10.51 78.52,9.97 82.42,-11.58l1.12 -75.48c20.01,-0.93 41.82,-0.62 61.96,-0.47 29.13,0.22 21.46,13.14 21.54,42.01 0.1,37.91 17.4,48.94 -85.29,41.69zm87.71 -165.48c8.43,-3.09 72.33,-5.44 78.44,1.31 6.69,7.37 2.48,69.19 1.82,78.62l-80.77 0.68c-2.44,-18.19 -3.89,-67.46 0.5,-80.61zm-169.83 78.83c-1.45,-21.28 -7.4,-62.05 2.37,-78.19l6.91 -2.44c0.82,-0.15 1.63,-0.33 2.55,-0.46l37 -0.21c35.01,-0.81 33.8,-7.53 33.8,40.82 0,25.21 6.41,41.24 -19.21,42.12 -18.77,0.64 -44.77,0.06 -63.43,-1.65zm251.23 -165.81l84.99 -0.05c-0.8,17.59 3.97,71.53 -3.96,81.47 -11.29,7.76 -64.75,2.01 -80.06,0.77l-0.97 -82.18zm-168.22 0.11l83.26 -0.11 0.33 82.76 -83.1 0.71 -0.48 -83.36zm-168.25 0l83.02 -0.14c2.29,95.77 6.33,83.42 -40.09,83.26 -10.52,-0.04 -34.24,3.58 -40.67,-2.73 -6.03,-5.91 -2.95,-66.18 -2.27,-80.39zm336.47 -0.11l-83.23 -0.46 0.02 -84.07 82.63 -0.07 0.59 84.6zm-169.03 -0.96l-83.26 0.03 1.1 -83.54 81.83 -0.07 0.33 83.59zm253.36 -166.37c-0.82,93.84 15.17,82.26 -47.55,82.26 -6,0 -20.64,0.69 -25.77,-0.07 -10.23,-1.55 -10.38,-3.08 -10.86,-14.18 -3.62,-84.15 4.36,-69.37 33.76,-68.86 17.01,0.3 33.33,-0.01 50.41,0.85zm-251.58 0.35c17.51,-2.54 66.83,-4.73 79.25,1.32 2.39,2.26 8.4,69.12 -0.51,77.43 -4.54,4.23 -70.75,6.63 -76.95,0.16 -6.52,-6.82 -2.44,-65.32 -1.79,-78.91zm-166.94 1.06c15.36,-4.82 59.9,-3.29 79.41,-0.96 1.64,18.69 6.38,65.39 -1.73,78.95 -7.53,3.84 -71.02,6 -77.2,-0.05 -6.98,-6.82 -3.44,-68.69 -0.48,-77.94zm331.46 -84.85c4.14,9.44 2.91,25.98 2.84,37.24 -0.08,14.35 -0.64,28.24 -0.89,42.46 -16.65,2.63 -41.81,1.4 -59.42,1.32 -31.94,-0.14 -23.46,-9.61 -23.64,-40.93 -0.27,-43.63 -2.11,-43.04 20.69,-42.87 17.1,0.12 47.63,-4.39 60.41,2.78zm-248.09 0.85c13.56,-6.27 65.96,-5.84 79.85,-0.85 4.17,11.68 4.56,64.97 -0.22,77.1 -8.68,5.31 -69.52,7 -77.32,0.56 -6.88,-5.68 -5.91,-65.78 -2.32,-76.81zm83.31 -4.31c-1.19,-13.58 -4.07,-75.41 2.53,-81.4 7.15,-6.5 68.58,-2.4 78.97,0.01 2.76,17.79 3.19,63.85 -0.18,81.77l-81.32 -0.38zm170.19 -2.18c-3.73,-7.24 -4.78,-73.2 1.09,-78.51 7.79,-7.03 68.95,-3.8 78.57,-0.19 4.43,12.22 5.15,69.79 -1.14,77.84 -5.31,5.14 -70.11,5.65 -78.52,0.85zm-339.53 -53.95c0,-20.72 -4.45,-27.65 17.69,-27.65 75.26,0 65.69,-1.18 65.9,33.34l-1.62 50.04c-99.42,1.93 -81.97,11.34 -81.97,-55.74zm276.82 -27.67c-27.9,0 -23.7,2.05 -23.78,-46.36 -0.07,-40.97 -16.88,-40.4 83.57,-36.77 1.13,99.03 13.73,83.13 -59.79,83.13zm-187.87 -3.52c-4,-5.7 -3.91,-5.77 -4.41,-19.9 -2.52,-71.15 -8.24,-63.85 83.21,-59.68 1.52,17.29 4.55,67.62 -2.04,79.39 -10.1,6.26 -66.1,6.37 -76.76,0.19zm159.58 -82.71c-8.68,3.47 -74.4,4.47 -78.19,-1.61 -4.33,-6.94 -1.08,-67.46 -0.89,-80.49l80.64 1.02c4.38,18.63 6.42,66.37 -1.56,81.08zm-248.52 -59.8c0,-29.11 0.98,-23.72 82.45,-21.96 4.77,91.05 6.62,83.68 -44.83,83.68 -47.34,0 -37.63,3.51 -37.63,-61.72zm88.89 -26.78c-7.07,-10.99 -4.34,-36.66 -4.49,-50.14 -0.31,-27.67 -4.64,-29.59 21.57,-29.59 61.01,0 66.59,-18.41 62.04,64.03 -0.71,12.86 2.21,8.92 -5.09,15.62 -9.09,5.42 -64.39,4.87 -74.04,0.09zm-8.39 -84.05c-6.85,4.05 -71.91,5.88 -77.75,0.3 -6.2,-5.93 -2.96,-66.23 -2.47,-80.56l83.03 0.17c0.65,18.44 4.14,67.94 -2.82,80.09zm-77.94 -167.34c-5.41,-15.09 -3.05,-42.05 -2.61,-60.94 0.69,-28.68 14.34,-19.75 43.37,-20.31 31.03,-0.6 40.13,-7.66 40.38,23.24l-0.17 45.88c-1.6,11.33 2.13,3.92 -4.09,10.25 -7.68,7.26 -61.31,4.36 -76.87,1.88zm-87.38 -334.91c8.03,0 75.37,-2.21 81.13,3.71 3.89,3.99 3.27,49.97 2.87,59.98 -0.22,5.62 -1.01,14.95 -4.28,17.45 -15.99,5.17 -59.43,2.72 -79.73,2.72l0 84.79c91.35,0 84.38,-11.98 83.73,42.94 -0.17,14.34 0.17,24.68 -1.69,39.85l-82.05 0.62 0 86.29c23.04,0 60.72,-3.97 78.89,2.31 8.48,19.27 5.13,53.78 4.68,80.38l-83.57 0.07 0 85.47c8.5,0 76.9,-2.39 81.35,2.79 3.45,4.01 7.11,74.67 -2.57,77.48 -9.72,2.81 -68.8,2.17 -78.78,2.17l0 86.24c83.78,0 83.95,-7.61 83.94,23.14 -0.04,75.74 10.65,60.71 -83.94,60.71l0 84.78 84.19 0.75 -0.08 80.3 -84.11 2.32 0 86.23 82.99 -0.15 0.9 82.4 -83.9 0.51 0 85.47 82.36 0.06c2.58,18.7 5.27,67.49 -1.61,80.53 -12.93,6.3 -62.02,2.59 -80.75,2.59l0 85.56c91.32,0 85.67,-16.78 84.08,60.02l-2.05 13.79c-5.9,18.36 -62.58,9.98 -82.03,9.98l0 84.88 85.36 -0.38 -0.77 28.31 84.62 0 0.68 -24.93c14.87,-5.72 37.9,-3 55.13,-3.21 30.33,-0.39 27.73,-1.01 28.18,28.14l83.92 0c2.84,-37.02 2.97,-28.01 41.59,-27.92 6.52,0.02 29.95,-1.25 34.19,-0.41 11.93,2.38 8.93,13.67 9.03,28.33l84.88 0 2.01 -25.39c15.36,-4.02 37.91,-2.48 55.09,-2.66 29.32,-0.31 26.42,0.53 27.18,28.05l84.39 0 -0.41 -28.33 -84.11 -0.79 -0.02 -83.81 -83.02 -1.24 -0.74 -81.25 81.29 -1.19c5.59,23.02 2.87,59.45 2,84.49l84.71 -0.9 -0.16 -83.65 -79.57 -0.88c-5.18,-16.91 -4.47,-20.47 -4.13,-38.77 0.14,-7.64 -0.25,-15.47 -0.08,-22.98 0.83,-38.46 21.69,-16.86 83.73,-22.45l0.55 -83.83 -79.8 1.35c-0.67,0.15 -1.7,0.41 -2.5,0.74l-2.45 18.85c-0.59,70.34 8.08,61.95 -41.23,62.56 -12.45,0.16 -30.8,2.32 -39.33,-3.19 -7.04,-11.04 -7.66,-65.29 -0.16,-76 9.25,-9.02 61.48,-4.38 80.37,-4.74l0.3 -84.32 -84.09 0.34 0.96 -84c20.79,-0.42 66.02,-3.02 81.4,1.87 5.86,16.51 0.94,59.97 2.53,82.29l83.5 -0.16 -2.11 -83.88 -79.83 -1.3c-5.74,-24.66 -1.83,-58.16 -1.98,-84.45l-83.45 -0.31 -0.39 -79.35c15.96,-3.99 68.56,-8.12 78.54,-0.43 11.82,9.83 5.96,61.66 4.43,81.06l84.03 -0.3 -3.11 -27.68c-8.51,-8.93 -18.51,-19.68 -27.59,-28.27 -5.55,-5.23 -9.06,-6.82 -14.47,-13.94 -11.55,-15.18 -8.26,-7.06 -27.52,-29.58 -0.54,-0.63 -2.24,-2.34 -2.81,-2.97l-36.41 -39.54c-12.93,-7.27 -13.4,-14.16 -21.97,-21.54 -8.51,-7.35 -16.33,-4.88 -32.19,-7.56 -3.87,-33.86 5.47,-25.9 -14.29,-48.3 -9.7,-10.99 -17.2,-23.29 -25.94,-33.24 -19.09,-2.27 -30.27,2.45 -44.12,-4.73 -6.34,-28.78 6.41,-46.03 -11.06,-71.59 -11.48,-16.79 -50.56,-8.5 -72.9,-10.15 -2.31,-15.13 -4.67,-66.76 1.58,-81.66 5.32,-12.66 -0.02,8.21 4.18,-9.46 -22.11,5.03 4.32,7.43 -43.8,7.26 -16.24,-0.07 -31.71,0.98 -48.25,-0.25l-0.01 -82.75 37.55 -1.45c2.21,-4.29 1.67,0.4 1.29,-6.46 -0.33,-5.68 -19.31,-34.95 -25.73,-50.51 -0.88,-2.16 -3.68,-7.57 -5.14,-9.42 -6.69,-8.49 0.67,-2.86 -7.89,-6.61l-1.33 73.41 -83.22 -0.3 1.22 -82.09 77.5 -1.9c-0.21,-8.37 -13.03,-35.14 -18.35,-44.44 -13.82,-24.14 -13.94,-35.52 -22.82,-39.17 -10.03,-4.13 -24.18,-1.95 -34.91,-5.44 -4.09,-19.76 -2.18,-41.22 -2.12,-62.11 0,-2.01 -0.27,-8.44 -0.6,-10.26 -4.41,-23.87 -66.59,5.07 -81.5,-11.67 -5.12,-9.91 -5.11,-64.97 -0.19,-75.28 5.44,-6.38 33.88,-4.36 47.46,-4.39 3.11,-11.51 -24.79,-80.19 -27.07,-82.59 -15.06,-15.89 -23.93,16.11 -23.02,-34.77l-0.56 -42.4c-3.94,-17.9 -45.02,-10.62 -84.15,-10.45l0 86.14z"/>
  <path class="fil3" d="M3073 4781.71c-30.11,5.09 -72.39,24.74 -101.12,37.64 -18.42,8.27 -25.45,14.73 -43.78,24.77 -39.28,21.52 -66.14,50.67 -94.69,79.07l-29.54 38.79c-33.14,44.81 -65.08,110.17 -78.98,163.62 -3.12,12.01 -5.69,12.34 -9.06,23.95l-17.69 84.22c-6.15,45.71 -9.33,80.16 -9.34,129.65 -0.01,37.89 3.64,101.87 -1.36,136.68 -18.56,17.73 -47.92,18.65 -59.3,40.26 -14.36,27.25 19.63,42.63 41.24,29.82l46.4 -30.03c32.75,-16.15 21.36,-13.79 44.49,-26.55 13.35,-7.35 18.68,-13.14 29.27,-18.77 6.22,-3.31 13.05,-4.89 18.65,-7.98 8.24,-4.53 5.87,-6.21 13.77,-11.05 9.52,-5.84 22.64,-11.37 32.18,-16.76l59.89 -36.64c21.16,-12.57 40.87,-26.46 61.76,-37.66 22.75,-12.19 100.53,-56.49 123.16,-73.55 8.19,-6.17 21.75,-12.95 30.62,-17.67l337.91 -200.43c11.71,-8.22 52.16,-25.83 56.13,-38.02 4.02,-10.59 -0.5,-3.9 7.79,-9.88 7.08,-5.09 21.88,-8.72 32.59,-8.56 102.09,1.49 745.3,4.72 767.87,-0.67l-0.54 -29.7c-26.63,-7.17 -759.27,3.13 -776.95,-3.52 -26.82,-10.07 -15.52,-4.7 -43.1,9.15 -5.54,2.78 -8.06,4.88 -12.26,7.27l-65.29 37.02c-32.91,25.07 -89.67,51.12 -125.24,74.59 -9.89,6.52 -17.14,9.48 -27.75,14.89 -10.32,5.27 -13.52,11.83 -24.4,17.95 -11.27,6.33 -17.71,8.96 -27.36,15.4l-41.69 24.21c-2.13,1.39 -4.31,2.77 -8,3.33 -4.99,0.75 -5.01,-0.14 -7.09,-0.88 -3.55,-9.44 -4.15,-341.13 -2.41,-409.02 0.26,-10.39 2.76,-14.58 2.53,-22.66 -31.11,-0.14 -67.41,12.17 -99.33,7.71z"/>
  <path class="fil5" d="M4595.82 5345.14l3.05 56.11 -55.2 -1.07c4.21,1.77 -0.31,2.68 4.36,-3.31 7.37,-9.45 39.57,-51.54 47.79,-51.73zm-591.88 125.92l262 48.71c18.84,2.67 32.9,7.19 50.03,9.55 30.43,4.2 70.19,17.47 102.42,16.04 21.52,-29.14 64.82,-71.45 89.57,-103.74 27.54,-35.91 31.83,-31.45 67.04,-30.95 32.2,0.45 64.61,0.61 96.82,0.66 53.45,0.08 360.22,9.94 379.9,4.92 0.12,-10.75 -4.27,-15.14 -13.23,-29.71l-8 -15.39c-1.52,-3.3 -5.8,-9.81 -8.5,-13.48l-86.07 -135.63c-4.12,-5.53 -5.86,-7.53 -8.29,-13.45l-5.45 -15.65c-54.2,-4.83 -146.39,-2.02 -207.82,-2.44 -19.09,-0.14 -17.74,-3.5 -33.75,-4.36 -27.07,-1.45 -56.51,-0.17 -83.97,-0.78 -11.01,25.78 3.7,115.16 -2.34,152.17l-176.58 -36.66c-13.37,-2.27 -9.22,-2.27 -19.02,-5.49l-155.38 -33.73c-18.38,-3.26 -37.52,23.04 -58.76,44.45l-120.03 121.86c-9.78,8.29 -34.09,30.92 -39.08,40.83l-21.49 2.25z"/>
  <path class="fil5" d="M5413.74 4136.94c23.96,5.69 50.53,-10.55 78.87,-6.48l0.07 612.29c-83.52,3.02 -139.29,-39.93 -166.7,-49.1 -10.06,-3.36 -32.46,-22.54 -36.29,-33.27l-11.2 1.04c6,11.41 16.7,19.26 27.32,27.94 10.11,8.28 20.04,12.95 32.19,19.36 27.94,14.76 40.43,20.52 72.07,30.36 28.33,8.8 57.42,12.59 90.35,11.77 21.07,-0.51 71.48,-7.56 89.13,-13.48 30.2,-10.13 59.84,-26.58 86.65,-43.94 16.7,-10.8 64.82,-60.42 76.62,-77.02l18.72 -32.23c0.99,-2.24 1.48,-4.26 2.53,-6.17l2.32 -3.66c17.6,-23.72 6.61,-14.29 17.69,-44.85 18.61,-51.3 17.81,-131.48 2.02,-182.78 -22.41,-72.79 -11.57,-25.06 -22.43,-54.84 -9.86,-27.05 -23.1,-39.28 -41.4,-60.1 -23.23,-26.42 -14.62,-13.69 -26.22,-25.03l-26.88 -24.19c-17.96,-15.81 -69.99,-35.11 -85.67,-42.73l-40.87 -10.53c-33.71,-8.26 -84.51,-7.05 -118.13,0.2l-20.77 7.46z"/>
  <path class="fil5" d="M2978.88 4191.23c15.7,-4.52 79.67,-45.57 112.28,-50.54 19.84,-3.03 59.55,-13.98 78.43,-10.23l0.59 153.77c0,121.52 -2.46,265.67 -0.09,384.42 0.36,18.29 2.24,55.79 -0.34,72.07 -17.96,5.05 -46.06,-0.73 -63.51,-4.53 -44.24,-9.6 -23.23,-6.8 -39.58,-11.84 -9.21,-2.84 -7.99,-2.24 -17.07,-2.13 4.94,7.68 8.45,7.75 18.69,12.44 12.1,5.54 48.64,12.24 62.26,14.16 37.35,5.25 106.49,-1.03 136.86,-12.85 43.26,-16.83 80.33,-37.21 112.89,-68.8 15.19,-14.74 19.19,-15.31 36.94,-40.06 50.64,-70.61 76.47,-149.73 59.32,-243.38 -8.94,-48.76 -36.45,-110.18 -64.32,-144.1 -18.9,-23.01 -55.82,-58.84 -82.31,-71.32 -9.55,-4.49 -8.24,-6.38 -15.03,-10.41l-55.97 -23.16c-12.48,-3.53 -29.61,-6.17 -42.59,-8.96 -25.1,-5.42 -69.5,-4.55 -95.15,0.39 -60.15,11.57 -65.02,16.36 -113.18,40.54 -15.83,7.95 -24.63,12.93 -29.11,24.53z"/>
  <path class="fil3" d="M2978.88 4191.23c-13.13,2.99 -47.89,39.64 -55.92,49.73 -25.85,32.47 -22.61,33.37 -40.43,64.84 -12.47,22 -17.85,67.34 -22.08,84.21 -13.16,52.53 -1.3,134.27 24.39,184.05 13.61,26.34 23.17,38.78 41.78,63 26.91,35.02 47.15,43.97 72.79,61.31 5.32,3.6 31.1,28.4 50.17,23.85 9.08,-0.1 7.86,-0.7 17.07,2.13 16.35,5.04 -4.66,2.24 39.58,11.84 17.46,3.8 45.55,9.58 63.51,4.53 2.58,-16.28 0.7,-53.78 0.34,-72.07 -2.37,-118.75 0.09,-262.9 0.09,-384.42l-0.59 -153.77c-18.87,-3.76 -58.59,7.2 -78.43,10.23 -32.61,4.97 -96.58,46.02 -112.28,50.54z"/>
  <path class="fil3" d="M5413.74 4136.94c-14.81,-2.53 -28.98,7.43 -39.85,11.84l-53.97 28.73c-18.32,12.06 -28.59,23.88 -43.87,35.87 -9.22,7.23 -17.5,19.53 -25.53,28.8 -13.41,15.48 -34.55,50.49 -41.63,66.88 -30.78,71.12 -37.45,147.53 -12.41,221.85 3.14,9.34 10.06,32.44 14.31,40.27 10.15,18.75 47.62,84.41 67.71,90.24l11.2 -1.04c3.83,10.73 26.23,29.91 36.29,33.27 27.41,9.18 83.18,52.12 166.7,49.1l-0.07 -612.29c-28.34,-4.07 -54.91,12.17 -78.87,6.48z"/>
  <path class="fil3" d="M4003.94 5471.06l21.49 -2.25c4.99,-9.91 29.3,-32.55 39.08,-40.83l120.03 -121.86c21.24,-21.41 40.38,-47.71 58.76,-44.45l155.38 33.73c9.8,3.22 5.64,3.22 19.02,5.49l176.58 36.66c6.04,-37.02 -8.66,-126.4 2.34,-152.17 -7.99,-3.46 -156.31,-4.47 -181.89,-7.88l-141.56 -3.39c-8.61,-0.14 -17.25,-0.32 -25.84,-0.44 -10.41,-0.17 -12.48,-2.02 -18.76,2.68 -9.5,-1.4 -2.83,-2.36 -5.91,2.55 -13.35,21.33 -4.33,70.27 -32.13,71.24 -1.9,0.07 -11.15,-1.25 -13.26,-1.76 -6.06,-1.44 -13.21,-4.59 -20.96,-6.73 -13.27,-3.66 -30.34,-4.7 -47.07,-7.95l-136.9 -30.32c-62.35,-10.7 -36.58,-24.83 -115.29,25.99l-201.75 128.51c-9.73,6.11 -24.06,17.58 -32.41,21.83 -12.56,6.38 -26.36,11.8 -29.86,23.11 9.73,3.74 40.74,5.93 54.62,8.53l150.52 28.07c19.06,2.71 35.37,4.81 53.47,7.69 16.65,2.65 31.03,7.91 48.58,10.39 17.76,2.53 94.86,16.47 103.74,13.58z"/>
  <path class="fil3" d="M5413.64 4780.48l-10.31 1.1c-3.99,0.59 -6.09,0.92 -9.93,1.81 -7.64,1.78 -12.41,3.75 -19.74,5.93 -56.32,16.76 -45.61,17 -86.22,36.42 -18.81,8.98 1.03,2.55 -26.42,15.95l-44.57 29.98c-9.13,6.37 -35.68,30 -43.91,41.34 -0.43,0.6 -1.77,2.55 -2.06,2.97l-1.82 2.86 -10.56 21.61c-5.76,9 -8.39,8.78 -16.14,18.9 -20,26.13 -17.1,33.75 -23.56,38.1 20.29,1.32 9.91,1.88 24.56,8.55 15.86,7.22 10.8,6.19 23.19,14.37l115.8 68.91c7.82,4.77 13.2,7.58 23.2,13.77 12.38,7.67 11.7,5.8 23.93,10.78 15.32,6.25 -1.92,4.37 33.02,20.83l104.7 63.33c9.01,6.82 11.04,11.87 25.03,11.62 7.41,-57.44 -7.46,-405.75 3.58,-435.48 -27.7,-2.92 -54.27,12.77 -81.77,6.35z"/>
  <path class="fil6" d="M4871.67 4035.96c-5.72,-6.88 6.17,-2.48 -11.8,-5.28l-179.52 0.16c-22.28,0 -220.7,6.1 -234.86,-4.44 -29.85,-22.25 -15.59,-6.21 -26.75,-21.78 -19.34,-27.02 -15.57,-38.49 -15.75,-79.17l0.01 -384.42c0,-39.18 -6.92,-157.59 9.63,-182.16 5.04,-7.47 4.7,-8.47 9.09,-16.58 5.44,-10.08 -0.05,-5.9 12.82,-10.64 12.2,-4.49 25.31,-8.65 40.67,-8.7l956.88 0.92c29.87,-0.7 65.92,-2.67 81.95,13.03 18.6,18.21 25.58,34.15 26.74,70.19 1.98,61.7 1.98,553.4 -2.79,570.43 -10.52,37.57 -26.02,34.59 -31.99,39.09 -9.1,6.86 0.6,3.76 -8.42,13.26l-330.31 0.54c-20.18,0 -93.37,-5.68 -104.17,4.48 -11.59,12.87 14.47,75.96 16.73,115.56 1.07,18.66 24.13,100.67 19.1,110.22l-36.39 -34.09c-5.44,-5.32 -4.51,-5.44 -8,-9.57 -5.66,-6.7 -5.63,-4.87 -8.86,-8.16 -8.41,-8.54 -1.83,-8.39 -14.6,-18.82 -10.85,-8.85 -25.68,-24.84 -36.25,-35.22l-37.07 -33.36c6.46,19.63 9.94,20.87 33.06,42.99l46.24 47.52c5.42,3.79 1.01,0 5.49,3.03 5.41,3.65 2.54,0.75 6.3,5.67l15.39 21.67c9.3,11.7 8.69,3.99 18.81,18.47 5.72,8.19 10.27,14.97 18.74,19.45 21,-7.47 4.21,-38.45 1.45,-52.98 -6.19,-32.61 -35.32,-178.56 -33.4,-190.81 37.39,-9.59 404.81,7.32 441.27,-4.52 8.19,-2.66 7.61,-5.45 13.35,-11.25 14.16,-14.31 12.52,-10.84 23.14,-33.45 3.86,-8.23 2.81,-14.88 2.68,-24.72l-0.38 -333.25c0,-29.61 3.31,-256.66 -3.19,-272.08l-7.58 -11.51c-23.78,-29.72 -13.12,-14.52 -34.8,-27.35 -18.42,-10.91 -45.52,-6.85 -77.92,-6.72l-971.06 0.27c-7.02,0.77 -29.68,12.02 -34.73,18.45 -4.96,6.33 0.54,1.22 -5.62,8.01 -12.94,14.29 -17.73,28.63 -18.14,54.49 -2.85,178.85 4.62,378.59 0.35,555.38 -2.54,104.9 72.85,87.08 137.94,87.09 88.97,0.01 267.02,-4.62 336.54,0.65z"/>
  <path class="fil3" d="M4595.82 5345.14c-8.23,0.2 -40.42,42.28 -47.79,51.73 -4.67,5.99 -0.14,5.07 -4.36,3.31l55.2 1.07 -3.05 -56.11z"/>
  <path class="fil7" d="M426.71 1461.33c0,-26 48.23,-19.73 87.71,-17.56 127.63,6.98 258.29,0.03 385.76,0.03 78.72,0 144.07,5.86 216.27,5.86l403.53 -6.06c38.74,0.06 60.64,6.18 105,6.06 72.45,-0.18 132.82,-5.86 210.45,-5.86l0 976.16c0,20.83 2.86,46.77 23.38,46.77l379.95 0c35.88,0 23.38,-70.29 23.38,-105.22 -0.04,-280.62 4.36,-588.32 -0.2,-865.31 -1.11,-66.95 -22.36,-52.4 181.4,-52.4 35,0 70.54,-0.67 105.45,-0.23 35.42,0.43 56.79,6.16 99.13,6.1 128.1,-0.18 269.49,-7.83 409.42,-6.1 35.42,0.43 56.79,6.16 99.13,6.1l315.65 -5.87c72.96,0 132.47,5.88 198.74,5.88 127,0 274.26,-7.85 415.25,-6.11 34.71,0.43 52.45,6.19 93.27,6.13l333.2 -5.9c67.23,0 120.92,5.92 181.21,5.92l327.33 -5.92c67.23,0 120.92,5.92 181.21,5.92 126.24,0 288.07,-10.26 426.9,-6.12 30.87,0.93 44.25,6.18 81.61,6.16 59,-0.04 109.77,-5.96 175.4,-5.96l339.03 5.92c60.29,0 113.98,-5.92 181.2,-5.92l210.43 0c49.49,0 74.38,5.85 122.75,5.85l0 999.55c0,13.47 4.07,17.54 17.54,17.54l385.79 0c20.52,0 23.38,-25.94 23.38,-46.77l0 -976.16c34.67,0.77 70.39,10.12 116.05,4.99l392.68 -5.19c103,3.08 37.43,6.66 157.61,0.17l368.31 0c82.89,4.48 11.2,9.11 117.18,0.33l256.89 -0.3 0 6926.69 -8148.35 0 0 -6909.15zm1408.72 -1414.56l0 976.16 -222.15 0.03c-61.26,-3.31 -51.79,-5.75 -117.18,-0.33l-391.36 0.33c-61.26,-3.31 -51.79,-5.75 -117.18,-0.33 -65.26,5.4 -306.89,2.85 -385.68,0.5 -28.72,-0.86 -29.35,-5.28 -58.15,-6.31l-237.64 8.24 -181.98 98.6 -90.49 114.09c-12.71,23.17 -33.62,87.39 -33.62,112.52l0 7119.58c0,31.59 5.5,43.79 16.23,65.61l30.9 68.47c18.31,34.77 39.3,57.87 69.04,82.94 44.2,37.24 53.05,40.6 99.13,70.38 22.36,14.45 37.01,10.77 60.17,21.66 24.12,11.34 33.08,18.28 69.4,18.28l8312.03 0c44.34,0 58.14,-17.47 95.88,-26.87 35.87,-8.93 79.36,-36.91 108.08,-61.44 0.91,-0.79 2.15,-1.99 3.05,-2.79 0.9,-0.8 2.11,-2.03 3,-2.84l27.52 -25.09c0.86,-0.85 2.05,-2.11 2.89,-2.95 39.33,-39.12 33.51,-43.95 59.61,-80.68 22.32,-31.41 44.83,-84.42 44.83,-124.68l0 -7113.74c0,-40.59 -11.75,-60.21 -23.2,-93.71 -20.55,-60.08 -69.31,-116.44 -120.01,-154.72 -30.06,-22.7 -66.65,-49.57 -103.49,-60.18 -32.5,-9.36 -32.94,-20.6 -57.68,-24.16 -135.69,-19.55 -338.25,17.14 -475.51,-3.81l-482.72 3.41c-61.26,-3.31 -51.79,-5.75 -117.19,-0.33 -84.79,7.02 -274.33,0.3 -367.95,0.3 -38.88,0 -50.59,-5.85 -87.68,-5.85l0 -993.7c0,-13.69 -9.7,-23.38 -23.38,-23.38l-379.95 0c-38.85,0 -23.38,100.76 -23.38,128.6l0 789.12c0.01,99.23 17.22,111.36 -48.16,101.16 -25.76,-4.02 -47.82,-1.97 -71.21,1.58 -49.44,7.51 -347.98,5.99 -412.58,2.5 -61.26,-3.31 -51.79,-5.75 -117.19,-0.33l-391.35 0.33c-61.26,-3.31 -51.79,-5.75 -117.19,-0.33l-391.35 0.33c-61.26,-3.31 -51.79,-5.75 -117.19,-0.33l-397.2 0.33c-61.26,-3.31 -51.79,-5.75 -117.19,-0.33l-391.35 0.33c-61.26,-3.31 -51.79,-5.75 -117.19,-0.33l-391.35 0.33c-61.26,-3.31 -51.79,-5.75 -117.19,-0.33l-397.2 0.33c-61.26,-3.31 -51.79,-5.75 -117.18,-0.33l-391.36 0.33c-60.52,-3.27 -59.06,-5.63 -123.03,-0.33 -76.73,6.35 -156.62,0.3 -233.5,0.3 -31.08,0 -17.54,-86.98 -17.54,-111.06l0 -800.81c0,-35.54 13.01,-111.06 -23.38,-111.06l-379.95 0c-20.52,0 -23.38,25.94 -23.38,46.77z"/>
 </g>
</svg>
